<svg width="512" height="512" viewBox="0 0 512 512" fill="none" xmlns="http://www.w3.org/2000/svg">
<rect width="512" height="512" rx="22.7556" fill="#5D89B4"/>
<path d="M193.912 443.791L334.224 465.134L193.912 486.4V443.791Z" fill="#DFCAA3"/>
<path d="M398.792 209.851C399.304 184.739 395.632 159.716 387.927 135.81C381.67 116.622 371.376 98.9966 357.738 84.1201C345.01 70.9699 329.459 60.8851 312.261 54.6276C294.173 47.9862 275.032 44.6732 255.764 44.8485C236.649 44.6935 217.665 48.0068 199.732 54.6276C182.459 61.0707 166.899 71.4006 154.255 84.8186C140.617 99.6951 130.324 117.32 124.067 136.508C116.438 160.192 112.767 184.972 113.202 209.851C112.684 234.989 116.356 260.039 124.067 283.97C130.324 303.158 140.617 320.783 154.255 335.66C166.899 349.078 182.459 359.408 199.732 365.851C217.665 372.472 236.649 375.785 255.764 375.63C275.032 375.805 294.173 372.492 312.261 365.851C329.526 359.391 345.082 349.063 357.738 335.66C371.376 320.783 381.67 303.158 387.927 283.97C395.638 260.039 399.309 234.989 398.792 209.851ZM62.6027 209.851C62.2204 183.301 67.0453 156.933 76.8046 132.239C85.6832 110.236 99.2413 90.4265 116.539 74.1858C134.196 57.9806 155.055 45.6596 177.77 38.0187C228.607 21.4604 283.386 21.4604 334.224 38.0187C356.938 45.6596 377.798 57.9806 395.455 74.1858C412.752 90.4265 426.31 110.236 435.189 132.239C444.948 156.933 449.773 183.301 449.391 209.851C449.861 236.635 445.035 263.248 435.189 288.162C426.379 310.225 412.747 330.04 395.291 346.155C377.835 362.269 356.997 374.276 334.301 381.296C283.305 396.817 228.844 396.817 177.848 381.296C155.152 374.276 134.314 362.269 116.858 346.155C99.4014 330.04 85.7695 310.225 76.9598 288.162C67.0612 263.259 62.1819 236.646 62.6027 209.851Z" fill="#DFCAA3"/>
</svg>
