<svg xmlns="http://www.w3.org/2000/svg" width="33" height="98" fill="none" viewBox="0 0 33 98"><path fill="#5d89b4" d="m14.34 5.093.096 6.534-.884 2.171c-.48 1.192-.98 2.71-1.095 3.363-.135.654-.289 1.442-.346 1.75l-.135.537-.596-.5c-1.153-.98-1.556-2.171-1.787-5.4a150 150 0 0 1-.23-6.15c0-1.806-.096-3.708-.173-4.227-.077-.538-.096 1.941-.02 5.477.077 3.536.116 7.553.077 8.917-.057 3.017.192 4.497.942 5.842l.576 1.038-.768-.615c-1.096-.884-1.691-1.845-2.018-3.267-.211-.961-1.288-8.244-1.903-12.972-.057-.365-.096-.211-.115.384-.038 1.692 1 9.36 1.922 14.164.576 2.998 1.172 5.054 1.787 6.284.5.941.23.96-.615.038-.384-.423-.826-.788-.942-.788-.307 0-.903-1.672-1.383-3.94-.692-3.285-1.71-9.108-2.056-11.818-.193-1.422-.366-2.479-.423-2.345-.23.711 1.576 11.973 2.479 15.509.327 1.268.71 2.96.865 3.747.365 1.96 1.153 4.65 1.614 5.573.211.423.327.77.25.77-.558 0-1.845-.904-2.153-1.52-.788-1.537-2.632-8.243-3.459-12.51-.941-4.804-1.23-6.15-1.307-6.072-.134.115.308 3.075.827 5.784.615 3.113 1.576 6.86 2.71 10.474 1.422 4.612 2.056 6.764 2.44 8.302.115.5.096.518-.365.345-.346-.134-.48-.115-.48.058 0 .615.96 4.824 1.23 5.362.422.845.403.845-.539.057-.826-.672-.864-.768-2.287-5.054-1.595-4.766-3.209-10.53-4.189-14.893-.346-1.557-.673-2.787-.711-2.73-.423.404 2.498 11.82 4.939 19.314 1.076 3.248 1.114 3.498.692 3.344-.173-.077-.289-.02-.289.135 0 .442 1.096 4.477 1.423 5.265.46 1.076.384 1.153-.48.462-.635-.5-1.058-1.173-2.115-3.287-.71-1.46-1.499-3.19-1.749-3.843-.23-.654-.442-1.096-.48-.98-.096.288.96 3.055 2.23 5.784.614 1.345 1.306 3.113 1.537 3.94.557 2.056 1.652 4.727 2.171 5.285.404.422.346.403-.538-.135a8.5 8.5 0 0 1-3.113-3.42C4.27 52.347 2.77 48.62 1.599 45.16.926 43.2.389 41.701.389 41.835c-.02.366 2.017 6.554 2.959 9.014a119 119 0 0 0 1.94 4.535 59 59 0 0 1 2 5.15c.499 1.537.98 2.96 1.056 3.152.288.692-1.98-1.23-2.556-2.153-1.518-2.46-3.094-5.9-4.689-10.416-1.172-3.286-1-2.21.27 1.615 1.037 3.113 2.67 6.937 3.727 8.705.404.654.961 2.133 1.442 3.786 1.345 4.67 2.421 6.342 5.054 7.783l1.422.769-.173.73c-.27 1.192-.211 1.537.461 2.287l.615.711.096 9.244c.077 6.745.135 8.801.27 7.61.076-.904.172-5.228.191-9.59l.02-7.937-.52-.442c-.422-.365-.537-.634-.537-1.268v-.826l.538.519c.5.48 1.383.71 1.383.346 0-.212 1.538-2.556 1.96-2.96.404-.423.539-.404.539 0 0 1.134-.923 2.729-1.403 2.421q-.174-.086-.058.116c.212.346-.269.807-.672.692-.289-.097-.366-.02-.366.288 0 .23-.076.365-.173.288-.269-.154-.192 1.115.058 1.288.135.096.115.153-.058.153-.192 0-.21.058-.038.27.154.192.173.307.02.403-.135.077-.097.211.095.403.327.346.385.654.096.654-.096 0-.192.096-.192.211 0 .096.096.135.192.077.116-.058.193.058.193.288 0 .25-.077.366-.231.27q-.202-.145-.058.115c.289.461.327 1.21.385 7.014.038 3.171.096 6.15.115 6.63l.038.865.135-.673c.096-.46.154-.019.173 1.384.02 2.748.327 2.806.692.154.211-1.48 1.057-5.189 1.672-7.303 1.172-4.093 1.94-5.304 6.36-10.185 2.576-2.806 5.247-7.38 6.362-10.781.922-2.864 1.652-7.072 1.768-10.128.076-2.075.038-2.728-.116-2.498-.115.173-.269.692-.365 1.153s-.48 1.941-.845 3.325c-1.826 6.707-3.863 10.492-8.13 15.085-1.018 1.115-2.229 2.518-2.69 3.133-1.076 1.441-2.786 4.958-3.632 7.38l-.634 1.883-.077-5.074-.058-5.073.827-1.172c.922-1.307 1.21-2.153 1.057-3.056-.096-.576-.02-.653 1.095-1.384 2.152-1.383 3.325-3.382 4.132-6.995.346-1.556.788-2.786 1.537-4.324 1.172-2.402 2.518-6.053 3.46-9.34 1.037-3.67.941-3.747-.27-.191-1.499 4.477-1.94 5.611-3.363 8.551-1.172 2.44-1.556 2.94-2.671 3.651l-.557.346.596-.922c.73-1.172 1.249-2.729 1.729-5.285.25-1.383.653-2.652 1.25-4.016 1.23-2.787 2.305-5.746 3.074-8.513.788-2.825 1.537-6.112 1.422-6.227-.058-.038-.192.423-.327 1.019-.75 3.324-3.401 11.184-4.343 12.837-.672 1.172-2.229 3.228-2.344 3.094-.058-.058-.02-.212.096-.365.269-.327.922-2.768 1.172-4.363.115-.692.596-2.21 1.057-3.382.846-2.095 2.114-6.226 2.69-8.744.366-1.595.942-5.996.846-6.457-.038-.192-.192.557-.327 1.672-.48 3.978-1.556 8.052-3.075 11.78-1.018 2.518-1.575 3.421-2.652 4.343-.903.77-1.364.923-.768.25.557-.596.922-1.749 1.576-4.92.365-1.71.884-3.708 1.153-4.439 1.249-3.267 3.132-10.454 3.766-14.297.404-2.422.385-3.44-.019-1.422-1.134 5.669-2.729 11.741-3.843 14.643-.558 1.442-1.71 3.056-2.48 3.46-.269.153-.25-.058.193-1.365.288-.846.615-2.402.73-3.479.23-1.94.346-2.613.884-4.458.442-1.48.807-3.824 1.345-8.552.27-2.383.615-5.284.769-6.437.154-1.173.269-2.499.25-2.98-.02-.614-.039-.691-.096-.288-.039.308-.289 1.922-.538 3.556-.25 1.633-.635 4.67-.865 6.726-.692 6.65-1.23 8.801-2.498 10.147-.827.864-1.096 1.018-.77.442.443-.827.808-3.344.885-5.958.058-1.672.23-3.536.461-4.708.404-2.037 1.557-9.955 1.922-13.298.423-3.613.096-2.71-.442 1.268-.827 6.15-1.46 10.128-1.883 11.915-.366 1.556-1.807 4.766-2.422 5.38-.192.193-.154.02.096-.48.75-1.518 1.384-4.631 1.403-6.957 0-.5.135-1.902.288-3.074.558-4.478 1.038-11.838.788-12.107-.077-.058-.134.25-.134.691 0 1.48-.788 9.302-1.173 11.742-.307 1.941-.5 2.575-.941 3.267-.327.48-.577.827-.577.769s.135-.711.289-1.441c.25-1.173.269-2.249.057-8.494-.115-3.94-.269-7.11-.326-7.053-.058.057-.116 2.248-.116 4.862v4.746l-.672 1.096c-.366.615-.865 1.288-1.077 1.499l-.422.384-.135-1.403a13.9 13.9 0 0 0-1.653-5.284c-.75-1.346-.75-1.403-.71-3.171.038-1.941-.174-6.707-.423-9.475-.096-1.056-.116.846-.058 4.805m1.326 9.743c.653 1.403.75 1.806.807 3.325.058 1.23 0 1.921-.192 2.402-.288.672-.288.653-.25-.769.02-.788-.02-1.787-.096-2.21-.096-.576-.154-.346-.173 1 0 .96-.135 1.998-.25 2.306-.23.5-.25.403-.346-1.096-.077-.903-.154-1.326-.192-.96-.038.364-.077.749-.096.864-.038.096-.077.75-.096 1.441-.039.692-.096 1.019-.135.711-.038-.288-.134-.519-.211-.519s-.134-.653-.134-1.46c0-.788-.058-1.499-.135-1.537-.154-.096-.25 1.114-.192 2.517.038.73.019.75-.192.288-.135-.269-.365-.576-.538-.71-.212-.174-.289-.596-.27-1.846.02-1.44.097-1.787.692-3.036.385-.788.75-1.614.807-1.864.077-.23.212-.423.289-.423s.48.711.903 1.576m-3.613 5.439c.922.845 1.403 1.672 1.768 2.978.711 2.518.519 3.017-.403 1.096-.308-.654-.75-1.403-.961-1.672-.308-.385-.289-.288.115.519.634 1.326 1.307 3.132 1.191 3.247-.038.058-.23-.23-.422-.634-.193-.403-.75-1.384-1.23-2.171-1.288-2.153-2.133-3.978-2.133-4.651v-.615l.634.557c.326.327.98.923 1.441 1.346m7.38-.442c0 .672-.097 1.69-.212 2.267-.346 1.73-1.268 3.67-1.038 2.153.077-.404.039-.462-.115-.231-.115.154-.211.5-.211.769-.02.48-.558 1.633-.577 1.191 0-.326-.384-.288-.384.039 0 .269-.73 1.652-.865 1.652-.192 0 .384-1.306 1.518-3.516 1.25-2.441 1.46-3.018 1.076-3.018-.096 0-.192.192-.192.423 0 .25-.346 1.038-.75 1.787-.422.73-1.075 1.98-1.479 2.73-.404.768-.807 1.402-.884 1.402s-.154-.557-.154-1.249c0-1.384.558-3.113 1.46-4.535.539-.884 2.614-3.267 2.73-3.152.038.038.076.615.076 1.288m-8.879 1.46c.135.384.423 1.019.653 1.384 1.173 1.825 1.653 2.767 1.576 2.96-.057.114-.153.018-.211-.212-.077-.25-.211-.404-.288-.346-.096.058-.231-.077-.289-.308-.096-.307-.173-.346-.288-.172-.115.172-.23.096-.442-.308-.384-.788-1.287-3.305-1.287-3.651 0-.5.345-.116.576.653m.135 3.748c2.383 1.614 3.536 3.286 3.824 5.515.134 1.172-.115 1.172-.48 0l-.212-.673.077.673c.038.365.134.845.192 1.057.077.211-.115-.116-.423-.711-.634-1.307-.98-1.71-.538-.654.173.404.25.807.192.904s0 .173.097.173c.115 0 .21.076.21.192 0 .096-.057.192-.134.192-.23-.02-2.037-1.73-1.825-1.73.096 0 .326.173.519.385.365.403.672.5.672.23 0-.096-.211-.269-.48-.384-.27-.134-.846-.788-1.269-1.48-.826-1.306-1.057-1.537-.845-.826.096.288.077.365-.039.25-.192-.192-1.037-2.69-1.287-3.805-.154-.634-.27-.673 1.749.692m9.474 1.499c-.423 2.075-1.269 3.958-1.71 3.862-.174-.038-.212.058-.135.25.058.173.038.25-.077.192-.096-.058-.307.192-.48.557s-.48.808-.673.98c-.365.327-.365.308-.192-.307.23-.788.23-.788.038-.672-.096.057-.326.614-.519 1.268-.192.634-.422 1.153-.518 1.153s-.135.077-.077.154c.038.077 0 .269-.116.422-.153.231-.173.231-.077-.057.058-.173.039-.327-.057-.327-.077 0-.173-.634-.192-1.403-.039-2.075.75-3.574 3.728-7.014.75-.846 1.364-1.441 1.403-1.307s-.135 1.153-.346 2.249m-5.765-.366c0 .308-.058.366-.212.212-.115-.116-.154-.308-.096-.423.212-.327.308-.25.308.211M11.15 29.5c.134.25.019.192-.288-.154-.27-.288-.5-.634-.5-.768.02-.25.5.307.788.922m-.865.673a12.5 12.5 0 0 1 1.864 1.364c.942.826 2.249 2.921 2.306 3.67 0 .25.096.5.192.558.077.057.096.365.02.672l-.135.558-.365-.769c-.23-.48-.327-.596-.27-.288l.097.48-.365-.48c-.211-.27-.384-.538-.384-.634 0-.25-.98-1.71-1.077-1.615-.057.039.173.538.48 1.076.77 1.288 1.212 2.134 1.096 2.134-.038 0-.442-.5-.903-1.115a30 30 0 0 0-.96-1.191c-.155-.135-2.345-3.44-2.768-4.17-.192-.346-.404-.577-.48-.539-.058.039-.116-.077-.116-.25-.02-.172-.096-.5-.173-.71-.134-.289-.038-.25.404.153.307.288.999.788 1.537 1.096m11.338-1.192c-.096.288-.269 2.23-.346 3.786-.019.5-.653 2.671-.941 3.21-.27.48-1.134 1.383-1.23 1.268-.039-.039.192-.48.519-1 .5-.75.576-.98.384-1.268-.173-.288-.096-.615.461-1.73.365-.768.634-1.48.596-1.614-.058-.115-.192.038-.307.365-.135.308-.442 1-.692 1.5-.327.672-.423 1.114-.346 1.594.077.5.019.769-.27 1.096-.23.23-.537.691-.691 1.018-.173.346-.596.846-.942 1.134-.346.307-.615.615-.596.692s-.076.23-.23.365c-.23.192-.25.134-.115-.346.096-.307.269-.75.384-.98.134-.212.173-.404.134-.404-.057 0 .077-.403.289-.884.211-.5.326-.941.288-.999-.058-.058-.192.154-.308.442-.826 2.172-1.44 3.42-1.498 3.036-.039-.23.038-.615.153-.826.27-.48.154-.711-.153-.327-.25.289-.327 1.153-.173 1.807.057.25.038.442-.039.442-.557 0-.519-2.46.058-4.113.615-1.73 1.537-3.055 3.267-4.593.865-.768 1.595-1.633 1.845-2.152.422-.865.692-1.153.5-.519M10.44 33.15c.269.346.5.788.5.942 0 .173.115.307.25.327.23 0 2.152 2.479 1.921 2.479-.173 0-1.46-1.384-2.114-2.249a15 15 0 0 0-.884-1.114c-.5-.538-1.21-1.999-1.364-2.787-.116-.576-.039-.5.538.538.365.673.884 1.5 1.153 1.864m3.709-.634c-.058.154-.116.096-.116-.115-.019-.212.039-.327.097-.25.057.058.076.23.019.365m-3.46 2.402c.366.462.577.827.481.827-.307 0-1.364-1.307-1.672-2.057-.403-.941-.365-1.037.115-.25.231.366.711 1.038 1.077 1.48m.616 1.941c1.402.673 2.248 1.576 2.959 3.075.48 1.038.596 1.537.634 2.806.02.864 0 1.23-.057.826-.039-.384-.154-.672-.25-.615s-.23-.077-.288-.307c-.27-.846-3.075-4.363-3.306-4.132-.058.038.096.288.327.538.692.73 2.037 2.69 2.479 3.613l.423.865-.442-.48c-.25-.27-.692-.827-1.019-1.23-.75-.98-1.018-1.23-1.48-1.48-.211-.116-.326-.327-.269-.48.058-.155.02-.27-.057-.27-.096 0-.75-.884-1.442-1.96-.691-1.096-1.268-1.903-1.268-1.806 0 .268 1.73 3.324 2.018 3.574.154.134.288.442.288.71 0 .25.077.404.192.347.096-.058.135 0 .077.154-.058.153.039.384.211.519.25.21.27.192.173-.077-.076-.173-.019-.308.116-.308.134 0 .192.154.134.385a.63.63 0 0 0 .212.614c.25.212.288.193.173-.096-.096-.25-.058-.326.096-.269.134.039.23.212.23.385-.019.173.039.288.116.23.115-.077.96.904.96 1.153 0 .058-.518-.307-1.152-.807-.77-.596-1.519-1.422-2.191-2.44-1.038-1.576-2.153-4.151-1.826-4.151.115 0 .154-.077.077-.193-.115-.192 1.422.442 3.152 1.307m10.857.461c-.192 2.556-1.037 4.978-2.056 5.862-.442.403-.442.365.461-1.384.73-1.422 1.23-2.748 1.076-2.902-.038-.038-.268.423-.48 1.019-.48 1.326-2.056 3.766-2.94 4.574-.558.518-.596.518-.308.096.173-.27.692-1.096 1.115-1.826.442-.75 1-1.653 1.23-2.018.48-.807 1.48-3.094 1.383-3.19-.038-.038-.268.384-.538.942-.25.538-.5 1.037-.557 1.095s-.307.48-.557.96c-.365.674-2.518 4.171-2.844 4.594-.039.038-.116.038-.173-.039-.058-.057.25-.826.672-1.71.865-1.749.5-1.403-.519.48-.614 1.154-.634 1.173-.538.462.058-.385.02-.711-.057-.711-.212 0-.404.999-.404 2.171 0 .538-.057.904-.134.846-.058-.077-.116-.788-.097-1.557.058-2.652 1.269-5.13 3.267-6.745 1.326-1.057 2.98-2.364 3.056-2.383.02-.02 0 .615-.058 1.364m-8.148-.115c0 .154-.365.25-.461.115-.058-.096.02-.172.173-.172.154 0 .288.038.288.057m-4.42 2.767c.212.423.346.77.288.77-.115 0-.864-1.192-.864-1.404 0-.307.211-.096.576.634m1.441 2.576c1.019.73 2.095 1.652 2.403 2.037.941 1.191 1.537 2.67 1.518 3.747l-.02.96-.153-.768a8.5 8.5 0 0 0-.48-1.441c-.327-.711-.327-.673.019.903l.115.538-.327-.576c-.422-.769-1.575-2.23-2.882-3.652-.577-.634-1.057-1.21-1.057-1.306 0-.077-.096-.135-.212-.135-.211 0 .25.692 1.173 1.73.672.75 2.114 2.786 2.114 2.978 0 .077.173.385.403.711.23.308.365.596.327.634-.096.097-3.037-2.863-3.037-3.036 0-.057-.346-.653-.768-1.345-.615-1.038-1.73-3.42-1.73-3.747 0-.039.173.038.365.172.212.154 1.211.865 2.23 1.596m1.442 5.553c.941.942 1.73 1.75 1.73 1.807s-.52-.365-1.173-.942c-.653-.557-1.537-1.287-1.98-1.614-.883-.653-1.652-1.941-2.113-3.517-.538-1.845-.327-1.71.75.442.922 1.845 1.268 2.325 2.786 3.824m9.993-5.111a21 21 0 0 0-1.749 2.748c-.23.422-.48.71-.576.653-.096-.058-.173.058-.173.23 0 .327-.635 1.269-1.46 2.172-.25.25-.635.846-.866 1.307-.615 1.191-.768 1.191-.442.02.365-1.384.173-1.404-.211-.02-.192.615-.442 1.364-.596 1.691-.269.577-.269.577-.173-.288.058-.48.154-1.134.192-1.441.058-.462.02-.423-.192.192-.134.422-.269 1.057-.269 1.403-.02.346-.096.595-.173.538-.346-.212-.077-2.191.52-3.728.806-2.057 1.806-3.133 4.438-4.728 1.115-.673 2.057-1.25 2.076-1.25.038-.018-.116.212-.346.5m-.884 2.767c-.384.884-.923 1.94-1.172 2.344-.5.788-1.922 2.249-2.191 2.249-.096 0-.173.134-.173.307s.096.23.23.154c.135-.096.154-.058.077.096a.39.39 0 0 1-.442.135c-.153-.058-.23-.039-.153.057.057.096-.154.365-.48.596-.308.23-.577.327-.577.211 0-.096.096-.25.192-.307.115-.077.48-.577.845-1.115a14.6 14.6 0 0 1 1.326-1.768c.385-.422 1.23-1.652 1.884-2.748.653-1.076 1.23-1.94 1.268-1.883.038.038-.25.788-.634 1.672m.692.154c-.5 1.806-1.807 3.862-2.921 4.573-.404.25-.73.365-.73.25s.23-.346.537-.519c.712-.403 2.191-2.767 2.845-4.554.307-.788.576-1.403.615-1.365.038.039-.116.75-.346 1.615M9.75 47.466c2.44 1.614 3.959 3.094 4.631 4.459.442.941.807 3.094.558 3.459-.096.173-.154.134-.154-.154 0-.23-.135-.73-.288-1.115-.154-.384-.25-.691-.192-.691s-.058-.193-.289-.423c-.211-.23-.384-.5-.384-.596s-.25-.48-.577-.846c-.307-.345-.576-.557-.576-.442 0 .097.173.366.384.577.519.519 1.192 1.883 1.115 2.268-.039.23-.192.115-.5-.404-.25-.384-.519-.672-.615-.615-.173.115.961 1.999 1.21 2.018.097 0 .097-.096.04-.192-.058-.116-.02-.192.076-.192.116 0 .212.173.212.384 0 .538-.423.288-1.595-.942a22.5 22.5 0 0 1-3.633-5.112c-1.326-2.555-1.595-2.767-.615-.48.884 2.037 1.5 3.133 2.345 4.074.25.27.404.596.346.711-.077.135-.02.154.154.096.173-.057.307-.038.307.058s.404.596.923 1.134c1.48 1.537 2.037 2.479.653 1.095-.673-.672-1.614-1.48-2.114-1.806-1.21-.827-1.94-1.5-2.268-2.133-.46-.884-.307-.846.27.057.595.923 1.133 1.442 1.306 1.269.058-.058-.077-.308-.307-.558-.25-.25-.673-.807-.961-1.268-.327-.48-.577-.73-.634-.577-.039.135-.096.039-.096-.23 0-.27-.212-1.096-.48-1.826-.52-1.441-.808-2.594-.654-2.594.057 0 1.134.692 2.402 1.537m13.567 1.768c-.518.884-2.094 3.152-2.229 3.19-.077.039-.154.193-.154.327s-.057.288-.153.327c-.077.019-.827.884-1.653 1.883-.846 1-1.595 1.806-1.691 1.787-.077-.038-.077.096-.02.27.078.172.04.268-.057.21-.096-.076-.346.212-.538.635-.211.403-.404.71-.442.672s.058-.595.211-1.23c.365-1.345.365-1.44.135-1.306-.096.077-.25.48-.327.941a18 18 0 0 1-.192.942c-.02.096-.038.327-.058.538-.038.577-.307.461-.365-.134-.077-.904.346-2.71.903-3.96.673-1.498 1.538-2.267 4.055-3.593 1.038-.538 2.037-1.153 2.23-1.364.384-.423.557-.48.345-.135m-.172 1.25c-.423.999-1.826 3.44-2.249 3.9-.192.193-.346.462-.346.577 0 .096-.096.173-.23.134-.135-.019-.25.039-.27.154-.096.52-.326 1.057-.46 1.057-.078 0-.404.23-.731.52-1.076 1.018-1.614 1.421-1.691 1.344-.096-.096.845-1.403 1.556-2.152.884-.96 3.133-3.901 3.863-5.112.384-.615.75-1.134.788-1.134s-.077.327-.23.711m-.77 2.786c-.499.98-1.921 2.652-2.248 2.652-.096 0 .077-.25.366-.538a10.8 10.8 0 0 0 1.825-2.46c.23-.461.461-.788.5-.75.057.039-.154.539-.442 1.096m-9.55 2.902c1.018.98 1.883 2.613 2.056 3.882.058.538.154 1.249.211 1.575.058.385.02.635-.115.635-.096 0-.192-.25-.192-.558 0-.864-.865-3.247-1.115-3.017-.057.058-.019.308.096.558.442.922.635 1.518.615 1.825 0 .173-.173-.038-.384-.5-.192-.46-.442-.787-.557-.71-.116.076-.039.403.192.883.211.404.365.75.327.75-.02 0-.404-.442-.808-1-.422-.557-.999-1.23-1.268-1.498-.634-.615-2.671-3.479-3.344-4.728-.634-1.134-.96-1.518-.692-.807.808 2.152 3.479 5.996 5.939 8.533.115.134.23.288.23.365s-.865-.673-1.921-1.653c-1.058-1-1.922-1.902-1.922-2.037s-.058-.25-.135-.25c-.134 0-.307-.25-1.21-1.825-.462-.827-1.173-2.768-1.269-3.498l-.077-.634 2.268 1.46c1.23.807 2.633 1.826 3.075 2.249m9.743 1.037c-1.23 2.48-1.422 2.768-3.113 4.42-1 .98-1.884 1.788-1.98 1.788s-.25.153-.365.326c-.307.577-.403.173-.096-.422.154-.308.27-.73.23-.942-.038-.288-.172-.154-.441.5-.462 1.095-.788 1.095-.73 0 .038-1.115 1.268-3.364 2.479-4.574.538-.519 1.864-1.557 2.92-2.268 1.077-.71 2.018-1.383 2.076-1.499.058-.096.173-.134.23-.077s-.48 1.307-1.21 2.748m.48.52c-.5 1.479-.999 2.498-1.287 2.67-.135.077-.25.25-.25.346 0 .116.096.135.23.058.135-.077.154-.058.078.096-.077.116-.212.173-.289.135-.077-.058-.346.115-.576.384-.23.27-.52.423-.634.346-.135-.077-.154-.058-.077.077.153.269-.462.922-1.076 1.095-.231.077-.558.23-.673.327-.173.134-.25.134-.25-.02 0-.115.077-.21.154-.21.173 0 1.98-1.73 2.537-2.422.653-.807 1.133-1.576 1.729-2.729.327-.653.634-1.191.673-1.191.038 0-.096.48-.289 1.037m-10.857 4.035c1.095.98 1.614 1.633 2.114 2.633.672 1.326 1.152 3.651.71 3.363-.134-.077-.23-.423-.23-.75 0-.653-.865-2.306-1.48-2.863-.269-.25-.154.096.365 1.191.404.846.73 1.615.73 1.692-.019.192-.749-.788-.768-1.019-.02-.173-.961-.98-.961-.807 0 .058.23.5.519 1.018l.5.942-.539-.48c-1.056-.923-1.44-1.326-1.44-1.538 0-.096-.078-.192-.155-.192-.23 0-1.23-1.441-1.979-2.806a82 82 0 0 1-1.076-1.998c-.27-.48-.596-.98-.73-1.134-.442-.461 2.017 4.458 2.71 5.4.384.5.633 1 .556 1.115s-.038.172.058.153c.173-.057 2.537 2.037 2.537 2.268 0 .058-.461-.25-1-.73-.557-.462-1.268-1-1.556-1.173-.288-.192-.48-.422-.423-.518.058-.116-.02-.135-.192-.077-.211.096-.288.038-.25-.135.02-.154-.23-.75-.557-1.326-.346-.576-.634-.96-.634-.845 0 .096.269.615.595 1.133.327.52.462.827.289.692-.596-.5-1.096-1.556-1.922-3.997a153 153 0 0 0-.98-2.806c-.212-.5 3.478 2.057 5.189 3.594m19.332.826c-.23.385-.269.27-.096-.23.077-.173.173-.27.212-.212.057.039 0 .25-.116.442m-8.994.769c-.192.327-.422.577-.538.596-.096 0-.211.115-.269.25-.038.134.02.172.154.096.365-.231.25.23-.423 1.672-.71 1.498-1.595 2.71-1.883 2.517-.115-.058-.096-.211.038-.384.116-.154.154-.27.058-.27-.192 0-1.153 1.346-1.095 1.538.019.058-.135.135-.346.135-.192.019-.365 0-.365-.058 0-.038.346-.653.768-1.345.827-1.365.98-1.807.385-1.038-.846 1.038-1.557 2.171-1.941 3.094-.23.519-.442.922-.48.903-.077-.096.595-2.46.941-3.286.173-.384.23-.711.134-.711-.153 0-1.21 2.383-1.402 3.17-.058.212-.096-.172-.116-.864-.038-2.44 1.5-4.4 4.343-5.554.827-.346 1.672-.73 1.865-.884.518-.384.576-.23.172.423m8.975-.038c.211.25.192.269-.077.172-.173-.057-.307-.192-.307-.288 0-.25.115-.211.384.116m-.269.768c0 .27-.096.48-.173.48-.096 0-.096.174-.038.385.076.23.038.384-.097.384-.115 0-.192.116-.134.231.038.135-.038.48-.173.75-.134.288-.192.557-.134.634.076.057.038.115-.058.115s-.192.23-.212.519c0 .288-.115.557-.23.596-.096.038-.154.172-.096.326a.35.35 0 0 1-.096.385c-.116.057-.173.211-.116.307.077.096.02.173-.076.173-.116 0-.212.135-.212.308 0 .153-.058.25-.134.21-.096-.057-.173.097-.193.308-.038.596-1.44 3.075-2.594 4.632-.538.71-1.883 2.306-2.998 3.536-2.517 2.805-2.344 2.633-2.344 2.498 0-.077 1.21-1.749 2.71-3.747 3.747-5.016 5.38-7.86 6.552-11.55.615-1.922.904-2.44.846-1.48M8.921 65.436c1.672 1.056 3.997 2.863 4.573 3.555.98 1.153 1.634 3.055 1.307 3.862-.173.442-.192.442-.192.039a3.6 3.6 0 0 0-.25-.961c-.115-.288-.23-.577-.23-.634-.077-.346-.5-.846-.615-.73-.077.076-.039.25.076.384.212.269.52 1.691.366 1.691-.058 0-.48-.519-.923-1.153-.98-1.384-1.21-1.403-.346-.02.615 1 .692 1.615.096.693-.173-.27-.384-.442-.48-.404-.077.058-.154-.02-.154-.134 0-.308-1.441-2.268-1.576-2.153-.038.058.173.423.48.826 1 1.25.904 1.327-.172.154-.577-.615-1.384-1.749-1.768-2.498-1.71-3.267-2.133-3.498-.673-.384.827 1.787 1.172 2.287 2.364 3.44.769.749 1.633 1.556 1.94 1.787.308.23.481.422.404.422-.096 0-.442-.21-.787-.48-.346-.269-.712-.48-.827-.48-.403 0-2.44-2.287-3.036-3.383-.327-.634-.827-1.921-1.115-2.863a62 62 0 0 0-.634-2.018c-.058-.154.154-.057.461.212.308.288 1.076.826 1.71 1.23m9.051-1.346c-.154.154-.346.288-.423.288-.057 0-.019-.134.116-.288.134-.154.326-.288.422-.288s.058.135-.115.288m-1.71.385c0 .153-.077.288-.173.288-.077 0-.154-.135-.154-.288 0-.154.077-.289.154-.289.096 0 .173.135.173.289m.634-.212c0 .058-.077.154-.192.212-.096.057-.192.019-.192-.077 0-.116.096-.212.192-.212.115 0 .192.039.192.077m5.285 1.807c-.5 1.306-1.519 2.786-2.556 3.67-1.5 1.307-1.5.884.019-.615 1.115-1.095 1.537-1.69 2.075-2.863.692-1.576 1.019-1.71.462-.192m7.514.538c-.385 1.134-1.768 3.786-2.787 5.438-.807 1.288-5.438 7.726-6.284 8.744a1.6 1.6 0 0 0-.346.788c0 .25-.096.404-.173.346-.096-.058-.211.096-.269.307-.077.327-.154.366-.365.193-.404-.346-.327-.73.48-2.403.884-1.767 1.71-2.92 3.556-4.9 2.728-2.921 4.516-5.477 5.803-8.244.596-1.288.807-1.422.385-.27m-10.3 2.19a.193.193 0 0 1-.193.193.21.21 0 0 1-.192-.192c0-.116.096-.193.192-.193.115 0 .192.077.192.193m-1.711 1.403c-.192.173-.212.154-.096-.115.057-.192.173-.288.23-.23s0 .21-.134.345m.096.673c-.346.308-.346.308-.116-.115.116-.25.27-.404.346-.346.058.077-.038.269-.23.461m1.614 12.069c0 .153-.077.269-.173.269-.211 0-.423-.5-.269-.654.173-.173.442.058.442.384m-.75 2.344c-.345.807-1.018 2.633-1.498 4.036s-.904 2.536-.942 2.498c-.115-.135 1.038-4.285 1.537-5.535.27-.672.5-1.326.5-1.44 0-.136.173-.385.365-.558.23-.212.327-.48.27-.654-.097-.269-.058-.288.153-.076.211.192.154.48-.384 1.73"/><path fill="#5d89b4" d="M18.433 23.253c-.115.212-.134.385-.038.385.115 0 .23-.173.288-.385.058-.211.058-.384.02-.384-.04 0-.154.173-.27.384m-1.729.212c0 .096.096.134.192.077.115-.058.192-.154.192-.212 0-.038-.077-.077-.192-.077-.096 0-.192.096-.192.212m-1.249 3.055c.057.096.153.192.21.192.04 0 .078-.096.078-.192 0-.115-.096-.192-.212-.192-.096 0-.134.077-.077.192m-6.13-1.537c.192.75.769 1.768 1.307 2.364.269.288.5.615.5.73 0 .096.076.288.192.423.845 1.057 1.134 1.345 1.153 1.172 0-.115-.135-.327-.308-.48-.153-.135-.422-.5-.595-.827a5 5 0 0 0-.673-1.018c-.211-.231-.327-.5-.25-.615.058-.116-.02-.212-.173-.212-.173 0-.307-.115-.307-.269s-.058-.307-.135-.346c-.096-.038-.307-.365-.5-.73-.23-.461-.288-.519-.21-.192m2.575 3.075c0 .096.095.192.191.192a.193.193 0 0 0 .193-.192c0-.116-.077-.192-.193-.192a.193.193 0 0 0-.192.192m1.538 1.345c0 .211.077.384.173.384s.134-.173.077-.384-.135-.384-.173-.384c-.039 0-.077.173-.077.384m-.577 1.537c0 .096.096.192.212.192.096 0 .134-.096.076-.192-.057-.115-.153-.192-.211-.192-.038 0-.077.077-.077.192m6.611-4.208c-.058.115-.02.307.096.422.154.154.212.097.212-.21 0-.462-.097-.539-.308-.212m-.731.865c-.172.422-.153.5.116.422.25-.096.384-.73.154-.73-.077 0-.212.134-.27.307m.673.384c0 .212.058.27.116.116.057-.134.038-.307-.02-.365-.057-.077-.115.038-.096.25m-2.325 1.537c0 .154.096.23.192.173a.37.37 0 0 0 .192-.307c0-.096-.077-.173-.192-.173-.096 0-.192.134-.192.307m.212.865c-.135.307-.212.634-.135.692.058.057.192-.135.307-.423.116-.288.25-.615.308-.692.057-.096.038-.173-.058-.173-.077 0-.269.27-.423.596m-1.076.538c-.057.096-.02.23.096.308.096.057.192-.02.192-.173 0-.346-.115-.404-.288-.135m-.307.73a1 1 0 0 0 0 .327c.019.077-.058.27-.173.404-.154.173-.154.288 0 .384.096.058.192.096.192.058 0-.039.077-.346.173-.692.115-.385.115-.615 0-.615-.096 0-.192.058-.192.134m-.366 1.691c0 .154.039.289.077.289.039 0 .116-.135.193-.289.057-.153.019-.288-.077-.288-.116 0-.192.135-.192.288m-4.421-.883c0 .095.097.25.193.307.115.058.192.038.192-.077a.4.4 0 0 0-.192-.307c-.096-.058-.192-.039-.192.077m.576.787c0 .096.096.192.211.192.097 0 .135-.096.077-.192-.057-.115-.153-.192-.211-.192-.039 0-.077.077-.077.192m8.993.481c-.057.211-.172.557-.249.768-.058.212.02.135.192-.153.173-.308.289-.634.23-.769-.038-.115-.114-.058-.172.154m-2.171.499c-.078.116-.097.25-.04.308.135.134.52-.115.52-.346s-.327-.23-.48.038m-.366.865c-.077.173-.077.365-.019.423.038.058.134-.058.211-.23.077-.174.077-.366.02-.423-.039-.058-.135.057-.212.23m.269 1.326c-.46.904-.807 1.672-.75 1.71.04.058.462-.634.942-1.518.462-.903.808-1.672.75-1.71-.038-.058-.461.634-.942 1.518m-1.903.788c0 .212.058.27.116.116.058-.135.038-.308-.02-.366-.057-.076-.115.039-.095.25m-6.073.845c.058.097.154.193.211.193.039 0 .077-.096.077-.192 0-.116-.096-.193-.211-.193-.096 0-.135.077-.077.193m3.862 4.035c.135.538.231.673.347.558.038-.039-.039-.289-.193-.558l-.288-.48zm2.422.673c-.211.23-.192.288.058.288a.296.296 0 0 0 .288-.288c0-.346-.038-.346-.346 0m-4.92 3.651c.077.154.193.289.289.289.076 0 .115-.135.057-.289-.077-.153-.192-.288-.288-.288-.077 0-.115.135-.058.288m-.211 5.285c.173.308.346.577.404.577.038 0-.039-.27-.212-.577-.173-.327-.346-.576-.403-.576-.039 0 .038.25.211.576m-.961 1.538c.058.096.154.192.212.192.038 0 .076-.096.076-.192 0-.116-.096-.193-.21-.193-.097 0-.135.077-.078.193m1.153 4.804c.058.096.154.192.212.192.038 0 .076-.096.076-.192 0-.115-.095-.192-.21-.192-.097 0-.135.077-.078.192m1.442.192c0 .096.096.192.21.192.097 0 .135-.096.078-.192-.058-.115-.154-.192-.212-.192-.038 0-.076.077-.076.192m-.385 1.115c.115.25.27.403.346.345.058-.076-.038-.269-.23-.46-.347-.308-.347-.308-.116.114m9.225-2.555c-.097.25-.404.826-.673 1.249-.288.442-.48.845-.423.884.096.096 1.21-1.672 1.384-2.21.173-.557-.058-.5-.289.077m-3.036 4.132c-.865.96-1.576 1.825-1.576 1.94 0 .231 1.96-1.864 2.748-2.92.308-.423.52-.75.48-.75-.038 0-.787.788-1.652 1.73m-2.44.96c-.058.096-.02.192.076.192.116 0 .212-.096.212-.192 0-.115-.039-.192-.077-.192-.058 0-.154.077-.211.192m-6.131.442c.058.192.173.289.23.23.058-.057 0-.21-.134-.345-.192-.173-.211-.154-.096.115m.846 1.077c0 .115.077.25.192.307.115.058.134-.02.077-.173-.135-.346-.27-.404-.27-.135m.712 1.077c.461.615.73.615.327 0-.173-.27-.385-.48-.5-.48-.096 0-.02.21.173.48m9.282.307c0 .096.096.135.192.077.115-.058.192-.154.192-.212 0-.038-.077-.076-.192-.076-.096 0-.192.096-.192.211m-.423 1.172c-.173.25-.48.654-.711.904-.442.5-.519.787-.211.787.115 0 .192-.134.192-.288s.096-.288.192-.288c.115 0 .192-.135.192-.288 0-.154.058-.289.154-.289.173 0 .672-.768.557-.884-.038-.057-.211.116-.365.346M10.17 68.78c0 .115.077.25.192.307s.134-.02.077-.173c-.135-.346-.27-.404-.27-.135m12.607 8.111c-.71.845-2.037 2.728-2.037 2.9 0 .116.404-.345.884-1.018.5-.653 1.057-1.383 1.25-1.595.326-.326.48-.692.307-.692-.02 0-.212.174-.404.404m-3.382 4.977c0 .096.096.192.212.192.096 0 .134-.096.076-.192-.057-.115-.153-.192-.211-.192-.038 0-.077.077-.077.192m9.244-60.035c0 .212.057.27.115.116.058-.135.038-.308-.02-.366-.057-.076-.115.039-.095.25M.965 32.17c-.02.077.5 1.864 1.114 3.94a511 511 0 0 1 1.653 5.65c.288 1.018.577 1.845.615 1.787.038-.038-.519-2.172-1.268-4.747C1.79 34.303.984 31.805.965 32.17m-.769 9.07c0 .212.058.27.115.116.058-.134.039-.307-.019-.365-.058-.077-.115.038-.096.25M.004 48.16c0 .21.057.268.115.114.058-.134.039-.307-.02-.365-.057-.077-.114.039-.095.25m16.95 25.386c-.308.116-.327.635-.039.635.096 0 .154-.077.096-.174-.077-.096 0-.21.116-.269.134-.038.21-.134.153-.172-.057-.058-.211-.058-.326-.02m-1.211 1.499c0 .154.038.288.077.288.038 0 .115-.134.192-.288.057-.153.019-.288-.077-.288-.115 0-.192.135-.192.288"/></svg>