<svg xmlns="http://www.w3.org/2000/svg" width="90" height="120" fill="none" viewBox="0 0 90 120"><path fill="#5d89b4" d="M44.435 2.14a138 138 0 0 1-2.41 4.206c-1.456 2.5-1.456 2.66.25 2.455l1.341-.16.182 4.183.205 4.16 3.684.137.16-1.75c.067-.955.136-2.865.136-4.251V8.619l1.364.136c1.182.137 1.364.091 1.364-.227 0-.59-4.047-7.956-4.639-8.479-.273-.205-.568.182-1.637 2.091m2.047-.136c.34.727.34.887.068 1.205a4 4 0 0 0-.591.932l-.273.568.409-.477a9 9 0 0 0 .66-.91c.227-.386.318-.318.795.705.296.614.614 1.182.683 1.25.159.137 1.114 2.137 1.114 2.342 0 .09-.205.159-.455.159s-.455-.114-.455-.25c0-.182-.113-.16-.34.023-.478.409-.66.136-.342-.5l.25-.523-.455.523c-.318.386-.409.704-.318 1.273.091.613-.114 1.273-.955 3.091-.569 1.273-1 2.364-.955 2.41.045.068.477-.75.978-1.773.636-1.387.887-1.75.955-1.387a1.74 1.74 0 0 1-.16.955c-.181.318-.181.454.046.545.387.114-1.66 4.137-2.115 4.137-.295 0-.34-.636-.386-4.182-.046-2.296-.114-4.251-.182-4.297-.069-.068-.637-.113-1.274-.068l-1.16.068 1.183-2.136a187 187 0 0 0 1.774-3.32c.318-.636.705-1.181.841-1.181.137 0 .432.363.66.818m.59 12.798c-.181.341-.181.478 0 .478.137 0 .228.181.183.386-.068.364-1.16.818-1.41.591-.068-.068.205-.75.614-1.523.568-1.091.728-1.273.796-.887.045.273-.046.705-.182.955"/><path fill="#5d89b4" d="M45.868 9.983c-.182.364-.41.886-.478 1.205-.136.477-.114.5.09.159.365-.568.933-1.978.797-1.978-.046 0-.25.273-.41.614m-.682 5.047c-.09.386-.068.477.114.295a.62.62 0 0 0 .136-.523c-.068-.182-.159-.068-.25.228m21.604-8.684c-.068.114-.182.591-.25 1.091-.205 1.205-1.024 2.66-1.729 3-.318.16-1 .296-1.523.296-1.25 0-1.41.318-.296.66 1.91.568 2.729 1.954 2.729 4.614 0 1.16.273.91.66-.614.523-2.16 1.705-3.296 3.388-3.296 1.114 0 1.046-.386-.091-.523-1.82-.204-2.752-1.727-2.524-4.091.09-.978-.114-1.569-.364-1.137m.068 3.16c0 .568.955 2.137 1.296 2.137.16 0 .296.09.296.227 0 .114-.137.227-.296.227-.364 0-1.341 1.023-1.75 1.819-.296.545-.296.545-.615-.523-.204-.705-.545-1.228-1-1.569l-.683-.5.796-.409c.432-.227.978-.705 1.206-1.091.432-.75.75-.887.75-.318M26.47 9.437c.341 1.887 3.752 9.252 4.275 9.252.114 0 .137-.227.068-.523-.568-1.795-4.047-9.479-4.32-9.479-.091 0-.091.341-.023.75m56.988 5.024c-4.412 1.5-5.458 1.91-5.458 2.205 0 .091.455.5 1.023.887.569.386 1.024.75 1.024.818s-1.66 1.842-3.662 3.91c-2.024 2.091-4.025 4.228-4.457 4.774l-.819.955.615.863c1.319 1.864 1.432 1.978 1.91 1.728.25-.114 2.41-2.273 4.82-4.82 2.389-2.522 4.435-4.591 4.503-4.591.091.023.5.477.91 1.023.41.568.887 1.023 1.069 1.023.364 0 .887-1.546 2.16-6.342.523-1.933.841-3.57.75-3.66s-2.069.454-4.388 1.227m3.297.296c-.25.704-1.455 5.137-1.615 6.047-.181 1.09-.545 1.318-.568.34-.023-.681-.046-.704-.182-.181-.25.909-.478.181-.25-.819.114-.477.204-1.045.204-1.227-.022-.182-.159.159-.318.795-.204.841-.318 1.023-.455.728-.09-.205-.25-.387-.34-.387-.092 0-.774.546-1.502 1.228-1.091 1-1.364 1.16-1.5.864-.114-.296-.16-.25-.16.159-.022.364-.636 1.16-1.819 2.387-.978 1.023-2.456 2.546-3.275 3.432l-1.5 1.592-.592-.614c-.295-.341-.727-.705-.955-.819-.318-.181.41-1 4.32-4.819 2.73-2.66 4.708-4.774 4.708-5.024 0-.227-.364-.682-.796-1.023-.455-.34-.727-.704-.636-.795.204-.182 6.594-2.205 7.095-2.228.181-.023.25.114.136.364"/><path fill="#5d89b4" d="M84.617 16.734c-.159.182-.182.387-.068.455.136.068.273-.068.341-.318.137-.546.091-.569-.273-.137m-.227 1.41c0 .25.068.318.136.136.069-.159.046-.364-.022-.432-.069-.09-.137.046-.114.296m.318 1.227c-.09.387-.113.773-.045.819.068.068.182-.205.273-.591.09-.387.113-.773.045-.819-.068-.068-.182.205-.273.591M4.548 14.78c0 .227.5 2.09 1.114 4.182.637 2.069 1.206 4.16 1.297 4.615.227 1.25.705 1.273 1.773.023l.933-1.069 2.388 2.569c1.318 1.41 2.956 3.205 3.615 3.978.683.796 1.387 1.432 1.592 1.432s.819-.455 1.364-1c.956-.978.978-1.023.706-1.819-.273-.863-1.228-2.023-4.48-5.41-1.16-1.205-2.115-2.296-2.115-2.432 0-.114.432-.569.978-1.023.636-.523.886-.864.727-1.023-.204-.182-9.414-3.433-9.755-3.433-.069 0-.137.182-.137.41m5.026 1.886 3.843 1.41-.91.773c-.5.431-.91.886-.91 1s1.752 2.023 3.867 4.228c2.638 2.75 3.752 4.069 3.502 4.114-.205.046-.66.41-1.024.796l-.636.728-.023-.728c0-.386-.091-.796-.228-.864-.136-.068-.159.023-.09.205a1.4 1.4 0 0 1 0 .75c-.25.637-.57-.091-.614-1.41l-.046-1.136-.136 1.023-.137 1-.432-.66c-.25-.363-.637-.863-.864-1.113-.228-.25-.455-.818-.546-1.25-.204-1.228-.273-1.364-.295-.5-.023.773-.023.773-.478.363-.273-.25-.41-.59-.341-.795.068-.228.023-.637-.114-.932-.227-.5-.227-.478-.136.182.068.409.045.75-.046.75-.114 0-.773-.66-1.478-1.478s-1.364-1.455-1.455-1.432c-.091.045-.25-.91-.319-2.091l-.113-2.16-.046 2.137c-.045 2-.09 2.182-.66 2.773l-.636.637-.546-4.637.182 4.546-.546-2.16c-.295-1.182-.568-2.41-.568-2.727 0-.41-.068-.478-.205-.273-.159.25-.227.227-.341-.069-.205-.59-.16-.954.091-.568.182.296.227.273.227-.068 0-.205-.159-.386-.34-.386-.183 0-.342-.069-.342-.182 0-.091-.068-.387-.136-.682-.091-.273-.068-.5 0-.5.09 0 1.91.636 4.025 1.386"/><path fill="#5d89b4" d="M5.935 16.098c0 .25.068.318.137.136.068-.159.045-.363-.023-.432-.068-.09-.137.046-.114.296m2.32 1.796c0 .614.045.864.09.5a4.8 4.8 0 0 0 0-1.137c-.045-.273-.09 0-.09.637m2.024 2.046c0 .363.09.977.182 1.364.25.954.25.022.022-1.137-.159-.773-.204-.796-.204-.227m1.16 1.818c0 .5.045.682.09.387a3 3 0 0 0 0-.91c-.068-.204-.113.023-.09.523m1.318.932c0 .25.069.319.137.137.068-.16.045-.364-.023-.432-.068-.091-.136.045-.114.295m49.483-7.933c-.545.614-1.978 3.75-1.978 4.319 0 1.068.523.454 1.615-1.864.614-1.296 1.114-2.478 1.114-2.614 0-.341-.341-.273-.75.159m-20.876 5.546c-1.751.25-4.64 1-6.618 1.705-9.232 3.32-16.123 11.162-18.874 21.46-.637 2.386-.705 2.932-.728 6.25-.023 4.047.25 5.934 1.274 9.184 1.296 4.092 3.024 7.32 6.822 12.844 4.593 6.66 5.617 8.888 6.23 13.775.615 4.706 1.433 7.093 3.025 8.911.614.728.66.887.75 3.137.069 2.183.114 2.455.683 3.183l.591.796-.546.636c-.705.841-.705 1.773.046 2.637l.59.705-.704.659c-.387.364-.705.727-.705.795 0 .432.705 1.705 1.046 1.91.364.205.364.25-.09.841-.842 1.046-.66 1.887.727 3.546 1.205 1.455 2.047 2.205 3.957 3.501.545.364 1.478 1.159 2.046 1.75.842.887 1.251 1.114 2.274 1.341 1.387.273 5.526.091 6.3-.295.25-.136 1.136-.864 1.955-1.637.842-.75 2.388-2.114 3.434-3.023 1.978-1.66 2.797-2.842 2.456-3.455-.114-.228 0-.569.364-1.001.682-.818.682-1.25-.023-2.295l-.569-.819.455-.75c.592-.955.569-1.932-.022-2.569l-.478-.5.637-.932.614-.955-.5-.909c-.433-.75-.455-.977-.228-1.25.16-.182.296-.568.319-.841.181-2.41.431-3.205 1.523-4.774 1.342-1.955 1.66-2.978 2.115-6.865.728-6.001 1.342-7.41 6.481-15.117 3.82-5.706 5.571-8.979 6.663-12.389 1.865-5.796 1.956-11.616.273-17.503-.796-2.75-3.184-7.593-4.867-9.82-2.683-3.547-7.072-7.161-10.983-9.002-2.274-1.092-6.231-2.32-8.8-2.751-2.275-.386-6.71-.455-8.915-.114m9.983 1.228c2.615.5 5.003 1.318 7.777 2.682 7.846 3.842 13.144 11.048 15.168 20.618.569 2.728.569 8.502-.023 11.139-.932 4.273-3.206 9.275-5.958 13.07-.818 1.115-2.183 3.024-3.047 4.206-.887 1.182-1.933 2.819-2.365 3.637-1.069 2-2.092 5.979-2.66 10.23-.524 4.069-1.001 5.342-2.593 6.796l-1.023.933h-6.14l.068-.728.045-.75 1.592-.046c.864-.022 1.842-.159 2.206-.272.432-.16.637-.16.637 0 0 .136.136.204.296.136.136-.045.272-.182.272-.295 0-.114.091-.319.182-.478.228-.364.614-3.341.569-4.614 0-.591-.114-.046-.273 1.295-.137 1.273-.318 2.364-.387 2.433-.068.09-1.205.227-2.501.34l-2.365.205 2.433-.045c1.32-.023 2.365.045 2.297.159-.227.386-1.205.591-3.047.636l-1.91.046-.023-.66c-.091-2.409-.069-7.342.045-9.047.137-1.705.091-2.16-.25-2.796l-.41-.75 1.092-2.887a262 262 0 0 1 1.297-3.455l.204-.546.569.819c.636.954.955 1 2.82.432 1.5-.478 1.682-.955.818-2.25-.5-.751-1.5-3.229-1.5-3.706 0-.091.954-.114 2.114-.068 1.774.09 2.297.045 3.457-.41 2.706-1 5.526-4.66 5.298-6.887-.068-.637.046-.75 1.296-1.387 2.525-1.273 3.957-4.183 3.662-7.456a54 54 0 0 1-.205-3.41c-.046-1.682-.09-1.819-.75-2.41-.637-.59-.728-.795-.82-2.318-.135-2.182-.795-3.614-2.341-5.206a10.3 10.3 0 0 1-1.888-2.773c-.773-1.728-1.341-2.182-2.933-2.387l-1.137-.114.227-.659c.227-.568.182-.75-.41-1.455-.386-.454-1-1.023-1.41-1.273l-.727-.477-.614.614c-.864.886-1.546.704-1.683-.455-.09-.795-.204-.932-.91-1.182-1.023-.341-2.342-.364-2.66-.046-.205.205-.477.16-1.137-.159-.546-.25-1.433-.431-2.342-.454-.819 0-2.024-.182-2.706-.387-2.206-.682-4.435-.454-5.981.614-.705.477-1 .523-2.365.432-2.138-.16-3.297.182-4.23 1.273-.41.477-1.25 1.137-1.887 1.455-.614.318-1.387.84-1.683 1.16-.319.317-.773.59-1.046.59-1.706 0-3.298 1.16-4.298 3.137-.523 1.046-1.137 1.841-1.956 2.523-1.319 1.114-2.274 2.82-2.274 4.07 0 .431-.296 1.454-.682 2.318-.796 1.819-.841 2.592-.25 4.046.25.591.5 1.523.591 2.092.296 2.182 2.047 4.592 4.048 5.615 1.296.636 2.638.75 5.344.431l1.637-.181v.636c0 1.5.478 2.455 1.842 3.75 1.114 1.07 1.433 1.547 1.888 2.842.295.864 1.41 3.706 2.456 6.343 3.32 8.16 3.66 9.206 3.297 9.638-.25.295-.318 1.728-.296 7.57l.023 7.229H34.52l-.682-.728c-1.524-1.637-2.456-4.296-3.138-8.82-.523-3.455-1.41-6.547-2.525-8.638-.364-.682-1.591-2.523-2.706-4.092-4.912-6.888-6.299-9.297-7.709-13.57-1.16-3.501-1.455-5.638-1.319-9.503.25-7.206 2.343-12.616 7.073-18.254 4.548-5.432 11.688-9.115 19.693-10.138 1.455-.182 6.23.068 8.14.432m-5.003 6.729c.887.295.887.386.114 1.113-.66.614-1.206 1.773-1.206 2.5 0 .251-.068.456-.181.456-.228 0-.842-.705-1.024-1.228-.114-.318-.295-.386-.75-.273-.66.182-1.25-.182-1.092-.659.069-.16.023-.364-.113-.455-.137-.068-.25.023-.25.205 0 .205-.092.364-.228.364-.114 0-.227-.091-.227-.182 0-.341-1.456-.227-1.888.136-.295.273-.455.296-.568.114-.091-.136-.432-.318-.75-.41-.478-.113-.615-.022-.888.592-.227.5-.59.795-1.137.977-.75.227-.796.318-.796 1.205 0 1.046-.454 1.773-.773 1.25-.09-.159-.136-.545-.068-.864.045-.295 0-.545-.114-.545-.136 0-.204.455-.182 1.023.023.682-.068 1.114-.272 1.227-.455.25-.137.887.636 1.296.796.41.819.591.091 1.364-.318.341-.568.727-.568.887 0 .295-1.07.932-1.251.75-.068-.069-.205-.569-.318-1.114s-.205-.773-.228-.5c-.023.523-.25.659-.568.363-.25-.25-.819-.272-.819-.045 0 .114-.227.295-.5.41-.592.227-1.137-.069-.955-.524.068-.159-.091-.273-.364-.273-.25 0-.455.137-.455.296 0 .16-.66.705-1.478 1.228-.955.59-1.478 1.068-1.478 1.34 0 .228-.114.5-.228.57-.136.09-.182.226-.113.34s-.182.364-.569.568c-.364.182-.682.5-.682.682 0 .16-.16.478-.364.682-.296.296-.318.478-.136.91.159.34.181.59.045.681-.364.228-.25.637.137.478.477-.182.773.023.614.432-.137.409-.66.454-.82.045-.09-.204-.181-.182-.363.069-.182.272-.137.363.205.409.295.045.386.181.295.34-.273.432-.204 1.387.114 1.728.227.228.227.364.023.614-.16.182-.228.386-.16.432.069.068.228-.023.387-.205.387-.454 1.092-.204 1.228.455.068.386-.023.568-.318.66-.25.09-.432.272-.432.408 0 .16-.137.546-.319.864-.273.546-.273.569.228.478.59-.114.75.34.273.818-.524.523-1.07.318-1.137-.477l-.091-.728-.25.614c-.342.75-.751 1.023-1.001.614-.114-.182-.046-.455.182-.705.386-.432.09-.568-.319-.16-.273.274-.477-.408-.59-2.068-.024-.432-.228-1-.433-1.227-.568-.637-.5-1.955.16-3.41.318-.682.659-1.91.772-2.75.273-1.887.637-2.456 2.07-3.251 1.023-.546 1.228-.819 2.046-2.478 1.024-2.16 1.57-2.614 3.343-2.75 1.137-.092 1.297-.183 1.706-.864.318-.523.887-.955 1.887-1.433.887-.432 1.501-.864 1.592-1.159.091-.25.364-.614.66-.796.523-.34 2.842-.522 3.297-.25.16.091.41.046.591-.09.182-.137.41-.205.523-.137s.592-.09 1.092-.364c1.978-1.068 3.48-1.25 5.503-.614m4.821.863c.318.228.591.569.637.75.114.569-.569.66-1.16.16-.728-.546-.955-.546-1.797.045-.704.523-1.114.432-.636-.136.182-.228.204-.341.023-.341-.137 0-.273.068-.273.159-.023.113-.069.477-.114.864-.046.363-.25.795-.455.954-.386.273-.364.341.091 1.228l.5.932-.477.591c-.705.91-1.797 1.273-1.797.591 0-.205-.25-.568-.568-.818-.319-.25-.569-.591-.569-.773 0-.296.114-.341.864-.41.41-.045.728-.59.728-1.34 0-.66 1.547-2.547 2.388-2.91.637-.273 1.933-.046 2.615.454m4.002.023c.228 0 .319.296.319.91 0 .84.045.909 1.069 1.363l1.046.455.636-.591c.705-.66.955-.591 1.842.477.364.432.364.478-.204 1.069-.546.568-.569.659-.296 1.75.296 1.205 1.046 2.069 1.842 2.069.341 0 .432.159.432.727 0 1.091-.273 1.387-1.069 1.228-.591-.137-.682-.069-1.16.886-.545 1.114-.636 1.819-.272 2.046.386.227.25.841-.273 1.273-.591.546-.705.546-1.183 0-.318-.341-.546-.386-1.205-.25-.841.205-2.115 1.25-2.115 1.75 0 .364-.273.387-.66 0-.227-.227-.318-.204-.5.114-.318.568-.66.5-.66-.114 0-.659-.181-.886-1.204-1.477-1.07-.614-1.342-.614-1.865-.046-.227.25-.591.455-.819.455-.25 0-.545-.205-.705-.455s-.41-.454-.568-.454c-.455 0-.341-.319.34-.978l.66-.636-.386-1.137c-.455-1.341-.592-1.5-1.365-1.614-.5-.068-.568-.182-.568-.977 0-.819.068-.91.75-1.114.591-.16.887-.455 1.342-1.341l.569-1.137-.5-.66-.501-.681.523-.546c.705-.75 1.228-.864 2.001-.409.591.364.75.364 1.524.068.614-.227.91-.523 1.046-1 .113-.386.273-.818.318-1 .068-.205.319-.273.796-.16.41.069.864.137 1.023.137m-14.576 1.591c.068.114.34.228.59.228.228 0 .638.204.888.454s.591.387.796.319c.5-.205 1.023.568.864 1.318-.091.455.023.75.477 1.205.705.704.728.932.114 1.25-.386.227-.455.386-.318 1.16.136.795.114.886-.319.886-.34 0-.5.204-.614.796-.159.909-.454 1.204-.841.818s-1.182-.296-1.637.205c-.5.545-1.274.5-1.615-.114-.227-.455-.568-.523-1.273-.227-.342.136-.41.045-.41-.432 0-.5-.09-.591-.66-.591-.75 0-1.113-.364-.727-.75.41-.41.296-.978-.364-1.637-.545-.523-.59-.637-.273-.864.728-.568 1.115-1.341.865-1.819-.296-.545-.069-.773.818-.886.5-.046.705-.205.75-.568.069-.523.637-.864.842-.523.227.34 1.023.272 1.16-.114.159-.386.682-.455.887-.114m22.877 4.115c1.023 1.023 1.705 3.478.75 2.682-.25-.204-.318-.159-.318.341 0 .523.068.569.727.5.614-.068.887.091 1.729.978 1.182 1.25 1.796 2.387 2 3.682.137.796.092 1.023-.272 1.296-.387.296-.387.318-.023.182.591-.205.432.75-.182 1.091-.25.136-.545.386-.636.546-.25.386-.614.113-.614-.478 0-.363-.069-.409-.273-.204-.319.318-.637.363-.637.068 0-.114.205-.273.432-.364.478-.136.978-1.296.796-1.796-.068-.159.045-.477.25-.682.341-.34.341-.409-.227-1.068-.387-.477-.546-.864-.432-1.16.113-.386.068-.431-.341-.295-.364.114-.478.046-.478-.273-.023-.386-.023-.386-.25 0-.182.319-.319.341-.546.16-.16-.137-.364-.16-.432-.046s-.569.16-1.137.136c-.705-.045-1.046.023-1.046.205 0 .16-.25.568-.569.955l-.568.682.159-1c.091-.66.068-.955-.09-.864-.137.09-.206.659-.183 1.295.046.614 0 1.137-.09 1.137-.07 0-.32-.432-.547-.932-.409-.841-.409-.932-.068-1.455.25-.386.591-.568 1.023-.568.91 0 1.115-.341 1.206-2.046l.068-1.478-.75-.25c-.774-.25-1.183-.636-1.183-1.182 0-.182.387-.273 1.137-.273.841 0 1.25.114 1.615.478m-18.284 1.955c-.068.068-.25.045-.386-.046-.182-.113-.16-.25.045-.5.273-.34.296-.318.364.023.046.227.023.455-.023.523m.591 2.455c.273.045.705.136.956.159.34.045.477.273.523.841.068.614 0 .75-.273.636-.228-.09-.364-.022-.364.182a.35.35 0 0 1-.341.341c-.182 0-.273.137-.205.319.16.386-.273.682-.637.431-.159-.09-.386-.181-.523-.181-.113 0-.295-.614-.364-1.364l-.136-1.364-.023 1.523c-.022.864-.136 1.546-.25 1.546s-.25.295-.318.682c-.182.886-.455.863-1.046-.069-.319-.477-.478-.568-.432-.295.09.636-.455.705-.728.09l-.227-.522.022.568c.046.91 0 1.137-.25 1.137-.182 0-.182-2.387-.022-3.705.022-.114.523-.16 1.137-.114 1.205.068 1.614-.227 1.614-1.182 0-.568.614-.614.75-.068.069.227.137.09.16-.341.113-1.546.295-1.75.386-.455.069.91.182 1.114.591 1.205m-16.668-.932c0 .182-.091.386-.205.477-.273.16-.546-.273-.364-.568.205-.341.569-.273.569.09m6.913.727c1.046.978 1.091 1.046.727 1.41-.363.363-.409.34-.84-.25-.274-.341-.547-.569-.66-.5-.273.159-.955-1-.819-1.387.182-.5.387-.41 1.592.727m10.301-.454c-.068.068-.273.09-.432.022-.182-.068-.114-.136.137-.136.25-.023.386.045.295.114m-14.372.886c0 .591.091.682.683.705.386 0 .818-.16.955-.341.25-.318.34-.318.682.114.227.272.591.545.841.636.341.114.387.295.273.864-.114.545-.023.84.364 1.25.273.296.614.523.796.523.41 0 .387.841-.046 1-.523.205-.432 1.478.16 1.932.477.387.477.41.068 1.114-.273.455-.637.728-1 .773-.524.068-.592.182-.615 1.046-.068 1.568-.864 2.137-1.66 1.16l-.41-.501-1.295 1.182c-.705.637-1.387 1.114-1.524 1.046-.114-.091-.364-.478-.523-.91-.432-1-1.137-1.227-1.842-.568l-.546.5-.591-.59c-.387-.387-.591-.82-.569-1.228.091-1.114.023-1.25-.477-1.114-1.023.273-1.524-.614-.796-1.41.523-.59.546-2.045.023-2.432-.41-.295-.41-.364-.046-1.114.205-.432.523-.795.705-.795.614 0 1.069-.705.933-1.364-.114-.478-.023-.682.409-.978.887-.59 1.66-.704 1.82-.295.227.568 1.022.454 1.113-.137.046-.363.273-.568.75-.659 1.115-.25 1.343-.136 1.365.591m5.89.478c.068.204.091.454 0 .568-.068.114 0 .386.114.59.204.365.227.32.25-.227 0-1.545.705.046.773 1.82.023.272.114.567.228.681.09.091.113-.455.022-1.273-.159-1.318-.136-1.432.228-1.296.227.069.523.046.682-.09.432-.364.523-.069.591 1.818.046 1.114-.045 1.705-.205 1.773-.25.068-.409-.864-.295-1.728.023-.136-.068-.272-.228-.272-.159 0-.204.204-.113.568.113.41.023.614-.296.773-.41.227-.523 1.227-.182 1.773.16.227.046 1.046-.159 1.41-.182.272.341 1.681.728 1.977.227.16.273.455.159.955-.068.409-.227.727-.319.727-.318 0-.659-.523-.545-.818.068-.227 0-.273-.228-.182-.204.068-.295.318-.227.614.09.5.09.5-.273.045-.227-.295-.41-.364-.523-.204-.25.363-.955.568-.955.272 0-.204-.068-.204-.25-.022-.273.272-.887.159-.887-.182 0-.114.16-.205.341-.205a.35.35 0 0 0 .341-.34c0-.205-.136-.274-.341-.205-.182.09-.341.045-.341-.091 0-.137.295-.296.682-.387.546-.113.728-.318.91-1.023.136-.5.34-.954.477-1.023.16-.113.137-.25-.023-.454-.181-.205-.181-.455-.045-.682.114-.227.137-.773.046-1.25-.114-.614-.069-.978.136-1.183.227-.227.25-.5.114-.977l-.205-.682-.023.728c-.023.727-.477 1.113-.477.409 0-.205-.273-.41-.682-.5-.842-.16-.865-.569-.114-1.16.318-.25.568-.659.568-.932 0-.568.341-.636.546-.113m28.062 1.568c.296.341.477.773.41.955-.069.182-.137.704-.137 1.136 0 .705-.069.796-.478.682-.34-.09-.523 0-.591.296-.205.818-1.092.75-2.092-.16-1-.886-1.228-1.84-.637-2.864.41-.727.546-.795 1.82-.727.932.045 1.25.182 1.705.682m-18.625 1.75.796.91-.66-.091q-.647-.069-1.022-.75c-.364-.637-.387-1.046-.046-1 .091 0 .5.431.932.931m-1.569.182c.137.25.114.478-.045.637-.41.409.045.727 1.069.727 1.046 0 1.478.318 1.046.75-.455.455-.296 1.296.318 1.569.682.318.75 1 .091 1.16-.387.113-.455.272-.387 1 .046.704-.022.863-.386.931q-1.023.205-1.023 1.092c0 .636-.16.681-.705.181-.364-.318-.478-.318-1.206.023-.977.455-1.432.341-1.728-.477-.205-.546-.296-.569-1.137-.432-1.046.182-1.183-.16-.546-1.137.341-.523.341-.614 0-1.136-.204-.319-.523-.569-.727-.569-.523 0-.296-1 .25-1.09.796-.16 1.296-.774 1.16-1.456-.25-1.204.25-1.66 1.045-.932.569.523 1.547.091 1.547-.704 0-.864.91-.978 1.364-.137m15.919-.045c0 .182-.16.523-.364.75-.319.364-.319.41.068.614.227.136.614.227.841.204.228-.022.569.182.75.455.342.5.32.523-.227.523-.614 0-.977.318-1.091 1-.046.227-.296.5-.546.591-.386.136-.796-.136-2.183-1.455-1.956-1.818-2.683-2.864-2.001-2.864.364 0 1.319.886 2.706 2.5.364.41.341.319-.091-.34-.682-1.046-.728-1.25-.25-1.25.182 0 .341.09.341.181 0 .114.16.386.341.637.319.386.319.363 0-.296-.386-.841-.41-.977-.16-.977.115 0 .32.272.478.59.137.342.319.546.41.478.068-.091-.046-.432-.273-.75-.364-.591-.387-.637-.023-.91.478-.34 1.274-.159 1.274.319m-10.393.364c.205.159.387.477.387.681 0 .341-.046.364-.478.046-.455-.296-.568-.273-1.364.227-.478.296-.91.546-.978.546-.046 0-.136-.25-.182-.569-.09-.454-.023-.568.364-.568.273 0 .705-.159.955-.34.546-.41.773-.41 1.296-.023m-11.21.613c0 .25-.092.387-.228.319-.114-.069-.228-.296-.228-.478s.114-.318.228-.318c.136 0 .227.205.227.477m17.828 1.682c1.069 1.046 1.955 2.069 1.955 2.228 0 .91-.318 1.773-.59 1.66-.206-.069-.32.045-.32.318 0 .295.114.409.342.318.227-.09.341 0 .341.296 0 .227.114.545.25.682.182.181.182.295 0 .409-.136.068-.341-.046-.432-.273s-.318-.41-.5-.41c-.205 0-.364-.25-.41-.636-.045-.432-.204-.614-.523-.614-.273 0-.432-.159-.432-.454 0-.25-.159-.455-.34-.455-.205 0-.41-.159-.501-.386-.114-.318-.182-.273-.341.159-.137.386-.273.455-.432.295-.182-.181-.182-.386 0-.727.295-.545.09-.614-.523-.136-.296.227-.546.25-.842.113-.25-.159-.614-.136-1.023 0-.341.137-.819.182-1.069.091-.386-.113-.432-.068-.318.364.114.477.068.5-.75.364-.797-.137-.865-.091-.728.363.09.387.045.455-.25.341-.273-.113-.387-.022-.387.296 0 .682-.705 1.41-1.069 1.091-.386-.295-.386.09 0 .477.228.228.205.341-.068.546a.93.93 0 0 0-.273.773c.091.636-.5.727-.728.136-.09-.25-.227-.295-.318-.159-.341.477-1.546 1.137-2.092 1.137-.387-.023-.591-.182-.705-.591-.137-.523-.16-.523-.182.159-.023.59-.114.75-.477.75-.25 0-.455-.137-.455-.318 0-.182-.205-.5-.478-.682-.614-.432-.41-.773.432-.637.41.046.75-.045.932-.273.387-.454.683-.454 1.206.023.34.296.523.318.978.114.318-.137.568-.387.568-.523s.364-.591.796-1.023c.523-.5.796-.977.796-1.387.023-.795 1.774-2.227 3.024-2.455 1.07-.204 1.524-.886.774-1.159-.364-.136-.114-.205.955-.25 1.046-.068 1.546-.205 1.75-.477.16-.205.228-.455.16-.569-.114-.182.068-.84.25-.84.046 0 .978.863 2.047 1.931m-17.033-1.023c.16.523-.045.978-.364.796-.273-.182-.273-1.25 0-1.25.114 0 .273.204.364.455m10.552-.068c.34.273.386.478.227.796-.182.318-.136.364.16.25.84-.318.136.432-1.001 1.068-.887.523-1.183.614-1.183.364 0-.205-.204-.455-.455-.59-.25-.137-.454-.342-.454-.433 0-.159 2-1.796 2.205-1.841.046 0 .273.182.5.386m-13.85.273a.43.43 0 0 1-.227.364c-.113.068-.227-.023-.227-.205 0-.204.114-.363.227-.363.137 0 .228.09.228.204m2.502.16c0 .181-.09.272-.227.204-.114-.068-.228-.227-.228-.364 0-.114.114-.204.228-.204.136 0 .227.159.227.363m25.924 1.295c0 .727.41 1.114.955.818.273-.159.569-.136.887.046.387.204.455.386.319 1.023-.114.682-.069.795.409.977.432.182.523.341.455.796-.068.34-.023.59.136.59.478 0 .25.433-.25.5-.455.07-.523.205-.523 1.092 0 1.296-.227 1.682-.796 1.364-.455-.227-.591-.114-1.137.955-.273.59-.91.886-.91.432 0-.41-.864-.41-1.16 0-.363.523-.795.545-.977.09-.091-.25-.341-.295-1.046-.204-.864.114-1.228-.136-.682-.477.363-.228.25-1.023-.16-1.182-.704-.273-1.068-.75-.773-1.046.341-.341.319-1.137-.023-1.478-.227-.227-.227-.386 0-.727.137-.25.205-.728.137-1.137-.136-.614-.091-.682.432-.682.637 0 .887-.25.955-1 .023-.25.068-.546.091-.66.046-.25 1.023-.204 1.296.07.182.18.41.113.796-.206.773-.659 1.57-.636 1.57.046m3.366-.068c.364.34.5.727.5 1.477 0 .569-.068 1.023-.136 1.023-.432 0-1-.545-1-.977 0-.637-.387-1.069-.956-1.069-.614 0-.5-.386.227-.636.842-.318.82-.318 1.365.182M54.508 49.58c.136.546 1.228.978 1.683.682.455-.273.66-.25.66.091 0 .182.204.546.454.841.25.296.455.614.455.728s.25.295.568.409c.637.25.682.386.341 1.273-.181.477-.159.704.114 1 .319.34.319.455 0 1.068-.273.523-.477.682-.796.591-.364-.09-.455 0-.455.432 0 .75-.727 1.41-1.091 1.046-.205-.205-.341-.16-.614.182-.182.227-.341.34-.341.227s-.205-.023-.455.205c-.41.363-.569.386-1.433.113-.523-.159-1.25-.477-1.614-.75-.523-.386-.728-.409-1.092-.182-.591.364-.932.114-.591-.432.227-.34.205-.522-.16-.909-.363-.409-.386-.545-.136-.955s.228-.568-.136-1.068c-.41-.545-.41-.66-.114-1.455.182-.455.432-.84.569-.84.409 0 1.068-.728 1.068-1.206 0-.386.114-.409.796-.295.66.136.819.09.955-.25.364-1.023 1.16-1.342 1.365-.546m-28.812 1.16c0 .25-.046.454-.091.454-.046 0-.25.068-.455.137-.25.09-.364 0-.364-.296 0-.523.182-.75.614-.75.16 0 .296.204.296.455m10.233-.046c0 .296-1.114 1.273-1.274 1.137-.068-.069.114-.387.41-.705.545-.591.864-.75.864-.432m4.252.955c.137 0 .296.113.341.25.046.159.273.159.728-.023.546-.205.705-.159.955.16.16.227.25.568.182.772-.045.205.114.546.364.773s.455.546.455.705c0 .545.705 1 1.569 1 .546 0 1.228-.227 1.91-.682.591-.387 1.16-.682 1.274-.682.59 0 1.068 1.227 1.25 3.114.114 1.319.523 1.796 1.387 1.705 1.024-.114 1.433.546.91 1.546-.568 1.091-2.251 1.318-3.593.477-.796-.477-.796-.5-.477-1.159.273-.5.295-.864.113-1.523a40 40 0 0 1-.454-1.773c-.228-.91-.228-.91-.114.227.068.614.182 1.478.25 1.864.205 1.228-.319.864-.591-.386-.137-.637-.25-1.341-.25-1.591 0-.228-.114-.5-.273-.591-.25-.16-.205.75.182 2.568.09.477.068.75-.091.75-.137 0-.387-.613-.546-1.364-.137-.75-.341-1.363-.432-1.363-.069 0-.069.431.045.954.25 1.319.25 2 0 2-.136 0-.295-.477-.364-1.09-.273-1.933-.568-2.32-.409-.523.091 1.182.068 1.636-.114 1.523-.136-.069-.318-.614-.409-1.182-.136-.978-.16-1-.41-.5-.227.431-.227.568.046.727s.25.273-.205.614l-.545.432.568-.069c.478-.045.592.069.637.569.091.682.5.886.5.273 0-.228.137-.319.341-.228.182.068.342.023.342-.09 0-.137.159-.228.34-.228s.342.09.342.227c0 .25-1.82 1.228-1.979 1.046-.068-.068-.295.045-.477.25-.25.227-.387.273-.455.09-.046-.136-.182-.25-.296-.25-.136 0-.159.092-.09.228.068.114-.25.364-.706.569-1.023.431-1.228.431-1.228.022 0-.5.433-.682.796-.364.182.16.341.182.341.092 0-.114-.181-.319-.432-.478-.318-.205-.477-.182-.727.114-.182.227-.296.568-.25.773.113.568-.16.5-.774-.182-.386-.41-.545-.478-.545-.227 0 .204.113.363.227.363.136 0 .227.091.227.205 0 .136-.386.182-.841.136-.478-.023-1-.068-1.137-.09-.16-.023-.296-.16-.296-.319 0-.182-.25-.455-.568-.614-.319-.159-.569-.386-.569-.5 0-.09-.159-.182-.34-.182-.183 0-.342-.113-.342-.227 0-.136-.09-.227-.227-.227-.455 0-.205.477.34.682.32.113.57.318.57.454 0 .114.158.227.34.227s.342.114.342.25c0 .433-1.592-.227-2.73-1.136-.454-.364-.522-.546-.34-.841.34-.523.659-.455.84.182.07.318.137.386.16.159.046-.637.66-.682 1.274-.068.432.432.705.523 1.091.409.887-.296 1.16-.205 1.296.364.091.386.182.477.319.272.113-.204.273-.204.636-.022.5.272.523.25 1.206-1.046.136-.25.409-.432.614-.386.182.022.614-.205.955-.523.477-.432.591-.728.477-1.092-.25-.818-.273-1.386-.068-1.682.319-.409.068-1.5-.386-1.75-.637-.386-1.228-1-1.07-1.137.069-.068-.045-.136-.25-.136-.204 0-.636-.273-.954-.591-.5-.5-.705-.568-1.32-.432-.409.114-1 .182-1.341.182-.455 0-.682.159-.887.66-.137.34-.66.863-1.137 1.136-.842.477-1.137.864-.66.864.387 0 .25 1.09-.159 1.34-.34.205-.364.273-.09.455.158.114.227.319.136.478s.09.545.455.932c.545.545.59.659.273.773-.524.204-1.297-.273-1.297-.819 0-.25-.182-.636-.386-.84-.364-.364-.364-.364-.205.067.091.25.205.546.227.682.023.114.114.341.205.5.182.296-.023.978-.318.978-.228 0-.614-.887-.819-1.864-.114-.546.341-2 .614-2 .068 0 .114-.364.091-.796-.046-.91.045-1.046 1.774-2.478 1.182-1 1.432-1.091 2.547-1.136.682-.023 1.319-.114 1.41-.205s.34 0 .545.182.478.34.614.34m-13.485.09.66.546-.591.387c-.705.454-1.251.25-.796-.296.25-.295.227-.34-.091-.204-.5.181-.75-.228-.41-.637.364-.432.455-.432 1.228.205m2.32.023c.182.728.477.955 1.523 1.092.774.09.887.045 1.479-.773.523-.75 1.182-1.182 1.182-.773 0 .227-1.205 2.046-1.5 2.273-.16.114-.32.523-.365.864-.09.91-.523.727-.477-.182.068-1.023-.069-1-.364.045-.319 1.114.023 1.569.75 1.069.364-.205.5-.5.432-.841-.068-.5.728-1.705 1.001-1.455.068.09-.045.5-.25.932s-.364.886-.364 1.023c0 .91-4.161 1.546-6.049.932-1.183-.387-2.183-1.114-2.001-1.432.09-.16.068-.205-.023-.091-.227.204-1.25-.705-1.25-1.114 0-.341.613-.591.795-.318.091.136.069.34-.022.5-.091.136-.069.182.09.09.114-.067.273-.022.319.137.068.182.273.046.5-.34.41-.592 1.046-.842 1.046-.387 0 .113.16.227.341.227s.341.09.341.227c0 .114.137.228.319.228.614 0 .682.522.136.954-.523.432-.568.432-.841.046-.296-.387-.319-.387-.705-.023-.364.387-.364.41.023.25.273-.09.386-.023.386.25s.114.341.455.227c.273-.09.455-.045.455.137 0 .16.227.205.66.136.431-.09.704-.045.772.137.069.204.16.204.387 0 .16-.137.41-.205.569-.16.159.069.364.023.454-.113.069-.136.023-.25-.113-.25-.16 0-.182-.136-.046-.387.296-.5-.204-1-.841-.818-.387.091-.478.023-.478-.386 0-.432-.045-.478-.34-.228-.274.228-.433.228-.615.046-.295-.296.137-.955.637-.955.182 0 .318-.114.318-.273 0-.318.66-1.09.933-1.09.113 0 .25.25.34.567m41.251.591c0 .728-.068.91-.341.796-.182-.068-.341-.023-.341.068 0 .114.159.25.34.319.251.113.274.272.092.84-.273.75-.432.819-.841.41-.16-.16-.273-.205-.273-.137 0 .091.159.319.364.5.181.205.272.478.181.614-.113.182-.295.091-.568-.273-.228-.295-.432-.431-.432-.295s.159.386.34.545c.183.16.342.432.342.592 0 .545-.432.34-.796-.387-.205-.386-.432-.636-.5-.59-.068.067.09.431.364.795.273.386.477.773.477.886 0 .273-1.114 1.296-1.75 1.637-.615.318-1.66.318-1.66 0 0-.114-.092-.182-.206-.114-.113.069-.5-.136-.864-.5-.705-.636-.705-.636-4.275-.432-.841.046-.91 0-.841-.5.113-.682.932-1.841 1.341-1.841.16 0 .5.205.75.455.251.25.638.454.888.454.227 0 .682.205.978.455.568.432.568.432 1.046 0 .523-.5 1.091-.591 1.228-.227.136.431 1.546-.228 1.682-.796.069-.318.364-.591.728-.682 1-.25 1.933-1.728 1.524-2.387-.16-.25.5-1.091.864-1.114.09-.023.159.387.159.91m-36.385-.545c-.023.318-.91 1.273-1.069 1.114-.227-.205.41-1.273.774-1.273.159 0 .295.068.295.159m5.685 1.546c.114.318.319.568.432.568.364 0 1.842 1.387 1.842 1.728 0 .181-.09.318-.204.318-.364 0-.432 1.114-.091 1.591.41.568.25.818-.546.978-.387.068-.796.409-1.046.818-.341.591-.478.66-.864.477-.228-.136-.432-.34-.432-.454 0-.319-1-.273-1.297.022-.363.364-.977.091-.977-.409 0-.227-.273-.659-.569-.955-.523-.477-.546-.636-.41-1.818.115-1 .274-1.41.797-1.887.34-.318.636-.704.636-.84 0-.137.16-.251.342-.251.181 0 .34.09.34.227 0 .41.66.25.91-.227.342-.614.887-.568 1.137.114m20.762.568c.387.75.137 1.137-.409.682-.364-.318-.477-1.364-.136-1.364.113 0 .364.296.545.682m-32.587.636c0 .296-.818.978-.977.819-.228-.227.272-1 .636-1 .182 0 .341.09.341.181m.91.387c0 .364-.614.727-.841.5-.069-.09-.069-.296 0-.5.181-.455.84-.455.84 0m35.02 4.205c.864.432 1.547 1.273 1.274 1.546-.069.068-.137 0-.137-.159 0-.41-1.091-.727-2.07-.568-1.295.204-1.09.545.342.545.682 0 1.319.114 1.387.25.091.137.023.205-.136.182-.182-.023-.978.023-1.797.114-2.729.295-7.595.25-7.413-.068.068-.091-.16-.137-.5-.091-.478.09-.546.045-.273-.137.295-.227.295-.25 0-.273-.341-.022.09-.159 2.501-.704.682-.16 1.296-.341 1.365-.432.227-.273 1.932-.614 3.252-.637.91-.022 1.591.114 2.205.432m-7.345-.09c-.068.068-.273.09-.432.022-.182-.068-.114-.136.136-.136.25-.023.387.045.296.113m-9.71.545c0 .114-.114.227-.25.227-.114 0-.16-.113-.091-.227.068-.136.182-.227.25-.227.045 0 .09.09.09.227m7.186.886c-.068.114-.341.16-.591.091-.637-.159-.569-.295.136-.295.319 0 .523.09.455.204m5.321 1.023c2.32.023 4.571-.022 5.003-.113.432-.114.819-.137.887-.091.136.159-1.137.59-2.092.727-.5.091-.773.205-.614.296.159.09.637.09 1.114-.023 1.069-.25 1.16-.25 1.16.023 0 .114-.227.227-.5.25-.296 0-.728.114-.978.227-.364.182-.341.182.182.091.432-.09.591-.045.5.114-.068.113-.41.227-.75.25a5.2 5.2 0 0 0-1.183.227c-.386.136-.136.16.773.068.864-.09 1.274-.045 1.183.091-.273.455-2.57.796-4.48.682-1.296-.068-1.706-.045-1.342.091.637.25 4.89.273 5.299.046.159-.091.09.022-.114.25-.273.295-.91.454-2.388.568-1.091.09-2.115.09-2.251-.023-.114-.09-.66-.227-1.16-.25-.523-.045-.887-.136-.819-.25.046-.09-.09-.227-.318-.295-.864-.273-1.933-.796-1.842-.91.068-.045.41 0 .75.137.342.136.683.204.728.136.046-.045-.386-.25-.977-.455-.592-.204-1.274-.522-1.501-.75-.342-.318-.41-.318-.41-.022 0 .454.887 1.59 1.137 1.432.091-.069.296.045.455.227.25.296.227.318-.136.205-.342-.091-.296-.023.136.34.91.773 1.728 1.16 3.48 1.592l1.637.432h-1.478c-.796 0-1.57-.046-1.683-.137-.137-.068-.523-.159-.864-.204-.887-.091-2.252-1-3.07-2.046-.705-.887-1.274-2.205-1.046-2.432.227-.205.523.09.523.545 0 .227.113.5.25.591.273.16.182-.454-.16-1.364-.068-.204-.022-.364.092-.364.136 0 .295.205.386.455.068.25.205.432.296.41.09-.023.66.181 1.273.454.614.273 1.547.568 2.047.614.819.113.773.09-.319-.228-1.273-.363-2.41-.977-2.205-1.182.068-.068-.137-.363-.478-.659l-.614-.523 1.137.364c.842.273 2.229.364 5.344.386m-12.007.069c.91 1.09.523 1.727-.727 1.204-1.047-.431-1.32-.886-.796-1.273.568-.431 1.114-.409 1.523.069m-.727 2.818c2.524 2.524 2.433 2.25 1.796 4.82l-.227.84-2.16-.045c-1.183-.022-2.207-.113-2.275-.204-.136-.228-2.137-6.66-2.07-6.684.297-.159 2.366-1 2.48-1.023.09 0 1.182 1.023 2.456 2.296m3.138-1.91c.977.16 1.114.456.409.797-.728.318-2.07-.137-1.478-.523.273-.16.25-.205-.068-.205-.228 0-.41-.113-.41-.25 0-.159.16-.182.41-.09.204.09.727.204 1.137.272m-11.916.683c.75.182 1.75.295 2.228.227.5-.068.933 0 1.046.16.228.272 2.092 5.864 2.092 6.273 0 .114-.159.228-.34.228-.979 0-.387 1.636.727 2.068l.591.228-.159 3.341c-.09 1.842-.227 3.41-.318 3.478-.091.091-.432.205-.773.296-.546.113-.637.045-.865-.728-.159-.454-1.66-4.25-3.32-8.388-1.682-4.16-3.047-7.615-3.047-7.706 0-.068.182-.068.41.023.204.068 1 .295 1.728.5m12.984.5c-.136.114-.477.25-.795.318-.41.068-.341.114.295.137 1.023.022 1.114.363.137.568-.728.136-2.07-.296-2.365-.796-.137-.181-.091-.25.159-.159.182.091.682.068 1.114-.045 1.114-.25 1.706-.273 1.455-.023m-.386 1.227c1.342-.022 1.546.228.455.592-.387.136-.637.318-.569.386.068.09.478.023.887-.114.637-.227.796-.204 1.023.137.364.454.387.75.069.75-.114 0-.228-.16-.228-.341 0-.386-.25-.455-.568-.136-.319.295-1.706.022-1.706-.342 0-.159-.136-.25-.318-.181-.16.068-.478-.16-.705-.5-.387-.591-.387-.614.023-.41.25.114.977.182 1.637.16m6.822.614c.66.16 1.637.228 2.16.16.683-.092.82-.069.5.068-.318.136-.067.181.797.09.91-.09 1.16-.068.91.114-.91.637-5.254.046-5.936-.84-.273-.342-.273-.365.023-.137.182.136.887.386 1.546.545m-6.504 1.16c.364.181.523.181.66-.046.182-.25.25-.25.455.091.136.205.318.341.454.273.114-.068.137.023.069.204-.091.228-.023.364.159.364.182.023.546.5.818 1.091 1.388 3.046 1.979 4.138 2.252 4.138.295 0 .045-.637-.819-2.046-.386-.637-1.569-3.524-1.478-3.615.25-.25.819.637 1.478 2.273.41 1 .978 2.183 1.274 2.615.295.431.545.818.545.863 0 .091-1.91.591-2.228.591s-2.593-3.841-2.434-4.114c.182-.273-.318-.932-.568-.773-.09.068-.296-.045-.455-.227s-.204-.341-.114-.341c.091 0-.113-.364-.432-.796-.614-.795-.5-1 .364-.545m.16 3.091 1.432 2.182-1.433 3.82c-.795 2.114-1.569 3.841-1.728 3.841s-.523-.114-.841-.25c-.705-.318-.819-.955-.819-4.205v-2.57l.682-.363c.569-.295 1.137-.954 1.137-1.341 0-.045-.136-.25-.318-.41-.25-.25-.25-.567-.068-1.613.136-.705.295-1.296.364-1.296.068 0 .796 1 1.591 2.205m.932-.59c0 .136-.091.158-.228.09-.113-.068-.227-.25-.227-.364 0-.136.114-.159.227-.09.137.068.228.25.228.363m-3.48 2.113c-.045.114-.431.341-.864.478l-.773.272-.136 6.888H44.57v-3.387c0-2.5.069-3.432.296-3.5.16-.069.114-.137-.114-.137-.5-.023-1.546-.5-1.546-.705 0-.09 1.114-.136 2.501-.136 1.433.023 2.479.114 2.434.227m-.431 8.73c.295.09.545.25.545.386a.97.97 0 0 0 .296.454c.204.182.25 1.933.159 7.206-.09 6.502-.136 7.002-.5 7.002s-.41-.41-.569-4.66c-.09-2.546-.113-4.865-.045-5.115s.023-.454-.114-.454c-.136 0-.205 1.795-.136 5.114.045 3.842 0 5.115-.205 5.115s-.273-1.341-.296-5.092l-.022-5.07.59-.386c.706-.477.729-1.068.024-1.886-.478-.546-.705-.637-1.683-.614-1.456.022-2.32.545-2.32 1.41 0 .363-.113.75-.25.886-.182.182-.182.386 0 .727q.273.477.205 5.183c-.068 4.5-.091 4.728-.5 4.728-.433 0-.455-.182-.387-4.66.023-2.637-.068-5.206-.205-5.91-.136-.682-.182-1.682-.09-2.228.136-.841.272-1.023 1.023-1.41.477-.25 1.16-.477 1.5-.477l.637-.022-.682-.182c-.5-.137-.273-.182.91-.182.886 0 1.819.068 2.114.136m-4.799.386c-.477.159-.932.364-1 .432-.069.068-.16.795-.205 1.636-.091 2.024-.318 2.16-.318.16 0-1.887.477-2.524 1.933-2.547.25 0 .068.137-.41.319m7.118 2.273c0 .886-.068 1.705-.16 1.796-.113.09-.181 2.478-.181 5.296 0 4.228-.068 5.16-.319 5.251-.272.091-.295-.772-.136-5.887.114-3.296.205-6.57.205-7.297.023-1 .09-1.228.318-1.046.16.16.273.841.273 1.887m-3.16.318c.522.432.522.478.158.841-.727.728-2.683.364-2.683-.5 0-.795 1.705-1.023 2.524-.34m-2.639 4.365c-.023 1.182-.045 3.341-.068 4.796-.023 1.478-.136 2.683-.25 2.683s-.182-2.046-.182-4.729c.023-2.591-.046-4.955-.16-5.25l-.204-.546.455.454c.41.41.455.728.41 2.592m2.388-2.75c-.182.113-.546.204-.796.204-.364-.023-.364-.046.114-.205.796-.25 1.091-.25.682 0m-.114 5.478v5l-1.023-.09c-.569-.046-1-.182-.978-.296.023-.136.091-2.273.16-4.774l.113-4.523.75-.137c.41-.09.796-.159.864-.181.069 0 .114 2.227.114 5m-4.662.363c0 2.978-.09 4.615-.204 4.501-.205-.204-.069-9.206.136-9.206.023 0 .068 2.114.068 4.705m-4.138 5.752c1.478 0 2.32.09 2.32.25 0 .159-.91.204-2.73.159-1.5-.046-2.728 0-2.728.09 0 .114.204.182.454.182.41 0 .455.16.455 1.364s-.045 1.364-.432 1.364c-.591 0-.614-.09-.796-1.773-.182-1.636-.045-1.955.637-1.773.25.068 1.523.136 2.82.136m19.602 1.159c0 1-.068 1.16-.591 1.341-.319.136-.864.227-1.183.227-.591 0-.614-.045-.546-.909.114-1.137.705-1.273.75-.182l.046.75.137-.772c.09-.478.318-.842.591-.955.318-.114.137-.182-.614-.182-.614-.023-1.092-.114-1.092-.228 0-.204 1.956-.454 2.343-.295.09.046.159.591.159 1.205m-2.797-.864c-.068.205-1.91.295-7.163.341-5.958.045-7.095 0-7.095-.25 0-.273 1.182-.341 7.186-.341 5.48-.023 7.14.045 7.072.25m-18.124 1.887c0 1.09-.069 1.477-.273 1.41-.182-.07-.319-.637-.364-1.501-.045-1.16 0-1.41.296-1.41.273 0 .34.296.34 1.5m1.137 0c0 1.227-.069 1.477-.364 1.41-.182-.046-.341-.137-.341-.25.023-.092.023-.728.023-1.41 0-.955.068-1.25.34-1.25.273 0 .342.318.342 1.5m.91-.023c0 1.16-.069 1.478-.342 1.478s-.34-.296-.34-1.319c0-.727.067-1.41.158-1.477.387-.387.523-.046.523 1.318m.954.136c-.113 1.683-.614 1.751-.568.069.045-1.5.023-1.455.364-1.455.204 0 .25.386.204 1.386m3.366-1c0 .137.091.341.227.41.114.068.16 0 .091-.183-.159-.477 1.001-.613 5.094-.613h3.457v1.114c0 1.09 0 1.09-.842 1.273-.477.09-2.728.204-5.003.25l-4.161.113-.046-.864-.022-.863-.091.84c-.137 1.251-.728 1.16-.796-.113l-.023-.955-.09.955c-.069.66-.205.978-.433.978-.25 0-.318-.319-.318-1.387v-1.364l1.478.068c.978.046 1.478.16 1.478.341m9.778.614c0 .932-.295 1.546-.523 1.114-.159-.318.114-2.114.319-2.114.114 0 .204.454.204 1m.592 1c-.273.25-.341-.114-.182-1.091l.159-1.023.068 1c.046.523.023 1.046-.045 1.114m.773-.977c0 .568-.114 1.023-.25 1.023-.228 0-.25-1.455-.046-1.887.205-.387.296-.091.296.864m.773-.432c-.045 1.023-.114 1.227-.318 1.227-.114 0-.228-.409-.228-.932 0-.636.091-.886.273-.84.16.067.273.295.273.545m-18.738 2.819c.546.181.546.181-.16.204-.386.023-.795-.091-.863-.204-.16-.25.204-.25 1.023 0m20.876.045c.364.364.34 1.318 0 1.432-.16.046-.91.137-1.683.227l-1.387.137.136-.864c.16-.955.614-1.091.546-.159-.023.295.045.5.16.432.136-.091.226-.387.226-.682 0-.387.16-.568.523-.637.933-.181 1.206-.159 1.479.114m-19.102.114a2.4 2.4 0 0 1-.796 0c-.228-.069-.046-.114.386-.114s.614.045.41.114m8.687.295c0 .114-.16.228-.364.228-.182 0-.273-.114-.205-.228a.43.43 0 0 1 .364-.227c.114 0 .205.091.205.227m2.478-.136c-.182.182-2 .227-2.16.068-.091-.091.386-.159 1.046-.159s1.16.045 1.114.091m4.594.773c-.137.227-.16.5-.091.591.068.068-.023.136-.25.136-.273 0-.341-.136-.273-.568.159-.819.364-1.114.637-.841.136.136.136.386-.023.682m-17.51-.364q0 .34.136 0c.16-.386.75-.341.75.068q0 .34-.682.341-.682 0-.682-.341c0-.409.455-.454.478-.068m3.32.091c.045.159-.319.25-1.07.25-.727 0-1.136-.091-1.136-.273 0-.341 2.092-.318 2.206.023m.978-.023a.35.35 0 0 1-.341.341.35.35 0 0 1-.342-.341.35.35 0 0 1 .342-.341.35.35 0 0 1 .34.341m2.274-.091c0 .114-.023.205-.046.228-1.228.295-2.297.136-1.887-.296.227-.227 1.933-.159 1.933.068m1.592-.022c0 .113-.319.227-.706.227s-.636-.091-.545-.227c.068-.137.386-.228.705-.228.295 0 .546.091.546.228m1.205-.069c-.16.046-.478.046-.683 0-.227-.068-.09-.113.273-.113.387 0 .546.045.41.113m7.163.637c-.023.432-.136.795-.296.795s-.204-.295-.159-.795c.046-.432.182-.796.296-.796s.182.364.159.796m-.91.113c-.022.387-.204.728-.409.773-1.319.387-8.096.91-11.984.932-.91 0-1.66.091-1.66.205s-.137.091-.273 0c-.16-.114-.591-.205-.978-.205-.546 0-.66.091-.66.569 0 .386.137.591.433.636.386.068.386.023.113-.159-.432-.318-.09-.318.478-.023.705.387.5.705-.387.591-.864-.091-1.273-.454-1.16-1.045.023-.182-.136-.5-.386-.705-.455-.364-.432-.364.09-.659.342-.182 1.593-.318 3.185-.364 3.365-.091 5.23-.25 8.186-.659 2.274-.318 3.434-.455 4.844-.523.568-.045.614.023.568.636m-.705 1.955c-.068.069-.273.091-.432.023-.182-.068-.113-.136.137-.136.25-.023.386.045.295.113m-1.137.228c-.068.068-.272.091-.432.022-.182-.068-.113-.136.137-.136.25-.023.386.046.295.114m7.21.614c.477.636.477.659.045.977-.592.432-.91.409-.728-.045.114-.319.023-.364-.66-.251-.75.114-.796.091-.818-.477l-.023-.614-.16.569c-.227.795-.931.909-.931.136 0-.455.136-.614.636-.727.341-.069.728-.16.842-.205.59-.227 1.364.068 1.796.637m-9.757-.296c-.614.114-1.432.182-1.819.182-.66-.023-.66-.023.114-.182.432-.091 1.25-.159 1.82-.159h1.023zm-5.571.477c0 .114-.09.205-.227.205-.114 0-.228-.159-.228-.364 0-.182.114-.273.228-.204a.43.43 0 0 1 .227.363m.773 0c-.068.114-.227.159-.34.069-.115-.069-.16-.228-.07-.341.07-.114.228-.16.342-.069.114.069.16.228.068.341m1.501-.227c0 .114-.25.205-.568.205-.319 0-.569-.091-.569-.205s.25-.205.569-.205.568.091.568.205m.682-.023a.23.23 0 0 1-.227.228c-.114 0-.227-.114-.227-.228 0-.136.113-.227.227-.227.136 0 .227.091.227.227m8.87.341c0 .364-.137.569-.365.569s-.318-.114-.227-.364c.068-.182.045-.273-.091-.205-.137.068-.228.296-.228.478s-.09.318-.227.318c-.114 0-.227-.25-.227-.546 0-.522.09-.591 1.205-.795.09 0 .16.227.16.545m-15.465.137c0 .113-.159.204-.34.204-.342 0-.455-.273-.205-.523.182-.181.546.023.546.319m1.138-.137c0 .182-.205.341-.455.341s-.455-.159-.455-.341.205-.341.455-.341.455.159.455.341m.91.023c0 .386-.501.318-.638-.091-.045-.159.069-.273.273-.273a.36.36 0 0 1 .364.364m.909-.136c0 .113-.16.227-.341.227s-.341-.114-.341-.227c0-.137.159-.228.34-.228.183 0 .342.091.342.228m10.438.909c-.137.114-.592.182-.978.205-.387 0-1 .113-1.387.227-.546.182-.364.204.91.113a45 45 0 0 0 2.614-.227c.569-.068.956-.068.865.023-.433.432-8.824 1.023-14.668 1.046-2.16 0-3.934.091-3.934.204 0 .114.182.205.41.182.204 0 1.09.045 1.932.114q2.524.17 1.774.886c-.227.25-.341.205-.614-.136-.25-.364-.319-.387-.319-.091 0 .227-.204.341-.568.341-.341 0-.569-.114-.569-.296 0-.181-.09-.318-.227-.318-.114 0-.227.159-.227.341 0 .477-.455.432-.478-.068-.023-.341-.045-.341-.136.045-.091.364-.182.341-.773-.295-.774-.864-.796-.955-.205-1.5.386-.341.932-.432 3.024-.478 1.388-.045 4.435-.295 6.754-.545 2.32-.273 4.821-.569 5.572-.637 1.228-.159 1.364-.114 1.432.273.046.227-.045.5-.204.591m3.206.227c0 .114-.227.228-.5.205-.5 0-.5-.023-.068-.205.25-.113.477-.204.523-.204.022-.023.045.068.045.204m.842-.091c-.069.069-.273.091-.433.023-.181-.068-.113-.136.137-.136.25-.023.387.045.296.113m.75.887c-.16.182-.387.273-.523.182s-.068-.25.182-.432c.523-.387.727-.228.34.25m-9.392.727c-.455.046-.796.182-.728.296.137.227-.75.568-.955.364-.09-.069.023-.137.25-.137.205 0 .342-.091.273-.204-.182-.296.273-.455 1.228-.432l.796.022zm-1.705.273c-.16.091-.524.159-.796.136-.296-.022-.342 0-.091.046.682.182.432.455-.455.477-.455.023-.932-.091-1.023-.25-.137-.204-.228-.182-.41.068-.204.296-.25.296-.455 0-.136-.227-.227-.25-.227-.068 0 .159-.16.296-.364.296-.182 0-.273-.114-.204-.228.068-.136-.023-.227-.228-.227s-.296.091-.227.227c.068.114-.069.228-.319.228-.273 0-.545 0-.636.022-.114 0-.205-.159-.25-.34-.069-.273.272-.364 1.705-.432 3.73-.16 4.275-.16 3.98.045m2.751.182c-.295.045-.75.045-1.023 0-.296-.046-.068-.091.5-.091s.796.045.523.091m8.914.773.432.909-.682.546c-.386.318-.705.432-.75.272-.046-.136.136-.431.432-.659l.5-.409-.636-.023a15 15 0 0 0-1.388 0c-.682.046-.75 0-.75-.636 0-.568.114-.682.637-.773 1.637-.25 1.773-.205 2.205.773m-4.116-.296c.16.273-.113 1.182-.34 1.182-.114 0-.205-.318-.205-.682 0-.636.295-.909.545-.5m.864.387c.114.591-.113.932-.477.704-.227-.136-.046-1.273.205-1.273.09 0 .227.25.273.569m-1.682.295c-.046.478-.205.614-.728.659-.341.023-1.683.205-2.956.41-1.25.204-3.798.409-5.64.454-3.024.091-3.365.068-3.365-.272 0-.341-.023-.341-.273-.023-.228.273-.569.318-1.706.204-1.478-.159-1.887-.113-1.887.205 0 .364 16.51.045 17.692-.341.136-.068.273-.023.273.091s-2.07.432-4.594.727c-3.638.432-4.389.569-3.593.682.932.114.955.137.227.159-.432.023-2.82-.068-5.298-.181-5.435-.273-6.072-.478-4.821-1.705.523-.523.705-.569 2.888-.569 1.296.023 2.91-.045 3.593-.136 2.774-.318 8.8-.932 9.505-.932.683-.023.751.023.683.568m3.229 1.182c0 .114-.114.228-.25.228-.114 0-.16-.114-.091-.228.068-.136.182-.227.25-.227.045 0 .09.091.09.227m-.75.137c-.069.068-.273.091-.433.022-.181-.068-.113-.136.137-.136.25-.023.386.046.296.114m-.25 2.25c-.205.318-.319.659-.25.773.067.114-.251.523-.683.909-.455.387-.728.705-.614.705.227 0 2.092-1.728 2.092-1.932 0-.068-.09-.068-.227 0-.364.227-.25-.182.204-.75.25-.273.569-.5.728-.5.182 0 .114.181-.16.5l-.431.522.591-.522c1.25-1.091 1.137-.432-.136.886-1.683 1.705-2.73 2.41-3.707 2.433l-.75.022 1.16-.841c.613-.454 1.205-1.045 1.273-1.296.204-.568 1.046-1.727 1.182-1.591.068.046-.068.364-.273.682m-.751.137c-.455.795-2.206 2.477-2.57 2.477-.136 0 .387-.613 1.137-1.341.75-.75 1.365-1.455 1.365-1.591s.113-.25.25-.25c.114 0 .045.318-.182.705m-15.668 1.204c.59.705 1.205 1.273 1.341 1.273.137 0-.295-.568-.977-1.25-1.07-1.068-1.16-1.25-.728-1.25.273 0 .5.091.5.182 0 .113.341.591.75 1.091.91 1.046 1.047 1.818.296 1.409-.614-.341-3.093-2.682-3.093-2.955 0-.409.865.273 1.91 1.5m13.78-1.409c0 .205.069.205.273 0 .41-.409 1.115-.341.955.068-.09.182-.227.341-.363.341-.114 0-.137-.136-.046-.295.114-.182.046-.159-.205.045-.227.182-.454.25-.545.182-.069-.091-.273-.046-.455.114-.41.341-.66.045-.296-.387.341-.409.682-.454.682-.068m-1.137.045c0 .046-.159.205-.34.364-.274.227-.342.227-.342-.091 0-.204.16-.363.341-.363s.341.045.341.09m-10.96 1.319c.5.659.886 1.25.818 1.296-.114.136-2.137-2.046-2.137-2.319 0-.432.477-.068 1.319 1.023m1.955-.023c.682 1.023.796 1.705.137.887-1.388-1.751-1.706-1.955-.614-.387.227.364.386.705.295.773-.227.227-1.319-1.023-1.137-1.318.114-.182.068-.205-.114-.114-.272.182-.977-.523-.818-.773.045-.091.455-.091.887-.045.614.068.91.272 1.364.977m7.937-1.023a.53.53 0 0 0-.296.432c0 .159-.66.5-1.57.773-1.864.568-2 .568-2.796.159-.364-.182-.637-.25-.637-.136s.364.318.819.454c.773.273 1.387.228 2.592-.136.569-.159.569-.159.137.318-.364.409-.683.5-1.865.5h-1.41l-.728-1.091-.705-1.068 2.092-.114c3.457-.182 4.662-.204 4.367-.091m-6.936 1c.66 1.182.636 1.66-.091.796-1.25-1.523-1.342-1.705-.842-1.705.228 0 .614.387.933.909m.818.16c.341.568.546 1.091.478 1.159-.137.159-.16.136-.887-1.023-.637-1.068-.705-1.205-.386-1.205.113 0 .477.478.795 1.069m7.073-.41c-.091.228-.046.25.159.091a1.15 1.15 0 0 1 .637-.227c.181-.023.545-.091.795-.182.25-.068-.045.318-.682.887-.614.568-1.273 1.045-1.455 1.045-.432 0-.068-.386.682-.773.273-.136.546-.386.614-.545.046-.182-.432.068-1.091.523-1.297.909-1.865.886-.796-.023.455-.386.59-.614.386-.682-.41-.182-.159-.455.41-.455q.477 0 .34.341m-1.592.932c-.364.364-.796.682-1 .682-.228 0-.137-.204.318-.682.364-.386.796-.682 1-.682.228 0 .137.205-.318.682m-6.026 2.41c0 .068-.228.068-.5-.023-.433-.113-.364 0 .272.546.5.454.66.705.432.705-.182 0-.705-.364-1.137-.842-.454-.477-.614-.75-.364-.682.205.091.387.046.387-.09 0-.137.16-.137.455.022.25.137.455.296.455.364m8.186-.273c0 .046-.159.159-.364.228-.182.068-.273.045-.204-.091.136-.228.568-.319.568-.137m-7.277.728c0 .045-.159.091-.34.091-.183 0-.342-.091-.342-.228 0-.113.16-.159.341-.091.182.091.341.182.341.228m.16 1.136c-.069.068-.273.091-.433.023-.182-.068-.113-.136.137-.136.25-.023.386.045.295.113"/><path fill="#5d89b4" d="M38.386 23.395c.16.068.364.045.432-.023.09-.068-.045-.136-.296-.113-.25 0-.318.068-.136.136m-.91.227c.16.068.364.046.432-.023.091-.068-.045-.136-.295-.113-.25 0-.319.068-.137.136m-2.569.728c-3.07 1.09-5.731 2.887-8.937 6.001-3.753 3.683-5.14 5.774-6.936 10.616-.796 2.16-1.547 5.206-1.501 6.183 0 .296.159-.16.318-1 .75-3.774 2.502-8.32 4.253-11.003 1.364-2.114 4.366-5.25 6.754-7.046 1.637-1.228 4.548-2.842 7.072-3.91.91-.387.205-.273-1.023.159m23.24.954c.16.16.342.228.41.16.068-.069-.046-.205-.273-.273-.319-.137-.341-.114-.137.113m3.025 1.796c3.297 2.796 4.298 3.728 5.549 5.206 3.297 3.933 5.39 8.434 6.503 13.98.228 1.137.432 1.841.432 1.591.046-.886-.682-4.182-1.341-6.228-.819-2.5-2.343-5.524-3.843-7.66-1.479-2.092-4.526-5.116-6.413-6.389-.796-.545-1.206-.773-.887-.5"/><path fill="#5d89b4" d="M26.038 32.238c-.205.34-.273.523-.137.454.25-.159.796-1.045.637-1.045-.068 0-.273.272-.5.59m39.364.319c.09.182.454.705.773 1.137.91 1.159 2.433 3.705 3.547 5.91.546 1.068.978 1.796 1 1.66 0-.523-1.773-4.024-2.933-5.752-1.091-1.614-2.751-3.682-2.387-2.955M17.556 51.424c0 .318.045.431.113.272a1.2 1.2 0 0 0 0-.568c-.068-.136-.113-.023-.113.295m.204 1.751c-.045.864.637 3.728 1.456 6.115.978 2.955 2.433 5.842 4.707 9.388 1 1.546 1.888 3.046 2.001 3.342.25.613 2.024 3.046 2.229 3.046.068 0 .023-.114-.137-.273-.682-.682-.182-.614.705.09 1.046.887 3.161 2.229 3.48 2.229.09 0-.683-.591-1.751-1.319-2.388-1.614-3.525-2.75-4.526-4.478-1.046-1.819-1.091-1.91-.34-1.25.613.545.613.523-.137-.523-.819-1.182-1.501-1.796-.819-.75.227.34.364.682.318.75-.34.34-4.457-7.365-5.39-10.048-.386-1.136-.931-3.114-1.227-4.432-.319-1.319-.569-2.16-.569-1.887m53.895 5.456c-.978 2.977-3.229 7.933-4.389 9.615-.295.432-1.25 1.796-2.092 3.023-.864 1.228-1.5 2.274-1.432 2.342s.818-.91 1.682-2.182c3.98-5.865 5.094-8.093 6.55-12.821 1.137-3.774.886-3.774-.319.023"/><path fill="#5d89b4" d="M20.24 56.788c0 .137.25 1.046.568 2.023 1.205 3.683 3.229 7.388 5.571 10.116 1.5 1.773 2.115 2.319 3.297 2.955l.91.478-.682-.523c-3.707-2.842-6.459-6.888-8.733-12.912-.5-1.318-.932-2.273-.932-2.137"/><path fill="#5d89b4" d="M23.104 60.062c.432 1.659 3.32 7.047 3.798 7.047.091 0-.205-.546-.66-1.183-.431-.659-1.182-2.023-1.66-3.023-1.387-3-1.637-3.455-1.478-2.841m3.73 1.568c0 .136.09.296.227.364s.16-.023.091-.205c-.16-.409-.318-.477-.318-.159m40.842 2.296c-.614 1.114-1.615 2.728-2.229 3.569-1.114 1.5-1.887 2.796-1.683 2.796.182 0 3.798-5.524 4.48-6.842 1.069-2.16.66-1.796-.568.477m-39.25.546c0 .045.182.227.409.386.341.295.364.273.068-.09-.295-.365-.477-.478-.477-.296m38.204 3.091c-.137.25-.182.455-.137.455.068 0 .228-.205.364-.455s.182-.454.136-.454c-.068 0-.227.204-.363.454m-39.091.091c.045.046.34.205.66.341.545.25.545.25.136-.068-.364-.296-1.115-.546-.796-.273m37.681 2.001c-1.251 1.795-1.365 2-1.228 2 .068 0 .636-.773 1.273-1.705s1.114-1.705 1.046-1.705c-.045 0-.546.637-1.091 1.41m-3.48 3.295-.386.637.523-.5c.273-.273.455-.568.386-.636-.068-.069-.295.159-.523.5m.796.636c-.159.205-.25.387-.204.455.068.045.227-.114.386-.341.319-.546.228-.591-.182-.114m-.386 1.864c-1.82 3.024-2.593 5.57-3.139 10.48-.431 3.728-.818 5.228-1.614 6.183-.728.84-.614 1.09.205.454.864-.681 1.25-2.023 1.637-5.796.546-5.274 1.387-8.343 3.093-11.116.386-.591.636-1.137.59-1.205-.067-.045-.408.41-.772 1m-31.678-.75c0 .068.205.227.455.364s.455.182.455.136c0-.068-.205-.227-.455-.363-.25-.137-.455-.182-.455-.137m-.864 2.182c.41.5.841.91.978.91.114 0-.205-.41-.682-.91-1.137-1.159-1.251-1.159-.296 0m1.774 1.251c0 .159 1.387.84 1.5.75.046-.068-.272-.273-.704-.478s-.796-.34-.796-.272m2.092 5.91c0 .364.046.5.114.273.045-.205.045-.523 0-.682-.069-.137-.114.022-.114.409m23.196.341c0 .318.045.432.113.273.045-.137.045-.41 0-.569-.068-.136-.114-.022-.114.296m-22.99 1.114c-.046.91.477 3.5.795 4.16.683 1.34 2.57 2.205 4.822 2.227 1.569 0 1.091-.34-.546-.386-3.002-.09-4.139-1.205-4.73-4.728-.182-1-.341-1.569-.341-1.273m22.763.25c0 .432.045.614.114.386a2.3 2.3 0 0 0 0-.795c-.069-.205-.114-.023-.114.409m1.364.113c0 .364.046.5.114.273.045-.204.045-.523 0-.682-.068-.136-.114.023-.114.41"/><path fill="#5d89b4" d="M57.465 88.431c-.25 2.25-.66 3.5-1.5 4.547-.637.818-.706 1.182-.205 1.182.113 0 .136-.114.068-.228-.068-.136-.023-.227.114-.227.136 0 .181-.114.09-.273-.113-.159-.045-.204.182-.136.182.09.342.022.342-.16 0-.158.159-.636.363-1.068.433-.909.91-3.728.796-4.66-.045-.34-.159.114-.25 1.023m-24.901-.864c0 .319.046.432.114.273a1.2 1.2 0 0 0 0-.568c-.068-.137-.114-.023-.114.295m.182 1.478c0 .182.091.34.228.34.113 0 .159-.158.09-.34-.09-.182-.181-.341-.227-.341-.045 0-.09.16-.09.34m.34 1.296c.296 1 1.137 2.296 1.706 2.66.546.341.546.319-.068-.295-.341-.364-.796-1.16-1-1.75-.388-1.092-.933-1.615-.638-.614m2.047 2.227c.068.114.546.319 1.023.455.5.136.91.364.91.5 0 .16.09.16.296-.023.181-.136.363-.204.409-.136.227.205 2.479.296 2.479.091 0-.114-.523-.205-1.16-.205-.819 0-1.32-.136-1.751-.454-.364-.296-.637-.387-.728-.228-.114.182-.341.182-.773 0-.773-.272-.887-.295-.705 0m-.227-61.603c-.069.113-.023.227.09.227.137 0 .25-.114.25-.227 0-.137-.045-.228-.09-.228-.068 0-.182.091-.25.228m-3.616 2.728c-.273.772-.227 1.204.136 1.432.5.318 1.32-.364 1.297-1.069-.023-.432-.046-.409-.182.068-.182.682-.705.91-.705.319 0-.228-.091-.569-.228-.75-.182-.296-.227-.296-.318 0m2.069.227c-.068.25-.045.454.069.454.272 0 .477-.636.25-.795-.114-.046-.25.09-.319.34m-4.343 2.183c-.091.455-.114.864-.046.932.046.068.182-.25.273-.705.068-.477.091-.886.023-.954-.046-.069-.182.25-.25.727m3.957-.522c0 .045.159.408.34.75.296.568.342.59.342.181 0-.273-.16-.614-.341-.773s-.341-.227-.341-.159m.386 2.455c.091.296.182.41.25.228a.62.62 0 0 0-.136-.523c-.182-.182-.205-.091-.114.295m-9.528 2.183c.136.045.41.045.569 0 .136-.069.022-.114-.296-.114-.319 0-.432.045-.273.114m-1.319 4.955c-.318.364-.068.455.432.137.182-.114.205-.25.068-.341-.113-.069-.34.022-.5.204m-.683 1.25c0 .114.092.228.206.228.136 0 .295-.114.363-.228.069-.136-.022-.227-.204-.227-.205 0-.364.091-.364.227m.341 2.296c-.091.273-.046.591.091.728.16.159.16.318 0 .545-.182.205-.182.296 0 .296.136 0 .25-.114.25-.227 0-.137.227-.341.523-.455.478-.182.478-.205.023-.205-.637-.022-.796-.227-.523-.727.136-.273.136-.432 0-.432-.114 0-.296.205-.364.477m1.751 1.342c-.227.363-.227.454.046.454.159 0 .363-.204.432-.455.068-.25.045-.454-.046-.454-.068 0-.273.205-.432.455m-1.273.818c-.205.546-.182.568.318.273.523-.341.591-.637.136-.637-.182 0-.386.16-.454.364m.887.318c-.069.114-.023.227.09.227.137 0 .25-.113.25-.227 0-.136-.045-.227-.09-.227-.069 0-.182.09-.25.227m22.535-17.163c-.068.182-.023.341.091.341.137 0 .228-.159.228-.34s-.046-.341-.091-.341c-.046 0-.137.159-.228.34m6.754-1.273c-2.547.637-3.934 3.638-2.82 6.047 1.16 2.5 3.935 3.478 6.095 2.16 1.865-1.114 2.638-3.978 1.66-6.002-.819-1.705-3.025-2.682-4.935-2.205m2.775 1.069c.818.386 1.296.977 1.591 1.91.137.454.069.409-.386-.228-1.501-2.205-4.548-1.932-5.526.5-.478 1.205-.296 2.205.546 3.092 1.228 1.34 3.524 1.386 4.707.113.66-.704.728-.363.09.455-1.295 1.637-4.479 1.182-5.684-.796-.933-1.523-.341-3.955 1.182-4.932.91-.569 2.41-.637 3.48-.114m-.228 1c-.068.114-.023.25.091.25.137.023.387.046.546.068.136 0 .273.114.296.25 0 .114.09.5.181.819.387 1.318-.75 2.705-2.205 2.705-.41 0-.432-.046-.16-.227.182-.114.25-.228.114-.228-.114 0 0-.182.296-.409.41-.318.5-.546.386-1.023-.182-.636-.568-.841-.568-.295 0 .613-.5.659-.955.113-.432-.545-.432-.545-.069.341.41 1.069.319 1.25-.34.591-.524-.523-.57-1.75-.046-1.66.318.069.387-.318.045-.431-.523-.182.296-.728 1.297-.887.59-.068 1.114-.159 1.16-.181.045 0 0 .068-.069.204M38.727 33.01c-1.387.842-1.637 2.456-.569 3.638.887 1.023 2.206 1.159 3.161.363 1.251-1.045 1.137-3.182-.227-4-.91-.569-1.455-.569-2.365 0m1.933 1.273c.273.182.5.591.5.887 0 .546-.75 1.25-1.341 1.25-.5 0-1.16-.682-1.16-1.205 0-.568.637-1.295 1.114-1.295.205 0 .614.159.887.363m.955 1.91c0 .114-.227.341-.5.477-.523.273-.523.273-.091-.227.477-.523.591-.591.591-.25m21.558 1.431c-.068.341-.023.682.091.75.296.205.341.069.182-.704l-.136-.682zm4.025 6.775c-.16.75-.068 1.022.319.772.136-.068.181-.273.09-.409-.09-.16-.136-.455-.113-.682.113-.682-.137-.432-.296.318M45.049 39.74c0 .25.068.317.136.136.069-.16.046-.364-.022-.432-.069-.091-.137.045-.114.295m1.455.546c-.068.113-.023.227.091.227.137 0 .25-.114.25-.227 0-.137-.045-.228-.09-.228-.069 0-.183.091-.25.228m-1.433.568c0 .364.045.5.113.273.046-.205.046-.523 0-.682-.068-.137-.113.023-.113.409m-3.32.341c.159.864.25 1.046.454.864.069-.068-.045-.478-.227-.887l-.364-.773zm3.956-.454c0 .113.114.227.25.227.114 0 .16-.114.092-.228-.069-.136-.182-.227-.25-.227-.046 0-.092.091-.092.227m-2.274.796c0 .182.091.341.228.341.114 0 .159-.16.09-.341-.09-.182-.181-.341-.227-.341-.045 0-.09.16-.09.341m-14.736.045c-2.047 1-2.707 4.115-1.32 6.23.637.954 2.184 1.795 3.343 1.795 1.274 0 2.752-.887 3.343-1.978 1.274-2.318.705-4.842-1.319-5.91-1.182-.636-2.933-.682-4.048-.136m3.91.933c2.138 1.25 2.093 4.205-.09 5.66-2.115 1.432-5.23-.182-5.23-2.728 0-2.773 2.865-4.364 5.32-2.932"/><path fill="#5d89b4" d="M31.973 43.922c.137.182.319.636.41.977.113.523.022.773-.524 1.296-.75.773-1.273.841-2.023.318-.296-.204-.569-.318-.637-.25-.114.114.705.682 1.296.887.569.204 1.774-.432 2.024-1.069.341-.909.273-1.409-.273-1.977-.296-.296-.41-.387-.273-.182"/><path fill="#5d89b4" d="M29.904 44.263c-.319.295-.569.636-.569.75 0 .41.955 1.41 1.342 1.41 1.023 0 1.523-1.637.75-2.342-.568-.523-.886-.477-1.523.182m.91.682c0 .614-.228.75-.41.25-.09-.227.205-.819.41-.819zm.795-.25c0 .068-.09.182-.227.25-.114.068-.228.023-.228-.091 0-.136.114-.25.228-.25.136 0 .227.045.227.09m-2.569 2.888c.159.159.34.227.409.159s-.046-.205-.273-.273c-.318-.136-.341-.114-.136.114m9.437-.205c-.16.16-.273.432-.273.614 0 .25.114.182.364-.16.41-.568.341-.886-.091-.454m-.568 1.773c-.069.25-.023.455.09.455.114 0 .205-.205.205-.455s-.045-.454-.09-.454c-.046 0-.137.204-.206.454m-.841.546c0 .204.114.364.227.364.137 0 .228-.091.228-.205a.43.43 0 0 0-.228-.364c-.113-.068-.227.023-.227.205m26.243-7.502c-.273.705 0 1.387.614 1.455.818.091 1.478-.66 1.114-1.296-.296-.568-1.524-.659-1.728-.159m1.273.569c0 .431-.523.795-.773.545-.319-.34-.114-.977.318-.977.296 0 .455.159.455.431m-20.989 3.115c-.478.273-.614.455-.524.841.069.273.069.364 0 .205-.159-.341-.545-.137-.545.318 0 .182.113.273.227.204.136-.068.227-.022.227.091 0 .137-.159.25-.363.25-.705 0 .295 1.933 1.273 2.41 1.25.66 2.956-.636 2.956-2.205 0-1.16-.295-1.705-1.137-2.137-.818-.432-1.296-.409-2.114.023m1.705 1.16c.546.5.523 1.318-.068 1.727-1 .705-2.138-.387-1.615-1.546.319-.66 1.069-.75 1.683-.182m.728 1.75c-.069.204-.228.363-.341.363s-.091-.204.068-.454c.318-.5.477-.455.273.09m14.917-3.317c.137.295.319.477.41.409.068-.091-.046-.318-.273-.546-.41-.364-.41-.364-.137.137m-.34.727c.204.364.409.682.477.682.045 0-.046-.318-.25-.682-.205-.386-.41-.682-.478-.682-.045 0 .046.296.25.682m-4.661-.886c0 .113.113.159.227.09.136-.068.227-.181.227-.25 0-.045-.09-.09-.227-.09-.114 0-.227.113-.227.25m-.455 1.409c0 .045.34.318.75.614l.728.523-.546-.591c-.477-.523-.932-.796-.932-.546m-1.115.75c0 .25.069.318.137.136.068-.159.045-.363-.023-.431-.068-.091-.136.045-.114.295m.888.091c0 .114.113.227.25.227.113 0 .159-.113.09-.227-.068-.136-.181-.227-.25-.227-.045 0-.09.09-.09.227m-4.594-.977c.159.068.364.045.432-.023.09-.068-.046-.137-.296-.114-.25 0-.318.068-.136.136m12.666 1.659c-1 .41-1.569 1.32-1.66 2.729-.09 1.341-.09 1.386.819 2.273.796.796 1.023.91 1.956.91.886 0 1.182-.137 1.887-.774.75-.682.841-.886.932-2.16.091-1.363.091-1.386-.818-2.295-.75-.75-1.046-.91-1.774-.887-.5 0-1.092.091-1.342.205m2.524 1.228c1.047 1.046 1.092 2.365.114 3.342-1.478 1.478-3.661.296-3.661-1.955 0-.636.16-1 .705-1.5.978-.91 1.842-.887 2.842.114"/><path fill="#5d89b4" d="M63.582 50.537c-.432.614-.159 1.432.523 1.523.637.09 1.16-.318 1.16-.955 0-1.045-1.091-1.41-1.683-.568m1.115.205c.068.113.022.227-.091.227-.137 0-.25-.114-.25-.227 0-.137.045-.228.09-.228.069 0 .183.091.25.227m-12.097.909c-2.047 1.251-1.888 4.525.295 5.48 1.206.545 2.092.386 3.207-.592.841-.727.864-.795.864-2.273 0-1.455-.023-1.546-.842-2.296-.704-.636-1.046-.773-1.819-.773-.568 0-1.296.182-1.705.455m2.91.228c1.547.841 1.41 3.796-.25 4.66-1.114.569-2 .432-2.888-.454-.75-.75-.796-.864-.705-1.978.114-1 .25-1.296.887-1.819.796-.682 2.092-.864 2.957-.409"/><path fill="#5d89b4" d="M53.713 52.947c-.523.113-1.182 1.113-1.182 1.84 0 .25.204.706.477 1.047.5.636 1.41.772 2.024.34.273-.204.25-.227-.16-.136-.818.182-1.705-.66-1.614-1.5.137-1.296 1.66-1.432 1.66-.16 0 .637-.477.864-.66.296-.067-.273-.09-.204-.067.137.022.318.159.59.318.636.341.114 1.205-.727 1.205-1.182 0-.386-1-1.5-1.296-1.455-.091.023-.41.091-.705.137m-18.238.045c0 .114.114.295.228.364.136.068.227.045.227-.091a.46.46 0 0 0-.227-.364c-.114-.068-.228-.046-.228.09m6.14.024c0 .113.114.227.25.227.114 0 .16-.114.091-.227-.068-.137-.182-.228-.25-.228-.045 0-.09.091-.09.228m5.912 2.273c0 .114.113.227.227.227a.23.23 0 0 0 .227-.227c0-.136-.09-.227-.227-.227a.23.23 0 0 0-.227.227m.454 2.182c0 .182.114.273.228.205.136-.091.182-.25.114-.364-.205-.318-.342-.25-.342.16m.364.909c-.25.181-.364.318-.227.318.295 0 .887-.41.773-.546-.068-.045-.318.046-.546.227m-5.844 1.614c.273.546.705.887.705.569 0-.114-.228-.387-.478-.637-.5-.432-.5-.432-.227.068m-.66.751c0 .113.114.227.228.227a.23.23 0 0 0 .227-.227c0-.137-.09-.228-.227-.228a.23.23 0 0 0-.228.227m-4.297.364c0 .25.068.319.136.137.068-.16.046-.364-.023-.432-.068-.091-.136.045-.113.295m.432.546c0 .114.113.227.227.227a.23.23 0 0 0 .227-.227c0-.136-.09-.227-.227-.227a.23.23 0 0 0-.227.227m-9.802-9.161c-.295.34-.273.34.205.09.523-.272.637-.477.296-.477-.114 0-.341.16-.5.387m1.614 1.432c0 .432.068.477.273.273.205-.205.205-.341 0-.546-.205-.204-.273-.159-.273.273m-5.23.136c0 .341.591.432.773.114.068-.114-.068-.25-.318-.318-.296-.068-.455 0-.455.204m4.935.91c-.183.182.068.773.318.773s.273-.614 0-.773c-.091-.069-.25-.069-.319 0m37.932 1.227c.068.114.181.228.25.228.045 0 .09-.114.09-.228 0-.136-.113-.227-.25-.227-.113 0-.159.09-.09.227m-6.709.228c0 .113.091.227.205.227s.41.068.637.136c.363.114.363.091-.023-.227-.523-.41-.819-.455-.819-.136m5.003.659c0 .113.114.295.227.363.137.069.228.046.228-.09a.46.46 0 0 0-.228-.364c-.113-.068-.227-.046-.227.09m1.82.251c0 .113.113.227.25.227.113 0 .159-.114.09-.227-.068-.137-.182-.228-.25-.228-.045 0-.09.091-.09.228m-2.502.227c0 .114.113.227.227.227a.23.23 0 0 0 .228-.227c0-.136-.091-.227-.228-.227a.23.23 0 0 0-.227.227m1.137.319c0 .045.182.227.41.386.34.295.363.273.067-.091-.295-.364-.477-.477-.477-.296m-.682.364c0 .114.113.227.25.227.114 0 .159-.113.09-.227-.067-.136-.181-.227-.25-.227-.045 0-.09.09-.09.227m-27.675-3.637c-1.638.66-1.047 3.637.727 3.637.864 0 1.706-.955 1.706-1.932 0-.569-.182-1-.569-1.364-.568-.591-1.023-.682-1.864-.341m.932.955c-.114.159-.046.204.182.113.273-.09.318 0 .227.364-.318 1.341-1.637 1.455-1.637.16 0-.114.159-.365.364-.546.409-.432 1.114-.5.864-.091m23.059 3.751c.159.068.363.045.432-.023.09-.068-.046-.137-.296-.114-.25 0-.318.068-.136.137m-1.819.227c.159.068.363.045.431-.023.092-.068-.045-.136-.295-.114-.25 0-.319.069-.137.137m-5.685 2.501c.16.068.364.045.432-.023.091-.069-.045-.137-.295-.114-.25 0-.319.068-.137.136m1.024.228c.204.045.568.045.795 0 .205-.069.023-.114-.409-.114s-.614.046-.386.114m1.932.227a8 8 0 0 0 1.479 0c.386-.045.068-.091-.75-.091-.82 0-1.138.046-.728.091m2.66.977c.068.114.182.228.25.228.046 0 .091-.114.091-.228 0-.136-.113-.227-.25-.227-.114 0-.159.091-.09.227m.795 0c0 .114.114.228.25.228.114 0 .16-.114.091-.228-.068-.136-.182-.227-.25-.227-.045 0-.09.091-.09.227m-8.188.159c0 .296.66.864.796.705.069-.068-.09-.295-.34-.523-.25-.227-.455-.295-.455-.181m4.275.454c.159.068.364.046.432-.022.09-.069-.046-.137-.296-.114-.25 0-.318.068-.136.136m-2.684 1.41c.546.454.91.59.91.363 0-.045-.341-.272-.728-.454l-.75-.364zm-1.364 4.455c1.342 2.569 1.66 3.069 1.842 3.069.09 0-.319-.955-.91-2.114-1.273-2.478-1.66-3.115-1.887-3.115-.091 0 .34.978.955 2.16m-7.482 6.842c0 .25.068.319.137.137.068-.16.045-.364-.023-.432-.068-.091-.136.045-.114.295m-.022.705c0 .091.113.341.227.523.182.295.227.295.227-.046 0-.204-.09-.454-.227-.522-.114-.069-.227-.069-.227.045m1.364 2.796c.318.091.773.182 1.023.182.364 0 .341-.045-.113-.182-.319-.09-.774-.182-1.024-.182-.363 0-.34.046.114.182m1.137 33.189c-.182.114-.227.227-.114.227.137 0 .387-.113.569-.227s.25-.227.114-.227c-.114 0-.387.113-.569.227m34.452-79.403c-.16 1.682-.728 3.16-1.387 3.728-.228.205-1.183.614-2.07.91-.91.295-1.66.59-1.66.681s.705.205 1.592.25c1.274.069 1.683.182 2.16.637.887.818 1.206 1.546 1.388 3.137.068.773.227 1.41.295 1.41.091 0 .25-.683.387-1.547.477-3 1.25-3.887 3.866-4.364.796-.16 1.41-.364 1.341-.455-.068-.09-.705-.204-1.455-.273-.75-.045-1.592-.272-1.956-.5-.773-.5-1.683-2.455-1.864-3.978-.069-.636-.205-1.159-.296-1.159s-.25.682-.341 1.523m1.592 3.364c.295.41.841.819 1.182.91l.637.159-.682.295c-.91.387-1.638 1.205-2.001 2.273l-.319.91-.386-.841c-.5-1.046-1.024-1.523-2.093-1.887l-.864-.296.728-.159c.887-.182 1.728-1.16 2.251-2.614l.41-1.136.273.84c.159.455.545 1.16.864 1.546M5.117 35.056c-.091.137.022.387.25.569.523.386 6.321 2.841 6.685 2.841 1.365 0-3.206-2.546-6.299-3.5-.273-.092-.546-.046-.636.09M4.093 49.173C.887 49.4 0 49.56 0 49.878s9.983.113 10.597-.228c.41-.227.387-.25-.205-.477-.705-.273-2.387-.273-6.299 0m78.273.023c-1.25.159-1.865.318-1.796.5.136.41 7.39.227 9.255-.273.41-.09.114-.182-1.023-.295a30.5 30.5 0 0 0-6.436.068M11.734 62.79c-.364 3.273-1.387 4.91-3.32 5.478-1.478.41-1.615.66-.387.66 1.274 0 2.365.408 3.048 1.181.477.5 1.432 3.546 1.432 4.547 0 .227.091.409.205.409s.273-.955.364-2.114c.09-1.137.295-2.41.455-2.796.363-.91 1.319-1.637 2.547-1.978.545-.136.977-.318.977-.41 0-.09-.477-.227-1.069-.317-1.341-.205-2.16-.614-2.637-1.319-.478-.727-1.07-2.796-1.07-3.705 0-1.296-.386-1.046-.545.363m.546 2.295c0 .591 1.342 2.274 2.047 2.57l.659.272-.819.636c-.841.682-1.432 1.796-1.432 2.751 0 .318-.091.568-.228.568-.114 0-.227-.159-.227-.386 0-.841-1.114-2.273-2.07-2.66l-.955-.386.728-.455c.796-.477 1.842-2.41 1.842-3.387 0-.455.046-.5.227-.227.114.182.228.5.228.704"/></svg>