<svg xmlns="http://www.w3.org/2000/svg" width="109" height="100" fill="none" viewBox="0 0 109 100"><path fill="#5d89b4" d="M55.597.224c-.195.123-1.073.466-1.95.76-.878.293-1.659.636-1.732.783-.097.123-.292.147-.439.074-.146-.098-.268-.05-.268.073 0 .147-.22.27-.488.27s-.487.122-.487.27c0 .146-.22.22-.488.146-.268-.073-.658.025-.853.245-.196.196-.366.27-.366.171 0-.073-.171 0-.415.172-.22.196-.439.318-.487.27-.244-.172-.854 0-1.22.416-.463.49-2.34 1.15-3.072 1.053-.244-.025-.366.073-.293.196.146.245-.17.343-.78.27-.17-.025-.317.073-.317.22 0 .122-.22.245-.488.245s-.488.122-.488.27c0 .146-.219.22-.463.146-.292-.073-.536.025-.61.245-.097.196-.316.318-.512.22-.195-.073-.365-.024-.365.098 0 .147-.147.245-.293.245-.17 0-.634.172-1.024.368-.366.196-.78.294-.902.22s-.22 0-.22.123c0 .147-.17.269-.39.269s-.731.147-1.146.343a93 93 0 0 1-3.097 1.249c-1.268.514-2.633 1.053-3.048 1.225-.39.171-2.219.881-4.024 1.592-1.804.735-3.73 1.494-4.267 1.739-.536.22-2.243.93-3.78 1.567a144 144 0 0 0-3.291 1.347c-.269.098-1.366.564-2.439.98s-3.17 1.323-4.657 2.009l-2.732 1.2.22.955c.122.588.122 1.2-.024 1.592-.171.465-.147.612.097.612.195 0 .512.564.756 1.347.439 1.348.756 1.592 1.292 1.054.22-.22.293-.22.293.073 0 .27.463.44 1.756.661 1.902.294 2.365.637 2.414 1.813.097 2.18.049 2.4-.561 2.4-1.56.025-1.658.147-1.658 2.229 0 1.568.073 1.935.366 1.935.195 0 .365.171.365.367s.147.368.342.368c.487 0 .56.392.292 1.69-.122.636-.146 1.567-.048 2.106.22 1.127 1.536 2.572 2.39 2.572.877 0 1.243.367 1.219 1.2 0 .416.097.71.219.637.122-.098.195.71.122 2.057-.049 1.25 0 2.23.122 2.23s.22.122.22.269c0 .122-.098.171-.245.098-.146-.099-.243.22-.243.783 0 .686.073.833.243.564.196-.294.244-.27.244.171 0 .294-.146.588-.292.661-.244.123-.244.172 0 .294.146.074.292.245.292.368 0 .147-.097.171-.243.098-.122-.074-.244.073-.244.367s.122.44.243.367c.147-.073.244.025.244.22 0 .221-.097.393-.243.393-.122 0-.244.392-.244.857s.122.857.243.857c.147 0 .244.123.244.27 0 .122-.097.171-.243.098-.122-.074-.244.073-.244.367s.122.44.243.367c.147-.073.244-.024.244.098 0 .147-.073.27-.17.27-.122 0-.171 1.739-.147 3.845.025 2.107-.048 4.042-.195 4.262-.146.294-.122.49.049.612.17.098.17.22.024.319-.122.073-.146.367-.024.636.22.613.195.907.537-3.673.097-1.078.219-3.944.292-6.369.244-7.347.61-13.201.854-13.446.17-.172.243.71.243 2.498 0 1.519.098 2.743.195 2.743.293 0 .05 2.988-.292 3.405-.195.27-.195.318.049.171.195-.122.292-.024.292.319 0 .245-.146.538-.292.612-.244.123-.244.172 0 .294.146.073.292.294.292.465s-.146.392-.292.466c-.244.122-.244.171 0 .294.341.171.39 1.224.048 1.445-.121.073-.243.343-.243.563 0 .367.048.367.243.049s.244-.318.244.049c0 .22-.097.49-.244.563-.121.074-.243.319-.243.515s.122.294.243.22c.244-.147.342.416.122.661-.22.22-.365 18.052-.146 18.199.293.171.439-1.568.463-6.124.025-2.155.098-9.013.195-15.234.122-8.573.098-11.414-.122-11.683-.17-.196-.195-.392-.097-.441.098-.05 1.439-.098 2.975-.098l2.78.024.097 7.838c.171 18.076.317 26.55.464 28.216l.17 1.788H17.63c-4.267 0-4.657.049-5.047.465-.415.466-.415.49.268.588l.683.098-.659.049c-.683.024-1.414.808-1.414 1.519 0 .343.61.392 6.047.392 5.901-.025 6.682.024 6.828.391.22.71-.024.735-5.755.564-5.706-.172-9.34.073-9.51.587-.049.148-.268.246-.463.246-.22 0-.317.146-.22.367.074.196.025.367-.097.367-.146 0-.146.22-.025.564.147.343.147.734 0 .93-.121.196-.219.417-.219.515 0 .294.927.245 1.097-.05.22-.367 2.804-.318 2.804.05 0 .196.074.22.196.073.097-.147 1.585-.27 3.706-.27 1.95 0 16.753-.048 32.92-.097 16.167-.05 28.115-.147 26.579-.245-4.39-.27-65.278-.27-65.96 0-.562.22-.586.196-.367-.368.147-.391.122-.612-.073-.71-.17-.049-.049-.122.268-.122.317-.025.513.073.44.196-.196.293.536.563.902.343.17-.098.073-.22-.22-.343-.39-.147-.341-.196.22-.196.39-.025.634.073.56.196-.073.122.025.293.244.367.561.22.659.196.488-.22-.122-.319 4.17-.368 37.48-.417 20.678-.024 39.332-.049 41.43-.049 2.096-.024 4.51.025 5.364.098l1.536.123.049 1.273.073 1.274L5.535 89.5l-.365.588c-.464.686-.586 1.249-.269 1.249.147 0 .171.098.098.245-.073.122-.049.245.073.245.146 0 .293-.147.366-.319.097-.27 8.876-.343 48.184-.391l48.063-.074-.098 2.792-13.68-.171c-20.63-.27-21.97-.294-24.848-.466-1.439-.073-5.999-.147-10.095-.147-5.682-.024-7.486.05-7.633.294-.146.22-2.609.319-10.753.343-7.17.025-9.51-.024-7.267-.147 1.804-.098 6.413-.22 10.242-.245 3.828-.049 6.56-.147 6.096-.22-.464-.098-3.804-.147-7.438-.098-27.042.294-26.994.294-26.847-.123.122-.367.122-.367-.147-.024-.317.392-2.17.514-2.536.171-.097-.097-.317-.073-.487.074-.39.318-.83.098-.83-.416 0-.196-.097-.343-.243-.343-.244 0-.317.22-.317 1.004 0 .318-.244.416-1.049.416-.756.025-1.195.196-1.658.662-.414.416-.488.612-.268.612s.366.245.366.563c0 .319.146.71.317.882.17.22.17.27.024.196-.195-.123-.268.049-.244.416 0 .319.098.54.22.466.097-.05.17.049.17.245 0 .465-.536.66-1.731.66-.512 0-.951.099-.951.221 0 .343.902.564 1.487.392.366-.122.537-.049.634.343.122.441.342.49 3.097.563 1.61.049 24.507.049 50.867.025 26.36-.05 48.843-.074 49.989-.05 2.121 0 2.926-.146 2.926-.538 0-.122-.219-.22-.512-.22-.268 0-.415-.098-.341-.245.073-.123-.147-.294-.488-.392-.878-.22-1.097-.784-1.097-2.768 0-.93-.098-1.763-.22-1.837-.122-.073-.731-.171-1.341-.196-.732-.024-1.097-.122-1.049-.318.073-.147-.097-.294-.365-.294-.781-.074-.781 0-.927-3.013-.024-.343-.098-.465-.171-.294-.049.147-.244.22-.39.123-.171-.098-.683-.196-1.146-.22a4.9 4.9 0 0 1-1.512-.294c-.61-.245-.658-.368-.56-1.323.048-.588.024-1.445-.074-1.91-.17-.76-.293-.858-.975-.907-1.317-.049-1.512-.22-1.512-1.273 0-1.2-.341-2.156-.975-2.695-.561-.465-.659-1.69-.854-11.29-.073-3.577-.17-7.716-.244-9.186-.073-1.494-.17-4.286-.268-6.221-.073-1.96-.195-3.772-.268-4.041-.171-.784-.342-6.197-.171-5.805.122.245.244.122.463-.367.22-.564.561-.784 1.488-1.054.707-.196 1.024-.392.78-.44-.536-.123-.585-.564-.049-.564.195 0 .317-.098.22-.22-.073-.147.024-.343.244-.441.22-.147.39-.637.439-1.298.024-.71.195-1.225.487-1.42.561-.417.537-.76-.073-.711-.293.024-.488.196-.488.49 0 .367-.121.416-.682.293-.39-.073-3.585-.195-7.096-.244-3.536-.05-6.462-.147-6.56-.22-.073-.074.049-.148.268-.148.196 0 .415-.122.464-.294.073-.196 2.097-.27 7.34-.294 5.535-.024 7.266-.098 7.364-.343.195-.49.683-.342.536.196-.073.27-.049.54.073.613.244.147.537-.588.366-.882-.073-.098.025-.465.244-.784.366-.563.293-1.396-.122-1.396-.122 0-.244-.245-.292-.563-.05-.294-.171-.49-.317-.417-.123.074-.196.319-.171.54.073.416-2.292.44-44.502.49-24.507.048-44.673 0-44.77-.074-.537-.417.877-.515 8.144-.588 4.316-.05 7.9-.172 7.973-.245.098-.074-3.511-.123-7.998-.098l-8.169.024v-1.371l44.551-.098c40.284-.098 44.576-.074 44.722.27.146.391.805.293 1.122-.172.317-.466.195-1.592-.195-1.813-.269-.147-.342-.514-.293-1.273.073-.98.146-1.102.878-1.323.414-.122.78-.318.78-.416 0-.123.171-.147.366-.074.439.172 1.829-.343 1.829-.686 0-.146.17-.171.414-.098.415.172 2.268-.906 2.268-1.322 0-.147-.219-.245-.488-.245-.341 0-.487-.172-.487-.563v-.54l-6.048-.024c-3.316-.024-24.701-.049-47.501-.073-40.162-.025-41.503-.05-41.625-.49-.073-.343.146-.539 1.073-.882 1.146-.392 1.195-.465 1.195-1.347v-.93l2.755-1.152c2.707-1.151 8.608-3.502 23.336-9.283 4.219-1.665 9.876-3.919 12.559-5.02 2.853-1.176 5.096-1.96 5.437-1.911.293.049.537 0 .537-.098 0-.686-1.366-.368-4.999 1.127-2.146.906-8.071 3.257-13.168 5.266S27.8 13.842 26.458 14.38c-5.34 2.156-18.338 7.128-19.24 7.372-.805.221-.902.197-.61-.073.317-.318 22.19-9.111 34.358-13.814 3.146-1.225 7.487-2.964 9.632-3.87 2.146-.882 4.34-1.788 4.877-2.008l.976-.368 3.657 1.494c2.024.809 6.121 2.499 9.145 3.748 3.023 1.224 6.364 2.596 7.437 3.037s5.023 2.057 8.779 3.6a1947 1947 0 0 0 13.411 5.438c6.974 2.768 7.389 2.964 7.145 3.233-.366.343-13.802-4.825-24.58-9.454C71.252 8.33 57.524 2.649 56.768 2.502c-.415-.073-.683-.024-.683.147 0 .147.17.27.414.27.513 0 3.805 1.322 17.143 6.931 14.143 5.927 16.606 6.932 24.02 9.846 3.364 1.323 6.607 2.596 7.217 2.841l1.122.441.317-.612c.292-.514.268-.637-.147-.93-.243-.197-.365-.442-.268-.54.098-.122.293-.049.39.123.122.171.342.245.488.171.39-.245.098-.637-.463-.637-.244 0-.488-.098-.537-.196-.122-.269-2.511-1.371-6.535-2.988-4.852-1.935-12.704-5.119-13.29-5.388a65 65 0 0 0-1.829-.76 84 84 0 0 1-2.609-1.102c-.682-.318-1.39-.587-1.536-.587-.122 0-.439-.098-.683-.22-.829-.466-2.633-1.25-2.828-1.25-.122 0-.878-.294-1.707-.637-1.658-.71-2.439-1.053-3.243-1.347-.317-.122-.854-.343-1.22-.49-.39-.171-.902-.367-1.17-.465-.634-.22-1.463-.588-2.61-1.078-.487-.22-1-.392-1.145-.392-.147 0-.464-.098-.708-.245-.219-.122-.804-.367-1.268-.563s-1.34-.588-1.95-.857c-.805-.368-1.195-.417-1.415-.22-.243.195-.292.17-.243-.099.048-.196-.342-.465-1.025-.71-.61-.22-1.34-.514-1.633-.686-.634-.343-1.049-.367-1.537-.049m.854.515c-.098.122-.39.22-.683.22-.488 0-.488 0-.049-.343.512-.367.976-.294.732.123m-1.463.465c-.074.122-.342.245-.561.245-.366 0-.366-.05-.049-.245.488-.318.805-.318.61 0m-1.22.49c-.073.122-.34.245-.56.245-.366 0-.366-.05-.05-.245.489-.319.806-.319.61 0m-1.097.343c0 .049-.17.171-.39.245-.195.073-.293.049-.22-.098.147-.245.61-.343.61-.147M11.144 22.39c-.073.172-.415.368-.78.417-.464.098-.61.049-.513-.172.098-.245-.073-.27-.658-.098-1.122.319-1.365-.147-.244-.514.512-.171 1.195-.514 1.537-.76.61-.416.61-.416.682.197a2.9 2.9 0 0 1-.024.93m-3.414.466c-.073.196-.024.416.146.465.22.074.195.196-.048.514-.196.22-.39.343-.488.27-.22-.245-.17-1.2.097-1.396.366-.27.44-.245.293.147m1.463.808c-.073.98-.829 1.053-.853.073 0-.563.097-.734.439-.734.34 0 .438.171.414.661m-2.755-.196c.17.245-.537.906-.732.686-.22-.196.073-.906.366-.906.122 0 .292.098.366.22m-.098 1.494c0 .123-.17.245-.39.245-.195 0-.293-.122-.22-.245a.46.46 0 0 1 .39-.245c.122 0 .22.098.22.245m49.94 0c35.968 0 48.062.074 47.941.294-.122.196-12.437.245-48.6.122-26.627-.073-48.452-.146-48.476-.146-.049-.025-.073-.147-.073-.294 0-.172.22-.22.56-.123.293.074 22.19.147 48.648.147m-43.283 3.356c-.073.171.049.318.244.318.268 0 .39.343.463 1.347.098 1.641.025 1.837-.536 1.837-.39 0-.463-.245-.537-2.155-.048-1.176-.024-2.23.025-2.352.146-.342.463.637.341 1.005m.659-.931a.47.47 0 0 1-.244.392c-.122.073-.244-.025-.244-.22 0-.221.122-.393.244-.393.146 0 .243.098.243.22m1.072.147c-.195.49.147.465.561-.074.39-.465.171.098-.244.637-.195.27-.292.27-.438 0-.293-.44-.269-.93.024-.93.122 0 .17.17.097.367m2.585-.025c0 .196-.097.441-.244.515-.122.073-.243-.074-.243-.343 0-.294.121-.515.243-.515.147 0 .244.147.244.343m1.268.196c-.17.172-.292.196-.292.05 0-.344.292-.637.463-.466.049.073-.024.27-.17.416m1.902-.245c0 .123-.122.147-.244.074-.146-.074-.317.024-.39.22-.195.515-.512.49-.634-.049-.097-.318.049-.44.585-.465.366 0 .683.098.683.22m1.122.368c-.244.245-.463-.123-.244-.441.146-.27.195-.27.293 0 .049.171.024.367-.05.44m1.804-.441a.47.47 0 0 1-.243.392c-.122.073-.244-.025-.244-.22 0-.221.122-.393.244-.393.146 0 .243.098.243.22m.976.073c0 .22.097.196.244-.049.195-.318.243-.318.243.05 0 .636-.438.759-.731.195-.17-.318-.17-.49 0-.49.122 0 .244.147.244.294m1.268.49c-.17.172-.244.123-.17-.196.121-.71.145-.735.292-.392a.58.58 0 0 1-.122.588m1.463 0c-.22.22-.293.172-.293-.294s.073-.514.293-.294.22.368 0 .588m1.268-.416c-.098.196-.244.367-.366.367s-.22-.171-.22-.367.171-.367.366-.367c.22 0 .293.146.22.367m1.048.171c-.073.196-.146.123-.146-.147-.024-.27.049-.416.122-.318.073.073.098.294.024.465m.878.147c-.073.294-.22.54-.341.54s-.073-.27.073-.613c.317-.735.488-.686.268.073m1-.318c-.098.196-.22.367-.317.367-.098 0-.195-.171-.195-.367s.146-.367.317-.367c.195 0 .268.146.195.367m.878-.025c0 .172-.195.49-.415.662-.365.294-.39.294-.244-.098.098-.245.171-.564.171-.686s.122-.22.244-.22c.146 0 .244.146.244.342m1.512.025c-.049.122-.195.22-.342.171-.121-.024-.17.05-.097.172.097.122.049.294-.073.367s-.269-.147-.342-.49c-.097-.514-.024-.612.415-.539.268.05.463.172.439.319m1.268-.22c.22.073.39.391.39.685-.024.49-.024.49-.366.05-.317-.417-.366-.417-.512-.074-.073.22-.244.343-.366.27s-.122-.32.025-.613c.292-.515.292-.515.829-.319m1.365.073c0 .122-.146.318-.317.465-.243.196-.317.147-.341-.22-.024-.245.122-.466.317-.466s.341.098.341.22m4.487 1.837c-.024 1.102-.073 2.13-.073 2.278-.024.171-.293.318-.61.318-.61 0-.61-.024-.56-2.204.048-2.082-.074-2.67-.415-1.813-.073.196-.244.294-.39.22-.122-.073-.244-.024-.244.099 0 .147-.122.27-.244.27-.17 0-.17-.148 0-.49.22-.393.195-.49-.122-.49-.707 0-.439 1.077.366 1.42.658.318.732.44.732 1.519 0 1.15-.025 1.2-.78 1.347-.44.073-2.44.098-4.463.073l-3.658-.073-.073-1.078c-.073-1.029.317-2.474.658-2.474.244 0 .756 1.519.756 2.156 0 .906.39.587.44-.368.121-1.592.999-1.96 1.487-.612l.22.661.023-.661c.025-.76.318-.906 1.488-.71 1.39.245 1.95.073 1.95-.588 0-.343-.17-.613-.414-.686-.244-.05.561-.098 1.78-.098h2.22zm1.024-1.641c-.146.416-.122.416.195 0 .171-.22.39-.416.488-.416.268 0 .146.514-.22.906-.292.27-.316.465-.121.686.146.171.243.906.195 1.64-.073 1.152-.147 1.299-.634 1.372-.561.098-.586.074-.44-1.592.074-.906.147-1.96.147-2.351.024-.368.146-.662.268-.662.147 0 .195.196.122.417m3.195-.098c.048.098.048.392-.05.612-.145.343-.194.319-.414-.196-.22-.563-.244-.588-.536-.196-.244.319-.366.368-.585.147-.171-.171-.293-.392-.293-.49 0-.269 1.707-.171 1.878.123m.804.171c0 .27-.048.49-.097.49s-.146-.22-.22-.49c-.073-.27-.024-.49.098-.49s.22.22.22.49m1.22-.318c0 .343-.464.93-.61.784-.195-.196.122-.956.39-.956.122 0 .22.074.22.172m1.463 0c0 .122-.098.367-.244.563-.268.441-.61.172-.415-.367.147-.367.659-.514.659-.196m1.219.049a.47.47 0 0 1-.244.392c-.122.073-.244-.025-.244-.22 0-.221.122-.393.244-.393.146 0 .244.098.244.22m.683.563c0 .441.073 1.445.17 2.205l.196 1.42h-.78c-.757 0-.757 0-.757-1.273 0-.784.147-1.421.39-1.69.196-.22.39-.637.415-.931.049-.833.39-.588.366.27m1.926-.245c-.073.196-.146.123-.146-.147-.025-.27.049-.416.122-.318.073.073.097.294.024.465m.927.172c-.073.294-.268.514-.39.514-.147 0-.195-.073-.147-.196.05-.098.171-.392.269-.637.219-.612.487-.318.268.319m1.024.024c-.17.808-.244.784 2.219.784 1.22 0 1.22 0 1.341-.784.049-.318.22-.637.366-.686.366-.122.39.49.024.858-.317.318-.097.808.415.808.341 0 .439-.392.366-1.298-.025-.22.073-.416.219-.416.366 0 .073 2.4-.341 2.914-.22.294-.195.319.048.172.244-.147.317-.025.244.49l-.073.71h-3.292c-3.292 0-3.292 0-3.365-.588-.049-.318-.024-.955.073-1.396.122-.686.244-.833.756-.833.488 0 .61-.122.585-.563-.073-.784-.024-.907.269-.907.17 0 .22.27.146.735m1.048-.343c0 .196-.097.294-.243.22-.122-.073-.244-.244-.244-.391 0-.123.122-.22.244-.22.146 0 .243.17.243.391m1.707-.098c0 .172-.122.49-.243.686-.196.294-.244.27-.244-.196 0-.294-.098-.539-.244-.539-.122 0-.244.172-.244.368s-.098.367-.244.367c-.293 0-.293-.073-.097-.588.17-.465 1.316-.538 1.316-.098m3.244.196c-.196.76-.561.833-.561.147 0-.392.146-.637.341-.637.22 0 .293.172.22.49m.902-.196c0 .172-.122.49-.244.686-.195.294-.244.22-.244-.318 0-.368.122-.662.244-.662.146 0 .244.147.244.294m.878.294c-.074.343-.05.686.097.76.122.073.244.636.244 1.249 0 .588.122 1.077.244 1.077.146 0 .244-.392.244-.857 0-.98.512-2.817.78-2.817.122 0 .195.319.195.735 0 .441.122.735.317.735q.33 0 .22-.735c-.073-.588-.025-.735.317-.735.341 0 .39.147.292.735-.146.735-.146.735 1 .76.634.024 1.56.024 2.073 0 .829-.074.902-.025.926.636.025.368.073.931.098 1.25.097 1.004-.366 1.175-3.243 1.224-2.366.05-2.731 0-2.95-.367-.22-.417-.27-.417-.586.024-.22.319-.488.417-.78.294-.39-.147-.415-.367-.269-1.935.098-.955.171-1.96.171-2.204 0-.22.17-.416.39-.416.268 0 .342.146.22.587m.829-.098c-.147.27-.293.49-.317.49-.049 0-.073-.22-.098-.49-.024-.294.098-.49.317-.49.293 0 .293.098.098.49m3.365.05c-.049.269-.244.538-.464.563-.292.049-.365-.074-.268-.515.147-.735.854-.808.732-.049m1.024-.32c0 .417-.439.515-.585.148-.073-.22 0-.367.22-.367.194 0 .365.097.365.22m.732.123c0 .196-.098.441-.244.515-.122.073-.244-.074-.244-.343 0-.294.122-.515.244-.515.146 0 .244.147.244.343m.804.147c-.073.27-.244.564-.39.662-.17.098-.195 0-.097-.27.097-.245.17-.539.17-.661 0-.123.098-.22.22-.22s.17.22.097.49m1.268-.27c.073.123.025.295-.122.393-.439.27-.268.833.317.906.464.074.537.245.61 1.396.073 1.396-.22 1.886-.902 1.494-.269-.147-.39-.735-.415-2.302-.049-1.91.122-2.498.512-1.886m1.024.32c-.073.195-.146.122-.146-.148-.024-.27.049-.416.122-.318.073.073.098.294.024.465m2.341.073c-.17.514-.317.465-.317-.147 0-.27.098-.441.244-.343.122.073.17.294.073.49m.903-.27c0 .196-.098.417-.22.515-.146.073-.22-.098-.195-.368.024-.563.415-.685.415-.147m1.121.025c-.097.588-.317.661-.463.122-.073-.318 0-.49.195-.49.17 0 .293.172.268.368m.83 0c0 .196-.098.367-.245.367-.121 0-.243-.171-.243-.367s.122-.367.243-.367c.147 0 .244.17.244.367m1.462-.123c0 .123-.048.245-.097.245-.073 0-.195-.122-.268-.245-.073-.147-.025-.245.097-.245.146 0 .268.098.268.245m1.22-.024c0 .122-.171.343-.366.514-.317.245-.366.22-.366-.22 0-.294.146-.515.366-.515.195 0 .366.098.366.22m1.097.024c-.073.123-.024.245.098.245.146 0 .268-.122.268-.245 0-.269.731-.318 1.317-.098.219.074.39.417.39.735 0 .319.122.588.268.588.17 0 .244-.294.17-.735-.072-.416-.024-.735.098-.735.195 0 .268.54.22 1.837-.025.686 0 .686.22.172.121-.294.39-.539.584-.539.39 0 .708-.906.366-1.127-.122-.073-.292.05-.366.245-.195.54-.585.49-.585-.073 0-.392.195-.466 1.341-.466 1.439 0 1.805.245 1.317.833-.244.294-.22.417.146.686s.512.27.903-.074c.244-.22.341-.416.195-.465-.317-.122-.317-1.029 0-1.029.146 0 .243.172.243.392 0 .196.123.294.244.22.147-.097.196-.269.122-.391-.097-.123-.073-.22.05-.22.097 0 .219.93.267 2.057.073 2.474.22 2.376-3.877 2.327l-2.731-.025.146-2.057c.171-2.229-.048-2.547-.95-1.543-.342.367-.366.539-.147.686.17.098.317.685.317 1.273.024 1.617.024 1.69-.512 1.69-.463 0-.488-.122-.439-2.204.024-1.225.146-2.204.268-2.204.098 0 .122.097.049.244m9.632.147c0 .196-.098.319-.22.245-.39-.245-.463.441-.097 1.005.195.293.317.955.268 1.592-.049.857-.17 1.053-.56 1.053-.44 0-.488-.147-.464-1.764 0-1.053.122-1.91.317-2.13.415-.49.756-.49.756 0m.975.245c-.317.809-.317.833.122.833.244 0 .366.294.415.906.024.882.024.906.122.147.073-.612.244-.808.756-.93.707-.147 2.194-.22 2.609-.123.707.172 1.122-.024.975-.465-.097-.294 0-.515.269-.613.292-.098.365-.049.268.22-.098.197-.049.956.073 1.715.341 2.156.414 2.107-3.146 2.033l-3.072-.073-.073-.857c-.098-.98.414-3.43.707-3.43.122 0 .097.294-.025.637m.976-.367c0 .122.122.171.244.098.146-.074.243.024.243.22 0 .564-.658.49-.804-.098-.073-.27-.025-.49.097-.49s.22.123.22.27m9.876-.025c-.074.123-.244.245-.391.245-.121 0-.219-.122-.219-.245 0-.147.171-.245.39-.245.195 0 .293.098.22.245m-29.14.343c0 .196-.098.441-.244.515-.122.073-.244-.074-.244-.343 0-.294.122-.515.244-.515.146 0 .244.147.244.343m21.166-.049c-.147.441-.683.515-.683.098 0-.22.17-.392.39-.392s.342.123.293.294m1.097-.147c.22.22-.097.858-.341.686-.122-.073-.22-.294-.22-.49 0-.343.293-.465.561-.196m-76.714.637c-.074.196-.147.123-.147-.147-.024-.27.049-.416.122-.318.073.073.098.294.025.465m4.34 1.47c0 1.739-.073 2.033-.415 2.106-.365.074-.438-.122-.438-1.249 0-.833.17-1.641.439-2.106.219-.417.414-.76.414-.76zm14.265-1.617c0 .196-.122.294-.244.22-.146-.097-.195-.269-.122-.391.22-.343.366-.27.366.171m61.45-.147c0 .123-.122.245-.268.245-.122 0-.171-.122-.098-.245.073-.147.195-.245.268-.245.05 0 .098.098.098.245m-68.863.882c.293-.123.342.122.293 1.396l-.073 1.519H24.75l-.074-.956c-.146-1.788.05-2.057 1.342-2.033.658.025 1.219.123 1.292.197.22.293 1.22-.245 1.244-.686.024-.294.073-.245.146.122.073.392.244.539.463.441m22.995 1.372c.024 1.371 0 1.42-.61 1.42s-.634-.024-.463-1.298c.073-.686.268-1.518.44-1.837.243-.539.292-.539.438-.122.098.245.195 1.077.195 1.837m-4.852-.931.219.514v-.563c.024-.367.17-.539.512-.539.463 0 .512.123.439 1.519l-.073 1.543h-2.805c-3.17 0-3.12.024-2.804-2.009l.147-1.077 1.706.049c.927.024 1.756-.025 1.854-.098.22-.22.56.049.804.66M77.81 28.9c.146.245.22.27.22.025 0-.147.219-.294.487-.294.439 0 .488.172.488 1.445v1.445l-2.927.025-2.926.049v-1.323c0-.71.098-1.396.22-1.543.39-.367 4.194-.22 4.438.171m-61.962.833c0 .809.098 1.102.342 1.102.243 0 .39-.318.438-1.004.074-.93.147-1.028.756-1.102a1.4 1.4 0 0 1 1.17.416c.464.466.464.466.464-.049 0-.392.122-.49.683-.416.61.074.658.172.805 1.42.073.735.097 1.421.048 1.52-.048.073-1 .17-2.146.17-1.804.025-2.072-.048-2.097-.416-.024-.392-.048-.392-.146 0-.073.319-.366.441-.95.441h-.83V30.4c0-1.592.073-1.764.902-1.764.512 0 .561.123.561 1.102m8.145-.784c.317.245.414.588.341 1.519-.073 1.127-.122 1.225-.731 1.298-.659.074-.683.05-.683-1.151 0-1.886.244-2.278 1.073-1.666m36.674 1.225c.05 1.102 0 1.445-.317 1.543-.682.27-.877-.22-.707-1.714.122-1.102.244-1.372.561-1.323.293.049.415.416.463 1.494m12.095-1.004c.293 1.151.17 2.13-.341 2.4-.707.392-1 .098-.951-.93.073-1.495.244-2.009.707-2.009.244 0 .488.245.585.539m25.604.49c.293 1.15.073 1.665-.707 1.665-.56 0-.61-.073-.61-1.175 0-.662.074-1.274.171-1.372.39-.392.951.024 1.146.882m-86.297.196c.073.122.024.245-.098.245-.146 0-.268-.123-.268-.245 0-.147.049-.245.097-.245.073 0 .195.098.268.245m-.098 1.64c-.195.368-.244.368-.268.05 0-.417.243-.784.439-.613.048.074-.025.319-.171.564m85.664 5.977c-.073.122-.244.171-.366.073-.122-.073-.17-.245-.073-.367.073-.122.244-.171.366-.073.121.073.17.245.073.367m-86.176.588c0 .196.122.367.268.367.122 0 .195-.098.122-.22-.22-.343.61-.392 6.998-.392h6.023l.61.735c1.122 1.347 1.097 2.229-.097 3.012l-.537.368.537-.907c.634-1.102.39-1.959-.634-2.18-1.244-.22-11.705-.17-12.534.074-.463.122-.927.367-1.049.539-.365.588-.195 1.64.342 2.155.585.54.414.98-.244.588-.976-.612-1.439-2.67-.683-3.086.22-.122.39-.343.39-.514 0-.172-.097-.147-.244.073-.22.319-.243.319-.243-.024 0-.392.463-.956.78-.956.097 0 .195.172.195.368m14.387-.123a.245.245 0 0 1-.244.245c-.122 0-.244-.122-.244-.245 0-.147.122-.245.244-.245.146 0 .244.098.244.245m22.8 0c-.074.098.073.343.292.515.366.294.39.294.244-.098-.097-.27-.049-.417.195-.417.44 0 .464.123.073.735-.268.416-.243.539.05.735.292.171.292.294.048.539-.22.22-.293.22-.293-.098 0-.417-.414-.833-.634-.612-.048.049 0 .391.147.759.219.588.146.759-.464 1.396-.78.784-1.56 1.029-.975.294.317-.368.268-.392-.244-.245-.415.098-.732-.025-1.146-.441-.805-.808-.78-1.2.097-1.078.098.025.147.147.098.27-.22.808 1.56 1.273 2.121.587.318-.367.122-1.518-.268-1.763-.146-.098-2.78-.196-5.9-.245-3.098-.073-5.78-.147-5.95-.22-.196-.074-.488.049-.684.245-.219.196-.512.367-.658.367s-.024-.245.268-.539c.488-.49.878-.563 3.536-.71 4.219-.196 10.169-.172 10.047.024m25.19.196q.95.552.145.882c-.195.073-.317.049-.243-.049.048-.098-2.853-.171-6.462-.171-3.61 0-6.56-.05-6.56-.123.024-.416.512-.71 1.341-.784.537-.049 3.292-.073 6.097-.073 3.73 0 5.267.098 5.681.318m-47.356.196c-.098.294-.049.368.22.245.219-.073.365 0 .365.196 0 .563-.853.27-.878-.294-.024-.294.073-.539.195-.539.147 0 .171.172.098.392m34.236-.294c0 .074-.097.196-.244.27-.122.073-.244.024-.244-.098 0-.147.122-.27.244-.27.147 0 .244.05.244.098m-9.998.882c-.146.294-.243.93-.195 1.42.049.686-.048 1.005-.463 1.323-.707.588-.902.54-.463-.098.22-.294.39-.857.39-1.249 0-.367.17-.955.39-1.274.488-.734.707-.808.341-.122M15.192 40.54l-.44.685-.072-.685c-.05-.392.048-.784.244-.907.56-.367.731.196.268.907m20.166-1.03c0 .074-.098.197-.244.27-.122.074-.244.025-.244-.098 0-.147.122-.27.244-.27.146 0 .244.05.244.099m38.308.564c.122.343.05.662-.17.98-.366.416-.366.416-.244-.147.073-.318 0-.808-.122-1.078-.195-.367-.195-.44.049-.367.146.049.39.318.487.612m22.654.441c0 .637-.366 1.004-1.244 1.225-.658.171-1.438-.343-1.438-.931 0-.171.17-.098.341.123.731.98 2 .195 1.683-1.054-.147-.514-.122-.563.243-.245.22.172.415.588.415.882m-82.47-.098c.098.906-.731 1.617-1.536 1.25-.707-.32-1.073-1.47-.585-1.789.195-.122.732-.196 1.195-.171.707.073.853.171.927.71m3-.22c0 .539.024.538.244-.05.195-.49.292-.538.487-.244.195.27.293.294.39.049.196-.515.561-.319.561.318 0 .661-.219.784-.682.319-.22-.22-.293-.22-.293 0 0 .367-.878.392-1.097.024-.122-.147-.293-.098-.537.196-.341.416-.341.416-.22 0 .074-.245.147-.563.147-.686 0-.147.122-.171.244-.098.146.074.244.025.244-.098 0-.539.488-.245.512.27m2.804-.147c-.073.22-.146.49-.146.612 0 .416-.44.22-.561-.245-.146-.563 0-.76.512-.76.22 0 .293.148.195.393m2.683-.123c.073.147-.025.441-.22.662-.317.294-.463.318-.756.073-.195-.171-.293-.465-.22-.661.147-.417.952-.466 1.196-.074m2.852.27c.196.294.171.514-.048.783-.366.441-1.488.54-1.488.147 0-.147-.146-.245-.341-.245-.463 0-.707-.416-.561-.832.195-.49 2.121-.368 2.438.147m10.632.465c-.536.319-.707-.024-.268-.539.366-.44.415-.44.488-.073.049.22-.05.49-.22.612m1.805-.857c.292.294-.585 1.567-1.195 1.714-.341.098-.683.098-.756 0-.098-.073.024-.147.268-.147.634 0 1.122-.587.951-1.2-.122-.49.342-.735.732-.367m1.487.049c.049.098 0 .343-.122.539-.195.318-.244.318-.463 0-.122-.196-.244-.441-.244-.564 0-.245.683-.22.83.025m8.681.27c0 .465-.56.856-.829.587-.341-.367-.122-1.053.341-1.053.318 0 .488.171.488.465m13.412-.295c0 .123-.17.392-.342.637-.39.49-.78.147-.536-.44.122-.368.878-.515.878-.197m1.17.368c.05.22-.146.636-.414.906-.659.661-1.22.686-.659.049.293-.319.366-.661.269-1.004-.147-.441-.074-.515.268-.441.268.049.487.27.536.49m2.439-.05c.073.172 0 .246-.17.148-.172-.123-.22-.025-.123.196.073.22.024.392-.097.392-.39 0-.61-.466-.44-.882.171-.441.683-.343.83.147m1.024-.244c0 .122-.122.245-.268.245-.122 0-.171-.123-.098-.245.073-.147.195-.245.268-.245.05 0 .098.098.098.245m3.633-.025c.269.172.244.319-.146.735-.415.465-.512.49-.634.172-.17-.417.024-1.127.293-1.127.073 0 .292.098.487.22m3.195.147c.439.54.195 1.176-.537 1.445-.585.196-.756.147-1.268-.465-.463-.539-.536-.784-.341-1.029.341-.44 1.78-.416 2.146.05m10.973.098c.317.613.317.76-.073.76-.342 0-.951-.858-.732-1.078.268-.27.537-.147.805.318m1.804.098c-.024.22.098.417.293.417s.341.122.341.269-.195.22-.414.172c-.244-.074-.854.097-1.341.342-1 .49-2.146.392-2.146-.196 0-.294.097-.294.487-.049.732.466 1.805-.024 1.902-.857.074-.49.195-.661.488-.612.22.049.39.27.39.514m1.293-.196c.195.564-.098.735-.537.294-.463-.49-.463-.661 0-.661.22 0 .44.171.537.367m2.316 0c.39.515.17.662-.292.245-.293-.27-.488-.318-.488-.147s-.122.22-.268.123c-.195-.098-.22.024-.098.416.122.465.098.514-.097.22-.488-.71-.317-1.2.414-1.15.366.024.732.146.83.293m.927.147c0 .123-.098.22-.244.22-.122 0-.244-.17-.244-.391 0-.196.122-.294.244-.22a.47.47 0 0 1 .244.391m1.39.466c-.342.587-.659.636-.659.122 0-.196.147-.367.317-.392q.366 0 0-.147c-.17-.049-.317-.22-.317-.343 0-.147.195-.122.488.025.415.22.439.343.17.735m1.78.098c-.195.196-.366.147-.61-.196-.487-.637-.17-1.005.39-.49.342.318.39.514.22.686m1.61-.71c.243.587-.147.93-.537.44-.17-.245-.342-.514-.342-.637 0-.318.756-.171.878.196m-53.647.49c.024.342-.049.611-.17.611-.123 0-.22-.269-.22-.612 0-.808.365-.808.39 0m1.316-.148c0 .27-.097.539-.219.612-.122.074-.195-.146-.195-.465 0-.343.073-.612.195-.612s.22.22.22.465m1.171.074c-.049.294-.22.563-.39.636-.244.074-.268-.391-.073-1.126.024-.025.146-.05.292-.05.147 0 .22.246.171.54m1.268-.196c0 .171-.195.392-.463.465-.342.074-.415 0-.342-.343.147-.539.805-.637.805-.122m21.702-.05c0 .49-.438 1.054-.658.858-.098-.123-.024-.294.146-.392.171-.122.244-.343.171-.49-.097-.147-.049-.27.073-.27.146 0 .268.148.268.295m1.342.442c-.44.49-1.244.685-.976.245.098-.148.268-.196.39-.123.122.098.22.049.22-.098 0-.122-.147-.294-.293-.367-.17-.074-.073-.074.244 0 .341.073.537.024.537-.172 0-.171.073-.22.17-.147.073.098-.048.392-.292.662m-47.331-.123c-.098.196-.293.367-.488.367s-.268-.146-.195-.367c.098-.196.293-.367.488-.367s.268.147.195.367m6.486 0c0 .441-1.146 1.592-1.56 1.592-.147 0 .097-.318.536-.71.415-.416.78-.857.78-.98 0-.147.049-.27.122-.27s.122.172.122.368m36.529.245c-.074.074-.22-.049-.293-.294-.146-.343-.122-.367.122-.147.17.172.244.368.17.441m-14.022.049c-.195.588-.829 1.298-1.121 1.298-.147 0-.074-.196.121-.44.196-.221.44-.613.513-.858.097-.22.268-.416.39-.416.146 0 .195.196.097.416m-14.582.318c.244.27.317.49.17.49-.145 0-.39-.22-.536-.49-.146-.269-.22-.49-.17-.49.048 0 .292.221.536.49m3.146.025c-.073.122-.244.171-.366.073-.122-.073-.17-.245-.073-.367.073-.122.244-.171.366-.073.122.073.17.245.073.367m13.582.147c-.292.49-.341.343-.122-.294.098-.22.22-.343.268-.27.074.05 0 .319-.146.564m8.632.024c-.17.196-.853-.171-.853-.44 0-.148.17-.147.488.048.243.172.414.343.365.392m9.632-.294c0 .196-.122.294-.243.22-.147-.097-.196-.269-.122-.391.219-.343.365-.27.365.172m18.899-.147c.073.123-.025.245-.244.245-.22 0-.317-.122-.244-.245.073-.146.195-.244.244-.244s.17.098.243.245m1.34 0c0 .123-.194.245-.414.245-.366 0-.39-.049-.073-.245.463-.293.488-.293.488 0m-16.337.71c0 .123-.17.295-.39.368-.342.123-.366.098-.098-.22.342-.417.488-.466.488-.147m-50.281.564c-.147.441-.927.539-1.268.172-.196-.22-.171-.27.146-.147.244.073.488.049.56-.074.22-.367.659-.294.562.05m-7.999.196a.245.245 0 0 1-.244.245c-.121 0-.243-.123-.243-.245 0-.147.122-.245.243-.245.147 0 .244.098.244.245m6.097-.024c0 .367-.488.416-2.927.367-2.95-.074-2.926-.049-2.926-.318 0-.123 1.317-.245 2.926-.245 1.659-.025 2.927.049 2.927.196m17.069.146c-.17.221-.366.319-.415.27-.17-.172.171-.637.464-.637.146 0 .146.147-.05.367m5.779-.048c-.146.44-4.56.538-4.56.122 0-.22-.073-.22-.244.049-.122.196-.292.27-.366.196-.414-.416.269-.563 2.683-.612 1.902-.025 2.56.049 2.487.245m1.78-.074c.585.196.56.196-.17.22-.44.025-.879.025-.976.05-.098 0-.22-.099-.268-.245-.098-.294.512-.319 1.414-.025m16.582.123c-.17.22-.366.318-.464.244-.073-.073.025-.245.22-.367.512-.343.585-.294.244.123m1.414-.098a.36.36 0 0 1-.317.244.36.36 0 0 1-.317-.244c-.049-.147.098-.27.317-.27.22 0 .366.123.317.27m4.243.049c.146.22.195.22.195-.025 0-.147.244-.294.512-.294.44 0 .488.05.195.392-.244.294-.707.367-2.219.294-1.804-.074-2.365.073-1.512.392.22.073.707.147 1.122.147h.732l-.073 10.703c-.098 13.667.048 26.575.268 24.077.17-1.715.341-23.93.268-31.425l-.049-3.355h1.61l.073 6.564c.049 3.6.122 7.642.17 8.989.22 6.515.415 12.1.488 15.43.146 7.397.098 6.711.488 5.879l.317-.735.024.637c.025.392-.146.734-.39.857-.244.122-2.487.196-4.999.22-3.609 0-4.609-.073-4.706-.318-.195-.539.097-.808.805-.735.61.074.658 0 .829-1.273.22-1.543.39-5.34.463-10.655.049-2.743 0-3.65-.22-3.625-.17.05-.292-.049-.292-.171 0-.147.17-.245.366-.245.268 0 .365-.294.365-1.225 0-.98-.073-1.175-.365-1.078-.195.098-.366.025-.366-.122s.17-.27.366-.27c.268 0 .365-.318.39-1.298.024-.685.049-1.665.073-2.13.024-.466.098-.98.22-1.152.097-.147.097-.44.024-.66s-.049-.393.049-.393c.195 0 .243-1.322.341-9.136.024-2.498.097-2.963.512-3.38.244-.245.366-.465.22-.465-.122 0-.171-.172-.098-.367.17-.441 3.536-.49 3.804-.05m17.02-.074a.245.245 0 0 1-.243.245c-.122 0-.244-.123-.244-.245 0-.147.122-.245.244-.245.146 0 .244.098.244.245m1.22-.024c0 .122-.17.269-.366.367-.22.074-.366 0-.366-.22 0-.196.171-.368.366-.368s.366.098.366.22m5.12.122c0 .27-.487.367-2.316.367-1.902.025-2.317-.048-2.317-.343 0-.293.415-.367 2.317-.367 1.829 0 2.317.074 2.317.343m-47.086 9.405c.024 8.059.121 13.423.39 18.664.073 1.274.122 3.894.146 5.83 0 1.91.122 3.55.244 3.624s.22-.44.22-1.102c0-.686.121-1.25.243-1.25.147 0 .244-.513.22-1.175-.025-.93-.05-1.028-.22-.539-.244.784-.268.735-.366-3.184-.024-1.812-.146-4.898-.243-6.858-.098-1.96-.196-6.588-.22-10.287-.024-5.707.024-6.784.341-7.054.269-.245.269-.27.025-.147-.342.172-.342-.073 0-1.371.049-.196-.049-.343-.22-.294-.243.049-.219-.074.025-.49.195-.318.317-1.078.292-1.739-.024-.637.025-1.151.122-1.151.098 0 .244 3.453.317 7.642.098 4.212.269 10.042.39 12.932.123 2.89.293 7.936.39 11.169l.147 5.902-.56.147c-1 .27-9.218-.024-9.608-.343-.244-.196-.342-.196-.342 0 0 .147-.122.27-.268.27-.366 0-.098-1.396.366-1.862.22-.195.39-.49.39-.66 0-.148-.17-.05-.366.22-.341.44-.341.44-.341-.147 0-.343.17-1.054.366-1.592.219-.54.463-1.323.585-1.715.097-.416.195-.539.22-.294s.145.367.267.294c.147-.098.22-.44.22-.808-.024-.368.024-2.107.122-3.846.073-1.763.22-5.07.292-7.348.074-2.302.171-4.678.244-5.339.049-.71 0-1.151-.146-1.151-.17 0-.17-.147-.024-.441.268-.514.292-2.155.024-2.841s-.366-.319-.707 2.425c-.146 1.2-.342 2.645-.415 3.184-.097.734-.073.881.122.612.22-.318.268-.318.268.049 0 .245-.121.44-.268.44-.146 0-.22.148-.146.32.049.146.024 1.126-.098 2.13s-.22 2.107-.22 2.4c0 .319-.121.76-.243.98-.293.49-.17-1.984.146-2.743.122-.343.098-.416-.097-.294-.17.098-.293.025-.293-.196 0-.196.098-.416.22-.49.122-.073.268-.465.317-.881.097-.613.048-.686-.269-.417-.292.245-.341.22-.17-.196.122-.27.244-.906.268-1.396.049-.49.17-1.029.268-1.2.098-.196.073-.22-.122-.122-.365.245-.122-10.63.269-10.998.17-.171.219.025.121.612-.146.784-.268 8.132-.146 8.695.122.637.439-2.18.439-4.09.024-1.175.146-2.204.268-2.278a.5.5 0 0 0 .244-.392c0-.146-.097-.171-.244-.097-.122.073-.244.024-.244-.099 0-.146.122-.269.244-.269.147 0 .244-.49.244-1.102 0-1.176.463-1.568.512-.441.049.93.44-1.42.512-3.037.025-.71.122-1.176.195-1.053.074.122.269.122.488 0 .195-.147.878-.245 1.536-.245h1.146l.025 5.927c.024 3.282 0 6.246-.025 6.613-.024.392.05.686.171.686.098 0 .22-2.719.244-6.074.049-3.331.122-6.295.195-6.589.122-.465.927-.857 1.39-.637.097.05.17 3.92.17 8.597M22.58 45.17c0 1.004-.073 1.837-.195 1.837-.097 0-.195-.833-.195-1.837s.098-1.837.195-1.837c.098 0 .195.833.195 1.837m15.802-1.47c-.098.196-.195.368-.244.368s-.098-.172-.098-.368.098-.367.244-.367c.122 0 .17.171.098.367m24.945 6.417c-.097 4.507-.22 6.834-.39 6.883-.146.049-.268.196-.268.318 0 .147.122.172.244.098.146-.073.244-.049.244.098 0 .123-.147.294-.293.368-.244.122-.244.171 0 .294.146.073.268.44.268.783-.024.417-.073.515-.146.22-.049-.22-.268-.416-.439-.416-.439 0-.366-1.494.122-2.106.293-.343.293-.392.024-.22-.268.147-.317.048-.22-.466.147-.735.123-.76-.39-.245-.365.343-.39.343-.39-.122 0-.294.147-.515.366-.515.195 0 .366-.171.366-.392 0-.22-.146-.342-.293-.269-.414.147-.292-6.221.122-6.515.22-.123.22-.22-.024-.367-.512-.343-.22-2.523.439-3.43.317-.44.634-.783.683-.783.048 0 .048 3.061-.025 6.784m22.117-3.723c-.097 1.862-.073 3.062.05 3.062.145 0 .267-.735.316-1.666.049-.906.122-2.032.146-2.498a66 66 0 0 1 .098-1.42c0-.294.122-.54.268-.54s.195.49.122 1.152c-.049.661-.17 3.38-.244 6.074-.122 3.282-.268 4.948-.439 5.07-.195.123-.195.196-.024.196.146 0 .244.294.22.661-.05.392-.147 1.617-.244 2.768-.098 1.151-.196 3.723-.244 5.756-.073 4.31-.05 4.041-.366 4.041-.17 0-.244-.465-.22-1.102.05-.588 0-1.175-.097-1.249-.098-.098-.195.147-.22.539-.048 1.053-.048 1.151.147 1.714.097.368.049.515-.22.515-.317 0-.439-.515-.414-1.641.122-5.242.341-11.39.414-12.124.073-.54.171-2.352.244-4.042.146-4.017.39-7.91.537-8.156.292-.49.317.098.17 2.89m5.121 5.83c-.024 4.874.049 9.038.17 9.234.171.294.293-7.96.293-17.341 0-1.103 1.073-.931 1.098.196.048 2.767.365 8.988.463 9.135.073.098.17 3.233.244 6.98.073 3.724.17 6.834.22 6.883.048.05.121-2.302.146-5.266.024-6.294.317-4.482.414 2.646.025 3.086-.049 4.751-.22 5.119-.17.294-.194.465-.048.392.122-.098.22 1.077.22 3.037.024 4.016.292 7.372.585 7.176.122-.073.22.05.22.245 0 .44.17.44-5.683.392-4.438-.025-4.925-.098-4.657-.71.22-.54.22-1.96 0-2.915-.122-.539-.098-.784.097-.784.171 0 .244.172.147.368-.073.195-.025.367.122.367.17 0 .22-.245.122-.588-.073-.343-.05-.686.097-.76.293-.17.293-.122.244 2.377-.024 1.2.073 1.91.22 1.91.17 0 .268-.784.292-2.033.049-2.302.098-3.6.22-4.825l.073-.857.341 1.96.073-1.348c.147-3.037.122-5.682-.073-5.805-.097-.073-.097-.245.025-.392.268-.318.243-1.126-.025-1.567-.097-.147-.073-.319.049-.367.097-.025.293-2.94.39-6.442s.22-6.858.244-7.47c.049-.613.097-2.621.146-4.483l.049-3.355h3.707zm-74.788-7.618c-.073.196-.146.123-.146-.146-.025-.27.048-.417.122-.319.073.074.097.294.024.465m23.02.515c-.318.318-.367-.025-.098-.735.17-.416.195-.416.268.025.049.244-.024.563-.17.71m45.55.098c-.024 1.102-.024 1.126-.244.44-.195-.66-.097-1.591.17-1.591.05 0 .098.514.074 1.15m-46.282-.098c-.195.196-.269.171-.269-.098 0-.22.074-.466.171-.563.098-.099.22-.05.268.097.074.172-.024.417-.17.564m-.83.22c-.073.196-.146.123-.146-.147-.024-.27.049-.416.122-.318.073.073.098.294.025.465m33.578 3.013c.098 1.886.22 4.531.293 5.903.098 2.032.073 2.522-.244 2.767-.341.294-.39-.147-.39-4.335.024-2.572 0-4.751-.024-4.874-.073-.465.024-3.086.122-2.988.073.049.17 1.64.243 3.527M38.7 46.443c-.415.44-.537.195-.269-.54.122-.293.244-.318.415-.146.195.196.146.392-.146.685m9.607 0c-.292.49-.341.342-.122-.294.098-.221.22-.343.269-.27.073.049 0 .319-.147.563m-32.529 1.346c-.073.172-.122.05-.122-.293s.049-.466.122-.319a1.3 1.3 0 0 1 0 .612m6.9-.195c0 .195-.097.44-.243.514-.122.073-.244-.074-.244-.343 0-.294.122-.514.244-.514.146 0 .244.147.244.343m33.92.71c-.244.22-.268.196-.122-.147.073-.245.22-.367.293-.294s0 .27-.17.44m-31.237.294c0 .196-.097.367-.244.367-.122 0-.17-.171-.097-.367.097-.196.195-.368.244-.368s.097.172.097.368m-2.73.735c.024.465-.05.857-.147.857-.122 0-.195-.392-.22-.857-.024-.466.05-.858.147-.858s.195.392.22.858m25.481-.49c-.073.22-.195.343-.244.27-.073-.074-.048-.221.05-.368.219-.392.365-.319.194.098m35.529-.123a.245.245 0 0 1-.244.245c-.122 0-.244-.122-.244-.245 0-.147.122-.245.244-.245.146 0 .244.098.244.245m-53.647.098c0 .074-.097.196-.244.27-.121.073-.243.024-.243-.098 0-.147.122-.27.243-.27.147 0 .244.05.244.098m42.747.76c-.073.22-.195.342-.244.269-.073-.074-.049-.22.049-.367.22-.392.365-.319.195.098m-.049 1.518c-.195.367-.244.367-.268.049 0-.416.244-.784.439-.612.049.073-.025.318-.171.563m7.047-.416c0 .122-.122.245-.268.245-.122 0-.17-.123-.097-.245.073-.147.195-.245.268-.245.048 0 .097.098.097.245m-57.28 1.298c-.317.318-.365-.27-.097-.98.17-.392.195-.367.268.147.049.318-.024.686-.17.833m7.535-.955c0 .073-.097.195-.244.269-.121.073-.243.024-.243-.098 0-.147.122-.27.243-.27.147 0 .244.05.244.099m-4.608.71c-.244.22-.269.196-.122-.147.073-.245.22-.367.292-.294.073.073 0 .27-.17.44m9.022.098c-.195.367-.244.367-.268.049 0-.417.243-.784.439-.613.048.074-.025.319-.171.564m23.726-.294c-.097.196-.195.367-.244.367s-.097-.171-.097-.367.097-.367.244-.367c.122 0 .17.171.097.367m25.434.416c-.073.196-.147.123-.147-.147-.024-.27.05-.416.122-.318.073.073.098.294.025.465m-54.061-.196c0 .074-.098.196-.244.27-.122.073-.244.024-.244-.098 0-.147.122-.27.244-.27.146 0 .244.05.244.098m1.463.123c0 .122-.171.294-.39.367-.342.123-.366.098-.098-.22.341-.417.488-.466.488-.147m1.95-.123c0 .074-.097.196-.243.27-.122.073-.244.024-.244-.098 0-.147.122-.27.244-.27.146 0 .243.05.243.098m-5.34.809c-.292.49-.341.342-.122-.294.098-.22.22-.343.268-.27.074.05 0 .319-.146.564m45.136.122c-.17.171-.292.196-.292.05 0-.344.292-.638.463-.466.049.073-.024.27-.17.416m-50.232.49c-.22.22-.293.171-.293-.294s.073-.514.293-.294.22.367 0 .588m9.583-.073a.53.53 0 0 1-.415.269c-.146 0-.146-.147.05-.367.34-.417.633-.319.365.098m1.341.024c-.195.122-.414.171-.463.098-.073-.073.024-.22.22-.343.194-.122.414-.171.463-.098.073.073-.025.22-.22.343m23.897-.245c0 .123-.122.245-.268.245-.122 0-.17-.122-.098-.245.074-.147.196-.245.269-.245.048 0 .097.098.097.245m18.533-.147c0 .074-.098.196-.244.27-.122.073-.244.024-.244-.099 0-.146.122-.269.244-.269.146 0 .244.05.244.098m-41.162.93c-.195.197-.22.099-.122-.318.098-.318.195-.44.269-.244a.67.67 0 0 1-.147.563m47.746-.685c0 .074-.098.196-.244.27-.122.073-.244.024-.244-.099 0-.146.122-.269.244-.269.146 0 .244.049.244.098m-1.707.245c0 .073-.098.196-.244.27-.122.073-.244.024-.244-.099 0-.147.122-.269.244-.269.146 0 .244.049.244.098m2.73.44c-.17.172-.292.197-.292.05 0-.343.293-.637.463-.466.05.074-.024.27-.17.417m-53.7-.045c0 .122-.121.245-.268.245-.122 0-.17-.123-.097-.245.073-.147.195-.245.268-.245.049 0 .097.098.097.245m18.704.294c-.074.196-.147.122-.147-.147-.024-.27.049-.417.122-.319.073.074.098.294.025.466m24.701-.319a.47.47 0 0 1-.243.392c-.122.074-.244-.024-.244-.22 0-.22.122-.392.243-.392.147 0 .244.098.244.22m5.73.025c-.072.122-.267.245-.39.245-.146 0-.17-.123-.097-.245a.5.5 0 0 1 .39-.245c.147 0 .17.098.098.245m-24.018.245c0 .122-.122.245-.269.245-.121 0-.17-.123-.097-.245.073-.147.195-.245.268-.245.049 0 .098.098.098.245m5.852 0c0 .122-.122.245-.268.245-.122 0-.17-.123-.098-.245.074-.147.195-.245.269-.245.048 0 .097.098.097.245m-29.506.098c0 .073-.097.196-.243.27-.122.073-.244.024-.244-.099 0-.147.122-.27.244-.27.146 0 .243.05.243.099m-5.803.93c-.195.196-.22.098-.122-.318.098-.318.195-.44.268-.245a.67.67 0 0 1-.146.563m8.218-.024c-.464.27-.586.073-.196-.343.196-.22.39-.27.44-.122.048.147-.074.343-.244.465m42.454-.514c0 .122-.122.245-.269.245-.122 0-.17-.123-.097-.245.073-.147.195-.245.268-.245.049 0 .097.098.097.245m-46.82.098c0 .073-.097.196-.243.269-.122.074-.244.025-.244-.098 0-.147.122-.27.244-.27.146 0 .244.05.244.099m2.927.147c0 .122-.122.245-.268.245-.122 0-.171-.123-.098-.245.073-.147.195-.245.268-.245.05 0 .098.098.098.245m40.576.147c.073.195.049.293-.097.22a.47.47 0 0 1-.244-.392c0-.343.17-.27.341.172m4.78-.148a.245.245 0 0 1-.244.245c-.122 0-.244-.122-.244-.245 0-.146.122-.244.244-.244.146 0 .244.098.244.245m3.413 0c0 .123-.121.245-.268.245-.122 0-.17-.122-.097-.245.073-.146.195-.244.268-.244.049 0 .097.098.097.245m-54.11.907c-.292.49-.34.343-.121-.294.097-.22.22-.343.268-.27.073.05 0 .319-.146.564m21.923-.441a.47.47 0 0 1-.244.392c-.122.073-.244-.025-.244-.22 0-.221.122-.392.244-.392.146 0 .244.097.244.22m-26.019.514c.098.417.049.441-.366.22-.414-.22-.439-.318-.17-.49.195-.122.365-.22.365-.22.025 0 .098.22.171.49m7.364 0c-.244.27-.487.441-.56.392-.123-.147.511-.857.78-.882.122 0 .024.22-.22.49m1.585-.245a.245.245 0 0 1-.244.245c-.122 0-.244-.122-.244-.245 0-.147.122-.245.244-.245.147 0 .244.098.244.245m47.16.123c-.146.392-.585.514-.585.171 0-.27.268-.539.512-.539.122 0 .147.172.073.368m-45.819.122c-.073.123-.268.245-.39.245-.146 0-.17-.122-.097-.245a.5.5 0 0 1 .39-.245c.146 0 .17.098.097.245m1.83-.147c0 .074-.098.196-.245.27-.121.073-.243.024-.243-.098 0-.147.121-.27.243-.27.147 0 .244.05.244.098m20.726.147c0 .123-.122.245-.268.245-.122 0-.17-.122-.098-.245.074-.147.196-.245.269-.245.048 0 .097.098.097.245m-4.633.368c0 .196-.097.367-.244.367-.122 0-.17-.171-.097-.367.097-.196.195-.368.244-.368s.097.172.097.368m22.068.343c-.073.269-.024.538.122.636.147.074.171.27.074.441-.098.172-.22.098-.342-.22-.268-.686-.244-1.323.049-1.323.146 0 .195.196.097.466m4.512-.22c0 .122-.122.244-.269.244-.122 0-.17-.122-.097-.245.073-.147.195-.245.268-.245.049 0 .098.098.098.245m2.999.44c-.073.294-.22.539-.341.539-.293 0-.269-.172.073-.735.365-.588.463-.514.268.196m-31.773-.074c0 .197-.098.368-.244.368-.122 0-.171-.171-.098-.367.098-.196.195-.368.244-.368s.098.172.098.367m3.901-.122c0 .122-.122.245-.268.245-.122 0-.17-.123-.098-.245.074-.147.195-.245.269-.245.048 0 .097.098.097.245m4.682.294c-.17.171-.293.196-.293.049 0-.343.293-.637.464-.465.048.073-.025.269-.171.416m-34.578.22c-.073.123-.243.172-.365.074-.122-.074-.171-.245-.073-.368.073-.122.243-.171.365-.073.122.073.17.245.073.367m2.756.025c-.073.196-.146.122-.146-.147-.025-.27.048-.416.121-.319.074.074.098.294.025.466m6.657-.294a.245.245 0 0 1-.244.245c-.122 0-.244-.123-.244-.245 0-.147.122-.245.244-.245.146 0 .244.098.244.245m29.75.294c0 .392-.074.465-.269.27-.146-.148-.195-.393-.122-.54.268-.416.39-.318.39.27m-31.847.073c-.098.196-.244.294-.366.22-.268-.146-.049-.587.268-.587.122 0 .171.171.098.367m29.408-.122c0 .122-.122.245-.268.245-.122 0-.171-.123-.098-.245.073-.147.195-.245.268-.245.05 0 .098.098.098.245m19.264-.147c0 .073-.098.196-.244.27-.122.073-.244.024-.244-.099 0-.147.122-.269.244-.269.146 0 .244.049.244.098m-44.259 1.617c-.365.563-.707.955-.804.857-.098-.074-.049-.22.097-.319.147-.098.464-.538.683-.98.244-.465.488-.783.537-.71.073.074-.147.588-.513 1.151m14.192-.686c-.073.196-.146.122-.146-.147-.024-.27.049-.417.122-.319.073.074.098.294.024.466m22.751-.368c0 .123-.219.515-.487.931-.537.808-.659.514-.195-.49.243-.563.682-.833.682-.44m-48.598 3.28c-.05 2.842 0 3.233.39 3.527.244.172.341.392.195.466-.122.073-.293 0-.342-.147-.073-.172-.097.196-.073.857.049.637.147 1.225.22 1.298.073.074.049.416-.098.76-.317.832-.268 1.028.122.367.244-.49.317.588.341 6.466.025 3.87-.048 6.956-.146 6.858s-.195-1.592-.22-3.282a337 337 0 0 0-.146-5.683c-.048-1.616 0-2.694.171-2.914.195-.27.195-.319-.024-.172-.195.098-.317.025-.317-.195 0-.221-.073-.392-.171-.392-.122 0-.17 1.347-.122 2.988.049 1.665.024 2.939-.049 2.89-.414-.441-.682-12.54-.268-12.32.122.073.122 0-.049-.171-.22-.245-.22-.466.073-1.005.318-.612.293-.71-.073-.906-.366-.22-.366-.27.025-.661.292-.294.341-.515.17-.686-.22-.22.05-1.151.342-1.151.049 0 .073 1.445.049 3.208m2.901-2.326c-.097.22-.22.367-.268.293-.073-.073-.073-.318.024-.538.098-.22.22-.368.269-.294.073.073.073.318-.025.538m4.585.195c-.22.368-.464.613-.512.54-.074-.05.073-.393.317-.735.22-.368.463-.613.512-.54.073.05-.074.393-.317.735m1.975-.587c-.073.122-.268.245-.39.245-.147 0-.171-.123-.098-.245a.5.5 0 0 1 .39-.245c.147 0 .171.098.098.245m25.043.294c-.17.171-.293.196-.293.049 0-.343.293-.637.464-.466.048.074-.025.27-.171.417m4.438.857c-.22 1.935-.585 2.523-.439.686.146-1.592.244-2.082.463-2.082.074 0 .05.637-.024 1.396m17.02-.857c-.17.171-.292.196-.292.049 0-.343.293-.637.463-.466.05.074-.024.27-.17.417m-51.817.245c-.073.195-.146.122-.146-.148-.025-.269.048-.416.122-.318.073.074.097.294.024.465m26.775-.294c-.074.122-.269.245-.39.245-.147 0-.171-.123-.098-.245a.5.5 0 0 1 .39-.245c.146 0 .17.098.098.245m19.312.416c.025.465-.024.539-.195.294-.268-.416-.292-.955-.024-.955.097 0 .195.294.22.66m-34.87.122c-.073.196-.146.123-.146-.147-.025-.269.048-.416.122-.318.073.074.097.294.024.465m10.607 0c-.17.172-.292.196-.292.05 0-.343.292-.637.463-.466.049.074-.024.27-.17.416m2.634-.44c0 .073-.098.196-.244.269-.122.073-.244.024-.244-.098 0-.147.122-.27.244-.27.146 0 .244.05.244.099m-23.117.685c-.17.172-.293.196-.293.05 0-.344.293-.637.464-.466.049.073-.025.27-.17.416m30.847 0c-.073.196-.146.123-.146-.147-.025-.27.048-.416.121-.318.074.073.098.294.025.465m1.536-.171c0 .196-.097.367-.244.367-.122 0-.17-.171-.097-.367.097-.196.195-.367.244-.367s.097.17.097.367m10.705 1.518c-.024 1.054-.097 1.617-.146 1.225-.049-.367-.22-.612-.342-.539-.122.098-.22-.024-.22-.22 0-.22.123-.392.27-.392.17 0 .219-.245.121-.588-.122-.539.024-1.371.244-1.371.049 0 .073.857.073 1.885m4.901-1.788c0 .074-.097.196-.243.27-.122.073-.244.024-.244-.098 0-.147.122-.27.243-.27.147 0 .244.05.244.098m-41.04.686c-.072.196-.145.123-.145-.147-.025-.27.048-.416.121-.318.074.073.098.294.025.465m42.113.05c-.073.22-.244.391-.366.391-.146 0-.121-.22.025-.514.317-.588.585-.49.341.122m-44.721-.099a.245.245 0 0 1-.244.245c-.122 0-.244-.122-.244-.245 0-.147.122-.245.244-.245.146 0 .244.098.244.245m20.239.245c0 .123-.122.245-.268.245-.122 0-.17-.122-.098-.245.073-.147.195-.245.268-.245.05 0 .098.098.098.245m22.434 0c0 .123-.122.245-.268.245-.122 0-.17-.122-.098-.245.073-.147.195-.245.268-.245.05 0 .098.098.098.245m-49.282.172c0 .122-.097.416-.22.685-.194.441-.219.417-.219-.196-.024-.367.098-.66.22-.66.146 0 .244.073.22.17m3.682-.098c0 .049-.243.294-.512.563-.536.465-.536.465-.243-.098.243-.44.755-.76.755-.465m21.825.171a.62.62 0 0 1-.44.245c-.17 0-.145-.098.074-.245.463-.294.56-.294.366 0m3.292 0c0 .123-.122.245-.269.245-.121 0-.17-.122-.097-.245.073-.147.195-.245.268-.245.049 0 .098.098.098.245m7.754.172c-.049.245.073.416.244.367.146-.025.293.122.293.318 0 .466-.171.466-.634.025-.39-.416-.464-1.127-.098-1.127.146 0 .244.196.195.417m10.608.073c-.074.27-.22.49-.342.49-.268 0-.268-.074-.073-.588.22-.563.56-.49.415.098m7.34-.122c-.147.392-.586.514-.586.171 0-.27.268-.539.512-.539.122 0 .147.172.073.368m-52.452.367c-.073.294-.195.465-.269.392-.122-.147.122-.882.293-.882.049 0 .049.22-.024.49m2.609-.27c0 .319-.707.858-.902.662-.074-.074-.025-.147.122-.147.17 0 .292-.172.292-.367 0-.196.122-.368.244-.368.146 0 .244.098.244.22m1.121.392c-.219.22-.39.319-.39.196 0-.294.537-.832.683-.685.049.049-.073.269-.293.49m1.561 0c-.17.22-.366.319-.439.245-.073-.049.025-.269.195-.49.171-.22.366-.318.44-.244.072.049-.025.269-.196.49m15.704-.245c-.098.197-.195.368-.244.368s-.097-.172-.097-.367c0-.196.097-.368.243-.368.122 0 .171.172.098.367m4.536-.122a.245.245 0 0 1-.244.245c-.122 0-.244-.123-.244-.245 0-.147.122-.245.244-.245.146 0 .244.098.244.245m23.897.465c0 .123-.171.27-.366.368-.366.122-.488-.123-.195-.417.22-.245.56-.22.56.05m1.463 0a.47.47 0 0 1-.244.392c-.122.074-.244-.024-.244-.22 0-.22.122-.392.244-.392.146 0 .244.098.244.22m-51.94.123c0 .073-.097.196-.244.27-.122.073-.244.024-.244-.099 0-.147.122-.27.244-.27.147 0 .244.05.244.099m29.969.661c-.61.392-.805.22-.317-.245.244-.245.512-.343.56-.196.05.123-.072.319-.243.441m2.219-.539a.47.47 0 0 1-.244.392c-.122.074-.244-.024-.244-.22 0-.22.122-.392.244-.392.146 0 .244.098.244.22m-24.75.49a.53.53 0 0 1-.415.27c-.146 0-.146-.147.049-.368.341-.416.634-.318.365.098m20.605-.245a.47.47 0 0 1-.244.392c-.122.074-.244-.024-.244-.22 0-.22.122-.392.244-.392.146 0 .244.098.244.22M29.237 61.8c-.292.49-.585.858-.634.784-.073-.073.122-.514.415-1.004.707-1.151.902-.955.22.22m3.56-.563c-.243.367-.61.245-.463-.147.098-.196.244-.294.366-.22s.17.245.097.367m16.143.025c-.073.196-.146.122-.146-.147-.024-.27.049-.417.122-.319.073.074.097.294.024.466m2.756-.294c0 .122-.195.245-.415.245-.366 0-.39-.05-.073-.245.463-.294.488-.294.488 0m1.219 0c0 .122-.122.245-.268.245-.122 0-.17-.123-.098-.245.073-.147.195-.245.268-.245.05 0 .098.098.098.245m9.29.808c-.194.196-.268.122-.268-.22 0-.662.342-1.005.44-.466.048.22-.025.539-.171.686m18.143-.318c-.488.538-.854.636-.854.245 0-.148.147-.245.342-.245s.414-.172.487-.392c.098-.22.22-.343.318-.245.073.073-.05.367-.293.637m-55.207.171c-.293.49-.342.343-.122-.294.097-.22.22-.343.268-.27.073.05 0 .32-.146.564m28.506-.563c0 .073-.098.196-.244.27-.122.073-.244.024-.244-.099 0-.147.122-.27.244-.27.146 0 .244.05.244.099m19.434.44c-.073.197-.146.123-.146-.146-.025-.27.049-.417.122-.319.073.074.097.294.024.465m3.243-.293c0 .122-.121.245-.268.245-.122 0-.17-.123-.097-.245.073-.147.195-.245.268-.245.049 0 .097.098.097.245m6.145.293c-.17.172-.292.197-.292.05 0-.343.292-.637.463-.466.049.074-.024.27-.17.416m-44.502.858c-.073.245-.122.049-.122-.417s.049-.66.122-.44c.049.245.049.636 0 .857m39.577-.93c0 .121-.171.269-.342.342q-.366.147-.22-.22c.147-.368.562-.466.562-.123m1.463 0a.47.47 0 0 1-.244.391c-.122.073-.244-.024-.244-.22 0-.22.122-.392.244-.392.146 0 .244.098.244.22m-52.988.562c-.074.196-.147.123-.147-.147-.024-.269.049-.416.122-.318.073.073.098.294.025.465m34.7-.44c0 .073-.098.196-.245.269-.122.073-.244.024-.244-.098 0-.147.122-.27.244-.27.147 0 .244.05.244.098m-29.994.66c-.17.27-.342.442-.415.368-.073-.073 0-.294.171-.514.439-.515.56-.466.244.147m3.17-.293c0 .122-.17.343-.366.514-.39.343-.439.245-.22-.343.147-.416.586-.539.586-.171m23.556.44c-.244.246-.464-.122-.244-.44.146-.27.195-.27.292 0 .05.171.025.367-.048.44m1.755-.367a.76.76 0 0 1-.39.392c-.17.05-.244-.049-.146-.294.17-.44.683-.539.536-.098m-27.018.172c0 .122-.17.27-.342.343q-.365.147-.219-.22c.146-.368.56-.466.56-.123m2.755.147c-.073.22-.195.343-.243.27-.074-.074-.05-.221.048-.368.22-.392.366-.319.195.098m15.046-.27c0 .074-.098.196-.244.27-.122.073-.244.024-.244-.098 0-.147.122-.27.244-.27.146 0 .244.05.244.098m5.12.123c0 .294-.487.612-.658.44-.17-.17.146-.66.44-.66.121 0 .219.097.219.22m-28.261.686c-.293.49-.342.343-.122-.294.097-.22.22-.343.268-.27.073.05 0 .319-.146.564m24.65-.122c-.147.147-.366.196-.464.098-.097-.098-.024-.27.171-.392.463-.294.658-.073.293.294m2.146-.171c0 .22-.22.367-.537.367-.512 0-.512 0-.049-.367.586-.441.586-.441.586 0m8.534-.123c0 .123-.122.245-.268.245-.122 0-.17-.122-.098-.245.074-.147.196-.245.269-.245.048 0 .097.098.097.245m9.632 8.916c.073 4.335.195 8.278.244 8.768.073.539.024.93-.122.93s-.244-1.077-.244-2.767c-.024-3.355-.22-11.585-.341-14.255-.073-1.371-.024-1.739.122-1.249.097.417.268 4.262.341 8.573m1.439-8.254c-.17.98-.293.955-.293-.025 0-.49.098-.833.195-.76.122.074.147.442.098.785m2.95-.686c.074.122.025.294-.121.392-.122.073-.244-.025-.244-.22 0-.442.146-.515.365-.172M56.842 63c-.317.318-.634.073-.39-.294.073-.147.268-.196.414-.123.147.098.147.245-.024.417m20.654-.27a.76.76 0 0 1-.39.392c-.171.05-.244-.049-.147-.294.171-.44.683-.539.537-.098m1.292.515c-.39.391-.634 0-.244-.466.22-.27.366-.294.415-.098.049.147-.024.417-.17.564m1.78-.245c-.146.392-.804.759-1.024.538-.073-.048.146-.318.463-.587.659-.54.78-.515.561.049m-55.06.318c-.098.22-.22.367-.269.294-.073-.074-.073-.319.025-.539.097-.22.22-.367.268-.294.073.074.073.319-.024.539m29.846-.392a.245.245 0 0 1-.243.245c-.122 0-.244-.122-.244-.245 0-.147.122-.245.244-.245.146 0 .243.098.243.245m7.804 0a.245.245 0 0 1-.244.245c-.122 0-.244-.122-.244-.245 0-.147.122-.245.244-.245.146 0 .244.098.244.245m-32.92.22c0 .123-.17.27-.366.368-.365.122-.487-.123-.195-.416.22-.245.561-.22.561.049m2.585.417c-.268.171-.537.294-.61.22-.049-.073.098-.294.366-.465.244-.196.512-.294.585-.22.074.049-.097.269-.341.465m-1.366-.294c0 .074-.097.196-.244.27-.121.073-.243.024-.243-.099 0-.146.122-.269.243-.269.147 0 .244.049.244.098m3.17.147c0 .123-.121.245-.268.245-.122 0-.17-.123-.097-.245.073-.147.195-.245.268-.245.049 0 .097.098.097.245m3.341.294c-.073.196-.146.122-.146-.147-.025-.27.049-.416.122-.319.073.074.097.294.024.466m19.581-.05a.245.245 0 0 1-.244.246c-.122 0-.244-.123-.244-.245 0-.147.122-.245.244-.245.147 0 .244.098.244.245m1.707 0c0 .123-.122.246-.268.246-.122 0-.17-.123-.098-.245.073-.147.195-.245.268-.245.05 0 .098.098.098.245m-10.315.54c-.073.196-.146.122-.146-.147-.024-.27.049-.417.122-.319.073.074.097.294.024.466m.83.024c-.245.22-.269.196-.123-.147.074-.245.22-.367.293-.294s0 .27-.17.441m1.853.05c-.098.195-.269.367-.415.367s-.146-.172.049-.49c.341-.54.585-.466.366.122m1.658.293c-.634.441-.78.172-.22-.44.293-.344.488-.417.561-.197.049.172-.097.441-.341.637m1.755-.514c.147.416-.317 1.029-.585.735-.097-.098-.024-.27.17-.417.318-.196.318-.245 0-.465-.267-.172-.267-.245-.048-.245.17 0 .366.171.463.392m-25.774.465c-.17.22-.366.319-.44.245-.072-.049.025-.27.196-.49.17-.22.366-.318.439-.245.073.05-.025.27-.195.49m4.974-.245c-.097.196-.268.368-.39.368-.146 0-.122-.147.049-.368.17-.196.341-.367.39-.367s.024.171-.049.367m26.238-.122c0 .122-.122.245-.268.245-.122 0-.17-.123-.098-.245.074-.147.196-.245.269-.245.048 0 .097.098.097.245m17.07-.025a.47.47 0 0 1-.244.392c-.122.074-.244-.024-.244-.22 0-.22.122-.392.244-.392.146 0 .244.098.244.22m-45.356.123c0 .073-.098.196-.244.27-.122.073-.244.024-.244-.099 0-.147.122-.27.244-.27.146 0 .244.05.244.099m24.629.147a.245.245 0 0 1-.244.245c-.122 0-.244-.123-.244-.245 0-.147.122-.245.244-.245.146 0 .244.098.244.245m16.508.294c-.049.294-.024.906.073 1.396.073.49.073 1.15-.024 1.494l-.195.612.024-.612c0-.343-.024-.686-.049-.808-.122-.392-.17-1.788-.073-2.205.147-.588.342-.514.244.123m5.682-.343c0 .318-.293.539-.537.392s-.024-.588.317-.588c.122 0 .22.098.22.196m1.707.024a.47.47 0 0 1-.244.392c-.122.074-.244-.024-.244-.22 0-.22.122-.392.244-.392.146 0 .244.098.244.22m-22.678.27c0 .122-.17.245-.39.245-.195 0-.293-.123-.22-.245a.46.46 0 0 1 .39-.245c.122 0 .22.098.22.245m-20.483 2.351c-.366 3.307-.683 4.703-1.268 5.878-.683 1.372-.903 1.2-.244-.196.512-1.077 1.268-4.898 1.268-6.417 0-.833.22-1.714.39-1.543.049.05-.024 1.053-.146 2.278m24.384-2.106a.245.245 0 0 1-.243.245c-.122 0-.244-.123-.244-.245 0-.147.122-.245.243-.245.147 0 .244.098.244.245m-31.651.538c-.17.172-.293.196-.293.05 0-.344.293-.637.464-.466.048.074-.025.27-.171.416m3.365-.318c0 .294-.488.612-.658.44-.171-.17.146-.66.438-.66.123 0 .22.098.22.22m15.582.808c.024.123-.098.196-.244.196-.122 0-.195-.098-.097-.22.073-.123.024-.294-.122-.392-.147-.098-.171-.27-.074-.441.147-.245.488.318.537.857m-23.458.172c-.171.416-.39.686-.488.612-.073-.098.024-.49.22-.882.487-.955.682-.734.268.27m6.413-.71c0 .122-.122.244-.268.244-.122 0-.171-.122-.098-.245.073-.147.195-.245.268-.245.05 0 .098.099.098.245m28.213.538c-.073.172-.122.05-.122-.294s.049-.465.122-.318c.049.171.049.465 0 .612m-8.461-.343c0 .098-.22.319-.488.49-.537.319-.658.074-.195-.392.341-.343.683-.391.683-.098m1.609.71c-.268.27-.415-.097-.22-.563.171-.44.196-.44.269-.024.049.245.024.514-.049.588m1.536-.269c-.244.294-.341.294-.488.05-.097-.172-.073-.393.098-.49.439-.27.707.048.39.44m2.22-.416c0 .27-.757.588-.952.392-.073-.074.025-.245.22-.368.463-.294.731-.294.731-.024m5.608.024a.245.245 0 0 1-.244.245c-.122 0-.244-.122-.244-.245 0-.147.122-.245.244-.245.146 0 .244.098.244.245m14.874-.147c0 .05-.17.147-.365.245-.195.074-.366.025-.366-.098 0-.147.17-.245.366-.245s.365.05.365.098m1.951.441c0 .441-.049.49-.22.196-.145-.196-.17-.44-.121-.539.22-.343.341-.22.341.343m.878.123c-.244.245-.463-.123-.244-.441.147-.27.195-.27.293 0 .049.171.024.367-.049.44m2.78-.294c0 .196-.098.367-.244.367-.122 0-.17-.171-.097-.367.097-.196.195-.368.243-.368.05 0 .098.172.098.368m-49.013.245c0 .196-.098.367-.244.367-.122 0-.171-.171-.098-.367.098-.196.195-.368.244-.368s.098.172.098.368m18.63 0c-.098.196-.196.367-.244.367-.05 0-.098-.171-.098-.367s.098-.368.244-.368c.122 0 .17.172.098.368m5.023-.123c0 .123-.122.245-.268.245-.122 0-.171-.122-.098-.245.073-.147.195-.245.268-.245.049 0 .098.098.098.245m18.288-.147c0 .074-.097.196-.243.27-.122.073-.244.024-.244-.098 0-.147.122-.27.243-.27.147 0 .244.05.244.098m2.56.147c-.072.123-.267.245-.39.245-.146 0-.17-.122-.097-.245a.5.5 0 0 1 .39-.245c.147 0 .17.098.098.245m-51.183 1.029c-.22.294-.39.465-.39.367 0-.269.585-1.15.683-1.028.049.049-.073.343-.293.661m2.17-.539c.074.123.025.245-.097.245-.146 0-.268-.122-.268-.245 0-.147.048-.245.097-.245.073 0 .195.098.268.245m2.805 0c0 .123-.122.245-.269.245-.121 0-.17-.122-.097-.245.073-.147.195-.245.268-.245.049 0 .098.098.098.245m26.579 0a.245.245 0 0 1-.244.245c-.122 0-.244-.122-.244-.245 0-.147.122-.245.244-.245.146 0 .244.098.244.245m18.045-.024a.47.47 0 0 1-.244.391c-.122.074-.244-.024-.244-.22 0-.22.122-.392.244-.392.146 0 .244.098.244.22m-48.038.27c0 .121-.122.244-.268.244-.122 0-.171-.123-.098-.245.073-.147.195-.245.268-.245.049 0 .098.098.098.245m27.945.415c-.244.245-.464-.122-.244-.44.146-.27.195-.27.292 0 .05.171.025.367-.048.44m23.507-.416c0 .123-.122.245-.269.245-.121 0-.17-.123-.097-.245.073-.147.195-.245.268-.245.049 0 .098.098.098.245m-49.94.539c-.171.171-.293.196-.293.049 0-.343.293-.637.463-.466.05.074-.024.27-.17.417m6.29-.367c0 .587-.56 2.032-.78 2.032-.146 0-.17-.171-.073-.44.098-.22.244-.71.317-1.103.098-.563.537-.98.537-.49m25.849.048a.5.5 0 0 1-.195.368c-.122.073-.22-.025-.22-.22 0-.197.098-.368.22-.368.097 0 .195.098.195.22m14.996.025c.073.123.025.245-.097.245-.147 0-.268-.123-.268-.245 0-.147.048-.245.097-.245.073 0 .195.098.268.245m-51.817.857c-.147.368-.317.637-.39.564-.05-.074 0-.441.146-.809.146-.367.317-.636.39-.563.049.073 0 .44-.146.808m6.096-.612c0 .122-.122.245-.268.245-.122 0-.171-.123-.098-.245.073-.147.195-.245.268-.245.05 0 .098.098.098.245m1.341.22a.53.53 0 0 1-.415.27c-.146 0-.146-.147.05-.368.34-.416.633-.318.365.098m1.512.074c-.073.196-.146.122-.146-.147-.025-.27.048-.416.122-.319.073.074.097.294.024.466m19.63 0c-.171.171-.293.196-.293.049 0-.343.293-.637.463-.466.05.074-.024.27-.17.417m1.682.514c-.317.319-.366-.024-.097-.735.17-.416.195-.416.268.025.049.245-.024.563-.17.71m4.048-.514c-.073.196-.146.122-.146-.147-.025-.27.049-.416.122-.319.073.074.097.294.024.466m15.923-.172c0 .196-.048.368-.097.368s-.147-.172-.244-.368c-.073-.196-.024-.367.097-.367.147 0 .244.171.244.367m-24.384.368c0 .27-.171.49-.366.49-.317 0-.317-.074-.073-.49.17-.27.341-.49.365-.49.05 0 .074.22.074.49m5.633.27c-.318.342-.513.44-.513.22 0-.319.78-1.03.927-.858.049.05-.122.343-.415.637m22.41-.54a.47.47 0 0 1-.245.392c-.122.074-.244-.024-.244-.22 0-.22.122-.392.244-.392.147 0 .244.098.244.22m-30.97.27c0 .122-.121.245-.268.245-.122 0-.17-.123-.097-.245.073-.147.195-.245.268-.245.049 0 .097.098.097.245m26.336 0c0 .122-.049.245-.098.245-.073 0-.195-.123-.268-.245-.073-.147-.024-.245.098-.245.146 0 .268.098.268.245m3.658-.05c0 .32-.293.54-.537.393s-.024-.588.317-.588c.122 0 .22.098.22.196m-25.41.442c-.219.22-.511.318-.658.245-.487-.319-.268-.637.39-.637.61 0 .635.024.269.392m2-.123c0 .22-.756.515-.902.368-.073-.074-.073-.22.024-.343.147-.245.878-.294.878-.025m21.825-.024c-.073.122-.244.245-.39.245-.122 0-.22-.123-.22-.245 0-.147.17-.245.39-.245.195 0 .293.098.22.245m-49.599.661c-.293.49-.341.343-.122-.294.098-.22.22-.343.268-.27.073.05 0 .32-.146.564m2.122-.171c-.171.269-.39.49-.488.49-.122 0-.073-.221.097-.49.171-.27.39-.49.488-.49.122 0 .073.22-.098.49m1.755-.392c0 .073-.097.196-.244.27-.122.073-.244.024-.244-.099 0-.147.122-.27.244-.27.147 0 .244.05.244.099m27.555.147c0 .122-.17.245-.39.245-.195 0-.293-.123-.22-.245a.46.46 0 0 1 .39-.245c.123 0 .22.098.22.245m3.658-.025a.47.47 0 0 1-.244.392c-.122.073-.244-.025-.244-.22 0-.22.122-.392.244-.392.146 0 .244.098.244.22m17.8.025a.245.245 0 0 1-.243.245c-.122 0-.244-.123-.244-.245 0-.147.122-.245.244-.245.146 0 .244.098.244.245m-48.354.857c-.098.196-.269.367-.415.367s-.146-.171.049-.49c.341-.538.585-.465.366.123m5.681-.368c0 .123-.122.245-.268.245-.122 0-.17-.122-.097-.245.073-.147.195-.244.268-.244.049 0 .097.097.097.245m35.529 1.03v1.297l-.244-.93c-.195-.809-.122-1.641.17-1.641.05 0 .074.587.074 1.273m1.78-1.03c0 .123-.122.245-.268.245-.122 0-.17-.122-.098-.245.073-.147.195-.244.268-.244.05 0 .098.097.098.245m6.364.319c-.317.318-.634.073-.39-.294.073-.147.269-.196.415-.123.146.099.146.246-.025.417m-55.134-.074c0 .123-.122.245-.268.245-.122 0-.17-.122-.097-.245.073-.147.195-.245.268-.245.049 0 .097.099.097.245m4.39 0c0 .123-.122.245-.269.245-.122 0-.17-.122-.097-.245.073-.147.195-.245.268-.245.049 0 .098.099.098.245m2.926 0a.245.245 0 0 1-.244.245c-.122 0-.244-.122-.244-.245 0-.147.122-.245.244-.245.146 0 .244.099.244.245m20.97-.147c0 .074-.097.196-.243.27-.122.073-.244.024-.244-.098 0-.147.122-.27.244-.27.146 0 .244.05.244.099m1.708.147c0 .123-.122.245-.269.245-.122 0-.17-.122-.097-.245.073-.147.195-.245.268-.245.049 0 .098.099.098.245m19.751 0a.245.245 0 0 1-.243.245c-.122 0-.244-.122-.244-.245 0-.147.122-.245.243-.245.147 0 .244.099.244.245m2.683-.147c0 .074-.098.196-.244.27-.122.073-.244.024-.244-.098 0-.147.122-.27.244-.27.146 0 .244.05.244.099m-30.067.686c-.073.196-.146.123-.146-.147-.024-.27.049-.416.122-.318.073.073.097.294.024.465m28.433.368c-.537.416-.659.245-.317-.417.244-.44.341-.49.512-.22.146.22.073.44-.195.637m2.512-.294c-.074.22-.269.318-.39.245-.196-.123-.171-.27.024-.515.341-.44.585-.27.366.27m-30.116.294c-.292.49-.341.343-.122-.294.098-.22.22-.343.269-.27.073.05 0 .319-.147.564m2.097-.05c-.097.197-.268.368-.414.368s-.146-.171.049-.49c.341-.539.585-.465.365.123m2.024-.391c0 .392-.756 1.029-1 .857-.146-.073-.073-.343.196-.588.487-.514.804-.612.804-.27m3.658-.025c0 .319-.95 1.127-1.122.956-.22-.22.147-.686.415-.54.122.099.22-.024.22-.22 0-.22.121-.392.243-.392.147 0 .244.098.244.196m1.439.564c-.464.294-.585.049-.195-.417.22-.27.341-.318.414-.098.073.172-.049.392-.22.515m-30.31.098c-.22.22-.39.318-.39.196 0-.294.536-.833.682-.686.049.049-.073.27-.293.49m56.792.538c-.025.515-.073 1.299-.098 1.74 0 .44-.122.759-.22.685-.121-.073-.194-.882-.17-1.788.073-1.935.049-1.861.341-1.69.098.074.171.54.147 1.053m-59.572-.367c-.171.171-.293.196-.293.05 0-.344.293-.638.463-.466.05.073-.024.27-.17.416m7.632-.294c-.073.123-.268.245-.39.245-.146 0-.17-.122-.098-.245a.5.5 0 0 1 .39-.245c.147 0 .171.098.098.245m2.536 1.568c-.268.783-.56 1.371-.61 1.298-.048-.05.147-.76.464-1.592.292-.833.56-1.42.61-1.298.024.098-.171.832-.464 1.592m1.658-1.029c-.073.171-.122.049-.122-.294s.05-.465.122-.318a1.3 1.3 0 0 1 0 .612m17.387-.539c0 .123-.171.245-.39.245-.196 0-.293-.122-.22-.245a.46.46 0 0 1 .39-.245c.122 0 .22.098.22.245m23.555.416c-.244.245-.463-.122-.244-.44.147-.27.196-.27.293 0 .049.171.025.367-.049.44m2.17-.416c-.073.123-.268.245-.39.245-.146 0-.17-.122-.097-.245a.5.5 0 0 1 .39-.245c.146 0 .17.098.098.245m-50.598.098c0 .074-.097.196-.244.27-.122.073-.244.024-.244-.098 0-.147.122-.27.244-.27.147 0 .244.05.244.098m1.049.49c-.244.318-.464.563-.512.514-.122-.122.536-1.102.755-1.102.098 0 0 .27-.243.588m50.647-.343c0 .123-.122.245-.268.245-.122 0-.171-.123-.098-.245.073-.147.195-.245.268-.245.05 0 .098.098.098.245m2.585.123c-.073.195-.025.367.122.367q.219 0 0 .44c-.269.515-.244 2.279.024 2.107.097-.073.195.05.195.245 0 .22-.097.392-.244.392-.122 0-.244.27-.244.612 0 .343-.097.613-.195.613-.097 0-.17-.907-.146-2.033.073-3.037.073-3.11.366-3.11.146 0 .22.17.122.367m-35.578.416c-.073.196-.146.122-.146-.147-.024-.27.049-.416.122-.318.073.073.097.294.024.465m-15.508.76c-.318.293-.488.367-.39.17.34-.636.682-1.004.804-.857.073.074-.122.392-.414.686m16.484-.27c-.073.196-.147.122-.147-.147-.024-.27.05-.417.122-.319.073.074.098.294.025.466m25.36 0c-.073.196-.147.122-.147-.147-.024-.27.05-.417.122-.319.074.074.098.294.025.466m.805-.294c0 .122-.122.245-.269.245-.122 0-.17-.123-.097-.245.073-.147.195-.245.268-.245.049 0 .097.098.097.245m1.438.318c-.195.319-.341.392-.512.22-.317-.318-.097-.71.39-.71.293 0 .317.123.122.49m2.22-.196c-.22.245-.22.368-.025.368.146 0 .268.122.268.27 0 .195-.097.195-.341-.025-.39-.294-.269-.98.146-.98.146 0 .122.147-.049.367m-27.8.22c0 .197-.17.393-.365.49-.415.148-.44.099-.22-.44.195-.49.586-.515.586-.05m1.708.148c-.147.27-.44.49-.659.49-.341 0-.341-.074.073-.466.61-.637.903-.637.586-.024m1.292 0c-.073.27-.17.49-.22.49-.048 0-.097-.22-.097-.49s.097-.49.22-.49c.121 0 .17.22.097.49m2.853-.392c0 .073-.098.196-.244.27-.122.073-.244.024-.244-.099 0-.147.122-.27.244-.27.146 0 .244.05.244.099m20.873.563c-.244.245-.463-.122-.244-.44.147-.27.196-.27.293 0 .049.17.025.367-.049.44m2.292-.416a.245.245 0 0 1-.243.245c-.122 0-.244-.123-.244-.245 0-.147.122-.245.244-.245.146 0 .243.098.243.245M37.7 71.4c-.073.22-.146.71-.146 1.102s-.098.71-.22.71c-.17 0-.195-.367-.073-1.788.024-.22.17-.416.317-.416.146 0 .195.171.122.392m11.314-.025c0 .196-.097.368-.243.368-.122 0-.171-.172-.098-.368.098-.196.195-.367.244-.367s.097.171.097.367m10.242-.27c0 .074-.098.197-.244.27-.122.074-.244.025-.244-.098 0-.147.122-.27.244-.27.146 0 .244.05.244.099m14.387.76c0 .465-.097.857-.22.857-.121 0-.17-.367-.121-.808.073-.955.073-.906.22-.906.072 0 .121.392.121.857m-47.55-.245c0 .196-.098.368-.244.368-.122 0-.17-.172-.098-.368.098-.196.195-.367.244-.367s.098.171.098.367m3.17-.27c0 .05-.17.221-.366.393-.317.269-.341.245-.22-.098s.586-.564.586-.294m27.457.564c-.244.245-.463-.122-.244-.44.146-.27.195-.27.293 0 .049.17.024.367-.049.44m-25.02-.172c0 .122-.122.245-.268.245-.122 0-.17-.123-.098-.245.074-.147.195-.245.269-.245.048 0 .097.098.097.245m30.896.538c-.073.196-.147.123-.147-.147-.024-.269.05-.416.122-.318.074.074.098.294.025.465m13.607-.293c.073.122.024.244-.098.244-.146 0-.268-.122-.268-.245 0-.146.048-.244.097-.244.073 0 .195.098.269.245m-26.214.367c0 .196-.098.367-.244.367-.122 0-.17-.171-.098-.367.098-.196.196-.367.244-.367.049 0 .098.171.098.367m25.287.539c-.073.245-.122.098-.122-.294 0-.416.049-.588.122-.441.049.171.049.514 0 .735m1.926 0c-.268.27-.463-.147-.268-.588.195-.416.195-.416.293 0 .073.245.048.514-.025.588m1.658-.686c.074.122-.024.343-.195.49-.292.245-.341.22-.268-.147.049-.245.098-.466.098-.515.048-.122.243-.049.365.172m1.976.024c.073.123.024.245-.098.245-.146 0-.268-.122-.268-.245 0-.147.049-.245.097-.245.074 0 .195.099.269.245m-54.5.735c-.147.27-.317.49-.39.49-.05 0 0-.22.146-.49s.317-.49.39-.49c.049 0 0 .22-.146.49m27.31 0c-.268.49-.731.686-.731.294 0-.27.536-.784.78-.784.122 0 .098.22-.048.49m1.317.098c-.073.22-.244.392-.366.392-.146 0-.121-.22.025-.514.317-.588.585-.49.341.122m4.17-.122c-.073.147-.268.27-.39.27s-.098-.148.073-.344c.341-.392.585-.318.317.074m-26.457-.123c0 .074-.098.196-.244.27-.122.073-.244.024-.244-.098 0-.147.122-.27.244-.27.146 0 .244.05.244.098m1.219.27c0 .196-.098.367-.244.367-.122 0-.17-.171-.098-.367.098-.196.196-.368.244-.368.05 0 .098.172.098.368m22.922-.147a.47.47 0 0 1-.244.392c-.122.073-.244-.025-.244-.22 0-.221.122-.393.244-.393.146 0 .244.098.244.22m23.165.024a.245.245 0 0 1-.244.245c-.122 0-.244-.122-.244-.245 0-.147.122-.245.244-.245.147 0 .244.098.244.245m-49.452.54c-.17.17-.293.195-.293.048 0-.343.293-.637.463-.465.05.073-.024.27-.17.416m6.047.66c-.146.564-.366 1.005-.487 1.005-.122 0-.05-.49.17-1.127.464-1.347.707-1.274.317.122m15.363-.955c0 .123-.122.245-.269.245-.122 0-.17-.122-.097-.245.073-.147.195-.245.268-.245.049 0 .098.098.098.245m21.775.245c-.073.27-.22.49-.341.49-.268 0-.268-.073-.073-.588.22-.563.56-.49.414.098m-45.038.368c-.22.22-.39.318-.39.195 0-.293.536-.832.682-.685.049.049-.073.269-.293.49m34.236-.515c0 .074-.098.196-.244.27-.122.073-.244.024-.244-.098 0-.147.122-.27.244-.27.146 0 .244.05.244.098m-5.365.245c0 .073-.097.196-.244.27-.122.073-.244.024-.244-.098 0-.147.122-.27.244-.27.147 0 .244.05.244.098m-24.14.245c0 .073-.098.196-.245.27-.122.073-.243.024-.243-.099 0-.146.121-.269.243-.269.147 0 .244.049.244.098m4.145.416c0 .123-.098.22-.244.22-.122 0-.244-.17-.244-.391 0-.196.122-.294.244-.22a.47.47 0 0 1 .244.391m39.918-.098c-.22.22-.464.343-.561.27-.244-.245.146-.686.585-.686.366 0 .366.025-.025.416m1.292-.024c0 .196-.122.294-.244.22-.146-.098-.195-.27-.122-.391.22-.343.366-.27.366.17m-19.484.416c-.317.319-.634.074-.39-.294.073-.147.268-.196.415-.122.146.098.146.245-.025.416m16.143-.196c.098.196.049.417-.073.49-.146.098-.244-.073-.244-.343 0-.612.146-.661.317-.147m-43.966-.024c0 .073-.097.196-.244.27-.121.073-.243.024-.243-.099 0-.147.122-.27.243-.27.147 0 .244.05.244.099m17.63.27c-.073.22-.194.342-.243.269-.073-.074-.049-.22.048-.368.22-.392.366-.318.196.098m2.634.44c-.195.196-.268.172-.268-.098 0-.22.073-.465.17-.563s.22-.05.269.098c.073.171-.025.416-.17.563m3.39-.71c0 .073-.098.196-.244.27-.122.073-.244.024-.244-.099 0-.147.122-.27.244-.27.146 0 .244.05.244.099m1.707.147a.245.245 0 0 1-.244.245c-.122 0-.244-.123-.244-.245 0-.147.122-.245.244-.245.146 0 .244.098.244.245m16.923.588c-.074.343-.244.636-.366.636-.268 0-.268-.073.024-.881.317-.809.561-.637.342.245m6.242-.735c0 .073-.097.196-.244.27-.122.073-.244.024-.244-.099 0-.147.122-.27.244-.27.147 0 .244.05.244.099m5.12.612c0 .514-.145.735-.536.833-.682.196-.926-.025-.414-.392.195-.171.439-.49.536-.735.244-.637.415-.514.415.294m-57.279.098c-.244.22-.268.196-.122-.147.073-.245.22-.367.293-.294s0 .27-.171.441m1.683-.22c0 .073-.098.196-.244.27-.122.073-.244.024-.244-.099 0-.147.122-.27.244-.27.146 0 .244.05.244.099m7.29.906c-.34 1.004-.853 1.641-.585.71.342-1.15.634-1.788.732-1.665.073.073 0 .49-.146.955m16.656-.465c-.147.147-.366.196-.464.098-.097-.098-.024-.27.17-.392.464-.294.66-.074.294.294m-22.727-.05c0 .123-.122.246-.268.246-.122 0-.171-.123-.098-.245.073-.147.195-.245.268-.245.05 0 .098.098.098.245m-4.39.368c0 .196-.097.367-.243.367-.122 0-.171-.171-.098-.367.098-.196.195-.367.244-.367s.098.171.098.367m7.316-.025c0 .074-.098.196-.244.27-.122.073-.244.024-.244-.098 0-.147.122-.27.244-.27.147 0 .244.05.244.099m15.387.809c-.244.416-.244.392-.268-.074 0-.563.317-1.004.438-.612.05.147-.024.44-.17.686m30.944-.808c0 .073-.097.195-.244.269-.122.073-.244.024-.244-.098 0-.147.122-.27.244-.27.147 0 .244.05.244.099m-51.208.244c0 .05-.17.172-.39.245-.195.074-.293.05-.22-.098.147-.245.61-.343.61-.147m26.092.147c0 .123-.122.245-.269.245-.121 0-.17-.122-.097-.245.073-.147.195-.245.268-.245.049 0 .098.098.098.245m4.511 0c-.073.123-.244.245-.39.245-.122 0-.22-.122-.22-.245 0-.147.171-.245.39-.245.196 0 .293.098.22.245m18.118.05a.76.76 0 0 1-.39.391c-.171.05-.244-.049-.147-.294.171-.44.683-.538.537-.098m-45.795.048c0 .074-.097.196-.244.27-.122.073-.244.024-.244-.098 0-.147.122-.27.244-.27.147 0 .244.05.244.098m20.166.05c-.073.073-.292.097-.463.024-.195-.074-.122-.147.146-.147.269-.025.415.049.317.122m21.8.514c-.195.367-.243.367-.268.049 0-.417.244-.784.44-.613.048.074-.025.319-.172.564m1.927-.417a.245.245 0 0 1-.244.245c-.122 0-.244-.122-.244-.245 0-.147.122-.245.244-.245.146 0 .244.098.244.245m-22.19.735c-.195.123-.415.171-.464.098-.073-.073.025-.22.22-.343.195-.122.414-.171.463-.098.073.074-.024.22-.22.343m25.36-.392c0 .074-.098.196-.244.27-.122.073-.244.024-.244-.098 0-.147.122-.27.244-.27.146 0 .244.05.244.098m-47.55.392c0 .123-.122.245-.269.245-.122 0-.17-.122-.097-.245.073-.147.195-.245.268-.245.049 0 .098.098.098.245m14.801.294c-.073.196-.146.123-.146-.147-.025-.27.049-.416.122-.318.073.073.097.294.024.465m2.975.784c-.22.196-.244.171-.122-.172.073-.245.17-.588.17-.735.025-.17.074-.097.147.172.073.245-.024.563-.195.735m10.388-.833c-.073.122-.268.245-.39.245-.147 0-.17-.123-.098-.245a.5.5 0 0 1 .39-.245c.147 0 .171.098.098.245m14.29.906c-.244.417-.244.392-.269-.073 0-.564.317-1.004.44-.612.048.146-.025.44-.172.685m3.877-.685a.47.47 0 0 1-.244.391c-.122.074-.244-.024-.244-.22 0-.22.122-.392.244-.392.146 0 .244.098.244.22m-20.581.66c-.22.221-.463.344-.537.27-.073-.049.074-.294.293-.514.22-.22.463-.368.512-.294.073.073-.049.318-.268.539m18.63-.146c0 .122-.122.245-.268.245-.122 0-.171-.123-.098-.245.073-.147.195-.245.268-.245.05 0 .098.098.098.245m-23.897.245c0 .122-.122.245-.268.245-.122 0-.171-.123-.098-.245.073-.147.195-.245.268-.245.049 0 .098.098.098.245m1.95 0c-.195.122-.463.245-.61.245-.121 0-.072-.123.123-.245.195-.123.488-.245.61-.245.146 0 .073.122-.122.245m-23.409.245c0 .122-.122.245-.268.245-.122 0-.17-.123-.098-.245.074-.147.195-.245.269-.245.048 0 .097.098.097.245m25.117-.147c0 .073-.098.196-.244.27-.122.073-.244.024-.244-.099 0-.147.122-.27.244-.27.146 0 .243.05.243.099m21.214.147c0 .122-.122.245-.268.245-.122 0-.17-.123-.097-.245.073-.147.194-.245.268-.245.048 0 .097.098.097.245m-50.306.538c-.073.197-.146.123-.146-.146-.024-.27.049-.417.122-.319.073.074.098.294.024.465m33.237-.44c0 .049-.17.171-.39.245-.195.073-.293.049-.22-.098.147-.245.61-.343.61-.147m-27.555.392c0 .122-.122.245-.268.245-.122 0-.17-.123-.098-.245.073-.147.195-.245.268-.245.05 0 .098.098.098.245m17.094.318c-.244.22-.268.196-.122-.147.073-.245.22-.367.293-.294s0 .27-.171.44m12.412-.319c0 .123-.122.245-.269.245-.121 0-.17-.122-.097-.244.073-.147.195-.245.268-.245.049 0 .098.098.098.245m-4.268.71a.53.53 0 0 1-.414.27c-.147 0-.147-.147.049-.367.34-.416.634-.319.365.098m16.704.025c0 .27-.098.49-.244.49-.122 0-.244-.22-.244-.49s.122-.49.244-.49c.146 0 .244.22.244.49m2.195-.392c0 .074-.098.196-.244.27-.122.073-.244.024-.244-.098 0-.147.122-.27.244-.27.146 0 .243.05.243.098m-20.728.392a.245.245 0 0 1-.243.245c-.122 0-.244-.122-.244-.245 0-.147.122-.245.244-.245.146 0 .243.098.243.245m22.922 0a.245.245 0 0 1-.244.245c-.122 0-.244-.122-.244-.245 0-.147.122-.245.244-.245.147 0 .244.098.244.245m-18.898.245c-.073.123-.268.245-.39.245-.147 0-.17-.122-.098-.245a.5.5 0 0 1 .39-.245c.147 0 .171.098.098.245m-25.482.098c0 .074-.098.196-.244.27-.122.073-.244.024-.244-.098 0-.147.122-.27.244-.27.146 0 .244.05.244.098m15.29.441c-.074.196-.147.123-.147-.147-.025-.27.049-.416.122-.318.073.073.097.294.024.465m-26.36.612c-.27.27-.464-.147-.27-.587.196-.417.196-.417.294 0 .073.245.048.514-.025.587m50.841-.098c-.243.22-.268.196-.121-.147.073-.244.219-.367.292-.293.073.073 0 .269-.17.44m2.415-.318c0 .122-.122.245-.269.245-.122 0-.17-.123-.097-.245.073-.147.195-.245.268-.245.049 0 .097.098.097.245m4.876.098c0 .073-.097.196-.243.27-.122.073-.244.024-.244-.099 0-.147.122-.269.244-.269.146 0 .243.049.243.098m-2.194.245c0 .073-.098.196-.244.27-.122.073-.244.024-.244-.099 0-.147.122-.269.244-.269.146 0 .244.049.244.098m-47.55.49c0 .073-.098.196-.244.27-.122.073-.244.024-.244-.099 0-.147.122-.27.244-.27.146 0 .243.05.243.099m-1.951.245c0 .073-.098.196-.244.27-.122.073-.244.024-.244-.099 0-.147.122-.27.244-.27.146 0 .244.05.244.099m20.24 0c0 .073-.098.196-.245.27-.122.073-.244.024-.244-.099 0-.147.122-.27.244-.27.147 0 .244.05.244.099m24.628.147a.245.245 0 0 1-.244.245c-.122 0-.244-.123-.244-.245 0-.147.122-.245.244-.245.146 0 .244.098.244.245m-40.967.245c0 .122-.122.244-.268.244-.122 0-.17-.122-.098-.244.074-.147.196-.245.269-.245.048 0 .097.098.097.245m17.314-.147c0 .073-.098.196-.244.27-.122.073-.244.024-.244-.099 0-.147.122-.27.244-.27.146 0 .244.05.244.099m2.926 0c0 .073-.098.196-.244.27-.122.073-.244.024-.244-.099 0-.147.122-.27.244-.27.146 0 .244.05.244.099m2.438 0c0 .073-.097.196-.244.27-.122.073-.244.024-.244-.099 0-.147.122-.27.244-.27.147 0 .244.05.244.099m1.829.147c-.073.122-.268.244-.39.244-.146 0-.17-.122-.098-.244a.5.5 0 0 1 .39-.245c.147 0 .171.098.098.245m34.748.22c1 .098 1.658.22 1.463.245-.268.049-.219.122.122.27.39.17.244.22-.61.244-2.633.123-9.558.05-9.68-.098-.098-.073.024-.147.244-.147.244 0 .414-.122.414-.245 0-.342-.292-.293-.877.123-.537.367-.83.27-.83-.27 0-.538 5.34-.612 9.754-.122m-69.301.27c.292.244.536.49.536.563s-10.217 0-11.217-.074c-.073 0 .073-.122.342-.27.634-.391 3.462-.66 6.852-.66 2.463 0 3.024.073 3.487.44m7.12-.246c0 .123-.122.245-.268.245-.122 0-.17-.122-.098-.245.074-.146.195-.244.269-.244.048 0 .097.098.097.244m7.218.123c-.634.465-.317.465.61 0 .56-.294 1.463-.392 3.828-.343 3.755.025 4.243.123 4.658.76.292.465.243.465-4.95.367-2.878-.074-5.34-.196-5.487-.294-.146-.074-.268-.319-.268-.514 0-.245.292-.343 1.048-.343.951.024 1 .049.561.367m23.75-.123c-.267.197-.121.245.562.197.512-.025 1-.147 1.073-.27.195-.343 8.34-.122 8.632.245.585.686-.098.808-4.267.808-4.877 0-7.413-.196-6.926-.539.22-.171.146-.195-.244-.122-.463.122-.512.073-.268-.22.146-.196.634-.343 1.049-.343.585 0 .682.073.39.244m16.826-.146c0 .073-.097.195-.244.269-.122.074-.243.025-.243-.098 0-.147.121-.27.243-.27.147 0 .244.05.244.099m-50.964.391c0 .123-.122.245-.268.245-.122 0-.17-.122-.098-.245.073-.146.195-.245.269-.245.048 0 .097.099.097.245m47.477.294c-.073.196-.146.123-.146-.147-.024-.269.049-.416.122-.318.073.073.097.294.024.465m-42.112.05c0 .048-.17.22-.366.391-.317.27-.341.245-.22-.098s.586-.563.586-.294m18.045.146c0 .123-.122.245-.269.245-.122 0-.17-.122-.097-.245.073-.147.195-.245.268-.245.049 0 .098.098.098.245m26.335 0a.245.245 0 0 1-.244.245c-.122 0-.244-.122-.244-.245 0-.147.122-.245.244-.245.147 0 .244.098.244.245m1.95 0a.245.245 0 0 1-.243.245c-.122 0-.244-.122-.244-.245 0-.147.122-.245.244-.245.146 0 .244.098.244.245m1.22 0a.245.245 0 0 1-.244.245c-.122 0-.244-.122-.244-.245 0-.147.122-.245.244-.245.147 0 .244.098.244.245m-50.72.245c0 .123-.049.245-.098.245-.073 0-.195-.122-.268-.245-.073-.147-.024-.245.098-.245.146 0 .268.098.268.245m24.14.098c0 .074-.097.196-.243.27-.122.073-.244.024-.244-.098 0-.147.122-.27.244-.27.146 0 .244.05.244.098m1.951.392c0 .123-.122.245-.268.245-.122 0-.17-.122-.097-.245.073-.147.195-.245.268-.245.049 0 .097.098.097.245m19.313.294c-.17.171-.292.196-.292.049 0-.343.292-.637.463-.465.049.073-.025.27-.17.416M57.06 83.99a.245.245 0 0 1-.243.245c-.122 0-.244-.123-.244-.245 0-.147.122-.245.244-.245.146 0 .243.098.243.245m2.585.147c-.122.343 0 .367 1 .245 2.438-.343 8.437-.44 10.363-.172 2.024.27 2.366.392 2.049.686-.463.49-10.315.588-13.656.147l-.926-.122.56-.564c.708-.71.805-.734.61-.22m20.58-.294c0 .074-.097.196-.243.27-.122.073-.244.024-.244-.099 0-.146.122-.269.244-.269.146 0 .244.05.244.098m-50.183.686c-.17.171-.293.196-.293.049 0-.343.293-.637.464-.466.049.074-.025.27-.17.417m3.609-.441c0 .049-.17.172-.39.245-.195.073-.293.049-.22-.098.147-.245.61-.343.61-.147m14.338.27c.951.293.61.808-.61.93-1.682.172-10.972-.024-12.265-.27-1.122-.22-1.073-.293.61-.734 1.048-.294 11.29-.22 12.265.073m4.194-.123c0 .122-.121.245-.268.245-.122 0-.17-.123-.097-.245.073-.147.195-.245.268-.245.049 0 .097.098.097.245m6.097.122c-.171.22-.366.319-.464.245-.073-.073.025-.245.22-.367.512-.343.585-.294.244.122m18.776-.269c0 .074-.098.196-.244.27-.122.073-.244.024-.244-.099 0-.147.122-.269.244-.269.146 0 .244.049.244.098m1.829.147c-.073.122-.244.245-.39.245-.122 0-.22-.123-.22-.245 0-.147.17-.245.39-.245.195 0 .293.098.22.245m16.142-.049c.147.098.317.367.366.588.073.416-.317.44-5.17.465-2.877.025-6.217.025-7.437 0l-2.194-.024.61-.49c.39-.294 1.097-.49 1.95-.563 2.658-.172 11.583-.172 11.876.024m-39.064.784c-.073.122-.268.245-.39.245-.146 0-.17-.123-.098-.245a.5.5 0 0 1 .39-.245c.147 0 .171.098.098.245m-2.316.245a.245.245 0 0 1-.244.245c-.122 0-.244-.123-.244-.245 0-.147.122-.245.244-.245.146 0 .244.098.244.245M7.803 93.787c0 .123-.049.245-.097.245-.074 0-.195-.122-.269-.245-.073-.147-.024-.245.098-.245.146 0 .268.098.268.245m3.414-.122c0 .171-.732.318-.83.171-.072-.098.098-.22.367-.22.244-.025.463 0 .463.049m.975.122a.245.245 0 0 1-.244.245c-.121 0-.243-.122-.243-.245 0-.147.122-.245.243-.245.147 0 .244.098.244.245m1.463-.147c0 .074-.097.196-.243.27-.122.073-.244.024-.244-.098 0-.147.122-.27.244-.27.146 0 .243.05.243.098m.732.147c0 .123-.049.245-.098.245-.073 0-.195-.122-.268-.245-.073-.147-.024-.245.098-.245.146 0 .268.098.268.245m1.463-.024c0 .147-.22.22-.488.196-.268-.025-.487-.123-.487-.22 0-.099.22-.197.487-.197.269 0 .488.098.488.22m1.707.024a.245.245 0 0 1-.244.245c-.122 0-.244-.122-.244-.245 0-.147.122-.245.244-.245.146 0 .244.098.244.245m1.341 0c-.658.294-.853.294-.853 0 0-.147.292-.245.682-.22.586 0 .61.024.171.22m2.073-.147c0 .05-.268.147-.61.196-.341.074-.61.025-.61-.073 0-.123.269-.22.61-.22.342 0 .61.048.61.097m1.292.074c-.17.049-.463.049-.61 0-.17-.074-.048-.123.293-.123.342 0 .464.05.317.123m1.463 0c-.17.049-.463.049-.61 0-.17-.074-.048-.123.293-.123.342 0 .464.05.317.123m80.348 1.47c1.39.146 1.805.538 1.341 1.273a.79.79 0 0 0-.024.833c.195.392.171.44-.195.392-.098 0-.244.122-.366.293-.146.27-7.462.319-40.137.245-52.476-.097-47.965-.049-48.063-.612-.073-.27 0-.392.171-.294.17.098.268-.024.268-.318s-.17-.515-.365-.515c-.244 0-.366.245-.366.809v.832h-4.633c-4.243 0-4.633-.024-4.633-.416 0-.539 1.146-.808 1.316-.343.171.466.878.441.878-.024 0-.196.122-.368.244-.368.146 0 .244.196.244.417 0 .367.049.367.22.098.194-.294.292-.319.609-.025.341.27.39.245.244-.098-.195-.514.122-.514.536.025.171.245.39.367.464.27.365-.344-.586-.956-1.22-.785-.365.098-.61.05-.61-.122 0-.147-.146-.196-.34-.123a.44.44 0 0 1-.513-.147c-.097-.171-.268-.195-.439-.049-.463.368-1.365.515-1.536.27-.073-.147-.268-.147-.463.024-.268.22-.293.392-.049.735.317.539.122.857-.414.662-.293-.123-.342-.294-.147-.76.122-.367.147-.686 0-.76-.122-.073-.146-.366-.024-.685.195-.514.341-.539 3.462-.588 2.317-.024 3.317.025 3.439.245.146.22.195.22.195 0s3.462-.294 14.314-.318c7.876 0 14.362-.074 14.435-.123.147-.171 60.621-.122 62.157.05m-98.417.587c-.048.196-.097.808-.097 1.372 0 .882-.073 1.053-.464 1.053-.512 0-.585-.27-.195-.661.512-.515.05-1.078-.756-.931-.658.122-.731.073-.731-.514 0-.515.097-.613.463-.515.244.05.61.025.78-.098.488-.318 1.098-.122 1 .294M4.39 97.853c0 .196-.244.343-.634.343s-.585-.123-.512-.319c.049-.146.293-.269.537-.22q.402.075.22-.22c-.098-.196-.074-.245.097-.123.17.098.292.343.292.539"/><path fill="#5d89b4" d="M40.162 27.73c-.268.71-.22 1.298.097.98.147-.147.22-.515.171-.833-.073-.515-.098-.54-.268-.147m44.551.245c-.22.465-.17.563.195.588.317.024.439-.123.439-.564 0-.735-.293-.759-.634-.024M11.997 40.564c.098.588 1.122.735 1.317.196.22-.539-.122-.808-.415-.367-.194.27-.292.294-.39.049-.17-.466-.61-.343-.512.122m11.9-.171c0 .367.122.49.44.44.218-.048.414-.244.414-.44s-.196-.392-.415-.441c-.317-.05-.439.073-.439.44m47.477.025c-.146.514.342.882.805.588.366-.22.293-.784-.146-.955-.537-.196-.512-.22-.659.367m-30.895 4.188c0 .882.292.76.39-.171.024-.343-.049-.612-.17-.612-.123 0-.22.342-.22.783m-1.683 4.262c0 .27.073.343.147.147.073-.171.048-.392-.025-.465-.073-.098-.146.049-.122.318m-.097 1.249c-.22.22-.22 1.053.024 1.053.098 0 .195-.269.195-.612.049-.661.025-.71-.22-.44m-.389 2.13c-.171.196-.195.417-.074.49.147.074.317-.024.39-.245.22-.563.05-.686-.316-.245m4.364 5.658c0 .661.05 1.127.122 1.078.171-.196.22-1.91.05-2.082-.099-.098-.172.343-.172 1.004m-5.608-.588c0 .123.122.172.244.098.146-.073.244-.196.244-.27 0-.048-.098-.097-.244-.097-.122 0-.244.122-.244.27m5.682 2.792c0 .538.048.734.097.416a3.3 3.3 0 0 0 0-.98c-.073-.22-.122.025-.097.563m-.049 3.209c0 .27.073.343.146.147.073-.172.049-.392-.024-.465-.074-.098-.147.049-.122.318m.024 1.322c0 .344.049.466.122.294a1.3 1.3 0 0 0 0-.612c-.073-.147-.122-.024-.122.319m0 5.021c0 .392.049.538.122.294.049-.22.049-.564 0-.735-.073-.147-.122.024-.122.44m.048 4.777c0 1.42.025 1.984.074 1.273a23 23 0 0 0 0-2.571c-.049-.686-.073-.123-.073 1.298m3.365-.858c0 .392.049.54.122.294.049-.22.049-.563 0-.734-.073-.147-.122.024-.122.44m-.024 1.25c0 .27.073.343.146.147.073-.172.049-.392-.024-.466-.074-.098-.147.05-.122.319m-8.535 1.935.024 1.224.195-.98c.122-.538.098-1.077-.024-1.224-.122-.123-.22.27-.195.98m-.707.857c0 .343.049.465.122.294a1.3 1.3 0 0 0 0-.612c-.073-.148-.122-.025-.122.318m.39 1.47c-.098 1.102.17 1.004.415-.197.097-.465.073-.783-.074-.783-.146 0-.292.44-.341.98m8.827-.074c0 .123.122.367.244.563.195.294.244.27.244-.196 0-.294-.098-.538-.244-.538-.122 0-.244.073-.244.171M85.371 49.92c-.17.123-.268.417-.22.637.074.514.488.563.66.098.048-.196-.025-.22-.245-.073-.292.147-.292.122 0-.22.39-.49.293-.736-.195-.442m-.121 2.131c-.098.245-.025.343.146.294.365-.122.56-.686.243-.686-.121 0-.317.172-.39.392m-.049 1.372c.025.49.098.588.342.392.341-.294.414-.784.073-.588-.122.098-.268 0-.341-.147-.05-.172-.098-.024-.073.343m-.074 1.372c-.024.685.561.612.659-.099.049-.342.024-.391-.147-.122-.195.27-.243.27-.365 0-.073-.196-.147-.098-.147.22m.22 1.544c0 .122-.098.195-.22.097-.146-.073-.22.098-.195.368s.098.49.195.49c.098 0 .244.196.293.416.073.245.122-.024.146-.612 0-.564-.024-1.029-.097-1.029s-.122.123-.122.27m-.317 2.106c-.244.22-.22.563.024.563.122 0 .22-.171.22-.367 0-.416-.025-.441-.244-.196m-.634 6.736c0 .17.097.538.22.808.17.416.219.367.219-.319.024-.416-.073-.784-.22-.784-.122 0-.244.147-.22.294m6.268 5.83c.024 5.682.146 9.062.292 9.062.244 0 .293-1.788.269-6.98-.05-4.164-.342-11.145-.488-11.145-.073 0-.122 4.066-.073 9.063m-4.804 4.066c0 .269.073.343.146.147.073-.172.049-.392-.024-.466-.073-.098-.146.05-.122.319m0 .979c0 .27.073.343.146.147.073-.171.049-.392-.024-.465-.073-.098-.146.049-.122.318m.024 2.67c0 .392.049.539.122.294.049-.22.049-.563 0-.735-.073-.147-.122.025-.122.441m-14.972 3.968c.17.073.39.049.463-.025.098-.073-.048-.147-.317-.122-.268 0-.341.073-.146.147M12.85 96.702c-.17.637.123 1.029.562.76.292-.197.292-.246.024-.246-.17 0-.268-.147-.195-.367.098-.196.049-.417-.049-.49-.122-.049-.268.098-.341.343m1.609-.294c-.56.196-.366.857.17.686.27-.074.489-.05.489.073s.146.22.341.22.293-.146.22-.342c-.074-.172-.269-.319-.44-.319s-.365-.098-.414-.22c-.024-.098-.22-.147-.366-.098m3.463.294c-.122.22.585 1.127.756.955.049-.049.024-.343-.073-.637-.147-.563-.44-.71-.683-.318m2.073.024c-.317.22-.317.27 0 .49q.365.22.438 0c.171-.49-.073-.735-.439-.49m1.22.221c0 .122.17.27.366.367.219.074.365 0 .365-.22a.376.376 0 0 0-.366-.368c-.194 0-.365.098-.365.22m1.853-.024c-.073.147-.024.343.122.417.341.22.488.049.244-.343q-.219-.293-.366-.074m1.317.148c0 .195.122.44.292.538.171.123.22.05.122-.22-.073-.22-.024-.441.147-.515.17-.049.097-.122-.122-.122-.244-.025-.44.122-.44.318m27.19.392c-.463.196-.463.22.073.22.293.025.537-.097.537-.22 0-.147-.025-.245-.05-.22-.048 0-.292.098-.56.22m1.17.074c-.048.098.708.171 1.732.147s1.853-.123 1.853-.22c0-.246-3.414-.172-3.585.073m3.951-.074c.097.147.268.196.39.123.341-.22.268-.368-.17-.368-.196 0-.294.123-.22.245m2.024.049c.195.196.414.196.829 0 .536-.245.512-.27-.269-.27-.658-.024-.78.05-.56.27m4.877-.122c.17.073.39.049.463-.025.097-.073-.049-.147-.317-.122-.268 0-.342.073-.146.147m3.657 0c.147.049.44.049.61 0 .146-.074.024-.123-.317-.123-.342 0-.463.05-.293.123M55.475 6.152c-4.12 1.42-8.34 3.012-15.85 6a1348 1348 0 0 1-13.655 5.34c-8.56 3.257-11.632 4.506-12.07 4.898-.22.196-.586.368-.805.368s-.44.073-.488.171c-.122.172 55.597.172 78.153 0l8.437-.049-4.17-1.69a3083 3083 0 0 0-11.51-4.58c-10.143-4.017-14.41-5.78-14.313-6 .098-.197-.439-.589-.805-.589-.122 0-.073.123.122.245.415.27.025.319-.61.098-.316-.147-.34-.22-.073-.392.22-.171.147-.196-.243-.122-.366.098-.61 0-.707-.22-.074-.196-.22-.343-.366-.343-.122 0-.147.098-.074.245.074.122.025.244-.097.244-.146 0-.268-.171-.268-.391 0-.294-.17-.368-.634-.27-.39.074-.683 0-.756-.22-.073-.196-.317-.343-.537-.343s-.658-.172-.95-.392c-.293-.196-.659-.294-.78-.22-.147.073-.245.024-.245-.098 0-.147-.17-.27-.366-.27s-.56-.098-.804-.22c-.61-.343-3.975-1.764-4.048-1.715 0 0-.683.245-1.488.515m.415 1.983c-.17.196-.17.441-.049.662.22.367.098.735-.22.735-.097 0-.316-.27-.463-.613-.341-.76-.365-1.126-.048-.612.195.294.243.294.39-.074.073-.22.268-.416.39-.416.17 0 .17.098 0 .318m1.658.76c0 .294-.073.637-.146.71-.317.318-.512-.073-.39-.784.122-.857.536-.784.536.074m-4.682.563c0 .71-.049.808-.244.49-.195-.367-.073-1.396.171-1.396.049 0 .073.416.073.906m1.17-.539c.098.196.025.54-.146.735-.463.563-.146.661.415.147l.512-.49.024 6.197c.05 6.54.025 6.686-1.072 6.662-.464-.025-.488-.196-.513-6.638-.024-3.65 0-6.686.074-6.809.17-.294.56-.196.707.196m4.731-.122a.245.245 0 0 1-.244.245c-.121 0-.243-.123-.243-.245 0-.147.122-.245.243-.245.147 0 .244.098.244.245m-6.9.588c-.074.196-.025.416.146.465.22.073.22.171 0 .416s-.366.245-.659-.073c-.439-.417-.536-1.029-.146-.784.146.074.244.025.244-.098 0-.147.122-.27.268-.27s.22.148.146.344m7.144.269c0 .196-.17.367-.366.367-.39 0-.487-.294-.195-.563.269-.294.561-.196.561.196m.976.392c0 .294-.122.465-.269.416-.146-.049-.244-.171-.244-.27.025-.097.025-.342.025-.562 0-.196.122-.294.244-.22.146.073.244.366.244.636m-9.876-.27c-.073.123.073.245.341.245.366 0 .512.147.512.588 0 .54-.049.564-.585.319-.56-.27-.853-1.396-.341-1.396.122 0 .146.098.073.244m6.486 1.176.146 1.151.05-1.053c.024-1.151.34-1.298 1.56-.735.487.245.658.515.683 1.053 0 .686.024.686.219.172.293-.661.83-.686 1.463-.049.268.27.561.465.683.465.731-.122 1.317.098 1.487.564.122.343.244.416.366.245.244-.417.707-.368 1.268.147.463.44 1.61.391 1.56-.074-.024-.122.098-.27.245-.318.146-.05.268.098.243.343-.097.93 0 1.47.22 1.126.146-.27.366-.22 1.073.172.463.27.902.416.975.367.171-.171 1.39.441 1.39.686 0 .122.098.171.195.098.195-.123.659.073 3.097 1.2a9 9 0 0 0 1.414.514c.537.123.659.294.683.931.049.735.049.735.146.074.098-.564.196-.662.634-.515.293.074.659.294.78.441.147.172.391.27.562.196.17-.049.585.074.902.294s.878.392 1.22.392c.34 0 .609.098.609.245 0 .122.195.245.439.245s.658.171.926.367c.659.49 1.659.49 1.463-.024-.073-.22-.146-.49-.146-.613 0-.122-.17-.22-.366-.22s-.365.122-.365.27c0 .122-.098.195-.244.097-.122-.073-.171-.294-.073-.49.073-.22-.025-.367-.269-.367-.22 0-.39.098-.39.245 0 .465-.439.245-.56-.294-.123-.44-.196-.465-.537-.196-.44.367-.488.319-.707-.44-.147-.393-.073-.54.195-.54.22 0 .39.123.39.245 0 .147.146.245.317.22.317-.048.536.025 4.292 1.568 1.414.588 2.585 1.176 2.633 1.323.073.171-.097.22-.39.147s-.512-.245-.512-.368c0-.122-.146-.195-.293-.171-.512.098-1.755-.318-2.194-.71-.464-.392-.488-.368-.512.465-.025.514.804.93 3.56 1.764.488.146.902.343.902.416 0 .147-10.266.073-10.412-.098-.073-.073-.317 0-.561.147-.78.49-1.22.073-1.268-1.2l-.025-1.176-.292 2.45-1.585-.05c-.902-.024-1.61-.171-1.658-.318-.073-.171-.22-.122-.39.123-.488.66-1.561.097-1.683-.907l-.097-.808-.025.906c-.049.858-.097.93-.78.93-.707 0-.732-.024-.78-1.297l-.025-1.274-.146 1.347c-.073.735-.22 1.323-.317 1.274a4.4 4.4 0 0 0-.683-.05c-.439 0-.488-.17-.537-2.277l-.048-2.253-.122 2.327c-.073 1.273-.22 2.302-.317 2.253a4.4 4.4 0 0 0-.683-.05c-.439 0-.488-.17-.536-2.154l-.05-2.131-.072 2.155-.098 2.155-1.56-.146-.122-3.185-.147-3.184-.097 6.49h-.732c-.39 0-.731-.121-.731-.268 0-.196-.098-.196-.342 0-.195.171-.658.269-1.048.22l-.683-.073-.122-3.552-.146-3.552-.098 7.177-.658.098c-1.463.196-1.536.098-1.585-2.204l-.049-2.131-.073 2.008c-.073 1.715-.17 2.057-.585 2.278-.269.147-.586.196-.708.122-.146-.098-.243-2.473-.243-6.074 0-5.903 0-5.927.56-6.197.293-.122.586-.195.659-.171.049.049.17.612.268 1.25m4.243-.588c.049.441-.024.564-.293.466-.219-.098-.268-.22-.097-.392.122-.123.17-.417.097-.637-.097-.22-.073-.318.05-.22.097.098.219.44.243.783m-11.534.54c-.073.611-.17.783-.317.563-.17-.27-.268-.245-.536.122-.415.588-1.073.71-1.244.245a.56.56 0 0 0-.512-.343c-.195 0-.366-.123-.366-.245 0-.22.341-.343.805-.27.097 0 .17-.097.17-.22 0-.147.098-.245.22-.245.097 0 .146.294.097.662l-.097.685.488-.612c.292-.343.634-.76.756-.93.463-.515.634-.32.536.587m12.534-.172c-.293.465-.585.294-.464-.245.098-.319.22-.417.366-.27a.46.46 0 0 1 .098.515m-8.974 5.609.049 5.657-3.292-.098-.049-5.461c-.024-3.16.049-5.438.195-5.438.122 0 .22.172.22.367 0 .221.146.294.39.197.22-.074.488 0 .61.195.17.27.22.27.22-.049 0-.44.95-1.224 1.34-1.102.147.05.268 2.23.317 5.732m10.876-4.311c-.244.392-.561-.074-.488-.735.122-.955.17-.98.39-.196.122.392.171.808.098.93m-1.073-.784c0 .122-.22.245-.512.245-.268 0-.415-.123-.342-.245.074-.147.317-.245.513-.245.195 0 .34.098.34.245m2.292.416c-.195.833-.244.907-.536.71-.171-.097-.147-.367.024-.759.39-.808.707-.783.512.05m-19.118-.073c0 .196-.17.318-.39.294-.22 0-.463.098-.512.245-.049.171.049.27.22.245.17 0 .341.073.39.22.146.392-.293.368-.805-.024-.488-.368-.488-.368.122-.833.731-.563.975-.612.975-.147m20.24.343c-.025.392-.463.833-.707.686-.171-.123-.171-.294.024-.637.268-.416.683-.441.683-.05m-19.264.024c0 .294-.488.613-.659.441-.17-.171.147-.661.44-.661a.22.22 0 0 1 .219.22m2.438 5.193v4.874h-1.463v-4.776c0-4.752 0-4.8.561-4.997.293-.122.61-.171.732-.098.097.05.17 2.303.17 4.997m-5.12-4.433c0 .318.121.44.365.343.195-.098.366-.025.366.147 0 .17-.195.244-.488.17-.268-.072-.658.025-.853.221s-.44.343-.537.343c-.097-.024-.22.098-.268.245-.073.196.073.245.415.123.317-.098.512-.05.512.147 0 .147.268 0 .61-.368.316-.343.755-.637.975-.637.317 0 .366.564.414 3.846l.025 3.87.17-3.895c.147-3.429.22-3.919.61-4.212.268-.196.585-.319.732-.27.146.05.268 1.764.317 4.654l.048 4.58h-.682c-.366 0-.805-.122-.976-.294-.22-.22-.293-.22-.293 0 0 .196-.536.27-1.633.22l-1.658-.049-.025-3.918c-.024-2.474.073-3.968.22-4.09.17-.099.17-.27-.05-.515-.219-.294-.219-.416 0-.563.172-.098.367-.05.415.098.098.318.805.416.756.097-.073-.44.05-.783.269-.783.146 0 .243.22.243.49m23.287.171c-.146.637-.122.637.195.245.463-.539.658-.539.658.074 0 .49-.512.563-1.146.17-.439-.268-.39-1.15.05-1.15.292 0 .34.171.243.661m1.682.122c.196.809.171.98-.121.882-.342-.122-.537-1.42-.22-1.42.098 0 .244.245.341.538m-27.798.613c-.39.612-.39.637-.025.343.244-.196.512-.245.61-.147s-.073.343-.366.539c-.317.22-.56.563-.56.759 0 .294.073.318.292.098.17-.171.39-.294.488-.294s.195 1.592.195 3.551v3.552h-1.488l.05-4.31c.024-4.14.048-4.312.56-4.507.268-.123.56-.22.61-.22.048-.025-.122.268-.366.636m28.628.098c.048.465-.05.71-.22.661-.146-.049-.244-.171-.244-.27.025-.097.025-.391.025-.66 0-.784.39-.564.439.269m.902.27c.097.342.195.44.292.244.196-.465.561-.343.561.196 0 .367-.17.49-.61.49-.365 0-.609-.147-.609-.343s-.073-.514-.146-.735-.049-.392.097-.392c.122 0 .317.245.415.54m-31.09 0c0-.172.121-.246.243-.172.366.22.293.49-.366 1.2-.707.76-1.34.833-1.34.147 0-.27 0-.563-.025-.661 0-.098.122-.22.268-.27.146-.049.244.05.195.245-.049.172.049.368.17.392.147.024.269-.245.318-.588.073-.514.146-.588.317-.318.17.27.22.27.22.024m32.919.954c0 .637-.073.71-.342.49a.8.8 0 0 1-.22-.759c.196-.76.562-.563.562.27m-35.188-.098c-.097.074-.048.319.122.49.22.27.22.417-.073.588-.56.368-.707.27-.707-.514 0-.514.122-.735.415-.735.219 0 .317.073.243.172m36.114.417c-.024.367-.17.539-.365.465-.44-.171-.39-1.053.048-1.053.22 0 .342.22.317.588m.78.147c0 .27-.097.49-.243.49-.122 0-.244-.22-.244-.49s.122-.49.244-.49c.146 0 .244.22.244.49m-38.527.147c0 .196.122.294.244.22.146-.073.243.025.243.245 0 .27-.146.368-.463.245-.293-.073-.512 0-.61.245-.073.196-.243.367-.39.367-.39 0-.292-.734.122-.881.195-.098.366-.294.366-.49s.122-.343.244-.343c.146 0 .244.171.244.392m39.454.44c0 .54-.049.564-.366.246-.195-.196-.292-.515-.219-.735.195-.539.585-.22.585.49M40.235 18.84v3.184h-.732c-.78 0-.804-.049-.804-2.45 0-3.82-.05-3.624 1.365-3.894.098 0 .17 1.396.17 3.16m35.894-2.4c-.22.22-.292.171-.292-.294 0-.466.073-.515.292-.294.22.22.22.367 0 .588m-42.112-.05c-.244.27-.537.417-.634.344-.122-.074-.22.097-.22.367 0 .294-.097.514-.22.514-.121 0-.438.074-.682.147-.268.098-.341.074-.17-.073.17-.098.316-.417.365-.686.073-.294.293-.49.585-.49.269 0 .586-.147.683-.318.098-.147.317-.294.464-.294.146 0 .073.22-.171.49m43.234.172c-.098.539-.537.49-.634-.024-.049-.245.073-.392.317-.392s.366.171.317.416m1.292.073c.659 0 .83.49.342.931-.415.392-.415.392-.293 0 .073-.245.049-.49-.073-.563-.146-.098-.244-.025-.244.098 0 .539-.439.245-.56-.367-.074-.441-.025-.54.146-.368.146.147.463.27.682.27m-40.259 2.597v2.816l-.658-.073-.683-.073-.073-2.45c-.049-2.082 0-2.498.366-2.743.95-.71 1.048-.44 1.048 2.523m-6.218-2.107c-.073.123-.268.245-.39.245-.146 0-.17-.122-.098-.245a.5.5 0 0 1 .39-.245c.147 0 .171.098.098.245m2.073 0c0 .123-.122.245-.269.245-.121 0-.17-.122-.097-.245.073-.147.195-.245.268-.245.049 0 .098.098.098.245m2.438 2.45v2.449h-1.463v-2.278c0-1.274.073-2.376.17-2.45.074-.097.415-.17.732-.17.561 0 .561.048.561 2.449m-5.023-1.69c-.073.122-.341.343-.61.465-.39.22-.463.171-.463-.318 0-.49.097-.564.61-.466.341.05.536.196.463.319m3.268 2.081c-.074 1.887-.098 1.936-.683 1.936s-.61-.05-.683-1.911c-.073-1.788-.025-1.91.488-2.106.317-.123.658-.147.756-.05.097.123.17 1.054.121 2.131m-4.731-1.738c-.146.342-.854.857-1.17.857-.342 0-.123-.735.292-.955.61-.368 1.024-.319.878.098m3.072 1.861v1.96l-.658-.074c-.659-.073-.683-.147-.707-1.42-.025-.735.024-1.495.097-1.666.098-.27.683-.637 1.22-.76.024-.024.048.858.048 1.96m-4.682-1.323c-.048.27-.317.441-.634.441s-.634.123-.731.27c-.268.392-1.024.612-1.024.294 0-.172-.22-.05-.488.245-.634.66-.732.66-.732.049 0-.319.22-.515.683-.613a8.3 8.3 0 0 0 1.341-.514c.366-.196.659-.294.659-.196 0 .122.122.073.292-.098.415-.416.732-.367.634.122m2.975 1.666c0 1.543-.024 1.592-.61 1.592-.584 0-.609-.073-.609-1.445 0-1.445.073-1.568 1.049-1.715.097 0 .17.686.17 1.568m-1.463.392c0 1.127-.048 1.2-.61 1.2-.56 0-.609-.098-.609-1.102 0-.76.122-1.151.415-1.323.634-.343.804-.122.804 1.225m-5.73-.368c-.317.515-.463.588-.634.319-.146-.245-.049-.49.293-.784.707-.563.877-.343.34.465m4.267.588c0 .833-.073.98-.488.98-.61 0-.829-.514-.634-1.347.098-.392.317-.612.634-.612.415 0 .488.171.488.98m-5.681-.367a.406.406 0 0 0 .122.514c.243.147-.171.563-.586.588-.122 0-.097-.906.025-1.42.024-.025.146-.05.292-.05s.22.172.146.368m4.218.612c0 .613-.097.735-.61.735-.658 0-.853-.637-.317-1.176.513-.514.927-.318.927.441m61.572-.465c.292.465-.122.563-.537.147-.39-.392-.39-.417-.024-.417.22 0 .487.123.56.27m-67.083.539c-.073.196-.512.343-1.024.367l-.902.024.731-.342c.951-.441 1.366-.441 1.195-.05m4 .098c-.05.269-.342.465-.757.514-.756.098-.853-.122-.22-.588.586-.465 1.074-.416.976.074m64.204-.098c-.024.294-.365.22-.463-.098-.073-.147.025-.245.195-.196.146.073.268.196.268.294m1.44.416c.316.22.316.245 0 .245-.196 0-.537-.122-.732-.245-.317-.22-.317-.245 0-.245.195 0 .536.122.731.245"/><path fill="#5d89b4" d="M56.646 16.635c0 .612.049.857.097.538a4.2 4.2 0 0 0 0-1.102c-.048-.294-.097-.049-.097.563m15.314 3.332c0 .269.073.342.146.146.073-.171.049-.391-.024-.465-.074-.098-.147.05-.122.319m.95-7.986c.196.123.537.221.732.221.244 0 .195-.073-.122-.22-.658-.294-1.048-.294-.61 0m3.902 1.42c.195.123.634.319.975.392.415.123.488.098.244-.049a3.7 3.7 0 0 0-.975-.392c-.415-.122-.488-.098-.244.05M2.438 22.023c0 .122.122.245.269.245.122 0 .195.098.122.196-.05.098 0 .343.146.539.195.294.22.294.097-.05-.073-.244-.024-.49.098-.563.415-.245.268-.612-.244-.612-.268 0-.488.098-.488.245M26.165 34.44c.22.05.61.05.853 0 .22-.073.025-.122-.439-.122-.463 0-.658.05-.414.123m1.829-.001c.292.05.731.05.975 0 .22-.073-.024-.122-.56-.097-.537 0-.732.049-.415.098m25.36-.001c1.365.05 3.609.05 4.999 0 1.365-.024.244-.073-2.512-.073-2.755 0-3.877.05-2.487.074m7.803-.001c.146.05.439.05.61 0 .146-.073.024-.122-.317-.122-.342 0-.464.05-.293.123m35.773 7.666c-.074.123-.05.245.097.245.122 0 .317-.122.39-.245.073-.147.049-.245-.097-.245a.5.5 0 0 0-.39.245M16.533 45.34c.122 2.645.244 2.817.268.368 0-1.176-.073-2.131-.17-2.131s-.147.808-.098 1.763m3.219-1.273c0 .416.048.465.341.196.341-.319.293-.686-.122-.686-.122 0-.22.22-.22.49m-.048 1.739c-.17 1.053-.268 11.389-.122 11.242.17-.172.488-12.002.341-12.002-.073 0-.17.343-.22.76m-3.096 2.816c0 .27.073.343.146.147.074-.171.05-.392-.024-.465-.073-.098-.146.049-.122.318m-.219 5.732c0 .465.048.66.122.416.048-.22.048-.612 0-.857-.074-.22-.122-.025-.122.44m3.17 3.43c0 .343.048.465.122.294a1.3 1.3 0 0 0 0-.613c-.074-.147-.122-.024-.122.319m-3.195.637c0 .269.073.342.147.146.073-.171.048-.392-.025-.465-.073-.098-.146.049-.122.318m2.951 10.385c0 .466.049.662.122.417.048-.22.048-.612 0-.858-.073-.22-.122-.024-.122.441m.049 4.164c0 1.813.024 2.572.073 1.641.048-.906.048-2.376 0-3.306-.05-.906-.073-.147-.073 1.665m-.049 3.919c0 .343.049.466.122.294.048-.147.048-.44 0-.612-.073-.147-.122-.025-.122.318m-4.194.735c0 .465.073.514.292.294.22-.22.22-.368 0-.588s-.292-.172-.292.294m.048 1.714c0 .343.05.466.122.294.049-.147.049-.44 0-.612-.073-.147-.122-.025-.122.318m-2.536 8.01c.171.073.39.048.464-.025.097-.073-.05-.147-.317-.122-.269 0-.342.073-.147.147m1.219 0c.171.073.39.048.464-.025.097-.073-.049-.147-.317-.122-.268 0-.341.073-.146.147m67.716.808c-2.487.122-1.414.147 3.902.147 4.023 0 8.095-.074 9.022-.147 2.146-.22-8.266-.196-12.924 0M7.925 92.563c-.073.122-.049.245.098.245.122 0 .317-.123.39-.245.073-.147.049-.245-.098-.245a.5.5 0 0 0-.39.245m73.35.416c2.633.049 6.974.049 9.631 0 2.634-.025.464-.05-4.828-.05-5.291 0-7.461.025-4.803.05"/></svg>