<svg xmlns="http://www.w3.org/2000/svg" width="109" height="93" fill="none" viewBox="0 0 109 93"><path fill="#5d89b4" d="M50.879.056c-.189.07-.566.235-.825.352-.73.33-2.78.4-12.773.423L28.02.854v1.973c0 1.103.118 2.277.236 2.606.212.54.33.61.942.47l.707-.165v7.654c0 7.067-.023 7.63-.4 7.748-.236.07-5.821.188-12.443.282-6.599.07-12.254.234-12.537.352-.519.188-.542.328-.542 2.559 0 2.371.047 2.489.895 2.371 1.014-.14.99-1.268.99 32.048v31.555l-.613.235c-.33.14-.707.188-.824.094-.307-.188-3.865.14-4.242.399-.613.4.306.68 2.168.68.99 0 2.12.071 2.545.142 1.367.281.471.563-1.767.563-1.509 0-2.216.094-2.216.282 0 .258 14.823.14 26.7-.188 3.582-.117 4.407-.07 4.407.188 0 .235.07.211.236-.047.212-.305.259-.305.471 0 .189.282.26.305.448.023.165-.258.212-.258.306 0 .189.564 43.031.33 50.407-.258 1.39-.117 7.023-.211 12.537-.235 5.491 0 10.322-.117 10.723-.21.4-.118.942-.165 1.225-.095.353.094.471.024.471-.352 0-.352-.188-.517-.636-.587-.589-.07-.566-.094.165-.14.707-.024.778-.071.377-.306-.259-.14-2.144-.258-4.854-.282l-4.43-.023-.119-3.64c-.047-1.995-.117-11.926-.141-22.022-.024-14.721.023-18.384.26-18.29.164.047.282.235.235.376-.024.164.047.493.188.728.142.258.165.47.047.47-.117 0-.14.398-.047.938.095.517.071.87-.023.799-.236-.141-.165.75.07.986.095.07.095.375 0 .657-.094.258-.117 1.291-.047 2.254l.118 1.76.189-1.15c.094-.633.165-2.817.165-4.883 0-3.146-.071-3.827-.401-4.367-.872-1.338-.165-1.268-12.513-1.385-6.316-.07-11.571-.212-11.689-.305-.118-.118-.118-8.241-.023-18.642l.188-18.43.754-.26c.896-.304 1.06-.61 1.06-1.948 0-.728-.07-.892-.235-.634-.189.306-.236.282-.236-.07 0-.211.118-.4.26-.4.14 0 .188-.164.117-.375-.07-.188-.047-.282.095-.211.141.07.235-.024.235-.235s-.094-.305-.235-.235c-.118.07-.425.024-.684-.094-.424-.234-.471-.14-.613 1.386-.094.915-.212 1.643-.282 1.643-.047 0-.26-.164-.448-.352-.33-.305-2.946-.352-20.55-.376C44.069 3.86 34.36 3.86 33.63 3.86h-1.344l-.094-.846-.094-.868-.024.868c-.047.893-.565 1.245-.825.587q-.141-.351-.141 0c-.047.634-.471.259-.566-.47l-.094-.75-.023.75c-.071 1.175-.519.917-.519-.257V1.84l1.014-.094c.541-.07 10.533-.141 22.198-.165 11.665-.023 21.587-.14 22.034-.234l.825-.188-.825-.352C74.468.526 72.56.432 65.018.29 59.904.197 54.696.08 53.471.033s-2.404-.047-2.592.023M29.669 2.85c0 .587-.094 1.057-.235 1.057-.118 0-.236-.47-.236-1.057s.118-1.056.236-1.056c.141 0 .235.47.235 1.056m31.767 3.264c.165.164.118 1.314-.047 1.479-.141.14-4.289.258-10.369.282-1.673.023-2.993.07-2.922.14s2.545.165 5.514.188l5.373.047.142.564.117.563.283-.634c.283-.61.33-.61 2.64-.61 1.39 0 2.403.094 2.498.235.117.187.259.187.47 0 .19-.165 1.344-.235 3.088-.188l2.804.07.071 1.127c.047.634-.047 1.268-.189 1.456-.33.375.283.54 1.414.352l.825-.14-.73-.142c-.613-.14-.754-.305-.872-.986-.07-.446-.07-1.033 0-1.315.118-.422.283-.493 1.225-.422l1.084.07.07 1.174c.072.892-.023 1.221-.329 1.456-.353.258-.377.305-.047.305.353 0 .377 2.747.377 31.085v31.062l-2.922.141c-1.603.047-3.276.047-3.7-.047-.4-.094-1.579-.094-2.592-.023-1.509.094-1.744.164-1.39.399.235.14.565.188.73.094s1.532-.141 3.04-.094c3.158.117 3.276.188 3.323 1.948 0 .87-.095 1.221-.401 1.386-.236.117-1.602.14-3.228.07l-2.828-.164-.095-.94-.117-.939-.118.94c-.118.798-.212.939-.73.939-.543 0-.59-.094-.66-1.338-.048-.752.047-1.55.164-1.785.165-.305.165-.516-.023-.704-.142-.141-.212-.94-.142-2.02l.071-1.76-5.184-.141-.142-1.174c-.07-.657-.094-1.315-.023-1.48.165-.445 5.537-.398 5.938.071.26.306.33.306.636 0 .26-.281 1.014-.352 3.347-.352 1.65 0 3.087.094 3.205.188.141.117.495.07.825-.094.518-.282.306-.329-1.933-.329-1.814 0-2.545-.07-2.545-.281s-.07-.212-.283 0c-.33.328-5.773.399-6.268.07-.236-.14-.307-.61-.236-1.643.047-1.01-.024-1.433-.212-1.433-.212 0-.26.4-.141 1.526.117 1.221.07 1.527-.189 1.55-1.32.118-5.797-.117-6.033-.282-.165-.14-.282-.14-.353.024-.118.376-5.515.587-5.727.235-.094-.141-.165-.893-.141-1.667 0-.94-.07-1.386-.283-1.386-.188 0-.283.493-.283 1.573v1.597l-6.245.047c-3.44.047-6.41.094-6.598.117-1.343.141-1.414.047-1.414-1.573v-1.526h1.06c1.037 0 1.061.024 1.085.752.023.657.047.68.141.187.047-.328.283-.727.495-.892.306-.235.094-.282-1.202-.282h-1.579V59.55h1.98c2.215 0 2.144-.046 2.238 1.808.047.963-.023 1.245-.377 1.456-.4.235-.4.235.047.258.825.047 4.172.07 6.528.024l2.286-.024.141-3.404 3.653-.141v3.545l2.192.024c2.945.023 6.15-.047 6.221-.118.165-.164.047-13.523-.118-14.345-.118-.517-.118-1.22-.023-1.597.094-.352.07-.633-.047-.633s-.283-.024-.354-.07c-.094-.024-.165.633-.188 1.478l-.024 1.526h-3.606c-2.922 0-3.652.07-3.84.352-.142.212-.19 1.292-.119 2.7.047 1.315.047 3.381-.023 4.626l-.142 2.254h-1.838l-1.861.023v-2.864l1.154.117c.66.07 1.32.024 1.485-.07.189-.118-.283-.212-1.155-.212h-1.46v-3.122c0-3.287-.166-4.672-.52-4.109-.14.235-1.107.305-4.005.352-2.074.024-3.865.094-3.936.165-.07.093-.141 1.55-.141 3.263l-.024 3.1h-4.242l.024-1.057c.023-.587.047-1.315.07-1.644.024-.54.024-2.207-.023-3.404-.07-3.404-.07-6.41 0-6.645.047-.14.4-.281.778-.281.377 0 .683-.118.683-.235 0-.14-.236-.188-.566-.094-.353.07-.636.024-.754-.188-.212-.328-.377-13.899-.188-14.58.094-.305.4-.399 1.225-.446l1.108-.023-1.06-.094c-.566-.07-1.108-.212-1.203-.329-.07-.117-.094-.775-.047-1.456s.071-1.338.047-1.455c-.164-2.113-.14-9.415.048-9.65.165-.188.165-.329-.024-.446-.353-.211-.306-2.63.07-2.77.213-.07.213-.165-.023-.47-.188-.211-.283-.775-.235-1.385.07-1.01.07-1.01 1.06-1.08.778-.047 1.037.023 1.225.375.26.493.095 1.996-.235 2.113-.448.165-.189.517.353.517.636 0 .99-.352.613-.587-.353-.211-.306-2.16.07-2.277.142-.07 1.438-.118 2.829-.141 2.073-.024 2.568.023 2.686.328.118.306.165.306.519 0 .33-.281.966-.352 3.11-.305l2.687.047v1.432c0 .916.094 1.432.282 1.432.189 0 .236-.399.142-1.29-.118-1.08-.07-1.34.283-1.597.4-.282.282-.329-.896-.329h-1.343l-.047-.775-.024-.751-.094.751c-.07.493-.236.775-.448.775-.283 0-.306-.188-.188-.845.117-.634.094-.822-.118-.705-.142.094-.26.47-.26.87 0 .68-.023.68-1.32.68h-1.319l.094-.822c.048-.446.024-.821-.07-.821-.283 0-.471.821-.306 1.267.117.329-.048.376-1.179.376h-1.343l.165-.822c.094-.54.047-.821-.118-.821-.283 0-.33.258-.26 1.103.024.47-.07.54-.824.54-.825 0-.825 0-.778-.94l.071-.938h4.784c3.582.023 4.76.094 4.784.305 0 .211.047.211.141-.024.236-.563.707-.305.636.353l-.094.657.283-.657c.236-.54.424-.634 1.178-.634.684 0 .896.094.92.399.023.399.046.399.14.023.071-.305.425-.422 1.438-.47 1.933-.093 10.228.024 10.37.142m6.48-.118c.213.024.425.212.425.423.023.399.047.399.141 0 .047-.211.307-.4.542-.4.33 0 .424.118.307.4-.118.329-.024.305.377-.118.612-.633.707-.633 1.13-.117.19.235.284.282.19.117-.071-.14-.095-.281-.024-.281.047 0 .259-.07.471-.141.283-.118.377 0 .4.399v.563l.213-.516c.165-.423.4-.517 1.037-.493.8.023.8.047.683.869-.094.47-.26.915-.4 1.01-.142.093-1.58.117-3.206.046-1.626-.094-3.04-.14-3.18-.117-.496.023-3.347.07-4.172.047-.848-.024-.895-.07-.895-.822 0-.775.047-.822.895-.892.73-.07 3.582-.047 5.067.023m-33.51.423c.024.399.047.399.142 0 .07-.282.353-.4 1.013-.4.872 0 .895.024.895.916l.024.94-4.572-.094.024-.705c0-.399-.094-.775-.236-.868-.141-.094.4-.188 1.226-.188 1.225 0 1.46.07 1.484.399M5.656 23.206q0 .352.141 0c.048-.141.26-.282.448-.282.236 0 .33.305.33 1.057 0 .774-.094 1.056-.353 1.056-.236 0-.377-.258-.401-.775l-.024-.75-.094.75c-.141 1.15-.542.94-.542-.281 0-.587.118-1.057.236-1.057.141 0 .236.141.26.282m3.276.822c0 .845-.071 1.033-.4.962-.237-.047-.425-.352-.472-.774-.142-1.01-.307-1.034-.307-.047 0 1.173-.589 1.173-.777 0-.095-.47-.095-.916-.047-1.01.07-.094.542-.164 1.06-.164h.943zm20.737-.259c0 .658-.07.822-.353.705-.188-.07-.354-.047-.354.07 0 .094-.918.188-2.05.188-1.154.024-5.608.094-9.897.164l-7.848.141v-2.113H29.67zM8.107 27.362c.07.234.094.54.07.634-.047.117.048.234.166.258.141.023.212-.212.165-.517-.048-.281.023-.61.164-.68.26-.165.59.68.378 1.009-.189.329.164.446.824.235.566-.165.566-.165.071-.188-.424-.024-.542-.165-.542-.634 0-.517.07-.563.33-.352s.353.211.448-.024c.094-.235.188-.235.377.047.235.306.283.306.495 0 .212-.305.259-.305.47 0 .142.235.307.259.425.118.236-.352.73-.306.99.117.212.305.236.305.236-.023 0-.282.353-.353 2.003-.376 1.107 0 1.932.07 1.861.188s0 .211.118.211c.142 0 .26-.117.26-.235 0-.14.164-.234.353-.234s.353.14.353.281c0 .235.047.235.189.024.212-.329 1.037-.282 1.296.047q.177.246.353 0c.283-.4.755-.376.755.047.023.375.047.375.353-.024.33-.446.354-.446.66-.047.306.423.33.423.495.024.094-.282.235-.329.448-.188.14.14.777.211 1.413.164.825-.047 1.108.024 1.108.282 0 .305-1.956.47-4.595.352-.377-.023-.872-.023-1.06-.023-.19.023-.637.047-.99.047-.378 0-.66.117-.66.21 0 .212.66.236 5.137.236 1.202 0 2.168.094 2.168.234 0 .235-.4.235-10.652.353l-7.022.047v-1.033c0-1.057.33-1.386.589-.587m18.216.21c.047.165-.07.283-.283.283a.37.37 0 0 1-.377-.376c0-.4.519-.329.66.094m.047.987c0 .117-.165.235-.353.235-.189 0-.354-.118-.354-.235 0-.14.165-.235.354-.235s.353.094.353.235m.707 0c0 .117-.047.235-.094.235-.07 0-.189-.118-.26-.235-.07-.14-.023-.235.095-.235.141 0 .26.094.26.235m-1.908 1.29c.282.258.282.446.07.916-.26.563-.353.587-2.922.657-1.461.047-4.831.07-7.494.07h-4.83v-1.877l1.767-.118c.966-.07 4.312-.094 7.423-.047 4.5.047 5.726.141 5.986.4m-15.625.282c.236.869-.165 1.362-1.107 1.362-.707 0-.801-.07-.872-.658-.118-1.056.094-1.338.99-1.338.707 0 .872.094.99.634m17.722.047c.047.14-.142.258-.4.258-.284 0-.496.141-.496.352 0 .705-.636.353-.66-.352-.023-.634.048-.68.731-.61.4.047.778.188.825.352M9.592 32.762c.094.915-.095 1.103-1.179 1.08-.683 0-.777-.094-.848-.658-.142-1.103.094-1.385 1.06-1.291.825.07.896.14.967.869m2.168 0c0 .774-.095.939-.566 1.056-.92.235-1.32-.047-1.32-.892 0-.963.118-1.08 1.108-1.08.754 0 .778.023.778.916m14.775-.54c.33.305.33.399.071.563-.424.258-.707.07-.707-.493 0-.54.141-.564.636-.07m1.485-.235c0 .235-.73.845-.872.728-.236-.235.141-.87.518-.87.189 0 .354.071.354.142m.942.446c0 .188-.094.352-.212.352-.306 0-.518-.376-.33-.563.26-.259.542-.141.542.21m-.99 1.244c.048.188-.14.282-.588.235-.377-.023-.802.023-.966.14-.165.095-.283.024-.283-.187 0-.54 1.65-.704 1.838-.188M16.85 34.992c-.684.728-1.673 1.855-2.168 2.489-.519.634-.99 1.15-1.084 1.174-1.108.047 2.333-4.532 3.652-4.884.425-.117.778-.188.802-.164.023 0-.519.634-1.202 1.385m5.043-1.315c0 .094-.59.752-1.296 1.456-1.014.986-1.296 1.174-1.296.822 0-.564 1.72-2.466 2.238-2.466.189 0 .354.094.354.188m1.65-.047c0 .07-.92 1.15-2.05 2.419-1.58 1.76-2.098 2.183-2.145 1.854-.142-.774 2.969-4.414 3.747-4.414.259 0 .447.07.447.141m5.42-.047c0 .259-.448.352-.59.141-.07-.117.024-.235.212-.235.213 0 .377.047.377.094m-14.375.329c0 .117-.26.446-.59.751-.66.61-.777.376-.212-.422.354-.517.802-.705.802-.329m1.154.446c-.33.376-.99 1.104-1.46 1.667-.66.728-.873.869-.873.54 0-.68 1.838-2.84 2.427-2.84.472 0 .472.023-.094.633m4.501-.54c0 .047-.188.235-.4.4-.377.304-.401.281-.095-.095.307-.375.495-.493.495-.305m4.195.352c-.118.752-4.996 6.292-5.09 5.8-.118-.54.777-1.855 2.922-4.25 1.79-1.996 2.31-2.371 2.168-1.55m-12.725 1.48-.071 1.244H7.636l-.071-1.245-.07-1.22h4.288zm6.41-.752c0 .4-4.243 5.611-4.737 5.823-.118.047-.095-.258.023-.658.118-.399.99-1.643 1.933-2.747a166 166 0 0 0 2.05-2.441c.424-.587.73-.564.73.023m9.897 0c0 .117-.283.211-.636.188-.377-.023-.802 0-.99.07-.165.047-.377-.047-.424-.21-.071-.189.212-.283.966-.283.589 0 1.084.094 1.084.235m-3.535 1.08c0 .423-.754 1.432-2.734 3.64-1.508 1.666-2.78 3.005-2.851 2.958-.188-.212.448-1.386 1.39-2.583 1.791-2.23 3.842-4.602 4.03-4.602.094-.023.165.258.165.587m2.357-.047c0 .188-.118.423-.26.517-.33.188-.777-.259-.589-.587.236-.376.849-.305.849.07m1.178.024a.36.36 0 0 1-.354.352c-.377 0-.47-.282-.188-.54.26-.282.542-.188.542.188m.801.234c-.094.188-.236.306-.353.235-.095-.07-.142-.282-.071-.47.094-.187.236-.305.354-.234.094.07.14.282.07.47m.778-.07c-.07.188-.142.117-.142-.14-.023-.26.048-.4.118-.306.071.07.095.282.024.446m-11.477.657c0 .423-4.241 5.635-4.76 5.823-.471.188-.118-.728.684-1.76 1.46-1.926 3.7-4.532 3.888-4.532.094 0 .188.211.188.47m8.696.728c-.306.564-.919.587-.919.024 0-.587.165-.728.707-.587.377.094.424.211.212.563m1.155-.211c-.142.422-.66.493-.66.094 0-.212.165-.376.377-.376s.33.118.283.282m.754.07c0 .188-.047.352-.094.352s-.142-.164-.236-.352c-.07-.187-.024-.352.094-.352.142 0 .236.164.236.352m.872.165c-.07.188-.142.117-.142-.141-.023-.258.048-.4.118-.305.071.07.095.281.024.446m-5.279.986c-.424.775-4.36 4.836-4.69 4.836-.188 0-.33-.07-.33-.187 0-.235 1.25-1.761 3.3-4.015 1.46-1.62 1.79-1.879 1.838-1.48.047.282 0 .658-.118.846m-14.776-.47c.071.305.095.822.048 1.104-.048.47-.236.563-1.06.634l-1.014.07v-2.371h.942c.778 0 .967.094 1.084.563m2.263.352c.117 1.315.023 1.433-1.014 1.433h-.919V37.48h.92c.895 0 .918.023 1.013.915m6.315.094c0 .305-.73 1.409-1.79 2.7-1.368 1.667-1.91 2.16-2.357 2.16-.519 0-.4-.211 1.249-2.136a101 101 0 0 0 2.262-2.7c.542-.705.636-.705.636-.024m8.602.634c0 .916-.754.916-.778 0 0-.563.07-.704.377-.657.26.047.4.305.4.657m1.06-.352c0 .188-.094.352-.212.352-.306 0-.518-.375-.33-.563.26-.258.542-.141.542.211m1.886.117c0 .118-.048.235-.095.235-.07 0-.188-.117-.259-.235-.07-.14-.023-.234.094-.234.142 0 .26.094.26.234m-5.185.916c0 .564-2.404 3.217-3.063 3.381-.26.07-.472.023-.472-.07 0-.282 3.087-3.757 3.347-3.757.094 0 .188.211.188.446m4.171-.07c-.07.07-.283.094-.448.023-.188-.07-.117-.14.142-.14.26-.024.4.046.306.117m-11.5 2.136c-.99 1.268-1.508 1.667-1.767 1.409-.071-.07.471-.916 1.225-1.855 1.013-1.244 1.414-1.596 1.461-1.291.047.235-.377 1.01-.919 1.737m9.615-1.197c.141.376-.354.868-.684.657-.094-.07-.188-.329-.188-.587 0-.54.66-.61.872-.07m-15.13 2.794H10.11c-2.64 0-2.592.023-2.592-1.55v-1.385h4.265zm16.096-2.653c-.141.422-.589.493-.589.07 0-.188.165-.352.354-.352.164 0 .282.117.235.282m.99.094c0 .399-.519.328-.66-.094-.047-.165.07-.282.283-.282s.377.164.377.376m-4.407.845c-.165.704-.683 1.291-1.272 1.432-.66.188-.542-.305.306-1.174.872-.916 1.131-.962.966-.258m-6.198.047c0 .47-.919 1.55-1.32 1.55-.47 0-.424-.142.33-1.08.684-.846.99-1.01.99-.47m8.46 1.127c-.165.305-.165.54 0 .751.283.329.118.61-.33.61-.188 0-.282-.375-.282-1.01-.024-1.197.094-1.455.542-1.08.235.189.259.377.07.729M9.427 44.923c.165 1.292 0 1.526-.99 1.433-.754-.07-.801-.141-.872-.986-.118-1.315.07-1.597.943-1.503.73.07.777.14.919 1.056m2.592-.352c.33.423.683.446 4.76.446 2.804-.023 4.43.07 4.525.212.118.187.259.187.471 0 .212-.165 1.178-.235 2.64-.188 2.191.07 2.309.094 2.38.61.07.446-.024.517-.59.54-.353 0-1.673.047-2.898.094-2.71.118-9.38.188-11.712.141l-1.72-.023v-1.15c0-1.034.07-1.175.541-1.245.707-.118 1.155.023 1.603.563m16 1.127c0 .118-.164.235-.376.235-.189 0-.283-.117-.212-.235a.45.45 0 0 1 .377-.235c.118 0 .212.094.212.235m49.489.4c0 .164.118.305.236.305.141 0 .235-.118.235-.259 0-.117.118-.164.236-.094a.58.58 0 0 0 .518-.023c.424-.258 2.145-.282 2.498-.024.142.118.283.493.283.822 0 .751.4.423.519-.422.07-.587.117-.587 2.309-.61 2.522-.024 2.828.023 2.828.586 0 .305.07.282.424-.117.354-.423.636-.47 2.404-.446 3.417.093 3.275.046 3.464.75l.165.658.141-.704.118-.704H98.6l.142 1.784-10.063-.024c-9.85-.023-11.147-.117-10.817-.774.095-.165.024-.118-.165.094-.165.21-.66.446-1.06.516-.778.141-.778.141-.778-.751s.024-.916.825-.892c.518.023.825.14.825.328m-66.785.774c1.154 0 1.272.047 1.296.517v.54l.212-.54c.212-.517.306-.54 3.11-.47l2.9.07.07.916c.047.564-.047.986-.236 1.104-.165.117-1.508.21-2.97.21-2.544 0-2.662-.023-2.874-.54l-.212-.516v.517c-.024.517-.118.54-1.886.54-2.474 0-2.615-.07-2.615-1.291 0-1.127.235-1.339 1.272-1.174.377.07 1.25.117 1.933.117m13.008.986.07 1.127h-5.207v-2.09l2.073-.07a88 88 0 0 1 2.522-.07c.4 0 .471.188.542 1.103m1.673-.892c.448.517 0 1.878-.636 1.972-.471.07-.519-.023-.519-.962 0-.564.071-1.104.165-1.174.26-.259.707-.188.99.164m1.626.4c.07.398-.542.774-.919.54-.118-.071-.212-.33-.212-.588 0-.352.141-.47.518-.399.307.047.566.235.613.446m1.697.093c0 .423-.849.47-1.084.07-.094-.14-.07-.187.047-.117.141.07.377.047.566-.094.47-.282.47-.258.47.141m69.99 15.754c0 10.19-.07 15.331-.236 15.238-.141-.07-.235.093-.235.399 0 .422.047.47.235.188.165-.259.213.023.189.939-.024 1.267-.024 1.267-.189.352l-.165-.94-.047 1.057c-.047.587-.047 1.714-.023 2.512.023 1.08-.047 1.48-.283 1.503-.613.047-1.249-.07-1.555-.329-.236-.187-.354-.187-.472.024-.259.375-6.999.657-7.234.305-.118-.211-.236-.211-.495 0-.4.329-7.848.094-8.201-.258-.59-.587.377-.681 7.093-.681 4.831-.024 7.07-.094 7.282-.282.189-.14.33-.516.33-.822 0-.446.118-.563.589-.563.542 0 .59.094.59.986.023.798.07.916.258.587.118-.211.165-.517.095-.657-.212-.33.33-.916.848-.916.26 0 .448-.118.448-.258s-.542-.212-1.461-.188l-1.485.07V78.92l1.65-.117c1.249-.094 1.508-.165 1.107-.305-.306-.118-1.037-.165-1.65-.118l-1.107.07-.07-3.99c-.024-2.208-.095-4.133-.166-4.274-.07-.211-1.084-.305-3.464-.352-3.181-.07-3.37-.094-3.37-.54s.165-.47 4.36-.517c2.404-.023 4.619-.07 4.949-.07h.589l-.59-.329c-.353-.187-.73-.234-.989-.094-.495.235-4.454.235-4.831 0-.236-.14-.424-1.479-.33-2.348.024-.234.825-.281 3.44-.258 3.182.024 3.936-.047 3.606-.375-.07-.07-4.336-.118-9.473-.118-7.14 0-9.332-.07-9.332-.282 0-.21-.07-.21-.283 0-.165.165-.353.282-.448.282-.235 0-.424-1.174-.188-1.315.094-.046.141-.258.047-.446-.07-.187-.024-.352.07-.375.118 0 .448-.047.755-.07.353-.048.518.07.518.351 0 .235.094.47.212.54.307.188 13.88.212 14.163.024.142-.094.354-.423.472-.728.212-.54.33-.563 2.262-.563 2.192 0 2.498-.118.848-.306-.542-.047-1.06-.164-1.13-.21-.166-.165-.284-1.903-.142-2.255.047-.14.259-.282.471-.282.188 0 .283-.07.212-.164-.094-.07-.66-.164-1.272-.164l-1.132-.024-.094-5.987h.801c.448 0 .825.118.825.235 0 .14.236.094.542-.094.283-.188.801-.329 1.178-.282.354.047.637 0 .637-.117 0-.094-.872-.211-1.933-.258l-1.956-.07-.07-.822c-.047-.447-.212-.893-.354-.986-.495-.306-.07-.4 2.074-.447 2.38-.047 3.134-.258 1.532-.446-1.037-.117-1.06-.14-1.06-.939 0-.775.046-.822.942-.962.518-.07 1.013-.165 1.131-.188.094 0 .165 6.902.165 15.378M76.424 48.445c.141.329.212.352.353.094.307-.47.73-.094.637.517a4 4 0 0 0-.118.68c-.047.423-.495.141-.495-.281 0-.258-.094-.47-.236-.47-.118 0-.165.165-.094.352.094.212 0 .352-.236.352-.282 0-.377-.234-.377-.821 0-.869.307-1.104.566-.423m7.588.188c.33 1.291-.141 1.48-2.898 1.15-1.32-.164-1.532-.375-1.226-1.22.189-.47.353-.517 2.074-.517 1.838 0 1.909.023 2.05.587m6.127 0c.306 1.22.118 1.315-2.898 1.244-2.71-.07-2.781-.094-2.852-.61-.165-1.15-.023-1.221 2.875-1.221 2.71 0 2.734 0 2.875.587m5.868 1.174h-2.71c-2.663 0-2.71 0-2.78-.54-.166-1.174-.024-1.245 2.827-1.174l2.663.07zm-69.071-1.315c.165.258-.518.54-.825.352a.44.44 0 0 1-.212-.352c0-.282.872-.282 1.037 0m52.457.024c0 .117-.141.234-.283.258q-.353 0 0 .14c.472.188.33.705-.235.846-.707.188-.896.023-.896-.798 0-.61.07-.681.707-.681.4 0 .707.094.707.235m-51.444.14c-.07.07-.283.094-.448.024-.188-.07-.117-.14.142-.14.26-.024.4.046.306.117m-18.829.94c.495.14.542.281.472 1.361l-.071 1.198H7.636l-.071-1.033c-.118-1.644.141-1.902 1.555-1.526m11.948.07c.778 0 2.262-.047 3.3-.07 1.036-.047 2.026-.024 2.19.023.142.07.284.47.284.916 0 .634-.095.798-.448.798-.236 0-.495-.211-.566-.446-.117-.446-.33-.47-5.844-.352-7.329.14-7.659.188-8.036.986-.26.516-.471.634-1.131.634h-.825l-.07-1.221c-.048-.986 0-1.221.33-1.291.235-.047 2.427-.047 4.901 0 2.474.023 5.137.047 5.915.023m33.534 1.174c-.118.376-4.242 4.484-4.477 4.484-.425 0 .377-1.056 2.168-2.84 1.602-1.644 2.545-2.301 2.309-1.644m21.775.376c.07.328.023.587-.07.587-.119 0-.142.14-.072.328.071.188.024.4-.094.47s-.236-.352-.236-.916c-.047-1.127.283-1.456.472-.47m.895.234c0 .447 0 .893.024.986 0 .094-.095.212-.236.259-.165.047-.26-.329-.26-.986 0-.587.119-1.08.237-1.08.141 0 .235.375.235.821m1.414.118c0 .68-.094.939-.353.939-.236 0-.354-.235-.354-.775 0-.446.07-.869.165-.939.354-.376.542-.117.542.775m-27.124.986c-.825.939-1.532 1.76-1.555 1.808-.047.047-.142.023-.212-.047-.307-.282 2.427-3.452 2.969-3.452.165 0-.377.775-1.202 1.69m2.31.892c-1.791 1.667-2.522 2.184-2.522 1.69 0-.352 3.558-3.827 3.794-3.662.118.07.212.047.189-.07-.095-.47.07-.611.235-.188.142.375-.165.774-1.697 2.23m25.45-1.127c-.07.47-.094.493-.259.117-.118-.21-.118-.68 0-1.056.165-.587.189-.61.26-.117.07.305.07.774 0 1.056m-41.31-.422c-.212.352-.448.563-.519.516-.047-.07.071-.4.283-.751.236-.329.471-.54.542-.493.047.07-.07.399-.306.728m1.79-.681c0 .07-.518.704-1.178 1.408-.636.705-1.178 1.15-1.178.986 0-.375 1.815-2.512 2.145-2.512.117 0 .212.047.212.118m1.368.093c-.142.4-3.535 3.804-3.677 3.687-.188-.188.495-1.08 1.933-2.56 1.225-1.22 1.956-1.69 1.744-1.126m.99.423c-1.085 1.409-3.418 3.616-3.488 3.358-.071-.165.353-.752.919-1.362.565-.587 1.367-1.409 1.743-1.831.872-.963 1.556-1.08.825-.165m8.978-.211c-.118.211-.448.61-.707.845-.683.61-.66 0 .024-.728.589-.634 1.013-.704.683-.117m-24.296.775c0 .54-.66.61-.872.07-.142-.376.353-.869.683-.657.094.07.189.328.189.587m16.496-.4c0 .353-2.828 3.428-3.135 3.428-.424 0-.023-.657 1.32-2.136 1.485-1.644 1.815-1.879 1.815-1.291m-14.729.33c-.26.257-1.06.187-1.06-.071 0-.188.235-.235.589-.165.33.047.542.165.471.235m-8.2.891c-.496.47-.967.775-1.038.728-.235-.258.236-1.15.707-1.338 1.084-.423 1.202-.211.33.61m.989.799c-1.65 1.807-2.097 2.113-2.097 1.361 0-.587 2.498-2.981 3.134-3.005.306 0 .023.446-1.037 1.644m2.804-1.41c-.118.4-4.454 5.166-4.69 5.166-.4 0-.211-.68.425-1.455 1.909-2.372 4.619-4.72 4.265-3.71m61.742 4.509-.07 4.766h-3.535l-.07-4.461c-.024-2.442 0-4.578.046-4.743.095-.211.684-.305 1.91-.305h1.767zm6.363 0-.07 4.766-1.862.07c-1.037.047-1.98-.047-2.098-.164-.212-.211-.424-8.851-.235-9.25.047-.094 1.06-.165 2.215-.165h2.097zm-78.309-4.038c-.471.516-.73.469-.518-.118.094-.188.33-.352.542-.352.377 0 .377.047-.024.47m2.003-.4c0 .024-.589.634-1.296 1.339-.872.868-1.296 1.15-1.296.868 0-.563 1.626-2.277 2.145-2.277.259 0 .447.023.447.07m-.235 2.09c-1.06 1.197-2.027 2.207-2.145 2.254s-.212-.141-.212-.4c0-.258.707-1.267 1.555-2.253 1.155-1.315 1.697-1.761 2.121-1.761.542 0 .401.211-1.32 2.16m1.79-.211c-.33.422-1.39 1.596-2.356 2.63-1.367 1.431-1.767 1.76-1.79 1.384 0-.281.848-1.455 2.026-2.817 1.131-1.268 2.144-2.512 2.31-2.747.235-.376.259-.352.33.188.046.399-.142.892-.52 1.362m38.272-1.644c0 .165-.378.657-.825 1.104-.448.446-.825.704-.825.587 0-.118-.165.023-.377.305-.4.563-.801.68-.801.211 0-.305 2.309-2.512 2.639-2.512.094 0 .188.14.188.305m30.87.07c0 .188-.117.282-.235.212-.141-.094-.189-.258-.118-.376.212-.329.353-.258.353.165m.472.54q0 .916-.354 1.057c-.542.188-.754-.563-.282-.916.235-.164.4-.47.4-.68 0-.212.047-.376.118-.376s.118.422.118.916M11.639 55.21l-1.532.047c-2.427.07-2.592 0-2.592-1.197 0-.54.07-1.057.141-1.151.094-.07 1.037-.14 2.145-.14h1.98zm31.696-1.925c0 .352-1.65 2.113-1.839 1.948-.07-.093 1.603-2.23 1.791-2.253.024 0 .048.14.048.305m-18.853.375c0 .235-.825 1.362-1.814 2.49-1.014 1.126-2.074 2.37-2.38 2.723-.613.75-.99.868-.99.305 0-.376 4.666-5.917 5.02-5.94.093-.024.164.164.164.422m2.31.07c-.095.635-.543.8-.755.306-.188-.493.024-.822.472-.822.235 0 .33.188.282.517m1.225-.023c0 .118-.165.212-.354.212-.353 0-.47-.282-.212-.54.189-.188.566.023.566.328m.707-.023c0 .117-.118.235-.26.235-.117 0-.164-.118-.094-.235.071-.141.189-.235.26-.235.047 0 .094.094.094.235m47.626.164c0 .235.047.658.07.963.048.282-.07.634-.211.751-.212.188-.307-.047-.33-.939 0-.634.094-1.174.212-1.174.141 0 .236.188.26.4m.966.118c.118.868-.094 1.854-.353 1.76-.141-.047-.26-.305-.236-.587 0-.281.024-.774.047-1.103.024-.728.424-.775.542-.07m2.24.446c.093 1.103-.072 1.526-.496 1.174-.259-.212-.353-.212-.424 0-.212.61-.683-.094-.636-.94.07-1.126.118-1.174.848-1.103.542.07.66.188.707.869m-23.967-.329c0 .235-.99 1.244-1.25 1.244-.093 0 .048-.305.354-.68.519-.681.896-.916.896-.564M17.6 56.01c-.306.352-1.343 1.573-2.31 2.677-1.414 1.643-1.79 1.948-1.838 1.573-.117-.751 4.478-6.01 4.62-5.283.046.188-.166.657-.472 1.033m9.238-.916c0 .306-.165.47-.472.47-.447 0-.636-.47-.306-.775.306-.328.778-.14.778.306m16.048.071c-.236.211-.26.188-.118-.14.07-.236.212-.353.283-.283s0 .259-.165.423m44.28.305c0 .564-.094.798-.283.752-.424-.141-.518-.846-.189-1.245.425-.493.472-.446.472.493m-65.16 3.146c-1.39 1.55-2.568 2.818-2.615 2.818s-.094-.188-.094-.423 1.13-1.714 2.545-3.31c2.026-2.348 2.545-2.818 2.592-2.395.07.352-.613 1.268-2.427 3.31m6.717-3.498c0 .14-.165.211-.354.14-.188-.093-.4-.046-.47.095-.095.117-.26.164-.378.07-.118-.07-.165-.235-.094-.352.212-.305 1.296-.258 1.296.047M11.76 58.118l-4.124-.094-.071-.775c-.142-1.385-.024-1.455 2.192-1.455h2.003zm15.01-1.714c.19.47-.188.845-.612.587-.353-.234-.188-.962.212-.962.142 0 .307.164.4.375m1.061.376c-.353.352-.612.094-.424-.423.118-.305.212-.352.424-.14.213.21.213.352 0 .563m1.768-.235c-.07.188-.142.118-.142-.14-.023-.259.048-.4.118-.306.071.07.095.282.024.446M16 59.597c-1.201 1.339-2.262 2.442-2.38 2.49-.707.28.095-.987 2.098-3.288 1.885-2.207 2.31-2.559 2.356-2.113.07.376-.495 1.15-2.074 2.911m12.726-3.099c0 .118-.047.235-.094.235-.071 0-.189-.117-.26-.235-.07-.14-.023-.234.095-.234.141 0 .259.093.259.234m5.561.282.165.54.189-.54c.235-.587 1.249-.728 1.461-.164.094.188.07.868 0 1.526-.118 1.033-.189 1.174-.707 1.174-.306 0-.613-.165-.683-.352-.142-.33-.189-.33-.425 0-.188.281-.565.352-1.32.305-1.036-.07-1.06-.094-1.13-.986-.142-1.69.07-2.02 1.249-2.02.848 0 1.06.094 1.201.517m-9.897.728c-.165.657-4.242 4.719-4.62 4.578-.164-.047.779-1.291 2.145-2.84 2.333-2.607 2.781-2.936 2.475-1.738m14.705-.892c0 .188-1.697 2.7-1.815 2.7-.212 0 .236-1.08.778-1.95.495-.75 1.037-1.15 1.037-.75m1.414.023c0 .07-.307.54-.684 1.01-.353.47-1.06 1.455-1.579 2.23-.966 1.48-1.366 1.456-.589-.023.872-1.714 2.852-3.945 2.852-3.217m1.414.07c0 .118-.165.33-.354.494s-1.037 1.22-1.909 2.37c-1.39 1.88-2.238 2.654-1.908 1.762.306-.799 3.487-4.837 3.817-4.837.189 0 .354.094.354.212m1.272.071c-.094.164-.825 1.103-1.602 2.066a46 46 0 0 0-1.815 2.324c-.188.306-.495.517-.636.47-.566-.188 3.181-5.142 3.865-5.142.235 0 .282.118.188.282m8.154-.14c0 .163-1.461 2.206-1.579 2.206-.306 0 .047-1.033.542-1.62.566-.657 1.037-.94 1.037-.587m1.65-.024c0 .07-.448.68-.99 1.361-.566.681-1.296 1.597-1.65 2.043-.542.704-.636.751-.66.329 0-.752 2.263-3.85 2.828-3.85.26 0 .472.046.472.117m.66.868c-.448.564-1.367 1.714-2.074 2.583-.684.892-1.414 1.596-1.603 1.596-.424 0 .118-.868 2.074-3.357.966-1.197 1.602-1.808 1.932-1.808.425 0 .4.094-.33.986m1.932-.775c0 .141-.424.728-.966 1.339-.542.61-1.39 1.667-1.886 2.348-.8 1.056-1.861 1.784-1.861 1.314 0-.21 2.356-3.146 3.44-4.343.801-.845 1.273-1.104 1.273-.657m20.643 1.221c.024.634-.047 1.15-.165 1.15-.117 0-.212-.61-.212-1.337 0-1.597.33-1.456.377.187m1.037-.14c0 .939-.094 1.29-.33 1.29-.235 0-.33-.304-.306-1.126 0-1.197.07-1.456.424-1.456.118 0 .212.587.212 1.291m2.357-.024c0 1.22-.047 1.268-.943 1.127-.66-.094-.707-.164-.707-1.104 0-.939.047-1.032.66-1.103.92-.117.99-.047.99 1.08m7.517 1.362c0 1.456-.07 2.512-.141 2.348-.047-.141-.212-.235-.33-.141-.118.07-.212-.047-.212-.258s.118-.306.236-.235c.14.07.235-.07.235-.352s-.094-.423-.236-.353c-.306.188-.306-.493 0-1.08.166-.305.166-.446 0-.446-.117 0-.235-.117-.235-.258 0-.117.118-.164.236-.094.14.094.235-.235.235-.798 0-.54.047-.963.118-.963s.118 1.198.094 2.63M26.84 57.789c0 .376-.637.752-.872.517-.071-.094-.071-.305 0-.517.188-.469.872-.469.872 0m1.06-.117c.07.117.283.165.448.094.188-.07.4-.023.495.117.094.165-.095.259-.448.259-.33 0-.683 0-.778.023-.117 0-.212-.164-.259-.352-.094-.4.306-.517.542-.14m1.697.282c-.07.188-.142.117-.142-.141-.023-.258.048-.4.118-.305.071.07.095.281.024.446m12.442 1.972c-1.248 1.597-1.767 2.066-1.767 1.526 0-.117.495-.868 1.131-1.667.613-.821 1.273-1.69 1.461-1.948.33-.447.354-.447.425-.07.047.234-.495 1.173-1.25 2.16m13.787-2.16c0 .188-.59 1.057-1.297 1.949-.707.868-1.296 1.667-1.296 1.76 0 .118-.165.188-.377.188-.565 0-.306-.54 1.202-2.441 1.39-1.785 1.767-2.09 1.767-1.456m-37.706.798c0 .517-2.757 3.569-3.228 3.569-.189 0-.306-.094-.26-.211.118-.376 3.111-3.757 3.323-3.78.095 0 .165.188.165.422m-7.588.07 1.25-.046-.072 1.244c-.07 1.15-.117 1.245-.707 1.315-.353.047-.848-.023-1.084-.164-.306-.165-.518-.165-.683 0-.141.14-.542.21-.919.164-.636-.07-.683-.14-.754-1.291-.07-1.292.212-1.573 1.249-1.292.26.07 1.037.118 1.72.07m13.951.236c0 .54-2.474 3.263-2.993 3.263-.165 0-.306-.094-.306-.188 0-.188 3.016-3.568 3.205-3.568.047 0 .094.21.094.493m2.357.328c0 .423-.118.587-.472.587-.471 0-.66-.657-.306-1.01.354-.375.778-.14.778.423m1.202-.07q0 .352.14 0c.048-.141.19-.282.307-.282.095 0 .236.14.307.282.07.211-.165.328-.684.352-.589.047-.801-.023-.801-.282 0-.422.707-.47.73-.07m1.555.235c-.07.187-.142.117-.142-.141-.023-.258.048-.4.118-.306.071.07.095.282.024.447m13.15 1.103c-.378.869-.967 1.362-1.25 1.104-.07-.07.236-.587.684-1.174.448-.564.848-.986.895-.94s-.094.517-.33 1.01m12.725-.751c-.094.235-.165.704-.141 1.056.023.352-.095.705-.236.799-.212.117-.236 0-.142-.376l.142-.517-.542.493c-1.084 1.01-1.131.493-.094-.868.777-1.01 1.32-1.315 1.013-.587m24.013 1.479c-.023.329-.07.657-.07.751-.024.258-1.06.118-1.25-.164-.094-.117-.188-.587-.188-1.01 0-.587.094-.751.448-.751.26 0 .542-.117.636-.282.236-.352.519.634.424 1.456m16.12-.305c-.071 1.267-.118 1.361-.66 1.361-.519 0-.59-.117-.66-1.033-.095-1.338.047-1.667.777-1.667.59 0 .613.047.542 1.339m-77.862.188c-.448.68-1.178 1.15-1.367.868-.047-.094.283-.634.755-1.22.636-.752.895-.916.942-.658.047.211-.094.68-.33 1.01m58.585-.799c0 .118-.095.212-.236.212-.118 0-.236-.165-.236-.376 0-.188.118-.282.236-.211.141.07.236.234.236.375m.824.681c0 .61-.117 1.057-.306 1.127-.189.047-.283-.258-.283-1.127s.094-1.174.307-1.103c.165.047.282.493.282 1.103m-52.857-.023c-.118.07-.33.375-.495.657-.283.54-.966.751-.966.305 0-.117.353-.61.777-1.08.613-.728.778-.798.825-.446.047.235 0 .47-.141.564m2.545.258c0 .775-.071.939-.472.939s-.471-.164-.471-.94c0-.774.07-.938.471-.938s.472.164.472.939m1.72-.61c.707.023.283.469-.495.516-.613.023-.754-.047-.754-.423 0-.352.094-.422.424-.305.212.118.59.188.825.212m47.768.352c0 .14-.095.305-.236.375-.118.07-.236-.023-.236-.211 0-.211.118-.376.236-.376.141 0 .236.094.236.212m-33.228.258c0 .117-.118.235-.26.235-.117 0-.164-.118-.093-.235.07-.141.188-.235.259-.235.047 0 .094.094.094.235m-15.341.916c-.354.117-.519-.141-.33-.447.141-.21.235-.21.377.024.118.188.094.352-.047.423m-15.836.446c.07 1.361.282 1.455 3.51 1.455 1.768 0 2.946.094 3.04.235.119.188.26.188.472 0 .377-.329 6.269-.282 6.67.047.306.258.376.023.306-.822-.024-.211.117-.47.33-.54.518-.211.683.024.4.517-.165.282-.141.563.024.845.4.61-.118 1.103-.684.634-.306-.258-.424-.258-.495-.047-.141.4-6.315.423-6.574.047-.095-.188-.212-.188-.401 0-.354.352-4.548.329-7.989-.024l-2.78-.281v-2.935l4.123.094zm64.405-.658a.236.236 0 0 1-.236.235c-.118 0-.236-.117-.236-.235 0-.14.118-.235.236-.235.141 0 .236.094.236.235m.235 1.315c0-.235.142-.376.307-.305.377.117.377 2.09-.024 2.23q-.283.07-.283-.634c0-.399-.094-.728-.212-.728-.094 0-.141.259-.094.564.07.305 0 .634-.141.704-.165.118-.26-.234-.26-1.08.024-1.15.047-1.197.354-.798.33.423.353.423.353.047M28.65 64.389c-.07.07-.283.094-.448.023-.188-.07-.117-.14.142-.14.26-.024.4.047.306.117M9.592 66.758l.07 1.48H7.753v-1.362c0-.752.071-1.456.165-1.55s.495-.14.896-.094c.707.07.707.094.778 1.526m15.93-.868c.094.094.118.61.024 1.15l-.165.963-1.886-.07c-1.037-.024-1.932.023-1.98.117-.07.094-.66.187-1.319.187-1.98 0-1.155.212 1.178.306 1.202.047 2.24.14 2.31.211s.448.023.825-.117c.824-.33 1.201.023 1.107 1.01l-.07.586-6.599.07c-3.605.047-6.622.118-6.669.165-.07.047-.165.446-.26.869-.14.704-.235.774-.989.727a47 47 0 0 0-2.05-.047h-1.25l.142-3.193H9.05c1.296 0 1.225.141.895-1.807-.283-1.761-.73-1.667 7.777-1.503 4.17.094 7.682.258 7.8.376m1.438-.024c.07.118-.048.376-.236.564-.448.47-.448.633 0 .633.471 0 .448.61-.024.799-.589.211-.73 0-.754-1.15 0-.87.07-1.057.424-1.057.236 0 .495.094.59.211m50.218.4c-.07.187 0 .328.141.328.165 0 .165.094-.023.329-.142.188-.26.422-.236.516.07.446-.047.798-.26.798-.258 0-.329-2.183-.093-2.418.259-.258.612.094.471.446m6.316-.47c.377.14.495.962.235 1.901-.141.493-.282.54-1.956.517-.99-.023-2.05-.094-2.356-.188-.542-.14-.542-.164-.165-.563.353-.352.353-.4.047-.4-.4 0-.495-.399-.189-.868.095-.164.872-.329 1.697-.376.849-.047 1.72-.094 1.933-.117a2.1 2.1 0 0 1 .754.094m6.74 2.441h-6.128V67.11c0-.635.071-1.221.165-1.292.071-.094 1.461-.164 3.064-.164h2.898zm-13.951-1.29c.023.563-.048 1.103-.165 1.15-.095.07-.213-.4-.236-1.033-.024-.658.07-1.174.188-1.174.095 0 .213.47.213 1.056m2.521-.33c0 .658-.283 1.386-.566 1.386-.117 0-.165-.353-.141-.775.047-.4.07-.892.094-1.057.047-.563.613-.14.613.446m-42.23.165c.283.234.377.234.448 0 .07-.212.872-.329 2.71-.376l2.592-.094.118 1.221c.212 2.184.283 2.137-2.851 2.113-3.465-.023-3.323-.047-3.323.258 0 .141.566.212 1.508.165.848-.024 1.579 0 1.65.047.188.211.235 2.723.047 3.005-.236.376-4.43.376-4.807 0-.213-.211-.354-.211-.566 0-.165.164-.684.282-1.178.282h-.896v-3.287h.943c.589 0 .99.14 1.13.375.19.353.237.353.354 0 .095-.234.424-.375.92-.375.589 0 .683-.07.424-.235-.189-.118-1.132-.235-2.05-.235h-1.72v-3.029l.777-.07c1.602-.14 3.44-.023 3.77.235m13.315.962c.047.728-.024 1.339-.165 1.433-.141.07-1.72.14-3.488.14l-3.252-.023-.07-1.15c-.118-1.879-.236-1.808 3.534-1.738l3.37.07zm6.433 1.433h-5.915v-2.841l5.774.14zM28.727 67.58c0 .117-.26.188-.59.188s-.588-.07-.588-.188c0-.094.259-.164.589-.164s.589.07.589.164m-1.744 1.15a.34.34 0 0 1-.165.447c-.236.164-.236.258.024.586.282.33.282.423-.024.611-.189.117-.424.164-.566.117-.235-.07-.377-1.479-.188-1.854.141-.259.73-.188.919.094m1.579.141c-.165.047-.495.047-.707 0-.236-.07-.094-.117.283-.117.4 0 .565.047.424.117m58.49.423c0 .446-.165.47-3.323.47-2.945 0-3.393.047-3.841.446-.283.258-.495.704-.495 1.01 0 .28-.118.54-.26.54-.164 0-.211-.26-.14-.635l.117-.634-.424.564c-.236.328-.518.516-.589.422-.165-.164.613-1.01 1.485-1.596.589-.376.707-.751.165-.564-.189.094-.354.024-.354-.093 0-.306 1.626-.447 5.067-.423 2.427.023 2.592.047 2.592.493m-10.722-.117a.236.236 0 0 1-.236.234c-.118 0-.236-.117-.236-.234 0-.141.118-.235.236-.235.141 0 .236.094.236.235m.824.704c-.047.516.024.939.142.939s.094.211-.07.47c-.425.657-.637.587-.614-.212.024-.915-.306-1.432-.542-.821-.165.422-.188.422-.188.023-.024-.258.188-.493.424-.563.283-.07.4-.259.33-.447-.07-.187.023-.328.236-.328.259 0 .33.235.282.939m1.862-.54c.118.258-.047.61-.424.986-.801.798-1.013.493-.236-.329.354-.375.448-.587.236-.516-.236.094-.377.023-.377-.188 0-.493.613-.446.801.047m-50.525.775c-.447.305-.707.305-.707 0 0-.141.236-.235.542-.235.424 0 .448.047.165.235m14.093-.024c.212.118.282.634.235 1.69l-.07 1.503-1.085.07c-1.39.095-1.673-.234-1.578-1.878l.07-1.244.943-.14c.518-.071.99-.165 1.06-.165.071-.024.26.047.425.164m-15.86.916c.471.329.4.986-.118.986-.354 0-.471-.14-.471-.587 0-.587.165-.704.589-.4m34.288.986-8.366.047-8.366.07v-1.174h8.366l8.366-.023zm31.342.14c.142.353.212 2.443.189 4.884l-.07 4.25h-4.007l-.07-4.578c-.024-2.513 0-4.696.046-4.86.095-.212.684-.306 1.91-.306 1.696 0 1.79.024 2.002.61m-6.598 3.5c0 2.723.07 3.873.26 3.873.188 0 .211-.258.117-.728-.118-.634-.094-.704.212-.446.283.235.353.235.353-.094 0-.211-.094-.375-.235-.375-.118 0-.236-.212-.236-.447 0-.258.118-.54.236-.61.141-.07.236-.305.236-.493s-.095-.282-.236-.211c-.33.211-.283-.423.07-.799.236-.258.236-.305 0-.164-.377.211-.424-.704-.047-.94.189-.093.165-.21-.047-.375-.259-.164-.259-.258-.047-.352.212-.07.236-.235.07-.516-.14-.306-.117-.564.119-.87.306-.398.33-.234.353 1.55 0 1.104.07 3.24.165 4.743.141 2.724.07 2.982-.613 2.56-.212-.142-.235-.259-.047-.353.4-.258.307-.587-.141-.517-.236.048-.4.165-.377.282 0 .118-.07.4-.189.61-.165.33-.542.423-1.508.423-2.12 0-2.003.305-2.003-4.79 0-2.488.07-4.601.165-4.671.07-.094.872-.165 1.767-.165h1.603zm-71.451-2.466c-.542.634-.802.798-.849.563-.117-.54.613-1.502 1.155-1.502.424 0 .4.094-.306.939m.872.704c-1.131 1.15-1.674 1.55-1.72 1.291-.119-.563 2.097-2.91 2.78-2.91.519-.024.377.164-1.06 1.62m2.945-1.432c0 .118-1.037 1.22-2.286 2.489-1.696 1.667-2.333 2.16-2.38 1.878-.07-.258.66-1.174 1.98-2.489 1.909-1.901 2.686-2.441 2.686-1.878m2.31.54c-.59.775-1.131 1.103-1.131.704s.966-1.455 1.343-1.455c.283 0 .236.164-.212.751m1.579 0c-2.357 2.63-2.71 2.911-2.71 2.23 0-.54 2.356-2.981 2.898-2.981.448 0 .448.047-.188.751m2.003-.61c0 .21-4.336 5.024-4.525 5.024-.118 0-.188-.164-.188-.376 0-.563 3.77-4.79 4.265-4.79.26 0 .448.071.448.142m-14.022.328c.26-.023.801-.07 1.178-.094l.707-.023v2.817H7.871l-.07-1.267c-.071-1.41.14-1.69 1.107-1.503.33.07.825.117 1.084.07m14.422 1.01c-.636.939-4.666 5.33-4.878 5.33-.707 0 .118-1.151 3.3-4.673 1.225-1.361 1.79-1.831 1.838-1.573.047.235-.071.634-.26.916m2.475-.892c.306.399.212.587-.283.587-.306 0-.471-.165-.471-.47 0-.47.447-.54.754-.117m52.386.962c.024.587-.047 1.104-.165 1.174-.094.07-.188-.305-.188-.822 0-.704-.094-.962-.354-.962-.188 0-.353-.118-.353-.258s.165-.212.353-.118c.189.07.354 0 .354-.14 0-.142.07-.189.165-.094.094.093.188.633.188 1.22m-2.003-.868c0 .117.189.281.424.328.283.07.26.118-.141.141-.306 0-.495.118-.4.235.07.117 0 .305-.142.4-.189.093-.165.21.047.351.165.094.236.259.142.376-.236.235-.66-.4-.566-.869.047-.188-.141-.493-.424-.657-.354-.235-.354-.282-.047-.188.212.07.4.023.4-.094 0-.14.165-.235.354-.235s.353.094.353.212m-58.914.704c0 .47-3.7 4.531-4.478 4.954-.306.164-.377.117-.353-.258.024-.353 4.454-5.142 4.76-5.142.047 0 .071.211.071.446m60.328 0c0 .117-.165.258-.353.352-.354.118-.472-.117-.189-.399.212-.235.542-.211.542.047M42.82 75.351l.07 1.573h-5.678v-3.028l2.427-.094c1.32-.024 2.569-.07 2.757-.047.26 0 .377.376.424 1.596m12.961.447a168 168 0 0 0-2.262 2.629c-.66.845-.943.657-.354-.235.236-.375.283-.587.142-.493-.707.446-.189-.422 1.178-2.019 1.037-1.15 1.72-1.737 2.192-1.831.377-.07.73-.094.777-.07.024.046-.707.939-1.673 2.019m5.232 6.057c0 8.053 0 8.217-.471 8.217-.448 0-.472-.14-.377-3.592.047-1.949.094-5.658.117-8.217.024-3.945.071-4.626.377-4.626.307 0 .354 1.08.354 8.218M76.33 73.73c0 .07-.095.188-.236.259-.118.07-.236.023-.236-.094 0-.141.118-.258.236-.258.141 0 .236.046.236.093m-49.253.587c0 .235-.212.493-.471.564-.377.094-.471 0-.471-.446 0-.4.141-.564.471-.564.306 0 .471.165.471.446m9.686 2.606h-4.737V73.85l4.595.14zm7.989-1.408c0 1.244-.071 1.643-.33 1.643q-.601 0-.424-2.183c.07-.752.212-1.104.424-1.104.259 0 .33.4.33 1.644m2.333-.705c-.425.517-.802.94-.849.94s-.07-.212-.07-.47c0-.564.8-1.409 1.296-1.409.282 0 .165.258-.377.94m2.168-.258a38 38 0 0 1-1.768 2.02c-1.272 1.361-1.296 1.385-1.32.727 0-.94 2.121-3.38 2.946-3.38h.59zm1.626-.422c0 .187.141.164.4-.047.212-.188.33-.212.283-.07-.118.257-5.467 6.432-5.538 6.362-.023-.024.024-.376.07-.799.072-.493.826-1.55 2.24-3.216 1.98-2.348 2.545-2.84 2.545-2.23m3.417 1.032c-.613.705-1.155 1.292-1.202 1.292s-.047-.329 0-.728c.094-.892.99-1.855 1.744-1.855.518 0 .495.07-.542 1.291m4.407-.774c.235 1.573-.166 2.395-2.852 5.893-1.485 1.902-2.78 3.522-2.875 3.592-.118.07-.212-.14-.212-.446 0-.352.966-1.878 2.545-4.038 1.39-1.902 2.663-3.663 2.852-3.898.188-.258.282-.516.212-.563-.142-.141-3.158 3.639-4.525 5.611-.495.751-.943 1.291-1.013 1.221-.307-.305.565-2.465 1.437-3.545 2.05-2.512 3.747-4.344 4.03-4.344.188 0 .353.235.4.517m15.27 3.005h-1.508c-1.155 0-1.532-.094-1.65-.376-.188-.493-.188-2.794.024-2.981.07-.094.825-.165 1.65-.165h1.484zm-21.61-2.77c-.094.305-1.414 2.066-2.969 3.944-3.723 4.484-3.464 4.226-3.464 3.451 0-.446.66-1.409 2.333-3.428 2.168-2.582 3.912-4.484 4.124-4.484.047 0 .047.235-.024.517m26.135 0c-.165.164-.283.187-.283.047 0-.33.283-.61.448-.447.047.07-.024.259-.165.4m-53.777.094c0 .422-1.626 2.441-4.006 5.024-1.367 1.502-1.815 1.526-.99.094.471-.822 4.548-5.47 4.83-5.494.095 0 .166.164.166.376m-6.363.657c0 .399-4.289 4.836-4.666 4.836a.286.286 0 0 1-.283-.281c0-.329 4.454-4.884 4.76-4.884.118 0 .189.141.189.329m8.814.493c.141.352-.802.68-1.132.352-.117-.117-.141-.352-.07-.563.165-.4 1.013-.259 1.202.21m.966-.117c-.07.117-.26.234-.377.234-.142 0-.165-.117-.095-.234a.48.48 0 0 1 .378-.235c.14 0 .164.094.094.234m-16.19 1.737-.07 1.197H7.87v-2.582l1.626-.047c.896-.024 1.673-.118 1.744-.188.07-.047.26 0 .448.164.212.165.306.658.26 1.456m40.368-.775c-.188.564-6.056 8.006-6.386 8.147-.094.024-.118-.258-.047-.634.094-.657 1.555-2.63 4.925-6.668 1.508-1.808 1.98-2.066 1.508-.845m24.815-.587c.094.235.023.329-.141.282-.354-.118-.543-.657-.236-.657.118 0 .306.164.377.375m1.437-.164c.189.305-.565 1.01-.895.798-.189-.117-.189-.188.023-.258.165-.047.283-.235.283-.423 0-.375.377-.446.59-.117m.684.775c-.07 1.056-.118 1.103-.307.422-.188-.657-.07-1.455.189-1.291.094.047.141.446.118.869m-54.531-.094c0 .516-4.384 5.447-4.831 5.447-.189 0-.354-.094-.354-.235 0-.282 4.76-5.635 4.996-5.635.118 0 .189.188.189.423m51.844-.094c0 .047-.188.235-.4.399-.377.305-.401.282-.095-.094s.495-.493.495-.305m-60.587 3.334c-1.226 1.22-2.286 2.207-2.38 2.207-.59 0 .07-.963 2.12-3.076 1.98-2.066 2.287-2.324 2.357-1.855.07.423-.424 1.033-2.097 2.724m11.1-2.841c0 .211-.213.352-.59.352s-.589-.14-.589-.352.212-.352.59-.352c.376 0 .588.14.588.352m1.178-.118c0 .118-.165.235-.354.235s-.353-.117-.353-.235c0-.14.165-.234.353-.234.189 0 .354.094.354.234m.824 0c.071.118.024.235-.094.235-.141 0-.26-.117-.26-.235 0-.14.048-.234.095-.234.07 0 .189.094.26.234m48.145.282c-.141.423-.66.493-.66.094 0-.211.165-.376.377-.376s.33.118.283.282m1.461-.07c0 .282-.471.587-.636.422s.141-.634.424-.634a.21.21 0 0 1 .212.212m-44.374.61c.118.329.165.329.542 0 .33-.305.872-.352 2.734-.305l2.333.07.07 1.503c.047 1.056-.023 1.573-.235 1.69-.165.118-1.273.212-2.475.212-1.579 0-2.239-.094-2.498-.352-.306-.306-.377-.306-.495.023-.094.258-.4.329-1.13.282l-1.014-.07-.07-1.386c-.048-.751-.024-1.526.046-1.69.189-.47 2.003-.446 2.192.023m8.554 2.935H40.51v-1.48c0-.82.07-1.572.165-1.643.07-.094.612-.164 1.178-.164h1.013zm15.483-1.338c-.188.281-1.485 1.995-2.899 3.803-2.498 3.193-2.568 3.264-2.639 2.512-.047-.47.094-.962.353-1.314.236-.306 1.532-1.996 2.9-3.757 2.356-3.052 2.474-3.17 2.544-2.489.047.4-.07.963-.259 1.245M44.728 80.54c.024 2.207-.07 2.982-.306 3.17-.495.422-.566.117-.495-2.207.094-3.827.094-3.874.447-3.874.283 0 .354.54.354 2.911m21.728.4-4.148-.142-.07-1.267c-.118-1.926-.095-1.926 2.12-1.855l1.956.07zm7.4.023-3.418-.024c-1.862-.023-3.417-.07-3.464-.094-.023-.047-.094-.587-.141-1.22-.165-2.043-.165-2.043 3.676-1.95l3.346.071zM27.171 78.05c.165.259-.142.634-.613.822-.472.164-.754-.164-.566-.657.142-.376.966-.493 1.179-.165m-3.888 2.35c-1.06 1.15-2.333 1.972-2.333 1.503 0-.094.778-1.01 1.72-2.02 1.462-1.62 1.697-1.807 1.768-1.361.047.376-.283.94-1.155 1.878m4.973-2.066c0 .118-.095.235-.212.235-.142 0-.307-.117-.378-.235-.07-.14.024-.235.212-.235.213 0 .378.094.378.235m23.589.916c-.542 1.033-3.464 4.93-4.949 6.597l-.943 1.057-.023-.658c0-.493.495-1.291 1.956-3.028 1.06-1.315 2.45-3.006 3.063-3.757.637-.775 1.202-1.338 1.273-1.291.047.07-.118.54-.377 1.08m-35.09 1.432c-.942.963-1.555 1.432-1.838 1.362-.353-.047-.094-.446 1.32-1.925 1.438-1.503 1.791-1.761 1.838-1.386.047.329-.4.963-1.32 1.949m60.423-1.22c.047 1.08-.094 1.69-.4 1.69-.142 0-.19-.212-.095-.447.094-.305-.024-.563-.377-.821-.306-.212-.448-.446-.353-.54.117-.118.259-.047.306.117.07.141.212.235.33.141.353-.211.236-.564-.189-.564-.353 0-.33-.047.071-.328.566-.423.683-.305.707.751m2.168.398c0 .963-.07 1.291-.306 1.291-.189 0-.283-.14-.212-.328.141-.329-.519-.704-.872-.47-.118.07-.212-.094-.212-.352 0-.235.141-.516.306-.587.236-.117.236-.164 0-.282-.495-.21-.354-.633.165-.493.26.07.542.024.613-.094.282-.47.495.047.518 1.315m-67.398.564c.141 2.042.047 2.113-2.027 2.066l-1.814-.047-.141-3.146 3.911.094zm15.2-.634c.141.47-.613 1.01-1.013.775-.236-.141-.33-.893-.118-1.08.26-.282 1.037-.07 1.131.305m1.108-.305c0 .281-.472.587-.637.422s.142-.634.425-.634a.21.21 0 0 1 .212.212m.66.375c-.071.07-.213-.047-.283-.281-.142-.33-.118-.353.117-.141.165.164.236.352.165.422m23.235.517c-.165.915-1.744 3.216-4.571 6.715l-1.532 1.901-.071-.751c-.07-.657.141-1.01 1.438-2.465 1.932-2.16 4.17-5.072 4.43-5.752.306-.799.495-.61.306.352M24.18 81.55c-.189.188-.613.305-.966.258l-.637-.07.896-1.057.895-1.033.07.775c.048.47-.046.939-.258 1.127m31.507 3.568c-1.673 2.067-3.04 3.733-3.087 3.71-.024-.023.047-.423.141-.869.118-.493 1.131-2.066 2.522-3.827 1.272-1.667 2.545-3.334 2.804-3.71l.471-.657.071.799c.07.704-.259 1.197-2.922 4.554M18.122 80.54c0 .446-1.084 1.55-1.531 1.55-.519 0-.448-.235.4-1.104.801-.822 1.131-.962 1.131-.446m58.208-.117c0 .14-.095.281-.189.352-.118.07-.212-.024-.212-.211 0-.188.094-.353.212-.353.094 0 .189.094.189.212m2.12.375c0 .188-.094.352-.212.352-.306 0-.518-.375-.33-.563.26-.258.543-.14.543.211m-51.443.517c.047.14-.142.305-.448.376-.613.164-.754.07-.59-.4.142-.375.92-.352 1.038.024m1.249-.047a.36.36 0 0 1-.354.352.36.36 0 0 1-.353-.352c0-.188.165-.352.353-.352.189 0 .354.164.354.352m1.413-.118c0 .118-.047.235-.094.235-.07 0-.188-.117-.259-.235-.07-.14-.023-.234.094-.234.142 0 .26.094.26.234m13.08 3.17h-5.185l-.094-1.056-.118-1.057-.118 1.057-.141 1.056-2.003.07c-3.017.094-3.064.071-3.064-1.596v-1.409H34.5c2.074 0 2.499.07 2.687.4.236.399.236.399.26.023 0-.329.282-.423 1.46-.47.802-.047 2.027-.094 2.734-.14l1.249-.07zm20.808-1.432c-.07 1.362-.094 1.432-.66 1.432-.565 0-.589-.094-.66-1.385-.07-1.48.118-1.808.943-1.597.377.094.448.282.377 1.55m6.787-.963c.07.306.094.963.047 1.48l-.07.915h-6.128l-.141-2.935h3.063c3.04 0 3.088 0 3.229.54m3.629 2.536-2.946-.14-.07-1.151c-.118-1.69-.024-1.785 1.602-1.785h1.414zm-21.798-1.784c-.165 1.22-5.09 7.395-5.915 7.395-.542 0-.377-.704.33-1.291.353-.305 1.767-1.972 3.134-3.733 1.343-1.76 2.474-3.193 2.498-3.193.023 0 0 .376-.047.822m25.003-.07c.047.445-.07.54-.683.563-.425.023-.566-.024-.33-.07.494-.118.542-.54.047-.54-.189 0-.354-.118-.354-.259 0-.14.165-.211.354-.14.188.093.4.046.495-.095.188-.329.4-.094.471.54m1.815-.47c.212-.047.4.047.4.164 0 .14-.141.258-.283.258-.235 0-.212.07.024.212.236.164.236.234.023.375-.164.094-.376.024-.494-.14-.142-.236-.212-.259-.212-.048 0 .165-.165.306-.354.306s-.353-.118-.353-.235c0-.141.141-.235.306-.235.212 0 .188-.07-.047-.211-.165-.118-.236-.329-.165-.47a.336.336 0 0 1 .448-.094c.165.094.47.141.707.118m-51.916.47c0 .304-.188.422-.589.422-.424 0-.589-.118-.589-.47s.141-.446.59-.422c.4.047.588.188.588.47m30.966 1.784c-1.673 2.23-4.713 5.681-4.996 5.681-.566 0-.236-.54 2.663-4.273 2.592-3.334 2.828-3.592 2.898-2.958.047.47-.118.963-.565 1.55m-29.717-1.738c.095.212 0 .305-.259.282-.212-.047-.424-.188-.471-.329-.118-.399.589-.352.73.047m-18.736 1.95.07 1.479H7.99v-3.076l.778.07c.754.071.754.071.825 1.527m2.262-1.221c.094.235.448.352 1.155.352.565 0 1.13.117 1.296.282.188.188.283.188.283.023 0-.328 5.113-.352 5.702-.047.236.141.448.118.542-.023.071-.14.943-.211 1.956-.164l1.815.047-.07 1.056c-.048.587-.119 1.08-.142 1.127-.236.211-3.511.282-3.794.047-.212-.164-.354-.188-.448-.023-.165.234-9.05.328-9.85.117-.354-.094-.425-.4-.425-1.644V83.03h.92c.588 0 .966.117 1.06.352m65.253.446c.094.258-.047.329-.565.329-.377-.024-.684-.118-.684-.235s.118-.14.236-.07c.141.07.236.023.236-.094 0-.376.636-.306.777.07m2.404-.094c.212.352-.094.704-.471.564-.189-.094-.283-.235-.212-.352.07-.118 0-.212-.118-.212-.142 0-.26.094-.26.235 0 .117-.164.235-.353.235-.377 0-.471-.282-.188-.54.235-.258 1.437-.188 1.602.07m-52.504.329c-.048.14-.283.235-.495.235-.283-.024-.377.164-.377.845 0 .869-.448 1.362-.966 1.033-.236-.141-.307-2.043-.095-2.254.26-.258 2.027-.117 1.933.14m1.249-.094a.236.236 0 0 1-.236.235c-.118 0-.236-.118-.236-.235 0-.14.118-.235.236-.235.141 0 .236.094.236.235m16.566 1.808c-.118 1.855-.306 2.371-.754 2.09-.424-.282-.33-2.982.142-3.475.212-.235.447-.423.565-.423.094 0 .118.822.047 1.808m7.023-.54c-.189 1.15-3.252 4.836-3.983 4.836-.565 0-.565 0 .165-.892.4-.47 1.461-1.737 2.31-2.817.872-1.057 1.602-1.925 1.602-1.925.024 0-.023.352-.094.798m5.538 2.09c-2.145 2.793-2.145 2.793-2.71 2.7-.472-.071-.377-.235.942-1.832.778-.963 1.768-2.23 2.192-2.794.73-1.01.73-1.01.801-.399.07.493-.235 1.056-1.225 2.324M34.57 84.883c.212.117.283.587.236 1.455l-.07 1.268-2.71.141v-1.385c0-.752.07-1.456.164-1.526.212-.235 2.003-.188 2.38.047m5.962 2.793-1.367.094c-.754.024-1.955.024-2.662-.046l-1.296-.118-.071-1.15c-.118-1.832-.165-1.808 2.71-1.738l2.545.07zm2.333.047H40.98v-1.361c0-.752.07-1.456.165-1.526.07-.094.495-.165.943-.165h.777zm23.637-2.7c.212.212.33.728.306 1.339l-.023 1.01h-4.478l-.07-1.034c-.118-1.62-.071-1.667 2.05-1.667 1.343 0 1.98.094 2.215.353m-39.567.024c.283.117.306.211.07.446-.33.352-.636.235-.636-.258 0-.376.047-.376.566-.188m47.037 2.465-6.716-.14-.07-1.245-.072-1.22h6.858zm8.72-.258-1.179-.047c-1.202-.047-1.296-.14-1.202-1.244.07-.846.189-.94 1.296-1.01l1.084-.07zm2.544-1.55c.048.353.024.916-.07 1.245-.118.493-.26.563-1.014.493-.824-.07-.872-.118-.942-.986-.118-1.362.047-1.597 1.06-1.503.778.07.896.14.966.751m6.175 1.785h-2.805c-2.333 0-2.828-.07-2.945-.376-.189-.493-.189-1.855.023-2.043.07-.093 1.414-.164 2.946-.164h2.78zm6.81 2.817h-1.296c-.683 0-1.273-.117-1.273-.235 0-.14-.165-.234-.353-.234s-.353.094-.353.234-1.132.235-2.923.235h-2.922l-.094-.916c-.047-.516-.047-1.056 0-1.174.047-.164 1.155-.258 3.04-.258 2.828 0 2.946.024 3.087.517l.118.516.188-.516c.142-.376.401-.517.92-.54 1.084-.047 1.178-.07 1.13-.305-.046-.118-1.296-.235-2.78-.235L92 87.372l-.07-1.244-.072-1.22h6.363zm-69.73-4.93c0 .117-.166.234-.354.234-.189 0-.354-.117-.354-.234 0-.141.165-.235.354-.235s.353.094.353.235m48.662 0c.165.258-.33 1.267-.542 1.08-.07-.094 0-.282.142-.423.188-.188.165-.352-.142-.563-.377-.282-.377-.306 0-.33.213 0 .472.095.542.236m1.202.281c0 .282-.188.54-.377.587-.306.094-.306.07 0-.164.26-.211.283-.305.07-.4-.4-.14-.376-.54.024-.54.165 0 .307.212.283.517m1.037-.281c0 .117-.165.234-.353.234-.189 0-.354-.117-.354-.234 0-.141.165-.235.354-.235s.353.094.353.235m-.236 1.056c-.188.235-.212.352-.023.352.141 0 .26.094.26.235 0 .376-.401.282-.566-.14-.142-.376.282-1.151.518-.916.07.047-.023.258-.189.47m-52.386.751c-.07.235-.118.094-.118-.281 0-.4.047-.564.118-.423.047.164.047.493 0 .704m-14.823-.305c.354.212.283 3.381-.07 3.64-.118.117-.566.14-.99.093-.73-.117-.755-.117-.92-1.878-.117-1.385-.094-1.808.165-1.972.354-.211 1.39-.141 1.815.117m66.503.024a.36.36 0 0 1-.354.352c-.613 0-.424-.47.306-.681.024-.023.047.14.047.329m-68.954.281c-.023.165-.047.987-.047 1.832-.047 1.479-.07 1.526-.66 1.526-.565 0-.612-.07-.518-.704.07-.4.023-.775-.094-.846-.095-.07-.189-.587-.189-1.174 0-1.056 0-1.056.778-.986.424.047.754.188.73.353m6.48 1.503c-.023 1.949-.14 2.207-.942 1.972-.353-.117-.447-.328-.4-.868.047-.47-.047-.775-.26-.846-.259-.094-.306.047-.188.61.165.846-.236 1.292-1.06 1.175-.52-.07-.543-.188-.613-1.996l-.071-1.925 1.791.023h1.767zm2.098-.023c-.023 1.573-.094 1.901-.448 1.995-.942.305-1.272-.187-1.343-2.09l-.07-1.784h1.908zm1.838 1.878h-1.48l-.024-1.878-.047-1.879h1.65zm3.182-3.475q0 .353.141 0c.047-.14.377-.282.683-.282.543 0 .566.047.566 1.855v1.878H21.89v-.798c0-.446-.094-.869-.236-.939-.141-.094-.235.235-.235.798 0 .846-.071.963-.543.963-.542 0-.565-.07-.589-1.878l-.047-1.879h1.414c.966 0 1.414.094 1.438.282m2.851.118c.047.21.024 1.032-.047 1.807-.094 1.057-.212 1.432-.471 1.432-.283 0-.377-.399-.425-1.83-.07-1.668-.023-1.809.401-1.809.26 0 .495.165.542.4m1.485-.165c.07.118.023.235-.095.235-.14 0-.259-.117-.259-.235 0-.14.047-.235.095-.235.07 0 .188.094.259.235m31.13.775c-.188.798-1.532 2.277-2.05 2.277-.236 0-.448-.047-.448-.117s.566-.822 1.225-1.667c1.179-1.456 1.556-1.62 1.273-.493m18.711-.916c0 .07-.094.188-.235.258-.118.071-.236.024-.236-.093 0-.141.118-.259.236-.259.141 0 .235.047.235.094M50.855 88.9c-.566.657-1.202 1.173-1.437 1.173-.377 0-.165-.328.919-1.55 1.626-1.854 2.12-1.502.518.376m12.537.117c-.118 1.479-1.013 1.76-1.155.375-.117-1.08.095-1.479.707-1.385.472.07.542.188.448 1.01m6.928 0c0 .915-.023.939-.942 1.08-.519.094-1.885.14-3.064.117l-2.12-.023-.071-.775c-.142-1.48-.118-1.48 3.18-1.409l3.017.07zm3.653 1.056h-3.064v-.892c0-.493.071-.986.165-1.056.071-.094.778-.165 1.532-.165h1.367zm5.656-1.033c0 .892-.094.963-.613.47-.424-.446-.424-.704.024-.517.4.141.495-.211.117-.446-.14-.094-.188-.258-.094-.375.26-.423.566.046.566.868m3.063-.68c.236.398.236.398.472 0 .212-.33.612-.4 2.568-.4 2.781 0 3.158.235 2.545 1.526l-.377.799-2.285-.07c-1.886-.071-2.357-.165-2.616-.517-.26-.353-.307-.353-.307-.047 0 .281-.259.352-1.178.352-.636-.024-1.202-.141-1.225-.282-.142-.939-.024-1.432.4-1.573.896-.282 1.744-.188 2.003.211m-55.921.352c-.07.187-.142.117-.142-.141-.023-.259.048-.4.118-.305.071.07.095.281.024.446m10.557 1.479-1.885.07c-1.037.047-2.239 0-2.64-.07-.683-.118-.777-.235-.777-.916 0-.423.07-.845.165-.94.094-.07 1.273-.117 2.64-.093l2.497.07zm5.491-1.01-.07 1.01h-4.714l-.07-1.01-.071-.986h4.996zm2.168-.282c0 .658-.259 1.174-.589 1.174-.448 0-.59-.845-.188-1.408.377-.54.777-.423.777.234m32.238-.305c.118.4-.235.376-.778-.023-.424-.305-.424-.305.118-.282.307 0 .59.164.66.305m1.178.024c.142.422-.353.328-.518-.094-.094-.235-.024-.329.141-.282.142.047.33.235.377.376m-26.582.868c-.165.33-.471.587-.636.587-.26 0-.212-.187.165-.728.613-.821.943-.727.471.141m6.387.423c-.401.4-.566.023-.236-.587.283-.493.33-.493.4-.094.048.235-.023.54-.164.681m20.007-.54c.188.117.26.282.188.376-.094.07-.33-.024-.542-.235-.424-.4-.212-.493.354-.141m-51.373.235c0 .117-.118.235-.26.235-.117 0-.165-.118-.094-.235.07-.141.189-.235.26-.235.046 0 .094.094.094.235m.589 0c.07.117.023.235-.095.235-.14 0-.259-.118-.259-.235 0-.141.047-.235.095-.235.07 0 .188.094.259.235m49.841.094c0 .258-.448.352-.589.14-.07-.117.024-.234.212-.234.212 0 .377.047.377.094m4.454 1.925c.047.047-4.242.07-9.544.047-6.905-.047-8.554-.094-5.868-.188 3.653-.14 15.224-.023 15.412.14"/><path fill="#5d89b4" d="M39.661 6.583c-.188.517.071.775.425.423.212-.211.212-.352 0-.564-.213-.211-.307-.164-.425.141m2.687.259c-.07.328-.024.586.07.586a.21.21 0 0 0 .213-.21c0-.118.07-.377.141-.588s.047-.375-.094-.375c-.118 0-.283.258-.33.587m8.177-.094c-.094.14-.118.281-.047.352.047.07.165-.047.236-.259.165-.399.023-.47-.189-.093m-9.992 3.169c-.023.94-.306 1.033-2.568 1.033H36.15l.024 6.715c.023 4.743.117 6.785.306 6.973.354.352 7.73.329 8.083-.023.236-.235.236-10.847 0-12.49l-.165-1.057-3.535-.235-.283-1.644zm-1.532 4.203c-1.296 1.455-2.097 2.019-1.578 1.103.424-.704 2.615-2.934 2.78-2.794.071.094-.47.846-1.202 1.69m.778.563c-1.202 1.268-2.286 2.325-2.38 2.348-.118 0-.188-.117-.188-.282 0-.493 3.911-4.39 4.383-4.39.282 0-.33.775-1.815 2.324m1.32.024c-2.145 2.113-2.946 2.7-2.946 2.136 0-.375 4.454-4.484 4.878-4.484.283 0-.377.798-1.932 2.348m-2.64-1.127c-.542.54-1.06.915-1.154.822-.189-.188 1.508-1.808 1.885-1.808.141 0-.188.446-.73.986m5.067-.141c-.094.493-3.676 3.733-3.888 3.522-.165-.165 3.44-3.898 3.77-3.898.118 0 .165.165.118.376m.047 1.315c0 .328-2.144 2.277-2.521 2.3-.542 0-.33-.352.919-1.455 1.296-1.15 1.602-1.315 1.602-.845m0 1.08c0 .117-.212.446-.471.727-.66.775-1.06.517-.424-.281.518-.634.895-.822.895-.446m-3.417 5.071c-2.168 2.653-2.474 2.935-2.474 2.418 0-.446 3.11-4.46 3.817-4.954 1.108-.774.613.141-1.343 2.536m3.417-2.7c0 .47-4.36 5.658-4.76 5.658-.424 0-.118-.516 1.367-2.395 2.404-2.981 3.393-3.944 3.393-3.263m-4.242.188c0 .164-1.885 2.653-2.026 2.653-.307 0 .023-.798.73-1.738.754-.962 1.296-1.361 1.296-.915m1.414-.047c0 .329-3.393 4.39-3.487 4.156-.212-.634 2.592-4.273 3.299-4.273.094 0 .188.046.188.117m-2.828.61c-.165.259-.33.423-.4.352-.189-.187.118-.845.4-.845.166 0 .166.141 0 .493m4.242 2.912c-1.343 1.62-1.885 2.09-1.885 1.55 0-.236 1.579-2.325 2.569-3.382.471-.516.636-.587.683-.305.047.211-.565 1.174-1.367 2.137m.778.68c-.66.822-1.225 1.198-1.437.987-.048-.07.353-.681.919-1.339.754-.915 1.06-1.127 1.107-.845.047.235-.212.775-.589 1.198m.212.893c-.165.164-.283.188-.283.047 0-.329.283-.61.448-.446.047.07-.023.258-.165.399m15.906-12.726c-.094.353 0 .47.33.47.4 0 .424-.07.212-.47-.141-.258-.283-.47-.33-.47s-.141.212-.212.47m5.302.047c-.212.094-1.296.165-2.404.165-1.107.023-1.861.117-1.72.211.236.14.307 1.714.307 6.41-.024 3.404.047 6.433.141 6.714.141.54.188.54 4.242.54 3.747 0 4.1-.046 4.124-.422.023-.211 0-1.057-.024-1.878-.023-1.01.047-1.456.236-1.456.236 0 .236-.07.023-.329-.282-.352-.235-9.156.048-9.462a.5.5 0 0 0 .165-.328c0-.235-4.62-.376-5.138-.165m1.131 1.761c0 .376-3.723 4.414-3.912 4.226-.353-.328 1.462-2.747 2.805-3.71 1.013-.727 1.107-.774 1.107-.516m-.33 2.16c-2.12 2.113-3.087 2.77-2.521 1.714.448-.845 3.912-4.038 4.36-4.038.353 0-.118.587-1.839 2.324m-2.733-1.596c-.165.258-.33.446-.377.375-.165-.164.165-.868.4-.868.142 0 .118.211-.023.493m.542.798c-.825.94-1.155 1.174-1.226.892-.047-.235.33-.775.872-1.291 1.438-1.315 1.65-1.08.354.399m4.642-.517c0 .188-.212.517-.471.752-.518.47-.66 1.033-.165.61.59-.47.471 1.315-.118 1.855-.848.798-1.107.14-.283-.728.377-.422.519-.657.307-.54-.212.118-.684.564-1.037.986-.377.446-.754.681-.896.587-.165-.094-.471-.14-.683-.117-.236.047-.424 0-.424-.07 0-.235 3.346-3.64 3.582-3.64.094 0 .188.141.188.305m-.471 4.602c0 .376-4.501 5.424-4.855 5.424-.188 0-.33-.094-.33-.188 0-.282 1.485-2.02 3.276-3.874 1.485-1.503 1.909-1.808 1.909-1.362m-4.454.681c-.33.61-.966 1.127-.966.775 0-.446.565-1.197.895-1.197.212 0 .236.117.071.422m.448.986c-.684.775-1.273 1.409-1.32 1.409-.377 0 .07-.892.872-1.761 1.485-1.62 1.885-1.291.448.352m2.356-1.268c0 .07-.636.822-1.39 1.69-.778.87-1.626 1.832-1.885 2.16-.425.517-.472.54-.495.142 0-.752 2.828-4.132 3.44-4.132.189 0 .33.07.33.14m2.121.564c0 .329-3.464 4.39-3.912 4.555-.919.352-.636-.07 2.121-3.217 1.32-1.503 1.791-1.855 1.791-1.338m0 1.479c0 .376-2.05 2.864-2.356 2.864-.448 0-.212-.47.895-1.808 1.108-1.361 1.461-1.62 1.461-1.056m-.565 2.395c-.377.587-.849.775-.849.375 0-.093.236-.493.519-.845.612-.775.895-.375.33.47"/><path fill="#5d89b4" d="m65.82 15.458-.448.54.542-.446c.282-.258.518-.493.518-.54 0-.188-.189-.047-.613.446m-15.412-4.555-2.003.07.047 6.692c.024 3.71.095 6.88.165 7.067.118.258.707.329 3.04.282 3.889-.047 5.043-.188 5.232-.634.188-.493.165-9.556-.024-11.716l-.165-1.69-2.144-.07a61 61 0 0 0-4.148 0m3.488 1.667c-.024.094-.943 1.127-2.003 2.254-1.437 1.503-1.956 1.925-1.956 1.597 0-.4 1.013-1.738 2.239-3.006.707-.727 1.909-1.314 1.72-.845m1.414-.023c-.024.117-.92 1.127-1.956 2.23-1.697 1.832-2.474 2.418-2.474 1.832 0-.353 3.817-4.25 4.17-4.25.19 0 .307.094.26.188m-4.195 1.455c-1.272 1.48-1.65 1.808-1.65 1.48 0-.587 2.027-2.888 2.546-2.888.188 0-.212.634-.896 1.408m-.942-.587c-.165.212-.354.306-.424.235-.071-.047.023-.258.188-.47.165-.21.353-.305.424-.234.07.047-.023.258-.188.47m5.655-.07c-.023.376-2.945 3.475-3.275 3.475-.495 0-.26-.376 1.296-2.066 1.508-1.644 1.98-1.996 1.98-1.409m0 1.362c0 .305-1.65 2.113-1.908 2.113-.377 0-.212-.352.636-1.362.848-.963 1.272-1.22 1.272-.751m-.33 2.042c-.259.259-.447-.14-.259-.563.189-.4.189-.4.283 0 .07.235.047.493-.023.563m-5.797-.164c0 .117-.117.235-.259.235-.118 0-.165-.118-.094-.235.07-.14.188-.235.26-.235.046 0 .093.094.093.235m5.185 1.643c0 .235-3.889 4.884-4.454 5.33-.59.446-.566-.07.024-.94.942-1.36 3.346-4.108 3.84-4.343.613-.328.59-.328.59-.046m-4.525.705c-.565.775-1.037.962-.66.235.189-.376.849-.892 1.131-.94.024 0-.164.306-.47.705m1.438-.258c-1.179 1.596-2.003 2.582-2.145 2.606-.683.023.849-2.278 1.815-2.77.66-.353.683-.33.33.164m1.508-.165c-.094.165-.4.564-.683.892-.283.33-1.084 1.268-1.768 2.09-1.272 1.573-1.909 1.62-.825.07 1.06-1.502 2.758-3.334 3.111-3.334.236 0 .283.118.165.282m2.521.047c0 .352-2.592 3.64-3.629 4.579-.872.821-1.037.422-.235-.611.872-1.15 3.629-4.296 3.77-4.296.047 0 .094.14.094.328m-.871 2.912c-1.414 1.76-1.933 2.253-2.098 2.113-.165-.188.495-1.174 1.909-2.865.683-.822.966-1.033 1.013-.751.047.211-.33.892-.825 1.502m.047 1.408c-1.202 1.104-1.32.752-.212-.587.754-.915.942-1.033 1.013-.657.047.282-.236.728-.801 1.244m.824.517a.236.236 0 0 1-.235.235c-.118 0-.236-.118-.236-.235 0-.141.118-.235.236-.235.141 0 .235.094.235.235M34.03 14.402c.4.399.423 2.066.023 2.934-.142.329-.094.423.259.423.4 0 .448-.188.424-1.878 0-1.808-.023-1.879-.542-1.879-.518 0-.518.024-.165.4m36.645-.165-.59.188.66.07c.354.024.755.047.873.07.353.048.306-.445-.048-.492-.165 0-.565.047-.895.164m.471 2.912c-.4.492.094.657 1.178.399.684-.188.731-.212.236-.235-.353-.024-.73-.141-.848-.258-.189-.188-.354-.141-.566.093M34.1 20.788c-.4.14-.377.164.047.422.306.212.495.212.613.047.212-.352-.189-.657-.66-.47m36.81.024c0 .117.212.235.47.235.26 0 .472-.117.472-.235 0-.14-.212-.235-.471-.235-.26 0-.472.094-.472.235m-36.691 2.935c-.189.211-.212.376-.071.47.141.07.306-.024.377-.235.212-.493.047-.61-.306-.235m24.814.094c-.094.164-.117.352-.047.422.212.212.448-.093.33-.422-.094-.259-.141-.259-.283 0m12.018.14c.095.189.237.282.354.212.33-.188.236-.564-.141-.564-.212 0-.283.141-.212.353m-24.532 1.455v1.597l-1.885.14c-1.603.095-1.414.118 1.178.142 1.697 0 2.757-.047 2.357-.094-1.132-.165-1.296-.446-1.226-1.973.047-.868-.023-1.385-.165-1.385-.165 0-.259.634-.259 1.573m24.391 1.667c0 .118.165.212.353.212s.353-.094.353-.212c0-.094-.165-.187-.353-.187-.189 0-.354.093-.354.187m-36.22.212c.212.047.59.047.825 0 .212-.07.023-.118-.424-.118-.448 0-.637.047-.401.118m2.474 0c.165.07.378.047.448-.024.094-.07-.047-.14-.306-.117-.26 0-.33.07-.142.14m2.357.001c.165.07.377.047.448-.024.094-.07-.047-.14-.307-.117-.259 0-.33.07-.141.14m7.258 2.63c-.094.165-.118.352-.047.423.212.211.448-.094.33-.423-.094-.258-.141-.258-.283 0m17.981.047c-.165.118-1.155.212-2.145.212h-1.838v2.042c-.023 5.26-.023 10.33-.023 10.918l.023.634 5.067.14v1.245c0 1.596.306 1.596.4-.024l.071-1.22 1.367-.071c1.202-.07 1.343-.117 1.343-.587.024-.282.047-3.334.07-6.809l.048-6.268H67.54c-.896 0-1.791-.094-2.027-.212a.73.73 0 0 0-.754 0m2.616 1.48c0 .046-1.155 1.15-2.593 2.488-1.65 1.526-2.592 2.254-2.592 1.996 0-.517 3.11-3.733 4.077-4.203.754-.352 1.108-.446 1.108-.282m-1.886.187c0 .047-.8.892-1.767 1.925-1.532 1.597-1.767 1.761-1.767 1.245 0-.869 2.356-3.123 3.37-3.193.094-.024.164 0 .164.023m-2.333.845c-.589.846-1.201 1.362-1.201 1.033 0-.328 1.154-1.69 1.46-1.69.118 0 0 .305-.259.657m4.36.376c-.023.564-.189 1.197-.353 1.409-.212.258-.236.375-.048.375.401 0 .307.587-.188 1.033-.306.282-.495.33-.613.141-.094-.164-.377-.117-.825.165-1.107.634-1.154.094-.047-.846.542-.47.99-.939.99-1.056 0-.094-.66.375-1.461 1.033-2.31 1.925-1.98.892.424-1.338 1.155-1.057 2.121-1.949 2.145-1.949.023 0 .023.47-.024 1.033m-3.205 4.555c0 .14-1.437 1.949-2.262 2.84-.047.048-.094-.164-.094-.492 0-.352.353-.963.895-1.55.848-.916 1.461-1.244 1.461-.798m.212 1.479c-.825.916-1.744 1.949-2.026 2.3-.566.682-.896.588-.613-.163.33-.87 3.134-3.804 3.653-3.804.377 0 .188.329-1.014 1.667m2.569-1.456c-.024.118-1.013 1.292-2.168 2.583-1.909 2.136-2.734 2.794-2.734 2.136 0-.281 3.394-4.108 4.077-4.578.566-.399.943-.47.825-.14m-4.195.212c0 .117-.212.399-.471.634-.471.422-.59.258-.33-.447.141-.399.801-.54.801-.187m4.713.587c0 .563-3.346 4.155-3.84 4.155-.543 0-.66.165 1.814-2.653 1.579-1.784 2.026-2.113 2.026-1.502m0 1.502c-.023.634-2.003 2.724-2.474 2.606-.33-.047-.165-.352.825-1.55 1.296-1.502 1.65-1.737 1.65-1.056m-.377 1.878c-.495.634-1.037.963-1.037.61 0-.304 1.202-1.525 1.367-1.36.07.07-.07.398-.33.75"/><path fill="#5d89b4" d="M66.833 33.419c-.095.07-.165.258-.165.4 0 .14.117.116.282-.048.142-.14.213-.328.165-.399-.07-.07-.212-.047-.282.047m4.217-3.334c-.07.211 0 .352.213.352.212 0 .283-.14.212-.352-.094-.188-.165-.352-.212-.352s-.118.164-.212.352m-20.408.071-2.003.07.023 6.504c0 3.568.024 6.69.048 6.902.047.376.353.423 2.733.423 1.461 0 3.323-.07 4.124-.141l1.438-.165v-6.667c0-5.119-.071-6.692-.283-6.762-.495-.141-3.935-.235-6.08-.165m2.899 3.662c-1.98 2.043-2.805 2.653-3.111 2.372-.07-.094.943-1.198 2.262-2.513 3.064-3.005 3.794-2.888.849.141m-1.25-2.066c0 .117-.754 1.057-2.403 3.005-.094.141-.189 0-.189-.282 0-.305.472-1.032 1.084-1.69.99-1.056 1.509-1.409 1.509-1.033m1.65.024c0 .234-3.817 4.061-4.053 4.061-.495 0-.024-.751 1.484-2.418.967-1.056 1.862-1.808 2.121-1.808.236 0 .448.07.448.165m-3.063.258c0 .117-.283.446-.637.775l-.612.563.447-.775c.401-.704.802-.986.802-.563m4.948.516c0 .353-2.804 3.381-3.299 3.569-.848.305-.518-.258 1.202-2.043 1.603-1.69 2.097-2.042 2.097-1.526m-.259 1.69c-.023.635-1.484 1.95-1.885 1.715-.165-.118.118-.54.754-1.198.566-.563 1.037-1.033 1.084-1.033s.07.235.047.517m.024 1.222c0 .352-.424.727-.613.54-.165-.165.165-.87.4-.87.119 0 .213.142.213.33m-5.185 2.465c-.235.493-.707.869-.707.61 0-.328.495-1.056.73-1.056.142 0 .142.164-.023.446m.566.962c-.613.775-1.155 1.362-1.202 1.315-.377-.375 1.32-2.723 1.98-2.723.212 0-.071.516-.778 1.408m1.508-.446c-.424.54-1.225 1.55-1.767 2.278-.754.962-1.014 1.174-1.014.822 0-.752 2.522-4.062 3.111-4.062.424 0 .377.094-.33.962m1.909-.563c-1.697 2.16-3.841 4.531-4.148 4.531-.282 0-.282-.117.118-.728 1.037-1.643 3.394-4.202 3.865-4.202.424 0 .448.047.165.399m1.32-.188c.165.305-3.582 4.72-4.03 4.72-.519 0-.4-.189 1.626-2.677 1.79-2.207 2.12-2.465 2.404-2.043m-1.084 3.193c-1.06 1.315-1.862 1.902-1.862 1.362 0-.188 1.084-1.597 2.12-2.747 1.368-1.526 1.155-.352-.258 1.385m1.06-.188a3 3 0 0 0-.165.94c.024.305-.07.54-.212.54-.118 0-.141-.118-.047-.259.07-.14-.118-.07-.471.141-.92.61-.943.329-.095-.775.778-1.01 1.32-1.315.99-.587M36.386 30.46c-.26.4-.189 12.914.094 13.196.283.281 2.852.399 5.915.234l2.357-.14V30.202h-4.1c-2.64 0-4.172.093-4.266.258m3.275 2.372a61 61 0 0 0-1.555 1.831c-.542.705-.636.752-.66.329 0-.94 2.569-3.686 3.04-3.24.047.047-.33.54-.825 1.08m2.498-1.056c0 .117-.754.915-1.673 1.83-.919.893-1.767 1.832-1.885 2.043-.26.47-.684.564-.684.165 0-.352 2.169-3.029 2.97-3.686.66-.517 1.272-.681 1.272-.352m1.414-.024c0 .094-.636.798-1.39 1.597a51 51 0 0 0-1.956 2.066c-.306.375-.683.657-.848.657-.448 0 .495-1.244 2.238-3.005 1.32-1.315 1.956-1.738 1.956-1.315m-5.42 1.244c-.518.752-.707.893-.707.517 0-.282.966-1.48 1.108-1.338.07.07-.118.446-.4.821m5.255.306c-.141.868-1.673 2.606-2.12 2.441a.27.27 0 0 0-.378.165c-.047.164-.188.211-.282.117-.142-.117 2.615-3.475 2.875-3.475.023 0 0 .353-.095.752m-.047 1.784c-.283.54-.942 1.103-1.084.94-.07-.071.094-.4.377-.729.566-.728 1.06-.868.707-.211m-5.02 3.334c-.447.61-.565.68-.636.329-.047-.235.165-.61.448-.846.754-.61.849-.352.189.517m.85.493c-1.297 1.62-1.51 1.808-1.51 1.244 0-.516 1.839-2.676 2.287-2.676.212 0-.071.516-.778 1.432m2.261-1.244c0 .117-.33.493-.73.892-.4.375-1.273 1.385-1.933 2.254-.66.868-1.225 1.55-1.248 1.526-.024-.024 0-.329.07-.681.236-1.244 3.841-4.977 3.841-3.991m1.155.21c-1.013 1.198-3.888 4.438-4.1 4.58-.33.234-.424-.189-.189-.635.542-.962 3.77-4.32 4.171-4.32.4-.023.424.024.118.376m.966.048c0 .54-3.417 4.484-3.912 4.484-.235 0-.282-.117-.165-.352.236-.4 3.865-4.578 3.983-4.578.047 0 .094.188.094.446m0 1.502c0 .634-1.98 2.982-2.521 2.982-.472 0-.4-.117.942-1.76 1.226-1.527 1.58-1.785 1.58-1.222m-.4 2.23c-.495.658-1.014.94-1.014.564 0-.14.283-.587.637-1.01.754-.868 1.084-.492.377.447m-9.028-6.998c0 .118.118.235.236.235a.236.236 0 0 0 .235-.235c0-.14-.094-.234-.235-.234a.236.236 0 0 0-.236.234m24.768 9.557c.14 1.314.117 1.877-.095 1.995-.165.117.024.188.425.188s.589-.094.424-.188-.307-.916-.354-1.996c-.047-1.056-.165-1.808-.306-1.808-.189 0-.212.587-.095 1.808m-12.277.258c0 1.057.094 1.926.212 1.926.188 0 .07-3.522-.118-3.733-.047-.047-.094.75-.094 1.807m24.626 1.691c-.07.117-.024.235.094.235.142 0 .26-.118.26-.235 0-.141-.048-.235-.095-.235-.07 0-.188.094-.259.235m-21.091.469c0 .118.094.235.212.235.141 0 .306-.117.377-.235.07-.14-.024-.234-.212-.234-.212 0-.377.093-.377.234m12.254 2.747c-.448.047-1.06.141-1.343.188l-.542.117v13.383h2.545c2.78 0 3.087.118 3.134 1.268.047.634.07.61.188-.211l.142-.94 2.71-.14.023-1.808c.024-3.31-.047-6.48-.165-8.804-.094-1.62-.047-2.395.142-2.654.26-.281-.07-.328-2.38-.328-1.485 0-2.899-.047-3.158-.094-.26-.047-.848-.024-1.296.023m2.003 3.71c-1.296 1.22-2.38 2.113-2.427 1.995-.283-.774 4.124-4.812 4.666-4.296.07.047-.943 1.104-2.24 2.3m-1.768-1.315c-.282.4-.612.728-.73.728-.283 0-.07-.4.566-1.104.683-.75.8-.47.164.376m2.121-.728c0 .094-.636.798-1.413 1.573-1.744 1.714-1.98 1.174-.283-.587 1.037-1.08 1.696-1.455 1.696-.986m2.593.305c0 .376-3.394 4.015-3.488 3.733-.07-.187-.189-.164-.424.024-.189.164-.4.211-.472.14-.141-.14 3.912-4.131 4.219-4.155.094 0 .165.118.165.258m.235 1.198c0 .446-2.38 2.794-2.64 2.63-.235-.141.048-.54 1.438-2.043.872-.916 1.202-1.08 1.202-.587m0 1.174c-.023.47-1.107 1.667-1.272 1.408-.071-.14.141-.563.471-.962.66-.798.801-.869.801-.446m-4.949 3.216c-.235.493-.706.869-.706.61 0-.328.494-1.056.73-1.056.141 0 .142.165-.024.446m.684.892c-1.32 1.832-1.39 1.879-1.39 1.315 0-.61 1.555-2.653 2.026-2.653q.354 0-.636 1.339m1.79-.586c-.353.422-1.177 1.502-1.837 2.37-.825 1.057-1.25 1.48-1.296 1.222-.165-.752 2.568-4.344 3.299-4.344.424 0 .4.07-.165.752m1.51-.07c-3.583 4.437-4.078 4.953-4.408 4.624-.33-.328 3.889-5.306 4.501-5.306.448 0 .424.047-.094.681m.965.257c0 .235-.683 1.221-1.531 2.16-.849.916-1.532 1.761-1.532 1.879 0 .094-.212.188-.472.188-.259 0-.47-.07-.47-.141 0-.094.588-.87 1.295-1.714 2.616-3.17 2.71-3.24 2.71-2.372m0 1.62c0 .353-1.956 2.606-2.286 2.606-.518 0-.353-.375.778-1.62 1.013-1.126 1.508-1.455 1.508-.986m-.165 1.644c-.117.07-.282.329-.377.54-.165.47-.636.563-.636.14s1.037-1.431 1.155-1.103c.047.141-.024.329-.142.423M33.817 49.854c.142.094.33.352.4.54.119.258.142.211.095-.094-.024-.258-.212-.493-.4-.54-.236-.07-.26-.047-.095.094m38.035 16.27c-.306.188-.283.235.07.235.213 0 .401-.117.401-.235 0-.281-.023-.281-.47 0m-8.743 2.348a45 45 0 0 0-.119 1.339c.047.046 3.535.117 5.892.093 3.558-.046 2.545-.281-1.508-.375-1.98-.047-3.677-.165-3.77-.258-.119-.118-.236-.634-.284-1.15-.07-.893-.094-.87-.212.351m.519-61.842c0 .258.07.329.141.141.07-.164.047-.376-.023-.446-.071-.094-.142.047-.118.305m2.451-.14c-.071.117-.024.234.094.234.141 0 .259-.117.259-.235 0-.14-.047-.234-.094-.234-.07 0-.189.093-.26.234m1.32.376c0 .258.07.329.142.14.07-.163.047-.375-.024-.445-.07-.094-.141.047-.118.305m-34.901.023c0 .493.071.564.212.33.118-.189.165-.47.095-.658-.189-.493-.307-.352-.307.328m.943-.398c0 .117.118.234.26.234.117 0 .164-.117.093-.235-.07-.14-.188-.234-.259-.234-.047 0-.094.093-.094.234M10.581 28.207c0 .211.142.281.354.211.188-.094.283-.235.212-.352-.189-.329-.566-.235-.566.14m.943-.07c0 .118.448.188.99.188s.895-.07.825-.14c-.213-.236-1.815-.259-1.815-.048m2.121-.023c0 .117.236.211.518.211s.425-.07.33-.164c-.236-.258-.848-.282-.848-.047m1.272.023c-.07.094.542.188 1.344.188.8 0 1.39-.07 1.296-.164-.236-.235-2.498-.258-2.64-.024M95.795 55.7c-.189.517.023.728.377.376.212-.212.212-.352.023-.54-.164-.165-.282-.118-.4.164m-.471 16.482c-.212.352.447.516 1.201.282.354-.094.495-.212.307-.212a8 8 0 0 1-.849-.164c-.282-.07-.565-.024-.66.094m.213 3.099c-.071.117.023.235.212.235.212 0 .377-.118.377-.235 0-.14-.094-.235-.212-.235a.45.45 0 0 0-.377.235m-16.85-21.107c0 .117.118.164.236.094.141-.07.236-.188.236-.258 0-.047-.095-.094-.236-.094-.118 0-.236.117-.236.258M34.43 57.907c0 .329.047.446.118.282a1.24 1.24 0 0 0 0-.587c-.071-.141-.118-.024-.118.305M15.436 68.214c-.094.117-.047.282.07.352.118.094.283.047.354-.07.094-.118.047-.282-.07-.352-.118-.094-.283-.047-.354.07m18.97 10.941c0 .822.047.869.26.446.164-.352.164-.657-.024-.94-.212-.375-.236-.28-.236.494m44.044.047c0 .117.118.352.236.54.165.282.212.235.165-.188-.023-.446-.4-.775-.4-.352m-55.427 9.11c-.07.516-.047 1.032.047 1.126.283.33.377-.117.236-1.127l-.142-.939zM99.919 55.7c0 .258.07.329.141.14.071-.164.047-.375-.023-.445-.071-.094-.142.047-.118.305m.023 2.324c0 .376.048.517.118.282.047-.211.047-.54 0-.704-.07-.141-.118.023-.118.422"/></svg>