<svg xmlns="http://www.w3.org/2000/svg" width="78" height="100" fill="none" viewBox="0 0 78 100"><path fill="#5d89b4" d="M36.937.173c-1.274.26-2.268.716-3.758 1.736-.778.521-1.253.998-1.167 1.129.108.152.022.195-.194.108-.238-.087-.367-.022-.367.196 0 .195-.108.26-.26.173-.15-.087-.172-.065-.086.087.087.152.087.369 0 .5-.108.173-.173.173-.302 0-.216-.392-1.858 1.865-2.527 3.471-.454 1.15-.562 1.758-.584 3.45-.021 1.13.044 2.562.152 3.148.15 1.063.13 1.106-.519 1.497-2.29 1.367-3.002 2.691-3.175 5.903-.086 1.975-.15 2.278-.561 2.539-.54.369-3.283.976-5.421 1.237-1.944.217-2.16.325-2.592 1.215-.432.955-.519 5.773-.087 6.294.497.585 1.34.89 4.406 1.584 1.663.369 3.715.933 4.58 1.28l1.554.586-.13 1.628c-.237 3.103.714 5.664 3.046 8.181 1.361 1.454 1.383 1.476 2.074 1.215.67-.26.713-.238 1.879.977l1.188 1.237-.13 4.232c-.065 2.322-.259 5.295-.432 6.619a71 71 0 0 0-.453 5.382c-.087 1.627-.238 3.038-.346 3.081-.108.066-.41-.021-.67-.195-1.317-.825-3.282-.542-6.371.955-2.095 1.02-2.57 1.584-2.765 3.147-.173 1.323-.28 1.454-1.512 1.844-.475.152-1.317.5-1.879.782l-1.015.52-1.685-1.28c-2.98-2.257-5.96-5.23-5.615-5.599.065-.065 1.101-.282 2.268-.5 2.332-.433 3.067-.715 3.067-1.193 0-.304-.454-.672-3.888-3.147-2.743-1.974-6.977-7.096-9.115-11.045-.194-.37-.475-.673-.583-.673-.302 0-1.21 1.8-1.62 3.255C.759 57.747.176 61.393.024 63.78c-.108 1.975.152 4.818.584 6.489.432 1.606.95 3.19 1.49 4.6 1.102 2.778 1.533 2.8 2.549.066.842-2.236 1.08-2.279 2.16-.434 1.144 1.975 3.412 4.97 5.594 7.378 1.101 1.194 2.052 2.387 2.116 2.67.087.26-.021.824-.237 1.258-.195.413-.324 1.15-.303 1.606.043.63-.043.977-.389 1.346-.734.78-.928 1.584-.928 3.82 0 3.124.734 5.685 1.62 5.685.432 0 .41-.13-.108-.825-.497-.672-.994-4.535-.756-6.033.13-.846.756-1.823 1.188-1.823.302 0 .28.586-.022.782-.13.065-.173.369-.086.672.086.347.043.478-.108.39-.497-.303-.195 2.583.561 5.491.065.217.195.217.54.044.303-.174.389-.37.303-.608-.281-.716-.41-3.168-.152-2.995.152.087.454.044.713-.108.605-.326.691-.174 1.037 1.866.324 1.932.8 2.149.691.347-.043-1.106.26-1.888.648-1.627.108.065.194.738.194 1.519 0 1.063.065 1.389.303 1.389.41 0 .518-.955.626-5.382.065-1.932.151-3.603.238-3.668.065-.065 1.274.413 2.656 1.085 1.404.673 3.564 1.693 4.817 2.3 2.916 1.411 4.277 2.192 5.961 3.451 1.88 1.432 4.838 4.21 4.838 4.536 0 .152.151.282.324.282.195 0 .26.13.195.325-.087.174-.044.326.086.326.108 0 .28-.239.346-.52.324-1.346 6.609-6.12 10.583-8.03 1.08-.543 3.585-1.737 5.551-2.691 4.579-2.192 5.81-3.039 8.748-5.99 2.678-2.713 4.6-5.143 6.458-8.16.69-1.128 1.339-2.148 1.425-2.235.086-.108.454.781.82 1.997.368 1.193.757 2.213.865 2.3.432.26.885-.195 1.598-1.584 3.132-6.012 3.456-12.066 1.08-20.01-.993-3.384-1.642-3.862-2.462-1.8-1.059 2.669-2.83 5.143-5.897 8.181-1.166 1.172-2.937 2.713-3.887 3.407-.972.695-1.988 1.454-2.29 1.715l-.54.434.497.434c.497.412 2.872 1.215 4.298 1.454.389.065.713.217.713.347s-1.145 1.367-2.549 2.756c-4.19 4.102-8.272 6.294-12.052 6.467-4.385.195-6.242-1.367-6.825-5.707l-.238-1.823.8-.89c.907-.998 1.425-2.083 1.425-2.93 0-.803 1.382-2.213 2.462-2.517.54-.152 1.188-.564 1.663-1.064.67-.716.843-1.085 1.059-2.408.302-1.736.194-3.408-.324-5.122-.584-1.997-1.836-3.038-3.867-3.299l-1.08-.13-.734-1.996c-.497-1.367-1.015-2.322-1.598-2.995l-.864-.977.108-4.644c.065-3.212.021-4.73-.13-4.883-.173-.173-.173-.238.022-.238.151 0 .259-.24.259-.521 0-.304.065-.586.173-.63.324-.217 4.708-.368 5.313-.217.734.218 4.169-.043 4.536-.347.13-.108 1.166-.369 2.29-.564 2.634-.434 4.32-1.063 5.097-1.866.604-.63.626-.716.626-2.974 0-2.864-.194-3.862-.8-4.188-.431-.239-4.19-.825-5.896-.955-.345-.021-.993-.26-1.404-.52-.648-.413-.95-.456-2.16-.348-3.24.282-4.967.326-6.587.174-1.598-.152-1.728-.217-1.793-.673-.108-.781.324-1.627 1.059-2.105.993-.63 3.758-3.928 4.492-5.317 1.49-2.843 1.469-6.402-.108-9.679-.82-1.758-2.894-3.884-4.752-4.904-1.9-1.02-5.27-1.498-7.56-1.042m-.303.63c0 .108-.302.238-.648.282-.712.108-.626-.152.108-.326.238-.065.454-.108.497-.13.022 0 .043.065.043.173m4.687.455c3.305.781 6.372 3.603 7.28 6.706.56 1.91.345 6.098-.303 6.098-.087 0-.087-.347.043-.781.108-.434.151-.933.086-1.107-.086-.195-.021-.477.108-.63.152-.173.152-.303.044-.303-.13 0-.238-.26-.238-.608-.022-.325-.065-.976-.108-1.454-.194-2.213-2.743-5.295-5.508-6.706-1.447-.737-1.684-.78-3.52-.78-2.398 0-2.441.195-.065.303 2.376.087 3.866.716 5.594 2.344 1.598 1.497 2.354 2.69 2.808 4.427.691 2.67.216 4.861-1.447 6.64-.584.63-.994 1.02-.907.847.107-.217.021-.239-.368-.13-.496.152-.496.152-.172-.239.54-.63 1.101-1.823.842-1.823-.108 0-.216-.108-.216-.239 0-.108.086-.173.194-.087.108.066.26.022.346-.108.065-.108.065-.217-.043-.217-.087 0-.195-.63-.216-1.41-.044-2.323-1.102-4.58-2.808-6.034-.389-.347-.67-.694-.626-.76.13-.216-1.016-.346-2.895-.346-2.008 0-3.304.238-3.11.564.087.13.065.173-.065.108-.28-.173-1.792.868-1.792 1.237 0 .174-.173.434-.368.586-.367.282-.367.282-.064-.13.302-.39.302-.412-.044-.152-.194.174-.302.434-.259.586.065.152-.065.478-.302.716-.238.239-.389.478-.346.543.043.043-.043.369-.237.716-.173.347-.324.825-.324 1.085 0 .239-.087.52-.195.651-.108.109-.259.52-.324.933-.043.39-.216.847-.367.977-.28.282-.13-1.932.26-3.45.518-1.997 2.483-4.19 4.686-5.23.929-.435 1.49-.565 2.657-.543.82 0 1.75.152 2.095.303.82.435 1.771.63 1.771.391 0-.434-2.397-1.128-3.93-1.128-1.318-.022-1.729.086-3.09.76-3.002 1.497-4.579 3.905-4.794 7.4-.108 1.649-.476 2.712-.93 2.712-.107 0-.172-1.194-.15-2.886.043-2.756.086-2.908.777-4.362.497-.998 1.188-1.953 2.16-2.908.778-.781 1.123-1.215.778-.977-1.296.89-2.743 2.713-3.521 4.362-.756 1.628-.778 1.736-.778 4.319-.021 2.93-.324 3.06-.496.195-.195-3.081.864-6.011 2.937-8.138.67-.694 1.642-1.497 2.182-1.758 2.16-1.128 5.162-1.562 7.278-1.085m6.372 3.038c.95 1.085 1.75 2.54 1.49 2.691-.108.065-.345-.238-.518-.694s-1.037-1.606-1.922-2.54c-1.232-1.345-1.383-1.562-.67-1.02a14 14 0 0 1 1.62 1.563m-6.976 2.3c2.332.695 3.693 2.865 3.39 5.383-.215 1.953-.28 2.018-1.209 1.107-1.015-.999-1.922-1.216-4.017-.955-1.534.195-1.642.195-2.009-.26-.302-.391-.67-.5-1.728-.587-1.447-.108-1.512-.195-1.015-1.367.583-1.389 1.577-2.517 2.743-3.103 1.318-.651 2.246-.695 3.845-.217m8.877 1.346c0 .326-.044.326-.216.044-.281-.434-.281-.717 0-.543.13.065.216.304.216.5m.367 2.257c-.065.174-.13.109-.13-.13-.021-.239.043-.369.108-.282.065.065.087.26.022.412m-14.709 2.453c-.238.173-.54.325-.691.325-.497 0-2.851 2.365-4.233 4.253-1.361 1.845-2.117 2.322-2.117 1.324 0-.282.648-1.193 1.685-2.343 2.548-2.887 3.844-3.863 5.118-3.863.627 0 .627 0 .238.303m4.622.694c0 .108-.086.304-.194.456-.151.238-.194.238-.303-.022-.064-.174-.064-.39 0-.456.195-.173.497-.152.497.022m-2.073.325c.108.217.151.217.259.022.086-.195.26-.195.648.087l.54.347-.13 4.362a430 430 0 0 0-.108 4.753c0 .347-.172.39-1.23.325l-1.254-.065.044-2.061c.043-1.129 0-2.995-.087-4.124-.194-3.038-.453-1.454-.41 2.713.021 2.886-.022 3.364-.303 3.32-.367-.087-.431-2.04-.216-6.662l.108-2.474.627-.065c.345-.043.734-.217.82-.412.238-.391.519-.413.692-.066m2.85.955c0 .586-.086 1.237-.172 1.433-.13.26-.108.39.043.39.173 0 .173.13 0 .434-.13.239-.173.543-.108.651.065.109.022.239-.108.326s-.216-.673-.216-2.17c0-1.758.065-2.3.281-2.214.151.043.26.5.28 1.15m1.383 3.45c0 3.625-.13 5.318-.41 5.318-.087 0-.108-1.888-.087-4.189.044-2.278.065-4.47.065-4.817 0-.5.065-.586.216-.326.108.174.216 1.975.216 4.015m6.091-3.32c-.151.152-.26.174-.26.044 0-.304.26-.564.411-.412.043.065-.021.238-.151.369m-20.41 2.323c-1.016 1.15-1.146 1.389-1.75 3.732-.648 2.54-1.123 2.887-.93.695.195-2.344 1.146-4.167 2.593-5.057.95-.586.972-.369.086.63m4.88-.413c-.108.413-.496.63-.496.26 0-.151.432-.694.561-.694.022 0 0 .195-.064.434m.368.586c0 .478-.367 1.085-.519.912-.108-.109.324-1.28.475-1.28.022 0 .044.173.044.368m13.39.564c0 .044-.345.391-.755.803s-.756.673-.756.586c0-.065.324-.434.713-.78.67-.652.799-.739.799-.609m-5.982.782c.043.217.022.542-.086.694-.13.217-.195.087-.195-.412 0-.781.108-.912.281-.282m-10.454 2.409c-.453 1.323-.842 2.473-.842 2.539 0 .086-.108.043-.238-.087-.453-.456 1.145-4.84 1.75-4.84.108 0-.195 1.085-.67 2.387m10.497.65c.022.956-.043 1.737-.13 1.737-.237 0-.431-1.52-.28-2.279.043-.369.108-.825.108-1.063 0-.217.065-.326.13-.26.086.086.15.91.172 1.866m-12.462-.954c.086.976-.454 2.8-.821 2.8-.389 0-.41-1.281-.022-2.67.303-1.063.756-1.129.843-.13m4.967.065 1.145.76L34 22.612l-.064 1.106-1.772.065c-1.166.044-1.792-.021-1.792-.173 0-.434 1.145-3.711 1.274-3.646.065.043.648.412 1.274.803m-6.976 4.405c-.086.76-.238 1.541-.367 1.758a1.5 1.5 0 0 0-.087.868c.108.456.044.477-1.058.412-1.145-.086-1.188-.108-1.188-.694 0-.955.346-1.65 1.318-2.713 1.274-1.389 1.555-1.302 1.382.37m1.555.586c-.13 1.563-.432 2.409-.842 2.409-.151 0-.173-.369-.087-1.15.368-2.778 1.145-3.841.93-1.259m25.703-.933c.583.108.907 1.085 1.08 3.385l.13 1.65-1.318-.044c-.735-.021-1.383-.108-1.469-.195s.043-.152.302-.152c.26 0 .476-.108.476-.239 0-.13-.195-.173-.432-.086-.346.108-.432.043-.432-.326s.086-.434.388-.325c.195.108.605.195.907.217.368.021.519.152.476.412-.043.239.086.347.432.347.302 0 .389-.065.237-.173-.13-.087-.237-.348-.216-.586.044-.37-.108-.434-1.08-.5-1.274-.065-1.23 0-1.468-2.365l-.13-1.346.82.109c.454.065 1.037.152 1.297.217m-9.245.347 5.897.26.216.565c.13.304.237 1.28.28 2.192l.066 1.649-2.679.63c-3.196.737-3.045.954.238.325 2.657-.52 2.484-.5 2.484-.26 0 .412-4.471 1.063-8.23 1.193-3.196.109-3.24.087-.95-.087 1.318-.108 2.678-.238 3.024-.26.367-.043-2.225-.109-5.724-.13s-6.609-.087-6.911-.13c-.303-.044-1.145-.087-1.88-.11-1.187-.02-1.36-.064-1.36-.433 0-.39.065-.39.713-.195 1.036.347 12.83.499 14.838.173 1.88-.304 6.112-1.324 5.983-1.454-.065-.043-1.34.196-2.873.521-2.678.564-3.024.586-9.158.608-6.933 0-9.503-.26-9.503-.933 0-.326.28-.37 2.203-.326 1.706.022 2.03-.022 1.36-.152-.474-.108-1.425-.195-2.094-.195-.67-.022-1.275-.109-1.361-.217-.065-.13-.065-.586.021-1.064l.13-.846 1.555-.217 1.534-.217-1.577-.043c-1.382-.022-1.577-.066-1.512-.413.065-.325.41-.39 2.549-.499 4.622-.217 6.782-.195 12.721.065m11.837.63c.324.108 1.555.303 2.721.412s2.182.239 2.246.304.173.499.216.976c.087.695.022.89-.345 1.085-.497.283-4.73.26-4.903 0-.043-.086-.173-.629-.281-1.215a18 18 0 0 0-.346-1.432c-.172-.434-.13-.456.692-.13m-33.111.455c-.087.282-.216.847-.281 1.259-.13.651-.216.76-.735.738-.323 0-1.468-.022-2.527-.044-1.641-.043-1.987-.108-2.095-.434-.086-.195-.237-.434-.345-.499-.13-.086-.151-.303-.087-.499.108-.26.303-.325.67-.217.432.109 2.095-.13 4.557-.65.929-.174 1.015-.153.843.346m-4.795 2.648c-.087.52.324.434.453-.109.108-.369.238-.434.627-.325.28.065 1.101.13 1.857.13 1.296 0 1.36.022 1.296.477-.065.478-.13.5-2.333.456-1.857-.043-2.31-.13-2.527-.434-.259-.347-.28-.347-.28.022 0 .195-.087.325-.195.26s-.151-.325-.086-.564c.15-.564 1.296-.5 1.188.087m7.516-.087c.065.109.087.564.043 1.02l-.086.825-1.166-.065c-.843-.066-1.167-.174-1.167-.413 0-.238.238-.303.972-.26.518.043 1.015 0 1.102-.087.086-.087-.346-.152-.95-.152-1.037 0-1.124-.043-1.124-.499 0-.282.065-.586.173-.673.194-.217 2.03.022 2.203.304m1.318.716c-.173.174-.238.087-.238-.304 0-.716.302-1.02.389-.412.043.26-.022.586-.151.716m34.104-.173c0 .173-.13.325-.26.347q-.323 0 0 .13c.13.044.26.239.26.412 0 .24-.432.282-2.16.24-1.944-.044-2.138-.088-2.03-.435.086-.282 0-.369-.389-.369s-.432-.043-.173-.217c.432-.282 1.512-.282 1.512 0 0 .109-.15.217-.345.217-.173 0-.26.087-.195.217.173.282 1.188.195 1.188-.108 0-.13.087-.109.173.043.108.174.389.195.907.065.864-.195.713-.26-.583-.26-.67 0-.929-.087-.929-.304 0-.239.346-.304 1.512-.304 1.21 0 1.512.065 1.512.326m-41.21.65c1.339.044 2.419.174 2.376.261-.022.087-.454.152-.973.152-3.887-.13-4.557-.217-4.34-.543.064-.108.194-.152.302-.086.107.065 1.274.152 2.635.217m7.3.218c0 .173-.086.325-.194.325-.281 0-.476-.347-.303-.52.238-.24.497-.13.497.195m26.566.108c0 .174-1.749.434-1.943.282-.044-.043.021-.152.172-.26.346-.217 1.771-.239 1.771-.022m.864 0c0 .109-.15.217-.345.217-.173 0-.26-.108-.194-.217a.41.41 0 0 1 .345-.217c.108 0 .194.087.194.217m-37.365.434c0 .109-.108.217-.238.217-.108 0-.151-.108-.087-.217.065-.13.173-.217.238-.217.043 0 .087.087.087.217m.863.087c0 .065-.086.174-.215.239-.108.065-.216.021-.216-.087 0-.13.108-.239.216-.239.13 0 .215.044.215.087m2.873.108c.82.022 1.426.109 1.36.196-.042.087-.366.152-.712.13a33 33 0 0 0-1.836-.065c-.691-.022-1.252-.109-1.252-.239 0-.108.215-.173.496-.13.26.065 1.145.108 1.944.108m4.017-.065c1.037.217.843.651-.237.565-1.21-.087-1.534-.217-1.36-.478.15-.26.626-.282 1.598-.087m36.006.109c.065.108-.216.195-.605.217s-1.123.043-1.62.065c-1.145.065-1.231-.26-.108-.347 1.685-.13 2.203-.13 2.333.065m-33.824.195a.217.217 0 0 1-.216.217c-.108 0-.216-.108-.216-.217 0-.13.108-.217.216-.217.13 0 .216.087.216.217m27.215.022c0 .108-.584.195-1.318.195-.713 0-1.253-.086-1.188-.173.13-.24 2.505-.26 2.505-.022m3.153-.044c-.065.11-.367.174-.67.174-.302 0-.54-.065-.54-.174s.303-.195.67-.195c.346 0 .605.087.54.195m-21.404.456c2.116.13 1.62.152-2.096.065-3.758-.108-4.924-.065-4.924.13 0 .152-.087.196-.216.13-.108-.064-.216-.26-.216-.433 0-.304 1.08-.304 7.452.108m-18.035 0a.217.217 0 0 1-.216.217c-.108 0-.216-.108-.216-.217 0-.13.108-.217.216-.217.13 0 .215.087.215.217m1.08-.13c0 .065-.087.174-.217.239-.108.065-.216.021-.216-.087 0-.13.108-.239.216-.239.13 0 .216.044.216.087m.755.13c.065.109.022.217-.086.217-.13 0-.238-.108-.238-.217 0-.13.044-.217.087-.217.065 0 .173.087.237.217m30.65 0c-.13.13-1.383.326-2.809.434-3.866.304-6.393.39-6.199.217.087-.086 1.534-.238 3.197-.325s3.456-.217 3.996-.326c1.49-.26 2.073-.26 1.814 0m10.453.044c-.086.238-.713.477-1.9.694a93 93 0 0 0-1.578.434c-.69.217-1.317.347-1.36.282-.065-.065.453-.282 1.145-.477.69-.217 1.447-.521 1.706-.673.237-.152.734-.304 1.08-.369.345-.043.712-.108.799-.13.108 0 .151.108.108.239m-38.835.173c0 .109-.13.217-.302.217-.173 0-.389-.108-.454-.217-.064-.13.065-.217.303-.217.259 0 .453.087.453.217m3.305-.021a.21.21 0 0 1 .151.195c0 .152-.756.174-1.771.087-.216-.022-.389-.152-.389-.282s.346-.174.929-.109c.497.065.972.109 1.08.109m31.47.021c-.174.109-.411.217-.54.217-.109 0-.066-.108.107-.217.173-.108.432-.217.54-.217.13 0 .065.109-.108.217m1.295-.13c0 .239-.41.326-.54.13-.064-.108.022-.217.195-.217.194 0 .345.044.345.087m-30.886.347c0 .109-.151.217-.346.217-.172 0-.259-.108-.194-.217a.41.41 0 0 1 .346-.217c.108 0 .194.087.194.217m5.184-.13c0 .239-.41.326-.54.13-.065-.108.021-.217.194-.217.194 0 .346.044.346.087m.54.13c.064.109.021.217-.087.217-.13 0-.237-.108-.237-.217 0-.13.043-.217.086-.217.065 0 .173.087.238.217m1.188.13c0 .044-.152.087-.324.087s-.324-.086-.324-.217c0-.108.15-.152.324-.086.172.086.324.173.324.217m18.682-.13c-.95.239-1.447.239-1.295 0 .064-.13.54-.195 1.036-.195.864.022.864.043.26.195m-15.507.13c-.065.066-.26.087-.41.022-.174-.065-.109-.13.129-.13.237-.022.367.043.28.109m.712-.043c0 .065-.086.174-.216.239-.108.065-.216.022-.216-.087 0-.13.108-.239.216-.239.13 0 .216.044.216.087m1.728.13c.238.174.151.196-.324.087-.799-.173-.972-.304-.41-.304.216 0 .562.109.734.217m-21.382.217c0 .109-.13.217-.303.217s-.389-.108-.453-.217c-.065-.13.064-.217.302-.217.26 0 .454.087.454.217m.755 0c.065.109-.021.217-.216.217-.194 0-.28-.108-.216-.217.065-.13.173-.217.216-.217s.152.087.216.217m29.915-.108c0 .043-.216.195-.475.325-.476.24-.476.217-.087-.087.454-.368.562-.412.562-.238m1.296.087c0 .282-1.059.998-1.728 1.193-.735.196-6.847.434-6.674.239.086-.065 1.166-.195 2.376-.26 1.23-.066 2.505-.26 2.829-.413.756-.39 1.015-.39.475.022-.216.173-.345.325-.259.325.389 0 2.549-.911 2.549-1.106 0-.109.108-.196.216-.196.13 0 .216.087.216.196m-30.152.173c-.108.109-.26.26-.324.348-.065.108-.195.043-.26-.152-.107-.26 0-.348.325-.348.259 0 .367.065.259.152m1.101.065c-.064.109-.216.217-.345.217-.108 0-.195-.108-.195-.217 0-.13.151-.217.346-.217.173 0 .26.087.194.217m4.385.174c.043.174-.13.217-.54.152-.324-.065-.82-.152-1.08-.174-1.058-.152-.756-.412.346-.325.648.043 1.23.217 1.274.347m1.339-.174a.217.217 0 0 1-.216.217c-.108 0-.216-.108-.216-.217 0-.13.108-.217.216-.217.13 0 .216.087.216.217m25.919-.13c0 .065-.087.174-.217.239-.107.065-.215.022-.215-.087 0-.13.108-.239.215-.239.13 0 .217.044.217.087m-.864.217c0 .065-.087.174-.216.239-.108.065-.216.022-.216-.087 0-.13.108-.239.216-.239.13 0 .216.044.216.087m-27.107.76c.043.086-.194.108-.561.065-.346-.044-.627-.174-.627-.26 0-.196 1.037-.022 1.188.195m25.379-.217c0 .108-.151.26-.346.325-.302.109-.324.087-.086-.195.302-.369.432-.412.432-.13m-24.623.238a.217.217 0 0 1-.216.217c-.108 0-.216-.108-.216-.217 0-.13.108-.217.216-.217.13 0 .216.087.216.217m3.823-.086c-.065.065-.26.086-.41.021-.173-.065-.108-.13.13-.13.237-.022.366.043.28.109m.82.086c.066.109.022.217-.086.217-.13 0-.237-.108-.237-.217 0-.13.043-.217.086-.217.065 0 .173.087.238.217m23.22.109c-.152.174-.325.282-.41.239-.087-.066-.52-.022-.973.086-.561.13-.777.109-.713-.065.044-.152.454-.282.908-.325.475-.022.885-.109.95-.152.26-.26.475-.065.237.217m-22.096.022c-.065.065-.26.086-.41.021-.173-.065-.108-.13.13-.13.237-.022.366.043.28.109m1.533.195c.065.065-.194.108-.583.108s-.648-.086-.561-.195c.108-.217.928-.152 1.144.087m.972.043a1.1 1.1 0 0 1-.54 0c-.15-.065-.043-.108.26-.108.302 0 .41.043.28.108m.95-.021c-.064.065-.258.086-.41.021-.172-.065-.108-.13.13-.13.237-.022.367.044.28.109m.865 0c-.065.065-.26.086-.41.021-.173-.065-.109-.13.129-.13.238-.022.367.044.28.109m5.831 0c-.064.065-.259.086-.41.021-.173-.065-.108-.13.13-.13.237-.022.367.044.28.109m-16.76.477a.59.59 0 0 1-.497-.13c-.173-.174-.087-.195.28-.109.282.087.39.174.217.24m1.015.217c.043.152-.043.217-.26.13-.194-.065-.345-.238-.345-.347 0-.282.497-.108.605.217m1.555.065c0 .304-.367.217-.497-.108q-.129-.325.195-.196c.15.066.302.196.302.304m6.825 1.324c.065.239.065 1.41-.021 2.582l-.152 2.17-.95-1.627c-.929-1.584-1.814-2.517-2.376-2.517-.173 0-.302-.152-.302-.348s-.216-.412-.475-.477c-.432-.13-.39-.152.259-.26.41-.066 1.447-.087 2.31-.044 1.34.065 1.578.13 1.707.521m-6.328.651.367.716-.13-.738c-.108-.542-.064-.694.152-.629.583.195.863 2.995.302 2.995-.346 0-1.058-1.259-1.296-2.344-.065-.369-.065-.694.043-.694s.367.325.562.694m10.26-.282c.064.217 0 .26-.26.173-.302-.13-.324-.065-.13.283.13.238.281.434.346.434s.043-.109-.022-.217c-.064-.13-.021-.217.087-.217.13 0 .237-.217.259-.5 0-.477 0-.477.216.044.237.608.26 26.997.021 28.277-.259 1.302-3.175 4.08-4.298 4.08-.064 0-.043-.803.022-1.801.086-.977.28-3.798.453-6.272.238-2.973.346-7.726.346-13.89.022-5.164.065-9.678.13-10.025.194-1.042.453-.217.496 1.584.022.912.065 1.932.108 2.3.022.348.065 1.042.087 1.52.021.76.065.824.28.434.325-.543.346-.825.368-3.668.021-2.062.065-2.322.345-2.083.195.173.324.195.324.043 0-.13-.086-.304-.216-.369-.41-.239-.216-.477.368-.456.302.022.604.152.67.326m-8.057.239c.065.108.021.217-.087.217-.13 0-.237-.109-.237-.217 0-.13.043-.217.086-.217.065 0 .173.086.238.217m10.26.108c-.303.37-.649.434-.649.13 0-.108.173-.26.389-.303.194-.066.41-.109.454-.13.043 0-.044.13-.195.303m1.835.109c.065.108.022.217-.086.217-.13 0-.238-.109-.238-.217 0-.13.043-.217.087-.217.064 0 .172.086.237.217m-.346.868c-.086.065-.086.499 0 .976.217 1.064.173 2.127-.107 2.214-.13.043-.238-.76-.26-1.888-.043-1.671 0-1.932.26-1.693.172.152.215.326.108.39m-10.432.911c.303.63.95 1.715 1.404 2.387.475.695.843 1.52.843 1.845v.586l-.648-.738c-.843-.977-2.074-3.385-2.268-4.405-.087-.434-.108-.803-.022-.803.065 0 .389.52.691 1.128m9.072 1.28c.021.934-.043 1.715-.173 1.715-.108 0-.108.152.022.39.108.218.172.999.13 1.737-.066.76 0 1.345.107 1.345.216 0 .087 12.414-.13 13.39-.043.282 0 .5.109.5.108 0 .259-1.042.367-2.345.108-1.367.216-1.974.259-1.454.065.782-.238 5.274-.497 7.314-.065.477-.021.825.108.825.108 0 .216-.261.216-.608 0-.326.108-1.671.216-2.973.519-5.99.756-11.72.497-11.893-.086-.065-.173.5-.194 1.216-.044 2.951-.195 5.143-.346 5.143-.173 0 .022-8.833.238-10.96.021-.108.28.066.583.391.518.564.54.695.475 2.648-.043 1.128.021 2.083.108 2.127.086.021.194 3.559.216 7.856l.043 7.79-1.404.37c-.777.195-1.577.433-1.793.52-.345.152-.367-.022-.345-1.953.022-1.498.13-2.17.346-2.409.172-.174.215-.304.086-.304-.151 0-.238-.607-.238-1.627 0-1.302.065-1.628.324-1.628.173 0 .324-.087.324-.217 0-.108-.13-.152-.302-.087-.238.087-.28-.152-.216-1.258.043-.76.086-1.823.108-2.41 0-.564.108-1.02.216-1.02.367 0 .194-.433-.173-.433-.367-.022-.367-.022 0-.304.454-.347.475-.564.043-.564s-.41-.413 0-.565c.303-.13.303-.173-.021-.412s-.324-.282.15-.608c.346-.26.411-.368.174-.368-.454 0-.476-1.28-.022-1.802.302-.325.28-.369-.022-.369-.431 0-.431-.021-.15-.737.107-.326.129-.565.02-.565-.302 0-.107-1.692.217-2.105.173-.217.194-.304.043-.217-.367.239-.583-.239-.26-.63.195-.238.195-.39.022-.563-.194-.196-.15-.37.13-.695.194-.239.238-.347.108-.26-.194.108-.28 0-.28-.282 0-.26.107-.456.215-.456.13 0 .216-.087.216-.217 0-.109-.151-.152-.324-.087-.172.087-.324.022-.324-.108 0-.152.151-.304.324-.37.216-.086.26-.238.13-.477-.087-.217-.13-.499-.087-.65.216-.608.39.064.41 1.713m-12.635.999c.496 1.128 1.21 2.235 1.879 2.93 1.058 1.15 1.555 1.887 1.555 2.322 0 .52-.475.151-1.858-1.454-1.663-1.932-2.613-3.776-2.786-5.47-.13-1.345-.216-1.453 1.21 1.672m1.274-1.237c0 .108-.043.217-.087.217-.064 0-.172-.109-.237-.217-.065-.13-.022-.217.086-.217.13 0 .238.087.238.217m1.598 1.606c.627 1.172.627 1.65-.065 1.65-.67 0-1.641-2.215-1.166-2.67.324-.348.648-.087 1.231 1.02m11.383.39c.237.24.41.608.389.803 0 .239-.087.196-.238-.152-.346-.716-.626-.586-.367.174.13.347.324.651.432.651s.194.174.194.369c0 .304-.108.26-.54-.195a1.92 1.92 0 0 1-.54-1.367c0-.89.13-.934.67-.283m-8.899 3.516c.518.673.886 1.389.886 1.714 0 .782-.195.738-.908-.151-1.21-1.498-1.641-2.3-1.533-2.735.151-.542.367-.39 1.555 1.172m12.117 4.47c.626 1.237.518 1.346-.216.218-.346-.543-.648-1.064-.648-1.15 0-.37.454.13.864.933m1.123 3.473c.303.304.864.824 1.253 1.172.67.607.842 1.627.302 1.8-.237.088-2.224-2.386-3.088-3.84-.692-1.172-.519-1.52.259-.543.389.478.95 1.107 1.274 1.41M45.49 55.1c.346.672.389 1.258.367 4.817-.043 4.275-.151 4.731-.972 4.297-.41-.217-.432-.456-.432-5.49 0-5.664 0-5.643 1.037-3.624m5.119-.478c.67.998.95 1.997 1.08 4.015.151 2.105-.195 3.798-.907 4.47-.691.651-.886.456-.454-.39 1.102-2.149.626-7.075-.8-8.268-.517-.413-.453-.717.109-.63.26.044.713.39.972.803m23.975 2.127c-.173 2.04-1.944 8.008-2.981 10.07-1.728 3.45-4.406 7.096-7.516 10.177-3.456 3.43-5.573 4.796-11.901 7.661-7.452 3.407-9.072 4.34-11.685 6.814-.821.782-1.49 1.324-1.49 1.216 0-.413 3.78-3.885 5.075-4.666 1.382-.847 3.585-1.932 8.316-4.08 3.52-1.606 6.954-3.624 8.358-4.926 1.296-1.216 1.21-1.15-2.095 1.063-3.175 2.127-5.248 3.233-8.64 4.622a85 85 0 0 0-4.6 2.105c-1.166.586-2.224.999-2.376.912-.15-.087-.194-.087-.108.022.087.087.065.303-.065.477-.28.326-.712.39-.518.065.065-.13.022-.217-.108-.217s-.216.152-.173.304c.065.326-2.073 2.517-2.462 2.517-.108 0-.151.087-.086.196.064.108 0 .303-.173.434-.238.195-.28.13-.28-.326 0-.369.15-.607.453-.738.237-.108.324-.195.194-.195-.151-.022-.28-.174-.28-.347 0-.456.647-1.433.863-1.302.108.065.13-.109.043-.37-.108-.455-.108-.455-.28-.02-.26.715-.627.824-.627.194 0-.303.108-.564.216-.564.13 0 .216-.152.216-.347 0-.174-.086-.26-.216-.195-.389.238-.237-.326.216-.803.41-.434.432-.456.562-.044.086.217.453.695.82 1.064l.648.65-.41-.65c-1.533-2.43-2.052-3.407-1.944-3.603.195-.304.454-.087 1.318 1.216.432.65.864 1.193.972 1.193s.086-.195-.065-.434-.346-.434-.432-.434c-.108 0-.173-.108-.173-.217 0-.195-.756-1.41-1.08-1.736-.583-.586-.734-1.736-.194-1.389.13.065.151-.108.065-.477-.195-.76.194-.543.561.347.151.347.346.65.432.65s.216.196.281.435.216.434.367.434c.28 0 .238-.065-.864-1.736-.95-1.454-1.512-2.648-1.512-3.19.022-.282.108-.217.367.26.476.868 3.435 4.774 4.45 5.86.842.91 1.123.954.367.065-.864-1.02-3.693-4.992-3.931-5.49-.13-.305-.302-.543-.389-.543-.367 0-1.49-4.015-1.188-4.297.108-.13.54.933.54 1.345 0 .174.151.412.324.564.346.282.216.738-.15.521-.13-.087-.195-.022-.13.152.064.174.259.282.431.282.173-.022.432.282.584.695.15.412.367.737.475.737s.194.13.194.283.605 1.02 1.36 1.91c1.729 2.104 2.312 2.712 2.312 2.452 0-.109-.216-.434-.475-.738-2.052-2.279-3.586-4.71-4.6-7.248-.843-2.127-.843-2.084-.54-2.084.129 0 .215.152.215.326 0 .195.13.39.303.455.172.066.259.26.194.434s0 .304.13.304.237-.152.237-.325c0-.456.648-.413.67.043.021.37.043.37.13 0 .043-.195.237-.369.41-.369s.302-.13.302-.304c0-.173.151-.347.324-.434.173-.065.324-.021.324.087 0 .13-.086.217-.216.217-.108 0-.216.13-.216.304s-.13.347-.26.412c-.172.044-.193.174-.085.283s.28.043.41-.174c.216-.304.26-.304.626.152.475.607.475.716.044.803-.432.087 1.749 3.06 3.455 4.709 1.447 1.367 1.858 1.345.584-.022-.497-.499-.886-1.02-.886-1.15 0-.109.13-.065.28.109.562.716 2.312 1.692 2.787 1.562.454-.108.432-.13-.151-.326-.562-.195-1.383-.737-2.765-1.888a3 3 0 0 1-.626-.759c-.13-.239.216-.022.777.477 1.188 1.042 3.435 2.019 4.687 2.019 1.145 0 3.888-.586 5.227-1.107 3.24-1.28 8.186-5.122 11.275-8.767 1.23-1.454 4.039-5.643 4.838-7.249.367-.694.993-2.734 1.425-4.557.432-1.801.843-3.277.907-3.277s.065.651 0 1.454M4.02 58.138c.778 3.103 1.599 5.121 3.11 7.66 2.808 4.731 5.357 7.444 9.85 10.482 2.16 1.454 3.326 2.04 6.155 3.017 4.082 1.432 6.199 1.15 8.726-1.129.626-.564 1.34-1.519 1.706-2.257.368-.716.864-1.54 1.102-1.866.26-.326.454-.716.454-.868 0-.174.15-.304.345-.304.173 0 .28-.087.216-.195-.065-.087.022-.37.195-.586.28-.347.345-.37.54-.087.172.282.215.282.215-.022 0-.195.152-.434.346-.499.67-.26.778-.13.28.413-.28.282-.626.542-.755.542-.389 0-1.015.803-.756.977.13.065.302-.022.367-.196.173-.434.518-.455.518-.021 0 .152-.172.39-.367.52-.216.109-.324.26-.237.348.15.152 1.058-.304 1.296-.673.086-.13.388-.239.648-.217.496.022.496.065.67 4.145.172 4.21.042 13.498-.195 14.366-.13.456-.238.413-1.685-.868-2.009-1.801-2.57-2.192-5.054-3.407-2.225-1.085-3.046-1.454-6.307-2.734-5.27-2.062-10.022-5.165-12.786-8.377-4.407-5.1-7.409-10.699-8.9-16.558-.366-1.454-.69-4.406-.474-4.21.086.086.432 1.258.777 2.604m69.354-1.15c-.972 2.474-3.607 6.01-5.961 8.03-1.49 1.28-4.644 2.799-4.644 2.234 0-.13.13-.238.28-.238.152 0 1.038-.5 1.988-1.129 3.153-2.083 6.695-6.12 8.143-9.288.626-1.367.755-1.085.194.39M49.788 56.9c.346 1.389.303 2.734-.065 2.734-.172 0-.453.065-.648.13-.302.109-.345-.108-.345-1.497 0-.912.065-1.78.13-1.975.237-.65.69-.347.928.608m-2.073 2.344c-.022 1.844-.324 3.125-.713 2.886-.238-.152-.28-2.018-.087-3.993.13-1.215.173-1.324.497-1.02.238.26.324.781.303 2.127m-42.27 1.627c-.107.109-.993-2.235-.971-2.604 0-.152.237.369.54 1.129.302.759.497 1.432.432 1.475m1.167-.976c2.117 3.06 4.773 5.512 7.085 6.554.496.216.907.477.907.564 0 .065-.519.152-1.123.195-.627.022-1.167.13-1.21.217-.108.282-.95 0-1.685-.564-.67-.5-3.218-3.407-3.628-4.123-.108-.196.67.499 1.728 1.584 2.483 2.517 3.542 3.32 3.542 2.69 0-.13-.108-.216-.238-.216-.324 0-3.218-2.583-3.218-2.865 0-.13.173-.087.389.065.324.282.345.26.086-.065-.173-.217-.41-.347-.54-.325-.151.021-.216-.109-.194-.282.043-.174 0-.261-.087-.174-.216.217-.734-.239-.734-.63 0-.173-.28-.694-.626-1.128-.562-.716-1.534-2.452-1.534-2.734 0-.26.216-.044 1.08 1.237m66.179-.543c-.281 1.15-.972 2.257-2.311 3.69-.735.78-1.34 1.497-1.34 1.627 0 .108-.345.412-.777.673-.432.26-.778.564-.756.694.022.239-.756.651-2.354 1.237-1.793.651-1.836.434-.043-.347 2.224-.977 4.73-3.386 6.415-6.185.647-1.085 1.209-1.953 1.252-1.975.022 0-.021.26-.086.586m-70.003 2.28c-.216.434-.41.087-.432-.76l-.021-.911.259.76c.15.412.237.824.194.91m72.443-.868c-.065.152-.108.043-.108-.26 0-.305.043-.413.108-.283.043.152.043.413 0 .543m1.339.716c.021.369-.022.369-.195.108-.108-.173-.194-.564-.194-.868 0-.499.021-.499.194-.108.108.238.195.63.195.868m-26.87-.543c.066.109-.129.803-.453 1.52-.907 2.018-5.01 5.75-5.637 5.121-.173-.152.302-.63 2.44-2.43.648-.543 1.47-1.585 2.096-2.67 1.015-1.714 1.274-1.975 1.555-1.54m-43.866.565c.064.173.043.26-.087.195a.41.41 0 0 1-.216-.347c0-.304.151-.24.303.151m69.807 1.757c-.238.24-.41-.13-.238-.52.173-.37.173-.37.26 0 .064.217.043.455-.022.52m-4.212-.086c-.216.195-.238.173-.108-.13.065-.218.194-.326.26-.261.064.065 0 .239-.152.39m5.162-.413c0 .065-.086.174-.216.239-.108.065-.216.022-.216-.087 0-.13.108-.239.216-.239.13 0 .216.044.216.087m-74.645.456c-.087.174-.173.325-.216.325s-.087-.151-.087-.325.087-.326.216-.326c.108 0 .152.152.087.326m.777.108c0 .109-.043.218-.086.218-.065 0-.173-.109-.238-.218-.064-.13-.021-.217.087-.217.13 0 .237.087.237.218m.583.478c-.064.173-.13.108-.13-.13-.02-.239.044-.37.109-.282.065.065.086.26.022.412m73.09.239c-.172.173-.237.151-.237-.087 0-.434.281-.738.389-.413.065.152-.022.37-.151.5m-5.593.195c-.151.152-.26.173-.26.043 0-.303.26-.564.41-.412.044.065-.02.239-.15.369M9.312 66.319c-.086.109-.972-.89-1.685-1.888-.216-.304.087-.043.691.608.605.65 1.059 1.237.994 1.28m65.574-1.758c-.173.326-.216.326-.238.044 0-.37.216-.695.39-.543.042.065-.022.282-.152.5m-73.09.543c-.065.174-.13.109-.13-.13-.022-.239.043-.37.108-.282.065.065.086.26.022.412m42.722-.282c-.302.282-6.89 3.06-6.998 2.951-.151-.173.475-.781 1.36-1.302 1.642-.955 6.372-2.365 5.638-1.65m31.945.13c-.087.174-.173.326-.216.326s-.087-.152-.087-.326.087-.325.216-.325c.108 0 .151.151.087.325M68.6 66.19c-.864.868-1.512 1.215-1.512.803 0-.109.194-.195.41-.195a.59.59 0 0 0 .54-.39c.108-.305 1.08-1.108 1.404-1.13.043 0-.346.413-.842.912m6.047-.477c0 .108-.108.217-.237.217-.108 0-.151-.109-.087-.217.065-.13.173-.217.238-.217.043 0 .086.086.086.217m1.728.108c0 .174-.086.326-.216.326-.108 0-.151-.152-.086-.326.086-.173.173-.325.216-.325s.086.151.086.325m-6.48-.043c0 .043-.215.26-.453.499-.475.412-.475.412-.173-.087.26-.412.627-.651.627-.412m3.305.304c-.237.65-2.073 3.754-2.29 3.906-.129.065-.172.043-.107-.065.864-1.563 2.397-4.21 2.462-4.21.043 0 0 .173-.065.369m2.117.434c-.26.434-.302.303-.108-.26.086-.196.194-.305.238-.24.064.044 0 .283-.13.5m-66.546.065c0 .108-.043.217-.086.217-.065 0-.173-.109-.238-.217-.065-.13-.022-.217.086-.217.13 0 .238.087.238.217m67.431.26c-.15.152-.259.174-.259.043 0-.303.26-.564.41-.412.044.065-.021.239-.15.37m-2.052.217c-.064.174-.13.109-.13-.13-.02-.239.044-.369.109-.282.065.065.086.26.022.412M9.054 72.938c2.31 3.32 3.39 4.514 6.134 6.728a103 103 0 0 1 4.708 4.058c1.188 1.085 3.003 2.626 4.04 3.429 1.036.781 1.857 1.475 1.814 1.519-.087.087-1.944-1.02-3.672-2.17-.713-.5-2.592-2.127-4.126-3.624a286 286 0 0 0-4.514-4.254c-1.836-1.606-3.628-3.754-5.183-6.185-1.21-1.866-2.635-4.492-2.83-5.208-.086-.304.367.39 1.015 1.519.627 1.128 1.815 3.016 2.614 4.188m1.015-5.924c0 .108-.043.217-.086.217-.065 0-.173-.109-.238-.217-.065-.13-.022-.217.086-.217.13 0 .238.087.238.217m56.589.434c-.173.108-.54.217-.8.217-.28 0-.496.087-.496.217a.217.217 0 0 1-.216.217.217.217 0 0 1-.216-.217c0-.196 1.08-.586 1.728-.63.28-.021.28 0 0 .196m1.512.108c-.151.196-.324.282-.367.239-.152-.152.15-.564.41-.564.13 0 .13.13-.043.325m-64.646.586c-.064.152-.108.044-.108-.26s.044-.413.108-.282a1.15 1.15 0 0 1 0 .542m7.193-.477a.217.217 0 0 1-.216.217c-.108 0-.216-.109-.216-.217 0-.13.108-.217.216-.217.13 0 .216.087.216.217m31.534.304c0 .455-.216.607-1.663 1.172-3.801 1.432-8.856 2.756-9.374 2.43-.475-.304.043-.651 1.598-1.107 3.78-1.085 5.12-1.519 6.847-2.235 2.225-.933 2.592-.955 2.592-.26m3.218.846c-1.36 1.237-3.37 2.127-5.075 2.279-1.62.13-1.901-.24-.454-.608 2.246-.586 3.758-1.194 4.99-2.062 1.554-1.063 1.9-.824.54.39m29.396-1.15c0 .108-.108.217-.237.217-.108 0-.151-.109-.087-.217.065-.13.173-.217.238-.217.043 0 .086.087.086.217m-1.144.694c-.065.174-.13.109-.13-.13-.022-.239.043-.369.108-.282.065.065.086.26.022.412m2.267 0c-.15.152-.259.174-.259.044 0-.304.26-.565.41-.413.044.065-.021.239-.15.37m-73.33.651c-.065.174-.13.109-.13-.13-.022-.239.043-.369.108-.282.065.065.086.26.022.412m71.772-.26c0 .108-.108.217-.237.217-.108 0-.151-.109-.087-.217.065-.13.173-.217.238-.217.043 0 .086.087.086.217m-.928.477c-.065.174-.13.109-.13-.13-.022-.239.043-.369.108-.282.065.065.086.26.022.412m2.354.109c-.216.217-.41-.109-.216-.39.13-.24.173-.24.259 0 .043.151.022.325-.043.39m-44.429-.174c.324.217.13.673-.28.673-.649 0-4.126 1.128-5.4 1.758-.756.369-1.49.89-1.599 1.15-.216.434-.237.434-.237-.109-.044-.976 1.382-1.91 4.622-3.038 1.857-.65 2.419-.738 2.894-.434m40.174 1.085c-.26.5-.518.847-.583.803-.043-.043.15-.477.432-.955.259-.499.518-.846.561-.803.043.044-.13.478-.41.955m3.413.044c-.13.217-.281.347-.346.282-.065-.044 0-.195.13-.326.13-.13.194-.412.13-.607-.087-.282-.066-.282.107-.044.151.217.151.434-.022.695m-68.469.347c1.577 2.734 5.076 6.966 8.143 9.896 1.728 1.65 3.11 3.081 3.045 3.168-.043.109.152.304.433.456.302.152.54.369.54.477 0 .348-2.592-1.606-4.363-3.277-.93-.868-1.664-1.627-1.642-1.67.043-.044.886.715 1.88 1.67.971.934 1.9 1.715 2.03 1.693.15 0-1.059-1.28-2.679-2.865-1.62-1.584-3.326-3.363-3.801-3.95-.864-1.106-3.672-5.23-4.147-6.14-.475-.912-.043-.478.561.542m67.67-.803a.217.217 0 0 1-.217.217c-.108 0-.216-.109-.216-.217 0-.13.108-.217.216-.217.13 0 .216.087.216.217m-.649.087c0 .065-.086.173-.216.238-.108.066-.216.022-.216-.086 0-.13.108-.24.216-.24.13 0 .216.044.216.088m-70.844.586c0 .108-.086.195-.216.195-.108 0-.216-.152-.216-.347 0-.174.108-.26.216-.196.13.066.216.218.216.348m.95-.13c.065.173.022.325-.086.325-.13 0-.216-.152-.216-.326 0-.173.043-.325.087-.325.043 0 .13.152.216.325m71.882.151c-.152.152-.26.174-.26.044 0-.304.26-.564.41-.413.044.066-.02.24-.15.37m-4.796-.151c0 .043-.431.629-.971 1.28-1.016 1.258-1.232 1.693-.605 1.193.324-.26-.497.977-1.728 2.626-.82 1.107-5.4 6.077-5.508 5.968-.043-.043.432-.65 1.102-1.345 2.073-2.192 4.903-5.534 4.903-5.795 0-.13-.26.044-.562.413-1.555 1.823-6.868 7.465-6.955 7.378-.065-.065.195-.412.584-.781s.647-.716.604-.781c-.108-.087-1.468.933-3.65 2.777-.648.543-1.037.738-1.101.565-.065-.196-.195-.174-.497.087-.864.737-1.015.629-.195-.13.476-.435 1.167-.934 1.512-1.086.367-.173 1.426-.824 2.333-1.497.907-.651 1.663-1.107 1.663-.998 0 .434 4.169-4.189 7.516-8.312 1.231-1.52 1.555-1.845 1.555-1.562m-65.66.325a.217.217 0 0 1-.216.217c-.108 0-.216-.109-.216-.217 0-.13.108-.217.216-.217.13 0 .216.087.216.217m24.73.716c-.755.478-1.08.847-1.08 1.172 0 .282-.107.586-.215.695-.302.303-3.132 1.8-3.132 1.67 0-.195 1.102-1.215 1.296-1.215.13 0 .216-.087.216-.217 0-.108-.13-.152-.302-.087-.173.066-.368.022-.454-.108-.216-.39-.497-.26-.389.174.065.26-.108.542-.518.824-.95.695-1.577.977-1.577.738 0-.434 1.814-2.3 2.462-2.54.368-.13 1.016-.368 1.426-.52s.864-.369.994-.456c.259-.217 1.792-.803 2.138-.824.108-.022-.281.303-.864.694m43.954-.52c0 .13-.086.281-.216.347-.108.065-.216-.022-.216-.196 0-.195.108-.347.216-.347.13 0 .216.087.216.195m-69.915.347c-.065.195-.173.303-.216.238-.065-.065-.043-.195.043-.325.195-.348.324-.282.173.087m.95.586c-.064.173-.13.108-.13-.13-.02-.24.044-.37.109-.283.065.065.086.26.021.413m65.855 0c.086.151.065.173-.086.086s-.26-.043-.26.109-.064.217-.129.13c-.13-.108.065-.586.237-.586.044 0 .152.109.238.26m-40.303.173c0 .109-.108.217-.238.217-.108 0-.151-.108-.086-.217.065-.13.173-.217.237-.217.044 0 .087.087.087.217m7.3.412c-.302.521-.82.782-.82.413 0-.26.885-1.085 1.015-.955.064.043-.022.282-.195.542m37.237-.151c-.152.151-.26.173-.26.043 0-.304.26-.564.41-.412.044.065-.02.238-.15.368m-39.461-.044c-.065.109-.217.217-.346.217-.108 0-.194-.108-.194-.217 0-.13.15-.217.345-.217.173 0 .26.087.194.217m7.883 0c0 .109-.108.217-.237.217-.109 0-.152-.108-.087-.217.065-.13.173-.217.238-.217.043 0 .086.087.086.217M3.523 72.7c-.064.173-.13.108-.13-.13-.02-.24.044-.37.109-.283.065.065.086.26.021.412m1.016.043c-.065.195-.216.347-.324.347-.303 0-.238-.608.086-.716.346-.13.41-.065.238.369m35.4.108q.648 1.107.13 1.107c-.13 0-.195-.152-.108-.325.064-.174.021-.326-.087-.326-.13 0-.216-.152-.216-.325a.333.333 0 0 0-.324-.326c-.173 0-.324-.108-.324-.217 0-.456.562-.195.929.412m.8-.434c0 .13-.087.282-.217.348-.108.065-.216-.022-.216-.196 0-.195.108-.347.216-.347.13 0 .216.087.216.195m33.37.217c-.066.13-.238.24-.346.24s-.087-.131.065-.305c.302-.347.518-.282.28.065m-31.859.022a.217.217 0 0 1-.216.217c-.108 0-.216-.108-.216-.217 0-.13.108-.217.216-.217.13 0 .216.087.216.217m-9.503.195c0 .109-.281.413-.648.673-.93.673-4.946 2.54-5.832 2.713-.713.152-.734.13-.389-.239.432-.434 5.94-3.255 6.502-3.299.194-.021.367.044.367.152m10.151.022c0 .109-.108.217-.238.217-.107 0-.15-.108-.086-.217.065-.13.173-.217.238-.217.043 0 .086.087.086.217m.562.326c-.195.195-.346.499-.346.672s-.086.304-.216.304c-.108 0-.151-.173-.065-.39.173-.478.756-1.172.886-1.042.043.065-.065.26-.26.456m26.458.043c-.173.326-.216.326-.237.043 0-.368.216-.694.388-.542.044.065-.021.282-.15.5m-35.012-.282c0 .065-.086.174-.215.239-.108.065-.216.021-.216-.087 0-.13.108-.239.215-.239.13 0 .217.043.217.087m6.394.477c.173-.065.302-.021.302.066 0 .108-.13.238-.28.303-.325.13-.865-.586-.627-.824.086-.087.194.021.216.217.043.195.216.303.389.238m33.564-.477c0 .065-.086.174-.216.239-.108.065-.216.021-.216-.087 0-.13.108-.239.216-.239.13 0 .216.043.216.087m-30.886.89c0 .173-.086.325-.216.325-.108 0-.216-.152-.216-.325s.108-.326.216-.326c.13 0 .216.152.216.326m-11.382.89c-.368 1.085-1.383 2.538-2.225 3.168-1.059.781-3.283.955-5.983.477l-.691-.13.605-.52c.367-.305.907-.522 1.274-.522 1.382 0 5.659-1.953 6.61-3.016.647-.716.777-.543.41.543m36.869-.825c0 .108-.173.369-.39.607-.194.218-.56.673-.798.977-.54.673-3.067 3.537-4.536 5.1-2.203 2.322-6.156 5.838-6.156 5.447 0-.065 1.188-1.15 2.657-2.43 1.447-1.303 3.132-2.909 3.715-3.581 3.218-3.624 3.866-4.406 4.557-5.295.756-.999.95-1.172.95-.825m4.816.152c-.065.195-.173.304-.216.238-.065-.065-.043-.195.043-.325.195-.347.324-.282.173.087m-30.735.542a.217.217 0 0 1-.216.217c-.108 0-.216-.108-.216-.217 0-.13.108-.217.216-.217.13 0 .216.087.216.217m.648.087c0 .065-.086.174-.216.239-.108.065-.216.022-.216-.087 0-.13.108-.239.216-.239.13 0 .216.044.216.087m-21.815.543c0 .282-1.21 1.258-1.75 1.432-.41.13-1.058-.195-.82-.412.173-.152 2.246-1.194 2.419-1.216.086 0 .151.087.151.196m22.031.347c0 .195-.13.26-.324.195-.173-.087-.324-.217-.324-.325s.151-.196.324-.196.324.152.324.326m-19.655.542c-.345.673-1.62 1.52-2.225 1.52-.324 0-.583-.066-.583-.13 0-.348 2.592-2.062 2.851-1.91.108.065.065.303-.043.52m19.828 1.085c.626.825 1.015 1.454.864 1.39-.152-.044-.67-.63-1.145-1.281s-.929-1.172-1.015-1.194c-.108 0-.173-.108-.173-.217 0-.455.367-.13 1.469 1.302m.259-.868a.217.217 0 0 1-.216.217c-.108 0-.216-.108-.216-.217 0-.13.108-.217.216-.217.13 0 .216.087.216.217m.324.651c.065.109.022.217-.086.217-.13 0-.238-.108-.238-.217 0-.13.043-.217.086-.217.065 0 .173.087.238.217m19.223 3.733c-2.398 2.604-3.089 3.277-3.672 3.69-.346.26.475-.673 1.836-2.084 2.419-2.474 3.499-3.407 1.836-1.606m-24.73.846c0 .109-.087.196-.217.196-.108 0-.216-.152-.216-.347 0-.174.108-.26.216-.196.13.065.216.217.216.347m-16.113 3.603c1.058.89 2.678 2.3 3.563 3.125 3.003 2.8-.086.846-3.974-2.496a191 191 0 0 0-3.283-2.8c-.626-.498-1.123-.976-1.123-1.063-.043-.303 2.96 1.693 4.817 3.234m37.495-2.8c-.41.326-1.577 1.368-2.592 2.322-2.592 2.474-3.196 2.887-1.296.89 1.707-1.78 4.06-3.798 4.428-3.798.13 0-.13.26-.54.586m-1.188 0c-.13.109-1.469 1.39-3.024 2.887-1.533 1.475-2.419 2.257-1.965 1.714a21 21 0 0 1 1.447-1.519c.346-.304.626-.63.626-.716 0-.347-.432-.109-1.166.65-.432.457-.778.717-.778.608.022-.13.41-.607.886-1.084.562-.587.907-.782 1.015-.608.108.173.583-.13 1.447-.912.713-.65 1.383-1.171 1.512-1.193.13 0 .13.065 0 .173m-20.195 1.15c0 .11-.086.196-.216.196-.108 0-.216-.152-.216-.347 0-.174.108-.26.216-.196.13.065.216.217.216.348m15.767.37c-.28.195-1.058.824-1.727 1.367-.648.542-2.16 1.584-3.348 2.3s-2.722 1.65-3.391 2.105c-.692.434-1.253.76-1.253.695 0-.174 2.03-1.541 4.32-2.93 1.252-.76 2.7-1.736 3.218-2.17.972-.782 2.419-1.758 2.613-1.736.065 0-.13.173-.432.368m-31.47.629c1.189.63 2.118 1.389 3.889 3.212 1.512 1.562 2.203 2.148 1.987 1.714-.346-.738-3.629-3.993-3.996-3.993-.108 0-.216-.108-.216-.217 0-.325 1.728.608 2.57 1.389.584.542.67.586.476.195-.238-.477-.238-.477.345-.239.929.391 1.75.999 3.629 2.648 2.721 2.365 3.78 3.385 3.78 3.624 0 .13.064.174.172.13.151-.086.886.586.929.869.022.108.108.151.216.108.216-.043.518.564.367.738-.194.173-.82-.174-.82-.456 0-.13-.195-.347-.411-.456-.389-.173-2.311-1.888-5.637-4.97-.778-.737-1.599-1.453-1.836-1.627-.82-.608 1.447 1.975 2.462 2.778.54.434 1.188.998 1.447 1.237s.821.76 1.253 1.15c.453.39.756.781.691.89s.043.173.26.152c.237-.022.345.108.302.347-.044.26.043.347.28.26.216-.086.324 0 .324.24 0 .194.108.281.216.216.13-.065.216-.065.216.044 0 .086.303.499.67.89 1.101 1.171.54 1.041-.713-.153-1.101-1.085-4.363-3.385-6.047-4.296-.454-.24-1.944-1.498-3.305-2.8-1.382-1.302-3.089-2.778-3.823-3.277-2.095-1.476-1.987-1.562.324-.347m29.203.456c-.13.108-1.47.954-3.024 1.888-1.534.933-3.629 2.278-4.623 2.973-.971.716-1.835 1.237-1.9 1.172-.173-.152 4.125-3.06 6.955-4.71 2.483-1.432 3.023-1.714 2.591-1.323m2.051.108c0 .044-.216.26-.453.5-.475.412-.475.412-.173-.088.26-.412.626-.65.626-.412m-38.38.673c.474.369.474.477-.066.63-.237.064-.431 0-.431-.11 0-.13-.173-.086-.39.11-.626.585-.755.433-.215-.283.54-.738.561-.738 1.101-.347m36.739.434c-.346.282-.67.477-.734.434-.044-.065.194-.347.54-.63.842-.65.993-.499.194.196m-13.521-.282a.32.32 0 0 1-.28.217.32.32 0 0 1-.282-.217c-.043-.13.087-.239.281-.239s.324.108.281.239m12.679 1.736c-1.253 1.193-3.305 2.69-3.478 2.517-.043-.043.519-.499 1.231-1.02.735-.52 1.793-1.367 2.333-1.866.54-.52 1.015-.89 1.058-.846.044.021-.475.585-1.145 1.215m1.598-.76c-.28.304-.907.868-1.383 1.216-.734.564-.69.477.325-.543 1.187-1.194 2.073-1.758 1.058-.673m-35.314 0c.67.26.173 2.04-.562 2.04-.28 0-.389-.173-.389-.672 0-.587.325-1.498.54-1.498.044 0 .216.065.41.13m32.96.63c-.152.195-.584.542-.95.803-.52.347-.476.26.194-.348.907-.824 1.21-.998.756-.455m-35.077.694a46 46 0 0 0-.238 2.344c-.129 1.606-.367 2.105-.799 1.67-.194-.194-.194-.737.022-2.365.302-2.365.346-2.452.8-2.452.258 0 .323.174.215.803m16.394.412c1.814 1.107 5.075 4.145 5.075 4.71 0 .217-.043.369-.108.369-.086 0-.82-.695-1.684-1.541a55 55 0 0 0-3.327-2.952c-1.663-1.302-1.965-1.584-1.684-1.584.043 0 .842.456 1.728.998m14.125-.911c-.043.043-1.21.825-2.57 1.758-1.36.911-3.067 2.17-3.78 2.778-1.058.89-1.145.954-.54.282 1.037-1.129 3.002-2.626 5.054-3.863 1.47-.89 2.182-1.259 1.836-.955m1.944 1.085c-.346.325-3.002 2.018-3.002 1.91 0-.196 2.635-1.975 2.894-1.997.108 0 .151.044.108.087m.238.434c0 .195-2.83 2.148-2.938 2.04-.043-.065.562-.564 1.361-1.107 1.577-1.063 1.577-1.063 1.577-.933M18.55 90.495c.173.89.151 2.018-.065 2.343-.28.456-.367.26-.54-1.367-.13-1.215-.108-1.454.173-1.454.173 0 .367.217.432.478m26.87.824c-.303.24-.627.434-.735.434-.216-.021.842-.846 1.101-.868.108 0-.065.196-.367.434m.841.174c-.064.109-.712.564-1.468 1.02a32 32 0 0 0-2.592 1.78c-.67.52-1.274.933-1.36.933-.26 0 1.252-1.194 3.217-2.54 1.88-1.28 2.441-1.584 2.203-1.193m-3.8.695c0 .108-.109.216-.239.216-.108 0-.15-.108-.086-.216.065-.13.173-.218.238-.218.043 0 .086.087.086.218"/><path fill="#5d89b4" d="m36.095 2.126-.432.196h.431c.238 0 .584-.087.756-.196.281-.195.281-.217 0-.195-.172 0-.518.087-.756.195m7.236 3.017c0 .108.173.347.389.499s.626.63.929 1.042c.28.412.648.89.799 1.041.13.152.259.456.28.651 0 .196.065.26.109.109.15-.347-.476-1.52-1.275-2.452-.734-.847-1.23-1.216-1.23-.89m2.85 4.579c0 .304.043.412.108.26a1.15 1.15 0 0 0 0-.542c-.065-.13-.108-.022-.108.282m-.518 19.032c.15.065.345.043.41-.022.087-.065-.043-.13-.28-.108-.238 0-.303.065-.13.13m-9.655 28.19c0 .239.065.304.13.13.065-.151.043-.347-.022-.412-.065-.087-.13.044-.108.282m-.216 4.341c0 .238.065.303.13.13.065-.152.043-.347-.022-.413-.065-.086-.13.044-.108.282m5.897-16.666c-.022.434.021.63.064.412.065-.195.195-.325.303-.26.28.195.237-.152-.087-.586-.237-.304-.28-.26-.28.434m-.087 1.389c0 .195.151.477.367.629.324.282.324.26.065-.239-.367-.737-.432-.78-.432-.39m-.086 1.106c.065.218.194.326.259.26.065-.064 0-.238-.151-.39-.216-.195-.238-.173-.108.13m.432 7.14c-.216 1.346-.26 3.43-.087 3.43.087 0 .173-.457.195-1.043 0-.564.065-1.475.108-2.061.13-1.15-.044-1.41-.216-.326m-.54 6.597c-.281 2.93-.216 4.363.086 1.78.087-.76.195-1.562.238-1.801.13-.716.15-2.713.043-2.821-.043-.066-.216 1.215-.367 2.842m-1.188 0c-.195 1.932-.022 1.997.237.087.108-.824.13-1.519.044-1.519-.065 0-.195.651-.281 1.432m1.814 14.432c0 .39.043.412.324.195.173-.152.324-.347.324-.455s-.151-.196-.324-.196c-.194 0-.324.196-.324.456m-1.728-.043c0 .13.108.282.216.347.13.065.216-.022.216-.195 0-.196-.086-.348-.216-.348-.108 0-.216.087-.216.196m.972.021q-.162.294.065.39c.151.044.26.218.26.392 0 .173.107.303.215.303.13 0 .216.109.216.24 0 .629 3.046 4.274 4.342 5.208.345.238.626.412.626.368s-.497-.607-1.102-1.258c-.604-.651-1.684-1.975-2.375-2.93s-1.383-1.866-1.534-2.04a2.7 2.7 0 0 1-.41-.651c-.108-.26-.152-.26-.303-.022m-.432 1.129c.087.282.367.846.627 1.258.28.413.67 1.042.864 1.39.475.759 2.635 3.146 3.24 3.602.431.282.431.282.129-.109-.173-.238-.82-1.02-1.426-1.736-1.468-1.736-3.11-4.123-3.11-4.535 0-.196-.108-.348-.237-.348-.13 0-.173.196-.087.478m-.756 6.25c0 .108.108.217.216.217.13 0 .216-.109.216-.217 0-.13-.086-.217-.216-.217a.217.217 0 0 0-.216.217m6.372.651c-.065.108-.022.217.086.217.13 0 .238-.109.238-.217 0-.13-.043-.217-.087-.217-.064 0-.172.087-.237.217m-4.212 1.28c0 .13.108.239.238.239.108 0 .15.087.086.217-.065.109-.021.217.087.217.345 0 .28-.347-.087-.651-.216-.195-.324-.195-.324-.022m-.108 2.192c.065.109.173.217.238.217.043 0 .086-.108.086-.217 0-.13-.108-.217-.237-.217-.108 0-.152.087-.087.217m-1.577 2.366c-.518.434-.626.716-.194.542.238-.087.907-.955.734-.955-.043 0-.302.174-.54.413m-5.442-15.061c0 .173.108.325.216.325.367 0 .021.478-1.836 2.496-1.988 2.17-3.262 3.147-4.622 3.494-.908.217-.93.239-.39.39.843.196 2.528-.737 4.018-2.213 2.311-2.344 3.737-4.188 3.305-4.34-.151-.044-.216-.174-.13-.282.065-.109-.043-.196-.216-.196a.34.34 0 0 0-.346.326"/><path fill="#5d89b4" d="M34.626 74.761c-.087.065-.151.239-.151.37 0 .13.108.108.259-.044.13-.13.194-.304.15-.37-.064-.064-.193-.043-.258.044m1.469.695c-.93 1.323-3.65 4.166-4.601 4.796-.54.347-.886.65-.778.65.454 0 2.182-1.28 3.11-2.3 1.275-1.389 3.09-3.776 2.873-3.776-.086 0-.367.282-.605.63m-1.792 3.884c-1.231 1.476-1.34 1.628-.41.673 1.058-1.107 2.224-2.583 2.051-2.583-.043 0-.777.868-1.641 1.91m-2.203 2.018c0 .109.108.152.216.087.13-.065.216-.173.216-.238 0-.044-.087-.087-.216-.087-.108 0-.216.108-.216.238M9.636 64.496c0 .044.173.217.389.37.324.281.345.26.064-.088-.28-.347-.453-.455-.453-.282m7.387 18.924c.216.217.432.347.475.282.065-.065-.108-.239-.367-.39-.454-.283-.454-.26-.108.108m51.254-9.896c-.216.239-.346.478-.281.543s.28-.087.497-.326.345-.477.28-.542-.28.087-.496.325M57.261 83.29c-.216.239-.302.434-.172.434.108 0 .388-.195.604-.434s.303-.434.173-.434c-.108 0-.389.195-.605.434M28.859 87.5c0 .043.173.217.389.369.324.282.345.26.064-.087s-.453-.456-.453-.282m1.425 1.997c.216.368.93 1.041 1.577 1.475.735.478.907.564.454.196-.41-.326-1.123-.999-1.577-1.476-.756-.803-.8-.825-.454-.195m3.91 3.146c.259.26.518.456.583.39.043-.043-.173-.281-.475-.498l-.583-.413z"/></svg>