<svg xmlns="http://www.w3.org/2000/svg" width="180" height="85" fill="none" viewBox="0 0 180 85"><path fill="#5d89b4" d="M89.44.265c-.232.173-.459.701-.532 1.193-.146.984-1.55 3.853-3.054 6.203-1.115 1.728-5.5 6.136-7.72 7.73-.828.587-1.543 1.22-1.57 1.394-.02.144.28.514.717.757 2.08 1.344 2.93 2.595 1.626 2.401-.695-.103-14.471 3.56-20.648 5.483-6.612 2.065-6.347 2.075-10.403.29-2.92-1.263-4.366-1.3-6.145-.085-1.022.706-1.356 1.16-1.623 2.155-.406 1.537.09 2.38 1.79 2.9l1.04.36-1.857.553c-4.982 1.45-9.247 1.467-11.939.061-1.535-.82-4.394-3.493-7.591-7.075-3.226-3.586-4.91-5.197-7.406-6.929-2.598-1.835-5.34-3.1-8.033-3.708-2.092-.459-2.357-.469-2.936.037-.603.473-.616.56-.243 1.236 1.774 3.4 2.177 4.673 3.163 10.382 2.776 15.768 2.76 16.475.134 23.778a259 259 0 0 0-2.976 8.67c-.662 2.062-1.637 4.64-2.21 5.708-1.215 2.394-1.278 2.62-.56 2.964.719.344 4.316-.157 6.805-.971 4.078-1.347 6.317-2.671 13.47-7.97 4.827-3.602 7.753-5.564 9.044-6.082 1.86-.76 1.889-.755 5.364-.239 2.606.387 3.888.726 5.131 1.325l1.656.808-1.052.11c-1.96.241-3.056.64-3.138 1.19-.043.29.337 1.323.874 2.29 1.86 3.413 2.633 6.575 2.93 11.738.08 1.461.267 2.79.415 2.99.937 1.264 8.14-1.394 18.07-6.664.258-.14 1.676.278 3.862 1.106 3.057 1.135 10.431 3.502 11.532 3.666.231.034-.065.434-.71.99-1.456 1.233-1.933 2.05-3.192 5.738-.61 1.714-1.458 3.837-1.91 4.687-.871 1.675-.873 2.09-.092 2.205.696.104 6.503-1.726 9.197-2.923 1.266-.552 2.366-.98 2.453-.967s.167.468.172 1.031c.024 1.631.805 4.143 1.297 4.217.81.12 6.31-4.418 9.11-7.523 1.488-1.643 2.826-3.071 2.955-3.141.157-.065 2.711.077 5.695.314 15.062 1.231 28.242-.213 42.847-4.67 2.14-.659 5.972-1.746 8.502-2.436 2.554-.656 6.591-1.92 9.001-2.805a582 582 0 0 1 6.411-2.302c5.568-2.013 9.639-4.308 11.058-6.286.889-1.2 1.31-3.238.83-3.99-.451-.747-1.771-.825-2.843-.185-2.02 1.238-3.483 1.524-6.517 1.221-1.866-.188-2.871-.397-2.841-.6.073-.492 5.022-3.514 6.382-3.904.71-.19 2.122-.335 3.158-.33 1.358.025 2-.116 2.479-.548 2.123-1.933 1.233-4.314-2.463-6.727-3.936-2.597-14.106-7.658-24.857-12.392-15.051-6.674-21.339-8.584-34.218-10.557l-7.004-1.07-2.885-3.092c-3.96-4.227-5.434-5.66-9.58-9.027C92.4.468 90.571-.572 89.44.265m2.067 2.23c.103.104.11.253.002.385-.217.264-1.265-.454-1.209-.83.03-.203.646.036 1.207.445m5.095 3.953c2.753 2.39 10.214 10.54 9.577 10.446-.145-.021-.928-.73-1.747-1.59-1.927-1.973-1.98-2.01-2.479-2.44a163 163 0 0 1-3.08-2.973c-1.475-1.432-2.908-2.74-3.151-2.894-.273-.159-.47-.425-.444-.598.021-.145-.131-.316-.334-.346s-.726-.492-1.15-1.029c-.452-.54-.872-.898-.972-.825-.266.198-.99-.709-.773-.972.246-.26 1.83.834 4.553 3.22m-6.2-2.697c-.021.145-.192.297-.374.33-.183.031-.302-.164-.263-.424.039-.261.21-.413.375-.33.165.084.284.28.262.424m1.287.901c-.013.087.457.512 1.051.896.59.413 1.06.838 1.042.954-.021.145.502.607 1.179 1.033.676.426 1.195.917 1.174 1.062-.026.174.16.32.391.354.232.034.417.18.392.354a.293.293 0 0 0 .246.333c.348.051 3.995 3.789 4.055 4.182.036.153.222.3.396.325.198.06.701.46 1.108.905.585.648.646.835.269.78-.289-.044-.504-.194-.487-.31.022-.145-.365-.528-.881-.84-.775-.56-1.768-1.447-6.023-5.482-.572-.529-1.124-.995-1.24-1.012-.087-.013-.454-.334-.783-.708-.33-.375-.93-.908-1.33-1.204s-.705-.637-.684-.782c.018-.116-.139-.257-.37-.292-.406-.06-.737-.82-.409-1.037.204-.177.943.229.904.49m-1.867.61c-.051.348-.686.638-.859.406-.173-.233.29-.756.638-.705a.26.26 0 0 1 .221.3m1.214 1.394c.3.37.609.682.696.695.55.082 8.507 7.684 8.838 8.444.172.44-2.273-1.433-2.556-1.919-.07-.128-.622-.595-1.237-1.041-.643-.45-1.137-.909-1.12-1.025s-.407-.445-.923-.758c-.516-.314-.928-.73-.898-.932s-.204-.415-.494-.459c-.319-.047-.595-.177-.632-.33-.077-.278-1.354-1.444-2.344-2.153-.775-.56-.924-1.35-.257-1.251.202.03.627.359.927.73m-2.279.993c.081.249.341.494.602.533.29.043 1.168.706 1.97 1.476.775.766 1.508 1.408 1.624 1.425.087.013.474.396.848.866s.848.865 1.05.896c.204.03.405.267.458.511.081.249.233.42.362.35s.368.114.536.375c.169.262.486.516.689.547.231.034.388.175.362.35-.021.144.13.315.334.345.173.025.623.388.98.767.359.378.527.64.366.527-2.129-1.41-2.85-1.932-3.749-2.657a35 35 0 0 0-2.387-1.864c-.717-.55-1.743-1.413-2.229-1.929a23 23 0 0 0-1.887-1.641c-1.015-.743-1.162-.942-.734-1.233.366-.272.7-.133.805.356m-.946 1.783c.04.33.175.617.324.61.443.006 1.479.604 1.44.865-.021.144.077.277.251.303.377.056 3.035 2.285 3.107 2.592a.49.49 0 0 0 .342.288c.32.047 2.63 2.225 2.463 2.348-.066.05-1.01-.565-2.075-1.373a52 52 0 0 0-2.969-2.128c-.565-.38-1.01-.771-.989-.916.018-.116-.168-.262-.4-.296-.231-.035-.412-.21-.39-.354.025-.174-.219-.329-.537-.376s-.562-.202-.536-.375c.021-.145-.173-.233-.417-.18-.25.08-.444-.007-.426-.123.021-.145-.005-.563-.036-.952-.076-.485.037-.646.355-.598.232.034.454.333.493.665m18.954 6.307c-.166.123-3.262-3.148-3.737-3.929-.189-.323.618.418 1.771 1.625 1.152 1.207 2.033 2.254 1.966 2.304M86.497 11.1c.086.22.853.837 1.686 1.405.833.567 1.558 1.267 1.64 1.515.048.274.233.42.42.359s.81.327 1.44.865c.597.562 1.34 1.145 1.612 1.304s.42.359.32.432c-.104.103-1.037-.39-2.027-1.1-.994-.68-2.025-1.306-2.253-1.37-.223-.092-.429-.3-.465-.454-.032-.182-.3-.37-.59-.413-.26-.038-.636-.301-.804-.563s-.457-.512-.63-.537c-.576-.115-1.55-1.325-1.296-1.643.326-.395.727-.306.947.2m-.926 2.052c.717.55 1.348 1.088 1.422 1.188.07.128.523.462 1.01.771.784.501 1.02 1.098.367.913-.773-.174-3.63-2.463-3.574-2.84.047-.317-.035-.36-.36-.17-.26.167-.55.124-.785-.088-.342-.287-.334-.345.081-.55l.507-.22c.029.004.614.446 1.332.996m16.133 2.782c.065.157-.014.293-.159.272-.174-.026-.297-.192-.275-.337.025-.174.1-.28.158-.272.087.013.215.15.276.337m-16.828-.696c1.204.86 1.57 1.387.845 1.28-.434-.065-3.173-1.951-3.328-2.3-.241-.568.365-.863.768-.388.255.274.993.887 1.715 1.408m-2.71.308c.882.634 1.268 1.224.718 1.142-.58-.086-2.249-1.4-2.197-1.747.03-.202.138-.334.275-.255.107.075.643.45 1.204.86m32.384 4.574c-.052.348-.45.436-.987.268-.116-.017-.171.152-.118.396.097.34.001.385-.329.218-.52-.284-.511-.342-.06-.985.4-.503 1.576-.447 1.494.103m3.378.768c-.12.811-.423.855-.874.107-.287-.457-.345-.465-.762-.054-.42.44-.449.437-.372-.085.078-.52.016-.5-.48.047-.704.754-1.277.225-.647-.628.334-.454.665-.493 1.824-.321 1.27.218 1.402.327 1.311.934m1.277-.224c-.039.26.048.273.314.076.499-.37 6.935.942 6.87 1.376-.008.058.04.331.092.576.089.398-.006.443-.386.209-.306-.134-.59-.413-.68-.604s-.524-.256-1.249-.156c-.999.147-1.198.088-1.646-.481-.349-.437-.597-.563-.718-.344-.084.165-.007.443.179.589.185.146.233.42.092.576-.175.18-.461.109-.877-.279-.366-.32-.58-.678-.476-.78.43-.499-.381-.62-.926-.138-1.053.909-1.787.267-1.154-1 .121-.218.608.09.565.38m-29.307-3.97c.337.524.213.565-.444.2-.247-.125-.42-.357-.399-.502.06-.405.511-.25.843.303m20.589 2.882c-.056.376-.991.888-1.192.651-.169-.262.593-1.006.97-.95a.263.263 0 0 1 .222.299m1.162.143c-.021.145-.247.466-.526.75-.658.642-.949.214-.341-.494.467-.552.932-.69.867-.256m1.084.28c-.117.189-.408.353-.677.372-.357.006-.431-.093-.267-.395.284-.52 1.195-.473.944.022m-3.924-.288c-.697.903-.883.964-1.382.535-.371-.292-.399-.504-.128-.73.478-.431 1.873-.254 1.51.195m18.862 2.743c-.108.132-.333.247-.506.22-.145-.02-.239-.183-.218-.327.026-.174.246-.26.506-.22.232.034.331.167.218.327m.971.44c-.372.507-1.279.639-1.21.176.056-.377.803-.828 1.209-.768.318.048.297.193.001.592m-23.161-3.5c-.021.145-.371.507-.774.832-.807.65-1.099.221-.44-.627.376-.536 1.283-.668 1.214-.205m1.013.358c-.121.219-.065.434.134.493.202.03.069.129-.271.226-.335.069-.712.013-.815-.091-.3-.37.263-1.174.756-1.101.26.039.35.23.196.473m22.952 3.706c-.437.349-.687.637-.571.655.116.017-.231.557-.773 1.216-.513.663-.906 1.315-.803 1.42.07.128.165.083.187-.062s.579-.713 1.253-1.263c.712-.605 1.094-.785.926-.454-.163.3-.377.742-.498.961s.236.006.81-.471c1.09-.963 1.748-.806.802.178-.77.803-.773 1.217.017.683.362-.242.691-.667.739-.985.043-.29.28-.49.512-.456.521.077.498.429-.034.823-.3.222-.283.313.064.365.261.038.496.25.528.433.052.244.343.08.701-.34 1.138-1.28 1.417-.766.488.901-.272.433-.151.422.522-.13.67-.521 1.068-.61 2.015-.41.662.128 1.253.334 1.327.434.103.104-.128.661-.446 1.206-.739 1.192-.757 1.308-.346 1.132.158-.065.583-.535.925-1.046.61-.915 1.73-1.282 1.245-.407-.243.438.46.69.814.299.217-.264 1.516-.041 1.758.32.074.1.006.356-.14.541-.175.181-.346.54-.439.764a.68.68 0 0 1-.512.456c-.696.104-4.844 3.511-6.577 5.414-2.867 3.154-5.083 6.316-4.968 7.132.066.75.066.75.427-.085.931-2.08 3.067-4.9 5.557-7.31 2.14-2.05 7.841-6.35 8.068-6.08.098.133-.119.396-.443.585-.834.438-.338.482.816.091.502-.191.953-.243 1.027-.143.202.237-.701.932-1.164.863-1.245-.185-6.26 3.478-8.902 6.518-2.714 3.117-4.88 6.938-4.643 8.127.089.398.052 1.043-.095 1.435-.151.422-.1 1.672.092 2.766.702 4.039 4.054 9.567 7.758 12.72 2.122 1.855 2.384 2.485.393.947-1.782-1.36-3.575-3.431-5.612-6.456q-3.166-4.686-3.178-9.081c-.014-2.695-.244-2.936-.437-.45-.225 3.31 1.149 7.005 4.25 11.43 1.66 2.377 5.917 6.59 6.786 6.72.232.033.388.175.363.349a.294.294 0 0 1-.333.246c-.145-.021-.311.102-.337.276-.026.173.226.27.562.201.485-.075.563-.005.354.408-.218.47-.218.47.26.039.271-.226.653-.406.856-.376.26.039.106.282-.364.656-.466.345-.634.675-.477.817.128.137.543-.068.864-.434.354-.391.769-.596.988-.475.219.122.873.1 1.487-.045 1.567-.388 1.616-.322.242.361-1.208.56-3.631 1.325-7.475 2.292-2.401.62-2.338.6-2.278.194.021-.144.503-.398 1.059-.552.585-.15 1.249-.436 1.49-.666.341-.305.49-.312.621.003.135.286.309.312.77-.004.324-.188.727-.306.888-.194.165.084.414.003.502-.191.15-.215-.027-.418-.461-.483-.372-.085-.704-.045-.721.07-.022.145-.44.172-.903.103-.662-.128-.897-.34-.935-.879-.071-.72-.422-.95-.751-.525-.108.131-.018.322.196.473.574.322.421.95-.364 1.454-.59.386-.648.377-.758-.083-.161-.704-.695-.695-.625.026.047.48-.028.587-.412.382-.277-.13-.902-.104-1.371.063-.498.163-1.007.205-1.139.097-.161-.113-.199-.059-.109.132.111.253-.109.339-.573.27-.405-.06-.77.004-.787.12-.052.347-1.181.18-1.337-.17-.061-.186-.343-.08-.655.229-.388.415-.599.443-.854.169-.226-.27-.38-.234-.572.063-.121.218-.47.374-.789.326-.318-.047-.683.017-.796.178-.391.445-.829.202-.573-.322.125-.248-.07-.129-.482.254-.554.539-.803.62-1.058.346-.51-.55-2.123.542-1.779 1.215.205.415.234.419.182-.032-.116-.61.568-.833 2.116-.692.642.066 1.378.086 1.623.034 1.812-.44 2.388-.533 3.154-.508.472.011 1.052-.11 1.277-.224.199-.148.506-.221.613-.146.141.05.564-.005.97-.152.378-.15.68-.195.663-.079s.232.035.56-.183c.333-.246.698-.31.772-.21.098.132.372.084.663-.08.419-.233.473-.196.404.267-.069.464-.513.664-1.977.95-1.065.196-2.197.442-2.537.54-1.505.368-5.031.79-5.179.591-.103-.104-.377-.056-.667.108-.52.308-4.308.899-5.177.77-.236-.006-.596.03-.787.12-.473.195-4.126.274-5.52.097-.613-.062-1.118-.048-1.135.068-.095.636-1.147-.053-1.456-.957-.188-.53-.307-.725-.238-.39.204 1.214.045 1.486-.779 1.453-.915-.018-1.545-.555-1.755-1.533-.138-.465-.192-.502-.244-.155-.067.256.08.663.281.9.609.682.355 1-.617.766-.517-.106-1.163-.143-1.407-.09-.245.052-.779.061-1.185 0-.401-.088-1.572-.174-2.599-.237-1.382-.058-1.953-.202-2.088-.488-.13-.315-.193-.295-.245.052-.051.348-.474.403-2.018.233-1.109-.105-2.243-.244-2.557-.32-.893-.163-1.68-.25-2.33-.258-.327.01-.886-.013-1.266-.04-.377-.056-1.627.587-2.882 1.465-3.725 2.553-7.98 5.087-10.296 6.133-2.856 1.292-6.458 2.621-6.581 2.455-.222-.3.56-.775 2.92-1.726 5.101-2.053 10.713-5.154 14.152-7.78 2.2-1.655 1.842-2.034-.407-.445-3.043 2.152-7.796 4.848-11.707 6.664-3.686 1.7-4.308 1.904-4.24 1.44.07-.462.622-.794 1.962-1.246.776-.24 2.868-1.172 4.686-2.056 6.536-3.141 10.763-5.886 10.648-6.909-.04-.331-.161-.704-.293-.813s-1.51.604-3.106 1.58c-3.196 1.981-8.056 4.602-10.754 5.829-1.806.797-1.835.792-1.736.126.074-.492.41-.767 1.153-.982 1.896-.606 10.15-4.558 11.958-5.768 1.413-.944 1.73-1.282 1.587-1.717-.167-.469-.407-.445-2.174.091-2.418.735-4.381.799-8.35.21-2.78-.414-3.06-.514-3.52-1.204-.263-.424-.39-.561-.276-.337.36.764-.165.715-3.249-.246-2.629-.834-3.124-1.085-3.575-1.833-.288-.457-.5-1.021-.499-1.228.026-.174-.122-.373-.324-.403-.522-.078-.864-1.756-.398-2.1.232-.173.12-.22-.33-.168-.63.054-.969.536-.418.618.173.026.26.246.22.506-.043.29.334 1.145.805 1.954l.878 1.462-.839-.332c-.446-.184-.805-.356-.83-.39.004-.028-.29-.634-.605-1.302-.311-.697-.477-1.373-.369-1.505.113-.16.06-.198-.132-.108-.44.171-.913-1.023-.555-1.444.146-.185.122-.218-.098-.133-.191.09-.524-.255-.75-.732-.506-1.17-1.488-2.53-1.54-2.182-.026.174.224.684.565 1.179.34.494.599.947.59 1.005-.017.116.519 1.29 1.849 4.091l.454.926-.665-.306a31 31 0 0 0-1.276-.574c-.364-.143-.623-.389-.602-.534.022-.144-.085-.22-.276-.13-.444.2-1.716-.402-1.656-.808.086-.579-1.808-3.168-2.092-2.855-.179.21-.398.089-.714-.372-.563-.794-.728-.878-.772-.381-.03.202.302.755.763 1.237.432.479.73.67.644.451-.12-.195-.065-.365.051-.347.319.047 1.62 2.045 1.45 2.197-.096.045-1.107-.52-2.267-1.283-1.188-.768-2.867-1.817-3.767-2.335-2.393-1.42-8.109-5.584-8.086-5.935.021-.145-.127-.345-.317-.462-.165-.083-.264-.01-.174.182.06.186-.36.035-.964-.291-.705-.43-1.039-.776-.913-1.024.117-.19.085-.372-.03-.389-.146-.021-.504-.4-.824-.832-.32-.433-.717-.758-.932-.701-.183.032-.59-.413-.889-.99-.27-.573-.544-1.117-.594-1.183-.02-.062-.265-.01-.498.163-.357.213-.526.158-.744-.17-.14-.257-.158-.527-.03-.596.104-.103.002-.207-.26-.246-.405-.06-.417.027-.108.93.337 1.116.793 1.835 1.14 1.886.145.022.109-.132-.064-.364-.419-.566-.27-1.165.25-1.087.232.034.41.238.375.47-.035.23.17.646.454.925s.42.565.29.635c-.103.103.086.22.434.271s.884.427 1.184.797l.547.703-.694-.31c-.389-.176-1.099-.578-1.619-.862-.486-.309-1.024-.478-1.181-.412-.474.196-1.862-1.815-1.532-2.24.146-.185.13-.276-.008-.149-.162.094-.566-.173-.92-.58l-.625-.774.5 1.021c.274.544.49 1.08.473 1.195-.017.116.172.44.43.685.413.417.38.441-.204.384q-.651-.097-.618-.624c.04-.468.011-.472-.173-.026-.101.28-.31.487-.397.474-.115-.017-.79-.857-1.5-1.85-.678-1.018-1.283-1.73-1.304-1.585s.237.598.586 1.034c.35.437.6.947.57 1.15-.027.173.142.435.356.585.52.285.438.835-.112.753-.231-.035-.552-.467-.72-.935-.35-1.029-1.073-1.935-1.146-1.443-.026.174.068.336.213.357.145.022.284.279.361.557.044.302.158.733.21.978.102.31-.027.38-.444.2-.335-.139-.662-.128-.779.062-.192.297-.739-.406-1.952-2.598-.373-.677-.747-1.146-.843-1.102-.07.079.33.967.917 2 .72 1.32.949 1.976.716 2.148-.366.272-1.052-.688-.949-1.383.03-.203-.06-.394-.233-.42-.319-.047-.383.98-.111 1.345.296.4.132.7-.556.953-.594.208-.618.174-.358-.379.213-.441.201-.561-.08-.455-.412.175-1.354-.852-1.268-1.431.03-.203-.147-.407-.379-.441-.231-.035-.4-.296-.356-.586.047-.318-.145-.82-.445-1.19-.477-.574-.461-.483.016.89.375 1.062.438 1.633.205 1.806-.599.443-.47.965.413 1.6l.854.63-.806.442c-1.791 1.095-3.284 2.175-7.277 5.339-6.347 5.063-8.051 6.17-12.143 7.812-1.83.763-5.21 1.592-5.407 1.326-.05-.066.45-.436 1.122-.78 4.622-2.42 6.389-3.548 11.196-7.212 2.998-2.247 5.456-4.042 5.534-3.971.05.066-.509.634-1.225 1.268-.74.6-1.274 1.2-1.208 1.359.04.124.003.178-.137.127-.108-.075-1.725 1.046-3.563 2.46-1.834 1.383-4.665 3.3-6.305 4.18-1.645.91-3.008 1.714-3.017 1.772-.03.202 1.979-.564 3.922-1.489 2.516-1.194 5.23-2.921 8.511-5.481a719 719 0 0 1 5.71-4.359c2.562-1.898 2.945-2.285 2.503-2.498-.339-.11-.454-.334-.308-.52.18-.21.407-.146.852.246.626.566.962.498 1.06-.168.031-.203-.204-.415-.551-.467-.637-.094-.868-.336-1.814-2.133-.378-.648-.776-1.151-.934-1.086-.158.066.079.663.547 1.295.465.66.842 1.308.82 1.453-.069.463-.593.208-1.16-.557-.32-.432-.836-.746-1.164-.735-.322-.019-.492-.073-.355-.2.163-.095-.006-.357-.357-.586-.321-.226-.57-.736-.577-1.092-.006-.356-.108-.667-.253-.689-.492-.073-.633-2.313-.275-4.715.146-.985.15-1.812.006-1.834-.116-.017-.21-.179-.18-.382.026-.173.121-.218.224-.114.242.361.983-.239.878-.728-.053-.244.031-.41.205-.384.376.056.521 1.468.196 1.864-.141.157-.067.256.148.2.24-.024.466-.346.547-.689q.261-1.16.81-.678c.162.113.16.527.012.919-.42 1.032.14.85 1.025-.321.442-.585.664-1.085.52-1.106s-.214-.358-.153-.763c.068-.463.28-.698.542-.659.26.039.395.325.326.788-.06.406.038.745.182.767.174.026.32-.16.354-.391.035-.232.226-.322.445-.2.19.116.588.028.883-.165.299-.222.648-.377.822-.352.405.06.332.553-.08.729-.157.065-.353.39-.4.71-.044.289-.198.532-.372.506a.315.315 0 0 1-.247-.332c.026-.174-.16-.32-.391-.354-.29-.044-.477.224-.555.745-.155 1.043.067 1.342.653.985.357-.213.53-.187.682.19.18.382.238.39.555.053.429-.498.561-1.189.18-1.009-.187.061-.215-.15-.106-.489.248-.673.598-1.035.525-.543-.03.203.21.386.528.433.318.048.605-.087.64-.319.034-.231.27-.433.52-.514.306-.073.461-.316.41-.768-.07-.72.506-1.611.806-1.241.07.129.022.447-.137.72-.187.267-.314.722-.324.987-.014.293-.164.508-.31.486-.173-.026-.348.156-.382.387-.086.58.381.619.703.045.234-.379.326-.395.481-.046.11.253.012.712-.25 1.087-.305.457-.32.751-.122 1.017.296.4.362.35.622-1.002.077-.314.285-.52.48-.432.169.055.364-.064.398-.296.065-.434 1.083-.312 1.664.159.181.175.38.027.499-.37.232-.764.97-.95.854-.169-.12.81.172 1.032.693.517.316-.337.342-.511.132-.69-.21-.18-.168-.262.15-.215.666.1 1.249-.435.99-.888-.163-.29-.104-.489.22-.678.357-.213.431-.113.44.628.017.476-.1.873-.217.855-.115-.017-.312.31-.463.73-.156.45-.48 1.231-.735 1.755-.398.888-.403.917.047.48.279-.283.546-.687.577-.89s.216-.264.518-.1c.301.163.392.146.286-.136-.241-.568.32-1.757.813-1.684.203.03.486-.282.608-.708.258-.938.872-1.084.954-.243.036.36-.048.525-.205.384s-.244.052-.247.466c-.022.944.652 1.192.79.265.116-.781.552-.924.813-.293.11.253.264.217.44-.172.159-.272.181-.623.05-.732-.343-.287.656-1.825 1.044-1.65.36.172.052 1.044-.421 1.24-.282.106-.255.317.066.75.395.531.423.536.548-.304.078-.52.537-1.222 1.187-1.806.578-.506.958-1.07.897-1.257-.196-.473.11-.339.553.26.37.498.428.507.985.146.362-.242.6-.65.565-1.01-.044-.303.053-.555.168-.538.435.064.156 1.74-.33 2.022-.652.406-.769 1.188-.155 1.042.705-.162.421.95-.43 1.504-.595.415-.654.613-.475 1.202l.22.713.102-.695c.103-.487.24-.615.566-.419 1.119.64 1.986-1.214.993-2.1l-.548-.496.84-1.266c.488-.697 1.009-1.211 1.174-1.128s.505-.013.718-.248c.374-.329.373-.122.063 1.163-.33 1.43-.315 1.522.135 1.086.28-.284.55-.717.59-.978.081-.55 1.312-1.462 1.534-1.163.173.233 1.058-.346 1.118-.75.022-.145.334-.454.696-.696.823-.559.774-.033-.083.757-.346.333-.805 1.034-.966 1.513-.373.921-.95 1.22-.83.41.09-.608-.41-.624-.89.015-.367.478-.306.665.286.664.116.017.145.613.033 1.366-.091.815-.043 1.088.075.691.147-.392.386-.8.556-.953.167-.123.334-.453.373-.713s.422-.648.837-.852c.506-.221.76-.538.697-.903-.015-.298.19-.682.452-.85.295-.193.55-.51.584-.742.068-.463 1.472-1.94 1.82-1.889.434.065.137.671-.716 1.432-.475.403-.888.993-.935 1.311s-.27.818-.495 1.14c-.476.61-.276 1.053.29.634.599-.443.93-.276.632.33-.135.306-.144.571.03.597.55.082.87-1.084.377-1.542-.437-.449-.428-.507.215-1.447.835-1.237 1.067-1.202.657.157l-.312 1.107.732-.542c.864-.64 1.704-1.906 1.557-2.313-.2-.444-.734-.434-1.222.055-.35.363-.44.379-.422.056.034-.232.468-.76.967-1.129l.902-.694.243.953c.13.523.205 1.214.162 1.503-.104.695.442.806 1.038.184.412-.382.499-.37.703.046.221.506.338.316.41-.768.042-.674.78-1.66 1.92-2.555.807-.65 1.07-.226.336.523-.316.338-.808.857-1.124 1.194-.525.544-.53.573-.07.463.614-.145.575.322-.202 1.361-.304.458-.733.75-.893.636-.19-.116-.398.09-.459.495-.144.57-.066.64.437.449.31-.102.614-.352.645-.555.03-.203.293-.578.6-.858.421-.44.542-.452.717-.041.11.253.097.547-.016.708-.138.127-.055.169.17.054.564-.212 1.521-1.874 1.392-2.396-.053-.245.14-.542.401-.71.262-.168.454-.465.402-.71-.057-.215.281-.698.751-1.071.803-.62.865-.641.788-.12-.048.318-.315.722-.577.89-.552.333-.751 1.072-.317 1.137.174.026.251.303.204.622-.134.897.765.824 1.288-.104.532-.987.95-1.013.845-.112-.061.613-.065.641.19.117.62-1.18 1.132-1.636 1.452-1.204.247.332.188.53-.316.93-.37.3-.69.666-.75.864-.833 2.42-.82 2.334-.271 1.824.308-.28.58-.713.623-1.002.038-.26.297-.607.559-.775s.52-.515.56-.775c.14-.748 1.322-1.727 1.784-1.451.49.28 1.788-.681 1.892-1.376s-.344-.672-1.135.068c-.654.613-1.603.827-1.103.25a.437.437 0 0 0-.092-.575c-.235-.213-.21-.386.096-.844.25-.288.553-.54.698-.518.406.06.287.457-.178.802-.2.148-.321.367-.247.467.222.299 1.126-.01 1.186-.416.09-.608.671-.729 1.079-.283.304.34.395.325.468-.167.1-.666 1.251-2.24 1.599-2.19.405.061-.004 1.42-.464 1.53-.336.068-.462.316-.394.858.026.418-.05.733-.195.711-.145-.021-.557.361-.9.872-.496.755-.555.953-.23 1.15.438.242 1.212-.383 1.016-.855-.066-.158.264-.583.788-.919.914-.574 1.834-.793 1.07-.226-.234.173-.439.557-.482.846-.12.81.736.228 1.118-.751.152-.421.425-1.061.572-1.454.302-.635.244-.644-.61.117-1.02.884-1.513 1.018-1.414.352.065-.434 2.181-1.925 2.644-1.856.174.026.26.246.225.477-.09.608.18.59.904-.102.682-.609.852-.554.892.37-.018.322-.144.57-.347.54-.666-.1-1.743.776-1.618 1.327.077.278.128.73.127.936.024.24.134.493.3.577.33.168 1.723-1.637 1.472-1.94-.218-.329.545-1.28.863-1.026.127.137.1.517-.047.91-.415 1.003-.096.844.76-.331.634-.882.727-1.105.422-1.446-.25-.304-.433-.272-.696.103-.726.898-.737-.02-.052-1.043.601-.858.697-.902.73-.335 0 1.006 1.08.9 1.712-.16.309-.487.692-.874.837-.852.405.06.306.726-.126 1.046-.2.148-.48.639-.636 1.09-.156.45-.502.99-.773 1.216-.474.403-.718 1.047-.4 1.094.261.039 1.268-.758 1.349-1.101.224-.914.3-1.02.56-.982.174.026.25.303.203.622-.047.318.117.609.349.643s.456-.08.477-.225c.026-.173-.073-.306-.246-.332-.145-.022-.177-.204-.056-.423.121-.218.102-.487-.03-.596-.292-.22 1.095-2.382 1.471-2.326.348.052-.033 1.416-.498 1.76-.466.346-.28 1.083.271.958.365-.064.393.147.098 1.139-.3 1.02-.293 1.17.032.774.246-.26.352-.57.278-.669-.07-.129.292-.37.798-.591.54-.246.98-.624 1.024-.913.038-.26.306-.665.543-.866.674-.551.331-1.43-.355-1-.257.14-.458.494-.414.797.03.389-.16.479-.686.43-.761-.054-.941-.436-.373-.676.191-.09.3-.43.266-.79-.076-.484-.039-.538.12-.218.185.353.334.345.846-.111.745-.63 1.101-.636 1.007.001-.04.26.093.37.313.284.253-.11.269-.02.101.31-.196.326-.155.45.085.427.216-.056.466-.345.58-.712.11-.34.35-.57.516-.486.198.06.645.037 1.04-.023.393-.06.778-.062.823.034.201.237-2.272 1.94-2.706 1.876-.203-.03-.56.183-.777.447-.56.774-.516 1.077.072.513.482-.46.511-.456.612.062.068.335-.1.872-.463 1.321-.475.61-.543.866-.315 1.522l.269.78.46-.702c.233-.38.386-1.007.35-1.368-.077-.87.98-2.399 1.558-2.313.261.039.81-.471 1.266-1.143.526-.75 1.004-1.182 1.285-1.081.228.063.737.02 1.115-.13.564-.213.734-.158.905.282.216.535.274.544.608.09.213-.235.595-.415.855-.376.348.052.364.143.056.423-.445.407-.413 1.98.031 1.78.158-.066.246-.26.152-.422-.176-.41.731-1.933 1.108-1.877.144.022.146.407-.043.882s-.187.86-.042.881c.377.056.93-.483 1.179-1.156.109-.34.404-.532.752-.48.318.047.77-.004.994-.119.664-.286.774.174.137.671-.541.453-.6 1.45-.108 1.523.29.043.896-1.05.883-1.555-.031-.39 1.206-.946 1.428-.646.103.104-.044.496-.278.876-.539.837-.629 1.238-.252 1.294.145.021.612-.53 1.038-1.207.455-.672.909-1.137 1.065-.996.186.146.152.378-.107.724-.447.614-.549 1.102-.201 1.153.116.018.412-.382.63-.853.251-.495.638-.91.937-.926.447-.022.463.07.103.696-.602 1.065-.566 1.218.297.991.436-.142.793-.355.81-.471.022-.145-.094-.162-.281-.101-.191.09-.268-.188-.208-.593s.257-.731.402-.71c.174.026.255.275.216.535-.056.377.027.418.326.197.932-.69.974-.181.125 1.35-.117.19-.085.372.089.397.145.022.537-.423.854-.967.468-.76.768-.981 1.38-.92.551.082.711.195.553.467-.561.982-.773 1.809-.486 1.674.191-.09.487-.49.668-.907.277-.67 1.092-1.376 1.589-1.332.087.013.238.39.318.846l.169.854.447-.615c.225-.321.558-.568.703-.546.434.064.205 1.007-.424 1.653-.283.313-.413.59-.239.615.144.022.398-.088.51-.25.142-.156.411-.175.63-.054.272.16.356-.006.331-.631-.034-.567.137-.926.495-1.14.519-.307.544-.274.241.569-.286.727-.283.905.123.965.26.039.589-.179.723-.484.398-.888.823-.559.478.366-.428 1.09-.221 1.092.746-.037.825-.972 1.505-1.167 1.082-.312-.427.883.206 1.007.691.132.218-.47.564-.804.708-.782.377.055.359.378-.122 1.224-.243.437-.261.76-.035 1.03.378.441.723.315.597-.236-.088-.398 1.517-1.639 1.739-1.34.069.129-.136.513-.457.88-.32.366-.567.832-.535 1.014.027.212.422-.055.885-.578.976-1.187 1.216-1.21.783-.09-.185.445-.245.85-.158.863s.687-.637 1.337-1.428c.651-.791 1.366-1.425 1.598-1.39.29.043.173.233-.368.685m2.874-.017c.405.06.363.143-.144.57-.541.452-1.419.381-1.871-.16-.226-.27.812-.885 1.167-.684.219.121.616.24.848.274m-50.492-6.022c.54.346.478.367-.452.05-1.248-.362-2.44-1.308-2.123-1.646.109-.132.584.057 1.058.453s1.137.909 1.517 1.143m21.51 2.456c-.503.398-.843.496-.933.305-.086-.22-.293-.221-.601.058-.545.482-1.071.433-.753-.111.167-.33.114-.368-.397-.118-.344.126-.644.348-.661.463-.022.145-.18.21-.353.185-.174-.026-.23-.242-.08-.456.171-.36.114-.368-.384-.205-.311.102-.702.34-.81.471-.359.42-.863.227-.587-.235.322-.573-.034-.567-.928.07-.856.582-1.24.377-.652-.393.371-.507 1.366-.626 5.462-.698 2.55-.035 2.55-.035 1.677.664m31.259 4.378c.157-.066.757.082 1.373.322.591.206 1.826.656 2.723.996.872.307 1.582.708 1.556.882s-.324.189-.713.013c-.392-.147-.802-.179-.915-.018-.108.132-.419.234-.651.2-.318-.048-.35-.23-.17-.647.256-.524.227-.529-.404-.268-.565.212-.738.187-.782-.116-.114-.43-.887-.605-.947-.2-.022.145-.246.26-.478.225-.231-.034-.404-.267-.365-.527.06-.406-.027-.418-.418-.18-.419.233-.593.207-.992-.296-.6-.74-.295-1.198.427-.676.292.22.627.36.756.29M84.33 17.317c.465.454.46.483-.27.226-.422-.151-.744-.377-.722-.521.056-.377.423-.263.992.295m-5.282-.311c.06.186-.06.198-.278.077-.491-.28-.548-.496-.142-.436a.56.56 0 0 1 .42.359m16.614 2.734c-.06.406-.75.658-1.316.485-.28-.1-.53-.02-.555.154-.03.203-.246.26-.465.138-.214-.15-.484-.13-.592.001-.359.42-.83.203-.636-.301.21-.62 3.654-1.085 3.564-.477m46.223 7.252c-.284.52-1.195.474-1.117-.047.043-.29.329-.425.677-.373.347.051.529.226.44.42m1.161.557a.45.45 0 0 1-.499.37.45.45 0 0 1-.37-.499.45.45 0 0 1 .499-.37.45.45 0 0 1 .37.5m-51.615-7.224c-.221.292-.512.456-.673.344-.128-.138-.497-.045-.8.206-.528.365-.557.361-.662-.128-.1-.518-.163-.497-.721.07-.45.437-.665.494-.714.22-.072-.307-.284-.279-.878.136-.628.44-.777.447-.725.1.081-.55.867-1.055 1.575-1.04.265.01.712-.012.961-.093.493-.134 2.425-.38 2.805-.352.12-.012.053.244-.168.537m56.057 8.802c2.309.993 2.772 1.27 2.464 1.549-.517.485-.918.396-.832-.183.056-.376-.138-.464-.821-.447-.539.038-.878-.071-.852-.245s-.226-.27-.562-.202c-.365.064-.588-.028-.558-.23.031-.203-.192-.296-.557-.232-.365.065-.588-.028-.558-.23.026-.174-.309-.312-.747-.348-.588-.028-.803-.178-.834-.568-.026-.418.107-.516.495-.34.277.13 1.776.796 3.362 1.476m-61.963-7.904c-.74.6-1.126.602-1.035-.006.039-.26.371-.507.77-.596.92-.218 1.005.001.265.602m65.891 9.76c-.048.318-.991.888-1.139.688-.251-.303.366-1.07.772-1.01.232.035.388.176.367.321m-67.523-9.737c-.021.145-.263.376-.524.544-.329.217-.474.196-.44-.036.035-.232-.139-.257-.583-.057-.32.16-.705.162-.803.029-.271-.366.67-.73 1.257-.494.252.096.493.073.514-.072.022-.144.184-.239.329-.217.173.026.272.159.25.303m61.64 9.484c-.582.327-.665.492-.347.54.232.034.725-.1 1.078-.284.678-.373 1.365-.418.866-.049-.195.12-1.017.47-1.897.813-2.033.734-3.678 1.643-6.089 3.326-2.187 1.569-2.326 1.312-.209-.386 1.51-1.195 4.455-2.888 5.367-3.049.307-.072.486-.282.421-.44-.2-.444.549-1.102 1.157-1.012.347.052.268.188-.347.54m8.213 1.101c.839.332.932.701.227.863-.244.052-.434-.065-.413-.21.026-.173-.222-.299-.553-.26-.332.04-.584-.056-.562-.201s-.164-.29-.396-.325c-.231-.035-.413-.21-.387-.383.03-.203.3-.222.688-.046.33.167.946.407 1.396.562m-5.581-.888c-.013.087-.15.214-.337.275-.157.066-.294-.014-.272-.158.026-.174.192-.297.337-.276.174.026.281.101.272.16m.724.906c-.506.221-.683.017-.362-.35.112-.16.353-.183.513-.07q.236.21-.151.42m-68.126-9.855c-.25.289-.55.51-.666.493-.376-.056-.14-.849.287-.933.71-.191.813-.087.379.44m76.493 11.513c6.583 3.108 7.025 3.322 6.481 3.596-.548.303-.618 1.565-.096 1.642.174.026.114.225-.123.426-.241.23-.367.478-.268.611.069.129.618-.174 1.163-.656.745-.629.969-.743.942-.363-.043.29-.193.504-.367.478-.145-.021-.316.131-.35.363s-.355.598-.737.778c-.416.204-.603.472-.522.721.115.224-.049.525-.402.71-.348.155-.461.316-.287.342.202.03.456-.08.564-.212.113-.161.653-.407 1.155-.598.933-.305.933-.305.726.492-.263.967.534 1.382 1.16.557.334-.453.326-.602-.169-.853-.52-.285-.483-.338.611-1.122.628-.44 1.134-.66 1.108-.487-.021.145-.167.33-.329.425-.569.24-.426 1.268.211 1.362.517.107.513.136.04.332-.311.102-.752.48-1.007.797-.375.536-.38.565.111.253.324-.188.531-.187.505-.014-.026.174-.205.384-.363.45-.535.216.362 1.148 1.074 1.136.444.006.676-.166.724-.485.014-.294.122-.425.283-.313.132.109.721-.07 1.331-.394 1.321-.72 1.528-.72 1.185-.001-.21.413-.165.508.171.44.303-.044.401.089.354.407-.195.71.454.926.789.265.139-.334.467-.552.67-.521.261.038.322.225.196.472-.15.215-.122.426.051.452.174.026.369-.093.457-.287.117-.19.324-.189.506-.014.292.221.18.382-.402.71-.419.233-1.008.412-1.269.373-1.448-.215-8.615 1.797-12.131 3.346-3.553 1.602-6.413 4.314-6.719 6.369-.164 1.1.144 1.619 1.42 2.193 1.359.616 2.893.252 4.98-1.242 1.027-.735 2.053-1.263 2.28-1.2.712.194 1.134.139 1.028-.143-.065-.158.081-.343.354-.391.859-.198 1.102-.044.623.388-.407.354-.387.416.118.402.332-.04.627-.232.661-.464.039-.26.479-.432 1.249-.435 1.309-.043 1.474.041 1.111.49-.142.156-.44.171-.692.075-.276-.13-.691-.132-.944-.022-.348.155-.188.268.623.388.898.134 1.176.057 1.361-.39.134-.305.433-.527.694-.488.347.052.364.143.064.365-.499.37-.584.741-.178.802.173.025.44-.172.57-.448.28-.491.774-.832 1.209-.767.145.021.057.215-.181.417-.341.304-.354.39-.035.438.782.116 4.408-1.18 5.684-1.996 1.48-.993 1.855-.73 1.225.922-.244.644-.849 1.324-1.734 1.902-.756.51-1.31 1.048-1.245 1.206.095.162.007.356-.184.446-.158.065-.286-.072-.251-.304.06-.405-.027-.418-.562-.202-.444.2-.528.366-.289.55.362.349-.161.685-2.809 1.771-1.955.804-2.258.848-1.866.403.15-.214.039-.26-.417-.18-.332.04-.626.026-.608-.09.03-.203 1.924-.602 2.23-.468.306.135 2.722-.986 2.769-1.304.061-.405-.06-.394-1.255.08-1.104.457-6.565 1.746-10.374 2.482-2.74.51-5.744.804-7.349.654-.646-.037-1.607.057-2.105.22-1.747.598-6.071.814-8.591.44-2.664-.396-4.692-1.29-6.53-2.864-1.652-1.43-1.482-1.581.578-.506 1.045.54 2.867 1.225 4.013 1.484 2.344.555 6.878.726 8.333.29.527-.157.656-.227.324-.188-.331.04-2.19 0-4.127-.11-4.02-.242-6.711-1.056-9.384-2.785-1.7-1.11-4.175-4.17-4.98-6.124-.759-1.859-.562-2.392.211-.62 1.083 2.469 3.756 4.996 6.721 6.354 1.578.737 5.935 2.095 6.168 1.922.095-.045-1.02-.506-2.454-1.015-3.517-1.233-5.321-2.24-7.211-4.06-1.714-1.615-2.67-3.148-3.119-4.901-.434-1.663.239-3.604 2.206-6.477 1.812-2.63 3.505-4.066 7.206-6.06a344 344 0 0 0 3.286-1.79c.706-.369 1.332-.601 1.402-.473.103.104-.359.42-.989.682-1.889.755-1.123.78.886.013 1.004-.383 2.095-.754 2.369-.802.34-.097.494-.34.434-.734-.035-.36.062-.612.236-.586.144.021.242.361.19.708-.077.521-.543.867-1.896 1.405-2.117.899-4.812 2.303-4.851 2.564-.017.115-.299.221-.66.257-.36.035-.564.212-.478.431.061.187-.01.265-.18.21-.475-.188-1.338.837-1.113 1.315.201.444.711.194 1.695-.843.766-.774 4.522-2.346 5.242-2.21.111.046-.159.272-.579.506-.423.262-.665.493-.549.51s-.438.556-1.216 1.21c-1.219 1.032-3.166 3.376-3.244 3.897-.068.463.685-.224 1.308-1.226.764-1.159 4.184-4.053 3.653-3.067-.247.466-.19.475.538-.038.466-.345.782-.683.708-.783s-.265-.01-.444.2-.395.267-.493.134c-.099-.133.089-.4.438-.556.324-.188.651-.199.716-.041.066.157 1.04-.023 2.126-.365 2.021-.647 4.989-1.3 5.141-1.13.148.2-.823.559-1.97.713-.663.08-1.626.38-2.165.626-.511.25-1.238.555-1.586.71-2.412 1.092-4.801 3.222-6.484 5.783-1.032 1.563-1.192 2.042-1.579 4.647-.388 2.606-.37 3.082.155 4.728 1.611 5.091 6.831 8.204 9.731 5.824l.774-.624-1.059.552c-2.887 1.495-7.392-1.453-8.825-5.749-1.083-3.267-.694-6.08 1.257-9.251.937-1.518 4.505-5.011 5.026-4.934.203.03.432-.114.549-.303.083-.165.27-.226.369-.093s-.156.45-.58.712c-.424.263-.707.576-.609.709.128.137.46.098.759-.124 1.005-.59 4.52-1.932 5.361-2.014.87-.078 2.094-.547 2.888-1.11.366-.27.482-.254.526.049.053.244-.268.61-.684.815-.419.234-1.192.652-1.678.934-.772.418-.955.45-1.135.069-.126-.345-.475-.19-1.573.624-1.272.994-1.31 1.048-.472.788.502-.192 1.108-.486 1.345-.688.417-.411 1.529-.128 1.456.364-.022.145.119.195.277.13.191-.09.274-.255.209-.413-.07-.128.301-.428.774-.624.477-.225 1.263-.73 1.795-1.124.869-.67 1.516-.84 1.447-.377-.017.116-.201.355-.433.527-.3.222-.284.313.122.374.26.038.384.205.271.365-.137.128-.58.121-1.002-.03-.562-.202-.927-.138-1.43.26-.683.61-.683.61.885.221.92-.218.336.523-.626.824l-1.02.292.894-.044c.477-.018 1.228-.291 1.631-.616.832-.616 1.993-.858 1.928-.424-.026.174-.503.399-1.03.557l-1.016.264 1.163.143c.931.109 1.52-.07 2.629-.763.786-.505 1.364-1.01 1.266-1.144-.247-.332-1.724.247-1.793.71-.03.203-.259.346-.491.312s-.421-.151-.4-.296c.048-.319 1.419-1.18 2.062-1.321.671-.137.492-.726-.261-.838-.289-.043-.615-.239-.68-.397-.111-.253-.285-.279-.58-.086s-.435.143-.499-.222a.5.5 0 0 0-.57-.35c-.245.052-.492-.074-.582-.265-.09-.19-.4-.296-.732-.256-.336.068-.559-.024-.533-.198s-.213-.357-.532-.404c-.318-.048-.557-.231-.531-.405.025-.174-.227-.27-.563-.202-.335.069-.587-.028-.561-.202.025-.173-.214-.357-.532-.404s-.558-.23-.532-.405c.026-.173.295-.192.683-.016a55 55 0 0 0 1.854.867m-9.652-1.375c-.3.222-.611.323-.714.22-.246-.333.295-.785.816-.708.434.065.43.094-.102.488m-67.976-10.07c-.047.319-.775.832-1.065.789-.144-.021-.077-.278.144-.57.405-.532.99-.682.92-.219m3.76.589c-.021.144-.263.375-.524.543-.524.337-.565.212-.2-.444.246-.466.79-.534.724-.1m67.19 9.982c-.039.26-.958 1.07-1.161 1.04-.058-.008.018-.322.165-.715.215-.648 1.087-.933.996-.325m2.117.492c-.242.437-.785.505-.725.1.048-.319.413-.59.703-.547.145.022.144.228.022.447m-74.247-11.09c-.009.058-.545.481-1.235.94-.694.49-1.072.64-.938.335.33-.631.21-.62-1.317.1-.73.335-1.467.906-1.668 1.261-.205.384-.446.614-.52.515-.045-.096.073-.492.282-.905.444-.792 2.042-1.59 3.297-1.67.448-.022 1.008-.206 1.212-.382.341-.305.921-.426.887-.194m3.42.893c-.014.087-.226.321-.488.49-.566.418-.899.073-.383-.412.404-.325.918-.397.87-.078m64.288 9.58c-.021.145-.914.575-2.018 1.032-1.071.433-3.16 1.543-4.631 2.478-1.5.931-2.854 1.677-3.028 1.65-.202-.03-.302.045-.199.149.069.128-.556.953-1.402 1.862s-1.843 2.241-2.245 2.951c-.816 1.506-1.449 2.181-.883.964.667-1.499 2.187-3.758 3.354-5.035 1.374-1.482 1.644-2.3.412-1.181-2.389 2.13-4.226 5.526-4.728 8.706-.437 2.539-.841 2.271-.487-.31.388-2.811 2.737-6.664 6.051-9.84.038-.054.315.076.554.26.4.296.835.153 2.302-.753 3.695-2.35 7.102-3.768 6.948-2.932m8.101 1.263c-.052.348-.687.638-.859.405-.173-.233.29-.756.637-.704a.263.263 0 0 1 .222.3m-6.708-.67c-.022.144-.321.366-.666.492-.593.208-.622.203-.193-.295.471-.58.932-.69.859-.198m4.007.92c-.022.145-1.255.672-2.744 1.13-1.513.427-2.82.854-2.945.895-.153.036-.231-.035-.21-.18.022-.144.566-.418 1.242-.584.651-.2 1.531-.542 1.925-.809.429-.291.922-.425 1.083-.312.165.083.514-.072.76-.331.4-.503.975-.388.889.19m1.136.524c-.433.32-.766-.025-.412-.417.112-.16.353-.184.514-.071.156.142.13.315-.102.488m1.538.406c-.113.16-.366.27-.54.245s-.148-.2.122-.426c.479-.431.809-.264.418.18m1.635-.053c-.021.145-.25.288-.499.37-.455.08-.557-.231-.158-.527.304-.25.705-.162.657.157m1.41.475c-.056.377-.442.586-.706.369s.074-.699.48-.639c.144.022.243.155.226.27m-4.098-.312c-.021.144-.408.353-.872.491-.867.256-.867.256-.226-.27.674-.55 1.158-.627 1.098-.221m5.016 1.307c-.333.246-.529-.227-.213-.564.222-.293.279-.284.348.051.028.212-.036.439-.135.513M72.882 23.634c-.242.23-.49.312-.54.245-.172-.232.315-.722.662-.67.174.025.148.2-.122.425m78.484 11.66c-.034.232-.18.418-.354.392-.145-.022-.259-.246-.225-.477.035-.232.21-.413.354-.392.174.026.26.246.225.478m4.634.689c-.034.232-.342.511-.687.638-.469.167-.613.145-.566-.173.06-.406.709-.99 1.086-.934.116.018.202.237.167.469m3.642.393c-.109.132-.362.242-.507.22-.173-.025-.181-.174-.072-.306a.6.6 0 0 1 .506-.22c.174.025.185.145.073.306M75.571 24.862c-.427.676-.937.926-.864.434.047-.319 1.13-1.43 1.253-1.264.05.067-.122.426-.39.83m85.621 12.04c-.022.145-.246.26-.507.22-.232-.034-.326-.196-.217-.327a.56.56 0 0 1 .506-.221c.145.022.243.154.218.328m4.464.634c.065.157.614.446 1.176.648.591.206 1.616.684 2.296 1.08a317 317 0 0 0 3.546 2.036c3.413 1.928 4.745 2.925 5.166 3.875.565 1.178.112 1.437-3.041 1.737-5.618.556-10.567 2.987-13.545 6.687-2.435 3.04-4.416 4.018-5.402 2.688-2.338-3.187 11.346-10.208 20.411-10.459 1.131-.04 1.301-.191.808-.856-.271-.366-.436-.45-.471-.218a.34.34 0 0 0 .296.399c.609.09-.114.367-.817.322-.493-.073-.62-.21-.448-.57.101-.28.078-.727-.115-1.022-.332-.553-2.085-1.7-2.351-1.504-.096.045-.475-.188-.838-.538-.362-.35-.858-.601-1.04-.569-.216.057-.455-.127-.503-.4-.283-1.285-1.651-.245-1.468 1.113.111.845-.298 1.406-.993 1.302-.492-.073-.367-.912.155-1.042.211-.027.438-.556.537-1.222.164-1.1-.103-1.495-1.274-1.787-.169-.054-.412-.209-.511-.342s-.491-.28-.868-.336c-.347-.052-.649-.215-.623-.388.022-.145-.251-.304-.578-.293-.352-.023-.678-.22-.705-.43-.085-.428 1.028-.35 1.2.089m-26.809-3.45c-.692.873-1.761 1.69-1.938 1.487-.069-.129.356-.598.992-1.096 1.268-.965 1.459-1.055.946-.391M71.095 24.7c-.337.276-.656.435-.73.335s.147-.392.484-.667c.337-.276.656-.435.73-.336.075.1-.147.393-.484.668m77.225 11.177c-.453.259-1.013.442-1.245.407-.232-.034.01-.264.521-.514 1.241-.585 1.791-.503.724.107m11.968 1.926c-.15.215-.412.383-.644.349s-.293-.221-.167-.469c.15-.214.412-.383.644-.348.231.034.293.22.167.468m-90.872-12.76c-.803.827-1.21.974-.817.322.121-.219.093-.43-.08-.456-.174-.026-.182-.175-.04-.331.18-.21.266-.197.406.06.106.282.255.275.596-.03.75-.658.706-.368-.065.434m84.508 11.963c-.108.132-.362.242-.506.22-.174-.025-.182-.174-.073-.306a.6.6 0 0 1 .506-.22c.174.025.186.145.073.306M4.808 15.62c.197.266.691.724 1.149 1.029.462.276 1.286 1.108 1.832 1.81a64 64 0 0 0 2.407 2.725c.77.795 1.684 1.818 2.037 2.226 1.172 1.476 4.101 4.071 4.236 3.765.205-.383 2.957 2.008 3.461 3 .209.386.485.723.58.678.124-.04.256.068.288.25.101.518-.258.346-1.156-.586-.46-.483-.943-.82-1.043-.747-.129.07-.154.037-.054-.037.18-.21-.22-.714-1.158-1.563-.42-.358-.756-.497-.777-.352s.266.601.682.989c.387.383.546.702.373.676-.145-.021-.516-.313-.792-.65-.246-.332-1.309-1.348-2.36-2.244-3.535-3.1-8.734-8.546-9.636-10.041-.496-.843-.783-1.507-.638-1.486.145.022.405.268.569.558m2.284.162c.174.026.297.192.243.362-.084.165.25.51.687.753.47.217 1.163.735 1.55 1.117.42.359.83.597.93.523.128-.07.054-.17-.149-.2s-.272-.158-.164-.29-.419-.565-1.158-.97c-2.469-1.314-1.364-1.18 1.25.155 3.138 1.59 6.365 4.17 8.71 6.916a164 164 0 0 0 3.473 3.918c.913 1.023 1.72 1.972 1.727 2.12.105.49-.39.238-1.098-.577-6.225-7.108-10.277-11.113-11.098-10.968-.182.032.065.364.576.707 1.077.722 4.225 4.237 7.547 8.37 1.3 1.613 2.48 3.03 2.636 3.172s.218.329.089.398c-.233.173-.826-.418-2.19-2.19-.478-.573-.934-1.085-1.021-1.098-.174-.025-.622-.595-2.415-2.873-.867-1.135-4.572-4.88-5.553-5.648-1.085-.871-.968-.262.136.671.602.534 1.059 1.045 1.041 1.16-.017.117.415.595.963 1.09 1.072.959 1.17 1.092 2.117 2.09.54.554.555.645.116.61-.29-.044-.549-.29-.601-.534-.082-.248-.225-.477-.37-.498-.26-.04-1.62-1.247-3.028-2.729-.54-.553-2.154-2.036-3.596-3.285-2.996-2.546-3.453-3.058-2.424-2.61.392.148.872.308 1.074.338M152.39 37.37c-.109.132-.362.242-.507.22-.173-.025-.181-.175-.072-.306a.6.6 0 0 1 .506-.22c.174.025.185.145.073.306m14.629 2.144c-.051.347-.686.637-.859.405-.173-.233.29-.756.638-.705a.26.26 0 0 1 .221.3m-99.86-14.215c-.338.275-.753.48-.898.458-.173-.026-.019-.269.318-.544.337-.276.752-.48.897-.459.174.026.02.27-.318.545m4.966.442c-.109.131-.072.285.073.306.173.026.288.25.254.482-.035.232-.18.417-.355.391-.144-.021-.532.394-.845.91-.314.516-.73.927-.875.906-.492-.073-.26-.838.372-1.306.328-.218.62-.588.683-.816.21-.62.562-1.189.736-1.163.116.017.07.129-.043.29m78.185 12.474c-.423.262-.826.38-.9.28-.078-.07.23-.35.654-.613.424-.262.826-.38.904-.31.074.1-.234.38-.658.643m15.313 2.127c-.121.218-.549.51-.922.632-.536.216-.618.174-.397-.118.871-1.084 1.847-1.471 1.319-.514m-100.14-14.73c-.02.145-.312.309-.618.382-.332.039-.69.252-.81.47-.28.492-.84.468-.762-.053.03-.203.433-.527.935-.72.984-.445 1.312-.455 1.256-.079m4.634.689c-.051.347-.687.637-.859.404-.173-.232.29-.755.638-.704a.26.26 0 0 1 .221.3m-2.385.119c-.242.23-.49.311-.54.245-.173-.233.315-.723.662-.671.174.026.148.2-.122.425m2.737.702c-.126.248-.375.329-.507.22-.21-.178-.155-.348.12-.603.483-.46.742-.215.387.383m2.222.981c-.366.271-.524-.255-.215-.742.305-.458.305-.458.347.052.044.302-.032.616-.132.69m98.41 13.822c-.022.145-.321.366-.694.489-.598.236-.623.203-.222-.3.413-.59.993-.71.916-.19M65.57 27.223c-.266.197-.349.155-.302-.164.087-.579.523-.928.603-.472.057.215-.102.488-.301.636m-3.556-.174c-.637.498-1.176.743-1.213.59-.06-.394.814-1.093 1.248-1.028.174.026.34-.098.362-.242.026-.174.188-.268.39-.238.203.03-.184.446-.787.918m111.569 16.103c-.022.144-.263.375-.525.543-.391.238-.478.225-.426-.123.034-.231.164-.508.293-.577.304-.251.705-.162.658.157M69.868 27.98c-.022.144-.41.56-.888.992-.62.588-.807.65-.78.269.043-.29.348-.747.656-1.027.607-.502 1.068-.61 1.012-.234m-9.324-1.001c-.021.145-.245.26-.506.22-.232-.034-.326-.196-.218-.328a.56.56 0 0 1 .507-.22c.144.021.243.154.217.328m5.864 1.374c-.156.45-.623 1.002-.989 1.273l-.694.489.318-.545c.163-.3.34-.689.39-.83.31-.693.744-1.22 1.004-1.181.174.025.156.348-.029.794m74.094 10.328c-.012.087-.15.214-.336.275-.158.065-.294-.014-.273-.159.026-.173.192-.297.337-.275.174.026.281.1.272.159M63.38 27.814c-.034.232-.272.433-.52.515-.456.08-.548-.496-.116-.816.37-.3.7-.133.636.301M6.692 19.866c.2.444 2.523 2.742 6.066 5.99 1.61 1.511 2.763 2.718 2.56 2.688-.232-.034.53.611 1.706 1.467 2.038 1.427 2.874 2.172 2.382 2.099-.232-.034-4.072-2.676-6.204-4.265-.585-.442-2.197-1.747-3.59-2.93-2.262-1.904-2.592-2.278-3.051-3.767-.305-.933-.434-1.662-.26-1.636.145.021.326.196.391.354m4.367 1.092c1.43 1.337 2.669 2.557 3.533 3.514.436.449 1.045 1.131 1.403 1.51.358.378.527.64.353.614-.15.008-1.084-.87-2.085-1.907-.971-1.032-2.42-2.43-3.145-3.13-.75-.733-1.367-1.357-1.359-1.415.035-.232.36-.035 1.3.814M59.55 27.69c-.052.348-.687.638-.86.405s.29-.756.638-.704a.263.263 0 0 1 .222.3m108.871 16.323c-.012.087-.15.215-.336.276-.158.065-.294-.014-.273-.16.026-.173.192-.296.337-.275.174.026.281.101.272.16M57.468 28.356c-.428.292-.806.443-.904.31-.247-.333.622-1.003 1.144-.925.376.056.33.167-.24.615m4.828.777c-.069.463-1.324 1.342-1.522 1.076-.217-.329 1.05-1.886 1.314-1.67a.7.7 0 0 1 .208.594m-18.267-2.566c-.052.347-.687.637-.86.405-.172-.233.29-.756.638-.705a.26.26 0 0 1 .222.3m1.303.193c.061.187-.18.417-.525.544-.468.167-.623.41-.556.953.047.48-.05.732-.281.697-.174-.025-.264-.216-.147-.406.084-.165-.014-.505-.244-.746-.387-.383-.354-.408.085-.372.26.038.618-.175.752-.48.293-.578.691-.667.916-.19m10.328 2.008c-.533.601-1.126.81-1.062.375.043-.29 1.112-1.107 1.402-1.064.145.021-.019.323-.34.69m2.802.268c-.021.145-.1.281-.159.273-.087-.013-.21-.18-.275-.337-.061-.187.014-.294.159-.272.173.026.301.163.275.337m-15.468-1.085c.157.142.151.378.005.563-.217.264-.328.218-.475-.188-.106-.282-.394-.532-.655-.571-.405-.06-.364-.143.177-.595.608-.502.637-.497.68.012.01.327.136.671.268.78m10.952 1.598c-.221.293-.52.514-.665.493-.406-.06-.322-.225.277-.669.703-.547.868-.463.388.176m2.033.657c-.233.173-.382.18-.356.006.026-.173.147-.392.276-.462.104-.102.282-.106.356-.006.045.096-.076.314-.276.462m-9.896-1.53a.293.293 0 0 1-.332.247.315.315 0 0 1-.247-.332.293.293 0 0 1 .333-.247c.173.026.272.16.246.333m-4.297-.164c.157.733.082.84-.32.366-.433-.478-.45-.954-.045-.894.144.021.317.254.365.528m10.336 1.358c-.021.145-.188.268-.361.242-.145-.022-.182-.175-.073-.307.112-.16.274-.255.361-.242.058.009.099.133.073.307m2.274.633c-.405.532-.99.682-.92.219.047-.319.774-.832 1.064-.789.145.022.077.278-.144.57m-3.181-.502c-.052.348-.687.638-.86.405s.29-.756.638-.704a.26.26 0 0 1 .221.3m-38.825-2.07c1.212 1.009 2.613 2.134 3.12 2.506 1.073.75 1.166 1.12.162.704-.388-.176-.716-.165-.737-.02-.026.173-.494.133-1.089-.044-1.868-.574-.512.456 2.552 1.947.223.093.289.25.189.324-.3.222-2.533-.88-3.725-1.825-.874-.692-1.038-.983-.718-1.143.291-.164.237-.201-.185-.146-.332.04-1.34-.347-2.235-.894-1.284-.723-1.692-1.168-1.882-1.877-.1-.518-.185-.945-.127-.936.231.034 4.308 2.681 4.855 3.177.367.32 1.02.713 1.44.865.451.155-.74-.79-2.617-2.105-2.627-1.84-3.546-2.628-3.873-3.416-.216-.535-.404-1.066-.39-1.153.025-.173 2.177 1.478 5.26 4.037m39.785 3.574c-.578.506-1.066.404-.749-.14.239-.41.18-.418-.276-.13-.486.282-.544.274-.344-.081.122-.219.495-.341.838-.26.31.105.621.003.68-.195.04-.26.097-.252.17.054.057.216-.11.546-.32.752m-3.035-.096c-.503.399-.56.39-.496-.044.038-.26.25-.495.467-.552.609-.117.628.152.03.596m-31.204-4.547c-.021.145-.1.28-.159.272-.086-.013-.21-.179-.275-.337-.061-.186.014-.293.159-.272.174.026.301.163.275.337m29.787 4.721c-.047.319-1.44 1.325-1.588 1.125-.05-.066.185-.446.506-.812.604-.68 1.16-.834 1.082-.313m2.317.344c-.021.145-.188.268-.362.243-.144-.022-.18-.175-.072-.307.112-.16.274-.255.361-.242.058.008.099.133.073.306m-4.555.773c-.376.536-.994.71-.93.277.044-.29 1.146-1.132 1.24-.97.079.07-.06.405-.31.693m-1.301.192c-.088.194-.313.308-.482.254-.165-.084-.49.104-.71.397-.297.4-.318.545-.029.588.261.038.248.125-.018.322-.2.148-.498.163-.659.05-.523-.462-.17-1.238.742-1.605 1.042-.437 1.398-.444 1.156-.006m-18.234-1.2c.902.903.136.878-.828-.005-.519-.491-.84-.924-.74-.997.204-.177.745.17 1.568 1.002m-14.852-.846c1.452.985 3.07 2.054 3.647 2.347 1.598.8.915.816-.952.036-2.115-.906-3.22-1.04-1.366-.173 2.966 1.357 3.354 1.533 4.114 1.794.422.152.743.377.722.522-.043.29-.775.032-3.207-1.128-.88-.456-1.772-.825-1.974-.855-.406-.06-3.603-2.251-3.704-2.562-.196-.473-.226-1.868-.052-1.842.087.012 1.353.852 2.772 1.861m29.252 3.34c-.15.215-.354.391-.47.374-.145-.021-.447.022-.72.07-.763.153-.5-.429.305-.664.963-.3 1.132-.246.885.22m-16.495-1.74c.052.244-.08.343-.3.221a.84.84 0 0 1-.418-.565c-.053-.244.08-.343.299-.222a.84.84 0 0 1 .419.566m17.473 2.33c-.021.144-.245.259-.506.22-.232-.035-.326-.197-.218-.328a.56.56 0 0 1 .507-.22c.145.02.243.154.217.327M21.88 32.187c-.021.145-.159.272-.303.25-.174-.025-.355-.2-.42-.358-.062-.186.071-.285.303-.25.26.038.446.184.42.358m5.24.6c-.014.088-.151.215-.338.276-.158.066-.294-.014-.272-.159.026-.173.192-.297.337-.275.174.026.28.1.272.159m10.979 1.81c-.022.144-.188.267-.362.242-.145-.022-.181-.175-.073-.307.113-.16.275-.255.362-.242.058.008.098.133.072.307m4.011.891c-.047.319-.289.55-.52.515-.522-.078-.5-.43.033-.824.532-.394.586-.356.487.31m-24.413-3.035c-.026.174-.217.264-.39.238-.638-.095-1.115-.669-.86-.986.287-.342 1.319.285 1.25.748m18.889 2.362c-.242.23-.49.312-.54.246-.172-.233.315-.723.662-.671.174.026.148.2-.122.425m2.88.931c-.498.37-.77.004-.443-.598.2-.355.325-.395.547-.096s.196.473-.103.695m-23.464-3.84c-.021.144-.233.172-.452.05-.214-.15-.4-.296-.39-.353.008-.058.219-.086.45-.052.232.035.418.18.392.354m9.072 1.495c-.271.433-.785.505-.72.07.034-.231.258-.346.867-.462.034-.025-.025.174-.147.392m-4.626-.54c.176.411-.2.355-.724-.107-.342-.287-.334-.345.1-.28.262.038.563.201.624.388m8.978 1.335c-.108.131-.333.246-.506.22-.145-.021-.24-.183-.218-.328.026-.174.246-.26.506-.22.232.034.33.167.218.328m5.742 1c-.15.215-.355.392-.5.37-.144-.021-.23-.241-.195-.473a.45.45 0 0 1 .498-.37c.261.04.322.226.197.474m-4.388-.355c-.242.437-.785.504-.725.099.048-.318.413-.59.703-.547.145.022.144.229.022.448m3.1.253c-.047.319-.775.832-1.064.789-.145-.022-.077-.278.144-.57.405-.532.99-.682.92-.219m3.091 1.11c-.333.454-.516.486-.709.19-.222-.299-.138-.464.315-.722.801-.413.95-.214.394.532m-17.964-2.61c-.026.174-.233.173-.48.047-.248-.125-.496-.25-.554-.26-.087-.012-.07-.128.072-.284.25-.289 1.022.092.962.497m7.15.885c-.125.248-.26.553-.281.698s-.155.243-.328.218c-.32-.048-.264-1.016.098-1.258.403-.325.754-.095.511.342m-1.665.049c-.034.231-.167.33-.328.217-.132-.108-.247-.332-.22-.506.02-.145.183-.239.328-.218.173.026.26.246.22.507m2.88.546c-.048.318-.203.561-.377.536-.144-.022-.25-.304-.203-.622.047-.319.23-.558.376-.536.174.026.25.303.203.622m8.275 1.673c-.299.222-.808-.534-.558-.822.212-.235.324-.189.475.188.13.316.15.585.083.634m-12.163-1.807c-.065.434-.282.698-.513.663-.493-.073-.471-.217.07-.876.572-.655.572-.655.443.213m5.237.808c-.478.432-.907.131-.618-.418a.467.467 0 0 1 .613-.145c.302.163.31.312.005.563m-17.386-2.317a120 120 0 0 1 3.984 2.071l1.915 1.054-2.324-.493c-1.29-.28-3.187-.858-4.22-1.278-1.48-.605-1.875-.93-2.025-1.514-.089-.398-.149-.791-.136-.878.04-.26.795.03 2.806 1.038m22.83 3.924c-.232.173-.368.094-.461-.275-.069-.336.061-.613.319-.752.54-.245.675.633.143 1.027m141.469 19.865c-.012.086-.15.214-.336.275-.158.065-.294-.014-.273-.159.026-.174.192-.297.337-.275.174.026.281.1.272.159M17.199 34.207c-.527.159-.787.12-.985-.146-.221-.3-.064-.365.714-.22.927.138.951.172.271.366m12.917 1.92c-.252.495-.902.487-.828-.005a.46.46 0 0 1 .532-.395c.26.039.384.205.296.4m2.767.5c.284.278.386.59.224.683-.138.128-.303.044-.33-.167s-.28-.308-.525-.255c-.244.052-.401-.09-.358-.38.086-.578.347-.54.989.118M18.538 34.76c-.048.319-.615.353-.75.066-.066-.157.072-.285.303-.25.261.038.455.126.447.184m5.663 1.73c-.112.752-.62 1.18-.816.706-.151-.377.34-1.488.658-1.44.145.021.214.357.158.733m-1.496.102c-.034.232-.18.417-.354.392-.145-.022-.26-.246-.225-.478.034-.231.21-.412.354-.39.174.025.26.245.225.476m-10.713-.615c1.104.342 2.547.793 3.258.987.682.19 1.43.538 1.627.804.291.428.2.444-.61.117-.533-.198-2.068-.426-3.442-.541l-2.492-.163 2.164.38c1.183.205 2.407.535 2.704.727.322.226-.58.121-2.454-.216-3.285-.607-3.582-.799-3.668-2.41-.04-.922-.003-.976.45-.642.269.187 1.384.649 2.463.957m6.813 1.96c.066.157-.072.284-.303.25-.261-.039-.442-.214-.42-.358.025-.174.158-.273.303-.251.174.026.36.172.42.358m1.303.193a.293.293 0 0 1-.332.246.315.315 0 0 1-.247-.332.293.293 0 0 1 .333-.247c.174.026.272.16.247.333M166.762 60.36c-.74.393-.575.476.499.222 1.684-.371.633.123-1.939.895-3.065.906-3.952 1.1-8.875 1.759-9.278 1.284-15.384.939-17.787-1.016-.528-.433-.915-.816-.848-.865.071-.079.943.228 1.918.64 2.338.998 5.471 1.227 10.31.732 2.009-.174 4.201-.381 4.86-.431 3.226-.201 8.348-.802 8.552-.978.108-.132.386-.21.593-.208.878.071 1.031.035.858-.198-.098-.133.297-.4.861-.612 1.249-.436 1.837-.407.998.06M19.936 39.29a.293.293 0 0 1-.332.246.315.315 0 0 1-.247-.332.293.293 0 0 1 .333-.247c.173.026.272.159.246.333m-6.67-.133c-.07.078-.522.13-.965.123-1.358-.025-1.152.183.412.416.84.125 1.488.34 1.463.513-.026.174.796.414 1.897.578 1.042.155 1.845.333 1.778.382-.166.123-7.983-.061-8.082-.194-.049-.067-.109-.46-.16-.912-.08-.663.03-.794.621-.795.684-.017.688-.046-.046-.48-1.333-.79-.749-.94 1.293-.34 1.08.307 1.89.635 1.79.709m4.408.418c.123.166-.01.265-.415.204-.348-.051-.62-.21-.599-.355s-.126-.344-.287-.457c-.194-.088-.05-.066.348.052.392.147.8.385.953.556m-2.232.082c.713.58.472.603-.88.136-.474-.189-.767-.41-.659-.542q.39-.518 1.538.406m3.759 1.595c.065.157-.072.285-.333.246-.26-.039-.355-.2-.247-.333.113-.16.275-.255.333-.246s.186.146.247.333m-.914 1.166c-.013.086-.15.214-.337.275-.157.065-.294-.014-.272-.159.026-.173.192-.297.337-.275.174.026.28.1.272.159m-2.697.22c-1.947.155-3.041.347-4.613.765-.647.17-1.256.286-1.4.265-.29-.043-.092-1.375.24-1.621.433-.32 2.44-.288 4.96.086l2.462.366zm142.636 21.37c-.688.252-3.072.756-5.352 1.157-3.249.552-4.711.631-6.905.453-1.519-.137-2.677-.309-2.544-.407.104-.103 2.502-.31 5.336-.45 2.804-.146 6.226-.466 7.598-.736 3.042-.554 3.461-.58 1.867-.018M13.288 44.19c-3.186.917-4.002 1.032-3.95.685.025-.174 1.059-.553 2.286-.844 2.948-.716 3.04-.732 3.71-.662.318.048-.595.415-2.046.82m3.701-.012c-.108.131-.361.242-.506.22-.174-.026-.181-.175-.073-.307a.6.6 0 0 1 .507-.22c.173.026.185.146.072.306m-1.542.421c-.35.156-1.32.514-2.191.799-.842.29-1.586.711-1.616.914-.052.347-3.427 1.946-3.6 1.714-.197-.266.326-.603 1.724-1.046.78-.269 1.382-.534 1.337-.63-.078-.07-.563.005-1.09.164-1.186.415-1.273.402-1.17-.293.056-.376.426-.676 1.098-.813.527-.158 1.003-.176 1.044-.052.016.091.965-.123 2.085-.489 1.15-.362 2.286-.637 2.546-.598.372.085.335.139-.167.33m1.447 1.014c-.423.263-.897.459-1.07.433-.145-.022.134-.306.682-.609.52-.307.993-.503 1.07-.433.046.096-.258.347-.682.61m-1.9.043c-.109.132-.362.242-.507.22-.174-.025-.181-.174-.073-.306a.6.6 0 0 1 .507-.22c.173.025.185.145.072.306m-1.535.364c-.108.132-.361.242-.506.22-.174-.025-.181-.174-.073-.306a.6.6 0 0 1 .506-.22c.174.025.186.145.073.306m5.094.58c-.008.057-.233.172-.506.22-.245.052-.356.006-.244-.155.217-.263.785-.297.75-.066m-4.06.432c-1.593 1.154-7.436 4.22-7.48 3.918-.036-.153.128-.661.38-1.157.372-.713 1.029-1.148 3.233-2.034 4.038-1.678 5.56-1.955 3.867-.727m12.633 2.232c-.266.197-.431.113-.598-.356-.13-.315-.108-.667-.004-.77.133-.098.405.06.598.356.271.365.27.572.004.77M16.972 47.28c-.052.348-1.548 1.25-1.986 1.214-.613-.061-2.997 1.242-2.613 1.447.14.05.742-.216 1.312-.663.595-.415 1.139-.69 1.208-.56.197.265-1.125 1.193-4.323 2.996-1.263.73-2.958 1.78-3.748 2.313L5.4 55.03l.353-.983c.644-1.739.344-1.517 7.273-5.31 2.097-1.168 4.006-1.86 3.946-1.456m1.81.565c-.15.215-.383.387-.528.366-.173-.026-.119-.196.123-.426.237-.201.47-.374.528-.365.058.008-.001.207-.123.425m2.538.052c-.008.058-.274.255-.565.419-.52.307-.544.274-.099-.133s.699-.518.664-.286m6.742 2.037c.053.245-.08.343-.3.222a.84.84 0 0 1-.418-.565c-.053-.245.08-.343.3-.222a.84.84 0 0 1 .418.565M17.15 48.876c-.361.242-1.234.734-1.949 1.16-.68.402-1.188.83-1.114.93.073.099.476-.019.9-.281.423-.263.801-.414.875-.314.05.067-.392.445-.978.802-.972.565-2.984 1.953-8.795 6l-1.722 1.224.306-1.256c.355-1.397.09-1.2 5.736-4.533 1.782-1.037 4.13-2.493 5.186-3.223 1.08-.698 2.01-1.181 2.084-1.081s-.143.363-.529.572m1.8.83C14.17 53.788 6.256 59.832 4.682 60.663l-1.055.524.28-1.083c.325-1.194.89-1.613 7.847-5.994 2.053-1.263 4.709-2.999 5.898-3.828 1.217-.825 2.269-1.527 2.327-1.518.029.004-.42.44-1.028.942m1.486.161c-.237.202-.556.361-.73.335s-.028-.21.325-.395c.806-.443.95-.421.405.06m-1.024 1.712c-1.895 1.198-5.047 2.89-5.15 2.785-.045-.095.711-.604 1.688-1.199.972-.565 2.24-1.324 2.83-1.71.556-.36 1.158-.626 1.332-.6.174.025-.143.363-.7.724m24.259 3.279c-.24.023-.792.148-1.223.262-1.51.397-1.999.502-2.835.555-.717.041-.824-.034-.673-.455.11-.339.645-.555 1.52-.662 1.292-.133 4.185.119 3.211.3m-22.3-2.515c-.126.248-.359.42-.504.399-.145-.022-.077-.278.173-.566.5-.577.695-.489.33.167M44.53 56.05c-.349.156-1.502.546-2.58.83-1.572.417-2.02.44-2.324.099-.202-.237-.254-.482-.121-.58.428-.292 3.213-.707 3.452-.523.103.104.285.072.427-.085.108-.131.564-.212.999-.147.724.108.72.136.147.406m1.434 1.101c-1.295.547-4.675 1.584-5.052 1.528-.666-.1-.506-.579.34-.897.852-.346 4.586-.975 4.738-.805q.075.1-.026.174m-31.032-1.918c-1.83 1.356-2.725 2.199-2.614 2.452.11.253.068.336-.088.194-.157-.142-1.395.621-2.71 1.698-2.213 1.742-4.826 3.396-6.262 3.892-1 .355-.522-.669.671-1.527.624-.41 2.482-1.762 4.17-2.96 1.692-1.229 3.168-2.193 3.284-2.176.116.018.888-.4 1.682-.963 3.13-2.138 4.078-2.737 4.372-2.723.144.021-.975.98-2.505 2.113m31.926 2.88c-.292.37-4.656 1.645-5.264 1.555-1.072-.16.083-.757 2.18-1.126 1.277-.225 2.442-.495 2.58-.623.365-.271.787-.12.503.193m.543 1.323c-.067.049-1.324.542-2.797 1.093-2.478.934-2.66.966-2.963.418-.254-.482-.204-.622.278-.876.32-.16 1.116-.337 1.779-.416.663-.08 1.753-.243 2.416-.322 1.06-.168 1.673-.106 1.287.103m2.197.947c1.124-.188-1.264.937-4.135 1.93-2.966 1.04-3.024 1.03-3.257.404-.15-.377-.19-.709-.124-.758.437-.35 6.922-1.96 6.954-1.778.037.154.293.222.562.202m2.916.7c-.022.145-4.56 2.192-7.265 3.27-1.822.705-2.34.806-2.5.486-.11-.253-.12-.58-.07-.72.297-.607 9.912-3.557 9.835-3.036m1.604 1.155c-.009.058-.524.337-1.126.602-.602.266-1.096.607-1.064.789.038.538-8.449 3.863-8.927 3.496-.074-.1-.113-.43-.033-.774.102-.487.933-.897 4.177-2.012 2.245-.762 4.56-1.601 5.158-1.838 1.013-.441 1.858-.552 1.815-.263m2.31 1.38c-.722.483-11.732 5.446-12.437 5.607-.95.214-.92.219-1.017-.328-.133-.494 2.374-1.63 9.133-4.088 3.755-1.365 5.116-1.754 4.322-1.192m30.02 5.347c-.532.394-2.534 1.517-4.51 2.466-1.948.953-4.63 2.27-5.943 2.934-1.316.692-2.483 1.17-2.59 1.094-.396-.325.397-1.272 1.538-1.783 1.495-.695 1.662-1.026.322-.574-.937.334-.937.334-.528-.226.22-.293.944-.777 1.58-1.067 1.37-.655 4.9-1.313 5.243-1.026.313.283 4.66-1.675 4.948-2.224.15-.214.383-.386.557-.36.174.025-.114.367-.617.766m-28.214-4.547c-.068.256-1.729 1.075-6.884 3.297-4.558 1.986-7.86 3.093-8.132 2.727-.094-.162-.04-.331.143-.364.672-.136 8.13-3.112 11.297-4.505 3.138-1.398 3.636-1.56 3.576-1.155m30.288 5.328c-.043.29-3.83 2.863-6.256 4.249-3.04 1.737-9.962 5.088-10.11 4.888-.271-.365.744-1.22 1.826-1.533 2.663-.788 11.66-5.546 13.719-7.252.64-.527.86-.612.821-.352M10.405 59.59c-.008.058-.274.255-.565.42-.52.307-.544.274-.099-.134.445-.407.699-.517.664-.286M91.52 76.257c-1.626 1.977-7.986 7.72-8.682 7.823-.7.133-.068-.543 2.666-2.8 1.614-1.298 3.957-3.524 5.203-4.936 1.276-1.409 2.383-2.487 2.457-2.387s-.673 1.143-1.644 2.3m-3.873 1.555a105 105 0 0 1-3.41 3.428c-1.34 1.251-1.631 1.415-1.65.939-.01-.327-.153-.763-.267-.987-.377-.647.169-1.336 2.152-2.727l1.888-1.347-1.765 1.513c-1.806 1.595-2.132 2.198-.595 1.213.557-.36.482-.254-.258.346-.641.527-1.1 1.02-1 1.154.242.361.774-.033 3.61-2.778 1.519-1.46 2.85-2.653 2.909-2.645.087.013-.635.883-1.614 1.891"/><path fill="#5d89b4" d="M115.567 22.638c-.129.07-.272.433-.319.752-.062.612-.062.612.425.122.28-.284.534-.601.555-.746.043-.29-.358-.378-.661-.128m-2.369.802c-.048.319.026.418.148.2.117-.19.126-.455.052-.555-.069-.128-.182.032-.2.355m3.182.296a.315.315 0 0 0 .247.332.29.29 0 0 0 .332-.246c.026-.174-.072-.307-.246-.333a.294.294 0 0 0-.333.246m5.144 1.238c-.034.232.093.37.251.304a.56.56 0 0 0 .359-.42c.021-.145-.077-.278-.251-.304-.145-.021-.32.16-.359.42m-17.829-2.323c-.234.38-.209.413.119.195.233-.172.354-.391.28-.49-.074-.1-.269.018-.399.295m15.785 2.138c-.022.145.073.306.217.328.174.026.399-.089.507-.22.113-.161.014-.294-.218-.329-.26-.038-.48.047-.506.22m3.401.417c-.128.07-.25.289-.276.462-.025.174.124.167.357-.006.199-.148.32-.366.275-.462-.074-.1-.252-.096-.356.006m12.096 2.064c-.159.272-.089.4.122.373.456-.08.787-.712.41-.768-.144-.021-.406.147-.532.395m-36.537-5.31c-.108.132-.176.388-.106.517.04.124-.237.201-.668.107-.434-.064-.99.09-1.264.345-.558.568-.354.983.299.577.261-.168.622-.203.778-.062.342.288 1.543-.421 1.625-.971.073-.492-.376-.855-.664-.513m32.733 5.011c-.33.631-.382.979-.063 1.026.376.056.686-.638.486-1.082-.102-.31-.226-.27-.423.056m-21.339-2.609a2.1 2.1 0 0 0-.642 1.532c-.002 1.006.213 1.157.858.601.237-.201.586-.356.817-.322.203.03.474-.196.632-.468.13-.277.525-.544.828-.587.331-.04.622-.204.648-.378.06-.405-.432-.478-.72-.136-.146.185-.427.084-.789-.265-.725-.7-.845-.688-1.632.024m4.686.341c-.233.172-.464.73-.542 1.25-.077.522-.257.939-.431.913a.294.294 0 0 0-.333.246c-.021.145.16.32.391.354.493.073 1.285-.874 1.085-1.318-.062-.186.043-.29.274-.255.579.086.919-.603.574-1.069s-.519-.491-1.018-.121m3.347.378c-.886-.012-2.052 1.264-1.846 2.064.085.427.172.44.592 0 .483-.462.541-.453.845.095.258.453.369.499.706.223.517-.485 1.043-2.034.775-2.222-.136-.08-.6-.148-1.072-.16m2.056 1.105c-.346.54-.359.627.01.534.331-.04.426.122.357.586-.095.636-.095.636.894-.045 1.094-.784 1.295-1.14.628-1.238-.26-.039-.477.225-.558.568-.064.434-.164.508-.208.206a4.6 4.6 0 0 0-.405-.86c-.251-.303-.404-.267-.718.25m3.698.016c-.274.048-.881.55-1.294 1.139-.414.59-.594 1.007-.374.92.224-.114.521.078.706.431.299.577.327.581.931.109 1.301-.99 1.315-2.675.031-2.6m-16.49-1.976c-.069.463.624.98 1.097.785.158-.066.304-.251.325-.396.026-.174-.114-.224-.272-.159-.191.09-.497-.044-.703-.252-.304-.341-.395-.325-.447.022m-8.019-.215c-.203.769-.196.918.079.663.208-.206.532-.394.677-.373.269-.02.319-.16.34-.896-.003-.178-.188-.324-.42-.358-.232-.035-.495.34-.676.964m3.082-.222c-.208.205-.305.457-.202.561.168.262 1.003-.176 1.059-.552s-.416-.388-.857-.01m3.384.533c-.3.222-.793.356-1.112.308-.839-.125-1.706.723-1.632 1.622l.091.782.975-.387c.564-.212 1.097-.607 1.173-.92.101-.282.422-.648.684-.816.257-.14.449-.436.422-.648-.053-.244-.231-.241-.601.059m7.277 1.23c-.268.403-.294.577-.091.607.348.052.845-.703.647-.969-.074-.1-.306.073-.556.361m13.628 1.907c-.034.231.081.455.225.477.174.026.32-.16.355-.391.034-.232-.052-.452-.226-.478-.144-.021-.319.16-.354.392m8.855 1.167c-.108.132-.072.285.073.307.173.026.34-.098.361-.242.026-.174-.015-.298-.072-.307-.087-.013-.249.081-.362.242m-10.367-.948c-.103.694.318.846.678.219.355-.598.335-.66-.158-.734-.231-.034-.473.196-.52.515m2.093 1.05c-.524.337-.849.732-.775.832.07.129.165.084.183-.032.021-.145.202.03.387.383.352.614.352.614 1.035.006 1.361-1.189.65-2.182-.83-1.189m2.45.245c-.077.522-.024.56.396.326.262-.168.503-.399.525-.543.021-.145-.164-.291-.396-.325-.261-.04-.473.196-.525.543m-23.464-3.249c-.438.556-.29.755.408.445.224-.115.316-.338.206-.59-.155-.35-.28-.309-.614.145m24.749 3.765c-.95 1.013-.815 2.098.225 1.868.581-.12 1.442-1.531 1.241-1.975-.212-.564-.899-.519-1.466.107m3.188.06c-.191.09-.583.534-.883.963-.564.804-.564.804.107.874.96.113 1.767-.536 1.618-1.328-.108-.667-.269-.78-.842-.51m1.978 1.034c-1.004.975-1.226 1.475-.478 1.024.847-.525.873.1.037.745-1.543 1.22-.393.652 1.661-.818 1.588-1.125 1.905-1.463 1.333-1.4-.423.056-.867.256-1.009.412-.816.915-.983 1.038-1.126.81-.099-.134.093-.43.401-.71.337-.276.467-.552.311-.694-.128-.137-.647.17-1.13.631m-39.817-5.945c-.609.709-.403.917.337.317.333-.247.467-.552.364-.656-.132-.109-.447.022-.701.34m15.466 2.09c-.355.598-.096.844.387.383.275-.255.329-.425.119-.604-.132-.108-.38-.027-.506.22m-13.729-1.832c-.043.29-.28.491-.483.461-.231-.034-.626.232-.89.608-.404.531-.434.734-.171 1.157.381.62.902.697 1.448.216.34-.305.401-.71.336-1.666-.075-.692-.172-1.032-.24-.776m3.6.476c-.142.156-.353.184-.485.076-.128-.137-.278.077-.334.453-.077.521-.028.588.222.3.283-.314.399-.296.733.05.354.407.42.357.519-.308.112-.753-.226-1.07-.655-.571m6.52.939c-.021.145-.312.309-.619.381-.331.04-.689.253-.81.472-.201.355-.085.372.695.103.531-.187.964-.508.998-.74.035-.23.007-.442-.08-.455s-.162.094-.184.239m10.957 2.161c-.237.201-.363.449-.289.548.222.3.896-.251.832-.616-.032-.182-.277-.13-.543.067M99.221 25.86c-.484.669-.105 1.11.482.546.303-.25.367-.478.194-.711-.197-.266-.384-.205-.676.166m10.63 1.372c-.286.135-.57.448-.608.709-.061.405.059.393.663-.08.798-.59.792-.947-.055-.629m10.496 1.677c-.341.305-.354.392.022.448.55.082.967-.33.625-.617-.132-.109-.41-.032-.647.17m4.34.674c-.035.232.093.37.251.304a.56.56 0 0 0 .358-.42c.022-.145-.077-.278-.251-.304-.145-.021-.32.16-.358.42m4.348.617c-.034.231.051.451.225.477.145.021.233-.173.181-.417-.082-.249-.167-.469-.225-.477s-.146.185-.181.417m-34.849-5.119c-.361.242-.416 1.21-.098 1.258.26.039 1.003-.768 1.059-1.145.034-.231-.694-.31-.96-.113m17.627 2.886c-.133.098-.263.375-.302.635-.047.319.035.36.302.163.199-.148.358-.42.301-.635-.032-.183-.168-.262-.301-.164m2.023.331c-.129.07-.259.346-.293.577-.052.348.035.36.426.123.261-.168.503-.399.524-.543.048-.319-.353-.408-.657-.157m2.825.508c-.25.289-.431 2.303-.221 2.482.107.075.476-.018.858-.198.702-.34 1.051-1.293.707-1.966-.18-.382-1.094-.606-1.344-.318m5.071.931c-.047.319.027.418.148.2.117-.19.127-.455.053-.555-.069-.128-.182.032-.201.355m2.028.302c-.048.318.026.418.148.199.117-.19.126-.455.052-.555-.069-.128-.182.033-.2.355m-18.655-2.742c-.429.292-.46 1.5-.033 1.416.186-.061.416-.412.476-.817q.162-1.086-.443-.599m15.348 3.08c-.274.255-.329.424-.119.603.132.108.381.027.507-.22.355-.599.095-.844-.388-.384M89.61 26.8c-.894 1.228-1.139 2.08-.434 1.326.274-.255.614-.352.746-.244.342.287.88-1.142.644-1.739-.127-.344-.36-.172-.957.657m10.956.977c-.364.656-.17.744.33.167.25-.288.318-.545.173-.566-.145-.022-.378.15-.503.398m6.371.947c-.36.627-.358 1.012-.042.882.382-.18.806-1.242.516-1.285-.116-.017-.348.156-.474.403m15.346 2.103c-.113.16-.001.206.244.154.551-.125.668-.315.263-.375a.56.56 0 0 0-.507.22m2.026.509c-.234.38-.209.412.119.195.233-.173.354-.391.28-.491s-.269.02-.399.296m4.784.474c-.03.202-.183.239-.369.093-.181-.175-.219-.121-.108.132.106.282.246.332.512.135.2-.148.292-.37.194-.504-.103-.104-.199-.059-.229.144m2.87.604c-.241.23-.396.473-.317.544.074.1.323.018.564-.212s.396-.474.318-.544c-.074-.1-.323-.019-.565.212m-19.939-2.667c-.237.202-.329.425-.197.533s.352.023.477-.225c.327-.602.224-.706-.28-.308m1.817.122c-.108.132-.101.281.073.307.145.021.398-.089.507-.22.112-.162.101-.282-.073-.307a.6.6 0 0 0-.507.22m11.687 2.033c-.048.318.058.6.203.621.174.026.328-.217.376-.536.047-.318-.03-.596-.204-.622-.145-.021-.328.218-.375.536m1.706-.131c-.128.07-.25.288-.276.462-.025.174.124.167.357-.006.199-.148.321-.367.276-.462-.074-.1-.253-.097-.357.006m-33.092-4.591c-.075.108-.089.401-.003.621.135.287.26.246.44-.171.23-.558-.078-.87-.437-.45m4.927.91c-.159.272-.235.586-.161.686.222.3.518-.1.484-.668-.014-.505-.043-.51-.323-.018m10.154 1.982c-.069.463-.013.885.132.907.347.052.854-.968.678-1.379-.261-.63-.681-.397-.81.472M86.5 26.811c-.321.367-.648.97-.757 1.308-.136.512-.008.65.736.82 1.15.23 1.838-.615 1.472-1.735-.35-1.028-.776-1.15-1.451-.393m35.772 5.079c-.035.23.093.368.251.303.191-.09.279-.284.213-.442-.2-.444-.387-.383-.464.138m11.171 1.512c-.391.445-.061.612.418.18.27-.226.296-.4.122-.425-.174-.026-.427.084-.54.245m-30.017-4.164c-.022.145.115.224.272.159.187-.061.324-.189.337-.275.009-.058-.098-.133-.272-.16-.145-.02-.311.103-.337.276m-7.608-.597c-.073.492.431.685.67.277.125-.248.064-.435-.196-.473-.232-.035-.452.05-.474.196m27.318 4.206c-.163.301-.103.695.143 1.027.37.499.399.503.477-.018.047-.318 0-.799-.139-1.056-.18-.382-.238-.39-.481.047m-30.261-4.318a.315.315 0 0 0 .247.332.294.294 0 0 0 .332-.246c.026-.174-.072-.307-.246-.333a.294.294 0 0 0-.333.247m21.145 3.319c-.048.318.026.418.148.2.117-.19.126-.455.052-.555-.069-.129-.182.032-.2.355m13.67 1.823c.028.212.151.378.267.395.352.023.326-.395 0-.591-.195-.088-.328.01-.267.197m-44.147-6.086c-.035.232-.007.443.051.451.058.01.204-.176.354-.39.122-.22.094-.43-.051-.452-.174-.026-.32.16-.354.391m48.97 7.098c-.022.145.089.398.22.506.161.113.281.101.307-.073a.6.6 0 0 0-.22-.506c-.132-.108-.281-.1-.307.073m-35.62-4.908c-.233.173-.417.412-.434.528-.052.347.768.41 1.056.068.362-.45-.156-.94-.622-.596m13.566 1.927c-.021.145.089.398.221.506.161.113.281.101.307-.072a.6.6 0 0 0-.221-.507c-.132-.108-.281-.1-.307.073m-27.994-3.833c-.142.156-.132.483.016.683.37.498.716.165.459-.494-.151-.378-.263-.424-.475-.19m18.057 2.979c-.55.717-.374 1.72.35 1.828.406.06.581-.121.675-.758.173-1.158-.47-1.816-1.025-1.07m2.343.171c-.035.231.067.542.199.65.161.113.303-.043.35-.361.052-.348-.025-.626-.199-.651-.145-.022-.316.13-.35.362m26.521 3.792c-.109.132-.081.343.076.485.132.108.294.014.328-.218.078-.52-.083-.633-.404-.267m-2.8.117c-.226.321-.439.763-.474.995-.077.52.63 1.336.93 1.114.133-.099.076-.314-.13-.522-.317-.255-.3-.37.016-.5.286-.136.358-.421.253-.91l-.157-.733zm4.105.462c-.532.394-.607 1.093-.213 1.832.299.577.332.552.903-.102.35-.363.61-.916.595-1.214-.021-.654-.719-.935-1.285-.516m-41.606-5.856a.87.87 0 0 0-.025.765c.106.282.23.242.41-.175.273-.64-.063-1.164-.385-.59m-5.114-.849c-.343.718-.379 1.157-.08.935a.69.69 0 0 0 .249-.673c-.057-.216-.127-.344-.169-.262m10.366 1.954c-.034.232.067.543.2.651.16.113.302-.044.35-.362.05-.347-.026-.625-.2-.65-.145-.022-.315.13-.35.361m15.255 2.119c-.325.396.085 1.817.548 1.886.203.03.523-.13.649-.377.322-.573.317-.544-.126-1.143-.444-.598-.783-.708-1.071-.366m-29.898-3.969c-.122.219-.162.686-.098 1.051.13.522.212.564.55.289.407-.354.423-1.653.017-1.714-.115-.017-.32.16-.47.374m18.817 2.648c-.108.132-.106.517 0 .799.192.502.23.448.362-.242.12-.81.002-1.006-.361-.557M77.52 28.673c-.432.32-.594 1.006-.44 1.768.064.365.262.424.669.277.78-.268 1.086-.933.75-1.663-.306-.726-.447-.777-.979-.383m4.256.84c-.051.347.055.63.2.651.173.026.315-.13.35-.362s-.04-.538-.2-.651c-.132-.108-.303.044-.35.362m2.95.468c-.538.63-.636 1.089-.23 1.149.174.026.328-.218.38-.565.047-.318.193-.504.296-.4.132.109.265.01.3-.221.09-.608-.208-.593-.746.037m6.876 1.14c-.285.52-.345.925-.203 1.36.253.689.505.785 1.07.366.6-.443.62-1.18.04-1.858-.477-.574-.506-.578-.907.132m4.508.936a.88.88 0 0 0-.025.765c.106.282.226.27.427-.084.154-.244.177-.595.053-.762-.147-.199-.33-.167-.455.08m-21.286-2.57c-.398.888-.313 1.108.318.846.349-.155.38-.358.225-.913l-.22-.713zm7.178 1.895c-.84 1.266-.794 1.953.11 1.85.811-.086 1.162-.655.878-1.526a9 9 0 0 1-.264-1.015c-.028-.212-.344.126-.724.69m24.264 3.044c-.04.467.053.836.169.853.319.047.384-.594.114-1.166-.184-.353-.222-.3-.283.313m-33.376-4.87c-.308.28-.371.507-.199.74.173.232.384.204.692-.075.308-.28.372-.507.199-.74s-.384-.205-.692.075m42.638 6.483c.04.33-.049.525-.176.387-.396-.325-.432.913-.024 1.358.712.786 1.438-.319 1.115-1.728-.157-.733-.985-.738-.915-.017m-39.867-5.213a.46.46 0 0 0 .395.532c.26.038.427-.085.399-.296-.096-.547-.72-.729-.794-.236m-8.903-.643c-.234.38-.21.413.12.195.232-.172.353-.39.28-.49-.075-.1-.27.019-.4.295m7.097.847c-.378.151-.4.296-.178.595.37.5.723.315.673-.343-.01-.327-.147-.407-.495-.252m5.485.933c-.082.55.661.928.908.461.268-.404.08-.728-.471-.81-.203-.03-.403.118-.437.35m41.423 6.095c-.039.26.059.6.191.709.342.287.398-.09.107-.724-.176-.41-.233-.42-.298.015m-53.598-6.632c-.234.38-.21.413.119.195.233-.172.354-.39.28-.49s-.27.019-.399.295m1.162.35c-.313.309-.605.68-.626.825s.198.059.477-.225c.483-.461.479-.432.37.498-.185 1.245.206 1.007.524-.336.272-1.232.041-1.473-.745-.762m6.199.714c-.035.232.093.369.25.304a.56.56 0 0 0 .359-.42c.021-.145-.077-.278-.251-.304-.145-.021-.32.16-.359.42m-1.995-.118c-.465.344-.636 1.295-.375 1.926.16.32.313.283.767-.182.67-.729.764-1.159.337-1.666-.255-.275-.463-.276-.729-.079m3.094.697c-.082.55.206.8.606.504.266-.197.059-.997-.26-1.045-.144-.021-.299.222-.346.54M87.51 34.95c-.546.48-.35 2.344.23 2.43.29.043.457-.287.595-1.213.202-1.36-.139-1.855-.825-1.217m-21.758-2.582c-.28.491.329 1.173.794.828.366-.27.201-1.153-.233-1.218-.174-.026-.407.147-.561.39m5.058 1.225c-.083.55-.029.587.254.274.459-.494.506-.812.13-.868-.145-.022-.333.246-.385.594m26.621 3.511c-.328.218-.425 1.269-.233 1.77.275.544 1.2.297 1.294-.34.177-1.187-.39-1.951-1.06-1.43m13.815 2.645c-.075.107-.102.487-.034.823.121.58.15.584.426.122.309-.486-.062-1.37-.392-.946m-50.355-6.741c-.466.345-.627 1.031-.25 1.087.144.022.366-.271.484-.668.298-.813.298-.813-.234-.419m2.897.223c-.052.555.302 1.554.371 1.091a2 2 0 0 0-.132-.907c-.11-.253-.213-.357-.239-.184m11.248 1.997c-.048.318.026.418.148.2.117-.19.127-.455.053-.555-.07-.129-.183.032-.201.355m-16.04-1.821c-.034.232.052.452.197.473.144.022.348-.155.498-.37.126-.247.065-.434-.196-.473a.45.45 0 0 0-.499.37m8.394 1.277c-.034.231.094.369.252.303a.56.56 0 0 0 .358-.42c.022-.145-.077-.278-.25-.303-.145-.022-.32.16-.36.42m1.627.212c.081.249.167.468.225.477s.146-.185.18-.417c.035-.231-.05-.451-.225-.477-.145-.022-.233.172-.18.417m-6.317-.909c-.163.094-.301.428-.353.776-.06.405.014.505.28.308.2-.148.342-.511.323-.78.01-.265-.118-.403-.25-.304m2.705 1.112c-.46.908.218 1.719.732.848.247-.466.136-1.31-.211-1.362-.145-.022-.358.213-.52.514m-7.528-.941c-.36.627-.178.802.334.346.237-.202.305-.458.173-.566-.161-.113-.381-.027-.507.22m68.3 9.881c-.551.125-.687 1.437-.196 1.717.57.35 1.426-.232 1.418-.973.003-.621-.513-.934-1.222-.744M67.24 35.696c-.021.145.115.224.273.159.186-.061.324-.189.337-.276.008-.058-.099-.133-.273-.159-.145-.021-.31.102-.337.276m-6.995-.536c-.409.56-.397 1.48.037 1.544.406.06.8-1.006.589-1.57-.192-.502-.254-.481-.626.026M49.59 33.961c-.164.301-.215.649-.117.782.173.232.798-.385.88-.935.086-.579-.462-.483-.763.153m29.369 3.949c-.466.345-.388 1.215.133 1.292.695.104 1.298-.369 1.169-.891-.08-.456-.932-.7-1.302-.4m-17.346-2.193c-.022.145.102.31.275.337.145.021.225-.115.16-.273-.062-.186-.19-.323-.276-.336-.058-.009-.133.098-.16.272m1.594.237c.065.157.246.332.42.358.145.021.282-.106.304-.25.026-.175-.16-.32-.42-.36-.232-.034-.365.065-.304.252m-9.166-1.066a.315.315 0 0 0 .246.332.293.293 0 0 0 .333-.246c.026-.174-.073-.307-.246-.333a.293.293 0 0 0-.333.247m.978.589c-.403.916-.218 1.27.27.572.221-.292.31-.693.225-.913-.135-.286-.268-.188-.495.34m3.292.549c-.086.786-.086.786.396.325.488-.49.503-.99-.018-1.068-.145-.021-.313.309-.377.743m-1.269-.425c-.108.132-.08.343.076.485.132.108.294.014.328-.218.078-.52-.083-.634-.404-.267m57.132 8.547c-.66.257-.796.77-.376 1.335.394.532 1.113.077 1.246-.82.112-.753-.048-.866-.87-.515M71.05 37.741c-.348.955-.326 1.402.166 1.475.637.094.794-.563.26-1.145-.202-.237-.388-.383-.425-.33m-25.322-2.696c-.323.573-.593.799-.865.64-.409-.238-.543.067-.366.863.166.676.98.175 1.106-.664.051-.347.155-.45.274-.255.176.41 1.152.615 1.208.239.017-.116-.11-.254-.255-.275-.174-.026-.391-.354-.451-.748-.17-.646-.2-.65-.652.2m7.742 1.889c-.202 1.154.375 1.654.86.779.369-.685.35-.954-.085-1.019-.232-.034-.466-.246-.494-.458-.061-.186-.196.12-.282.698m47.756 6.503c-.655.228-.856 1.382-.375 1.927.457.512 1.379-.12 1.522-1.076.116-.781-.391-1.153-1.147-.85m.503 1.2c-.082.55-.431.705-.727.306-.197-.266.234-.972.552-.924.145.021.222.299.175.617m17.808 1.669c-.056.376.179.589.812.712.686.161.873.1.846-.318-.037-.745-1.55-1.118-1.658-.394M49.872 36.045c-.104.102-.123.425-.074.699.088.397.2.444.557.23.258-.139.47-.374.488-.49.051-.347-.754-.703-.971-.44m73.522 11.19c-.113.16-.115.575.011.919.127.344.107.874-.023 1.15-.134.306-.09.608.158.734.272.159.372.085.319-.16-.052-.244.045-.496.202-.562.158-.065.276-.462.274-.846-.044-.895-.587-1.626-.941-1.235m-14.43-1.493c-.363.449-.364.656-.019 1.121.37.5.428.508.915.018.279-.284.488-.697.498-.961-.041-.717-.914-.817-1.394-.178m18.546 3.673c-.08.935-.052 1.945.054 2.227 1.163 3.723 1.567 4.789 2.294 5.873 1.088 1.641 1.198 1.095.128-.661-1.051-1.695-1.807-4.174-2.135-6.945l-.24-2.166zM59.217 39.09c-.159.272-.153.628-.03.794.346.466 1.246.185 1.216-.41-.012-.713-.864-.958-1.186-.384m58.027 9.094c-.799.592-.482 1.645.561 1.8.405.06.713-.812.509-1.434-.253-.688-.505-.785-1.07-.366m-66.198-9.687c-.361.242-.408 1.153-.066 1.44.445.392 1.27-.58.967-1.128-.316-.462-.568-.558-.9-.312m-7.435-.365c-.321.367-.009 1.449.356 1.385.576-.092.84-1.473.29-1.555-.26-.039-.538.038-.646.17m53.396 8.584c-.441.379-.358 1.012.106 1.081.347.052.775-.831.528-1.164-.123-.166-.397-.118-.634.083m-57.109-8.1c-.08.343.008.741.14.85.317.254.356-.007.13-.869-.15-.584-.18-.589-.27.02m1.665-.049c-.395.267-.375 1.128.032 1.573.3.37.474.396.878.07.428-.29.491-.518.304-1.049-.258-.66-.782-.915-1.214-.594m35.868 5.625c-.361.242-.417 1.21-.098 1.257.174.026.307-.072.328-.217s.156-.45.282-.698c.242-.437-.108-.667-.512-.342m6.913 1.086c-.104.103-.044.496.145.82.225.477.394.532.723.315.2-.148.342-.512.29-.756-.13-.522-.832-.775-1.158-.38m42.243 7.549c.417 1.778 1.545 4.342 2.101 4.78.796.621-.012.679-2.033.142-1.171-.293-3.926-.672-6.294-.876-8.224-.63-16.677.48-16.94 2.246-.163 1.1 6.552 6.3 10.744 8.372.607.297 1.346.703 1.638.924.829.596 2.402.77 4.217.508 1.123-.188 1.711-.16 1.797.06.09.19.285.072.452-.258s.667-.7 1.102-.843c1.016-.263 6.368-2.811 6.656-3.153.146-.185.005-.236-.364-.143-.306.073-1.815.263-3.348.42-1.504.161-3.261.433-3.875.578-.647.17-1.285.283-1.459.257-.608-.09.923-.632 3.473-1.26 1.414-.351 2.443-.702 2.278-.785-.413-.21-4.953.862-6.875 1.641-.817.323-1.842.644-2.231.675-.419.026-.767.182-.789.326-.021.145-.241.23-.473.196s-.421-.151-.4-.296c.039-.26 7.676-2.647 8.695-2.732a4.1 4.1 0 0 0 1.389-.385c1.163-.656-3.624.083-6.847 1.054-1.609.47-3.288.813-3.722.748-.406-.06-.857-.009-.97.152-.108.132-.362.242-.535.216-.609-.09 1.273-1.2 2.172-1.274.51-.043 1.882-.313 3.114-.633 1.198-.295 3.445-.671 4.982-.857 2.83-.32 3.568-.506 2.525-.66-.898-.134-6.735.508-7.731.833-.498.163-1.667.463-2.608.619-.916.19-1.783.445-1.896.606-.137.127-.747.244-1.397.236l-1.151-.023 1.083-.313c2.48-.755 8.918-2.047 11.441-2.294 1.504-.161 2.839-.377 3.034-.496.69-.46-4.285-.844-7.255-.575-3.36.3-9.296 1.4-9.339 1.69-.017.115-.349.155-.75.066-.84-.125-.936-.672-.133-.7.299-.015 1.153-.184 1.899-.428.743-.216 3.196-.59 5.45-.818 3.186-.326 4.876-.34 7.586-.056 1.925.197 3.63.273 3.825.154.499-.37-6.154-1.21-8.134-1.032-2.581.238-2.999.058-.694-.31 1.632-.23 2.779-.178 6.602.39 2.78.413 4.299.55 3.799.327-.446-.184-1.471-.455-2.273-.633-.778-.145-1.688-.399-1.985-.591-.321-.225.407-.147 1.867.188l2.436.54-1.151-1.62c-.636-.894-1.55-2.716-2.002-4.056-.456-1.31-.884-2.41-.942-2.418-.087-.013.045.687.239 1.574m-9.35 5.949c-1.313.07-2.668.224-2.975.297-.431.114-.514.072-.33-.167.316-.338-.011-.327-3.62.054-1.234.142-2.631.378-3.129.54-.531.188-.887.194-.861.02.056-.376 1.1-.635 4.133-.924 3.037-.318 6.512-.393 8.018-.17.926.138.649.215-1.236.35m-4.512.483c-.34.097-1.09.163-1.658.198l-1.039.023 1.074-.255c.584-.15 1.339-.245 1.657-.198l.579.087zm10.067 1.97c-1.475.165-3.808.528-5.16.86s-3.13.748-3.989.946c-.829.202-1.609.47-1.713.574-.109.131-.39.03-.645-.244-.387-.383-.1-.518 2.383-1.096 2.857-.7 10.188-1.623 11.255-1.434.318.047-.627.232-2.131.393m-8.055-1.168c-.1.074-.365.064-.555-.053-.219-.121-.119-.195.2-.148.323.019.483.131.355.2m-4.871-.487c-.013.087-.15.214-.337.275-.158.066-.294-.014-.273-.158.026-.174.193-.297.337-.276.174.026.281.101.273.159m2.081.93c-.497.163-1.189.238-1.508.19-.314-.076-.028-.21.64-.319 1.579-.268 2.042-.2.868.13m-2.764.477c-.706.369-1.356.361-1.3-.015.034-.232.523-.337 1.65-.347.174.026.003.178-.35.362M39.195 39.37c-.048.318.026.418.148.2.117-.19.126-.455.052-.555-.07-.129-.182.032-.2.355m-6.071-.577c-.519.1-.584.742-.152 1.22.28.308.4.297.6-.058.56-.982.414-1.389-.449-1.162m1.492.517c-.355.599-.345.926-.026.973.174.026.324-.188.367-.478.098-.459.098-.459.314.076.172.44.337.524.699.282.748-.451.618-.974-.276-1.136-.52-.077-.948.007-1.078.284m-5.298-.403c-.38.772.145 1.62.73 1.263.258-.14.5-.577.556-.953.134-.898-.9-1.11-1.286-.31m42.198 6.062c-.412.383-.261.76.347.85.203.03.415-.204.463-.522.099-.666-.265-.809-.81-.328M25.07 38.603c-.02.145.115.224.273.159.187-.061.324-.189.337-.276.009-.058-.099-.133-.272-.159-.145-.021-.312.102-.337.276m-3.581 1.391c-.323.573-.336.66-.017.708.347.051.758-.716.498-.962-.132-.108-.356.006-.482.254m6.069.99c-.108.132.14.258.545.318.55.082.646.037.41-.176-.473-.396-.705-.43-.955-.142m3.872.635c-.021.144.115.224.273.159.187-.061.324-.19.337-.276.008-.058-.099-.133-.273-.159-.144-.021-.31.102-.337.276m25.581 4.54c-.337.275-.507 1.818-.217 1.861.376.056.914-1.373.643-1.739-.099-.133-.297-.192-.426-.122m-13.475.246c.321 1.025 1.939 3.484 2.315 3.54.174.026-.12-.58-.655-1.37-.509-.756-1.162-1.74-1.42-2.193l-.5-.814zM21.184 43.44c.057.215-.082.55-.281.698-.632.468.204.415 1.019-.086l.781-.475-.72.07c-.51.043-.651-.008-.472-.218.146-.185.11-.339-.064-.364-.203-.03-.315.13-.263.375m18.733 3.611c.525.848 1.052 1.488 1.21 1.423.348-.156-.271-1.165-1.358-2.214-.73-.67-.71-.608.148.791m1.856-.138c.47 1.223 1.382 2.454 1.75 2.36.125-.04-.289-.841-.954-1.74-1.06-1.429-1.163-1.533-.796-.62m4.462 1.047c.269.78.564 1.386.717 1.35.124-.041.277.13.33.374.047.273.22.506.394.532.29.043-.186-.945-1.285-2.706l-.624-.98zM30.73 45.332c.066.157.189.323.276.336.058.009.137-.127.159-.272.026-.174-.102-.311-.276-.337-.145-.021-.22.086-.159.273m4.108 1.438c.46.69.883 1.226.916 1.201.192-.09-1.187-2.365-1.476-2.408-.116-.018.129.522.56 1.207m-7.958-1.42c.065.158.188.325.275.338.058.008.137-.128.159-.273.026-.173-.102-.31-.276-.336-.145-.022-.22.085-.159.272m23.561 3.796c.126.344.29.635.377.648.058.008.038-.26-.088-.605-.126-.344-.29-.635-.377-.648-.058-.008-.039.26.088.605m-2.01-.417c-.028.38.633 1.514.799 1.391.066-.05-.051-.451-.314-.875-.233-.42-.468-.632-.486-.516m-20.896-2.601c-.11.545.98 2.364 1.28 2.143.1-.075-.072-.514-.392-.946-.32-.433-.649-1.014-.701-1.258q-.096-.547-.187.06m3.737.556c-.074.492.872 1.697 1.142 1.471.133-.098.01-.264-.234-.42-.247-.125-.411-.415-.381-.618.034-.231-.043-.51-.204-.622-.132-.108-.29-.043-.324.189m-6.676-.489c.155.348.377.648.522.67.116.016.126-.248 0-.593-.127-.344-.349-.643-.494-.665-.174-.026-.183.24-.028.588m17.042 2.443c-.043.29 1.003 1.214 1.203 1.066.095-.045-.151-.377-.518-.698s-.668-.484-.685-.368m9.237 1.579c-.008.058.189.324.449.57.378.44.411.416.104-.103-.308-.52-.518-.698-.553-.467m2.176.501c.26.838 1.248 2.552 1.509 2.591.145.022.014-.294-.278-.721a13 13 0 0 1-.956-1.533c-.23-.448-.357-.586-.276-.337m-31.349-4.362c-.109.132-.015.294.217.328.26.04.485-.075.507-.22.026-.174-.073-.307-.218-.328a.56.56 0 0 0-.506.22m33.696 5.303c.37 1.09 1.404 2.9 1.57 2.777.067-.05-.235-.804-.698-1.672-1.074-1.934-1.198-2.1-.872-1.106m-11.46-1.761c.086.22-.023.351-.283.313-.26-.04-.485.075-.507.22-.026.174.285.28.707.224.539-.039.786.087.855.422.048.274.279.515.452.541.203.03.62.417.91.845.637.894 2.127 1.825 2.196 1.362.021-.145.27-.226.56-.183.555.053 1.954-.597 1.432-.675-.203-.03-.456.08-.597.237-.113.16-.531.187-.895.044-.368-.113-.728-.078-.812.087-.2.355-.386.209-2.589-2.1-.864-.958-1.515-1.557-1.429-1.337m5.444 1.016c-.03.202.126.344.37.291.216-.056.403-.117.412-.175s-.153-.17-.342-.288c-.22-.121-.41-.031-.44.172m-1.263-.07c-.021.145.151.378.399.503.384.205.417.18.155-.243-.333-.552-.498-.636-.554-.26m12.32 1.949c.044.302.196.473.296.4.1-.075.047-.32-.125-.552-.251-.304-.284-.279-.17.152M51.688 51.7c.065.157.188.323.275.336.058.009.138-.127.16-.272.025-.174-.102-.31-.276-.337-.145-.021-.22.086-.16.273"/><path fill="#5d89b4" d="M127.447 62.777c-.039.261.808.535.988.325.141-.157-.044-.303-.363-.35-.347-.052-.617-.033-.625.025M25.141 48.08c-.021.146.115.225.273.16.186-.061.324-.189.337-.276.008-.057-.099-.133-.273-.158-.145-.022-.31.101-.337.275m17.896 3.073c-.009.058.246.332.597.562.532.405.56.409.249-.081-.308-.52-.799-.8-.846-.481m15.345 2.309c-.043.29 1.105 2.324 1.177 2.04.013-.088-.233-.627-.556-1.237s-.595-.976-.621-.803m2.576.59c-.051.348 2.114 4.101 2.28 3.978.1-.074-.28-.9-.85-1.842-1.4-2.338-1.395-2.367-1.43-2.136m76.32 12.286c-.375.329-.35.362.077.277.273-.048.506-.22.528-.365.056-.376-.127-.344-.605.088M53.59 54.23c.247.333.511.55.582.472.1-.074-.097-.34-.415-.594-.552-.467-.556-.438-.166.123M138.14 66.91c-.43.499-.405.532.197.267.349-.156.648-.377.665-.493.065-.434-.4-.296-.862.227m-86.217-12.81c.065.158.188.324.275.337.058.009.138-.127.16-.272.025-.174-.102-.311-.276-.337-.145-.021-.22.086-.16.272m5.165 1.3c-.693.282-.929.276-.973-.026-.06-.187-.222-.3-.38-.234-.186.061-.134.306.126.551.49.487 1.733.287 2.093-.34.238-.408.238-.408-.866.05m13.771 1.749c-.022.145.216.535.516.905l.527.64-.4-.887c-.402-.888-.583-1.063-.643-.658m63.705 9.524a.316.316 0 0 0 .247.333.294.294 0 0 0 .333-.247c.026-.174-.073-.307-.247-.332a.294.294 0 0 0-.333.246M49.95 54.43c-.03.202-.329.217-.746.037-1.004-.416-.893-.163.405.859.61.475 1.563 1.238 2.12 1.676 1.524 1.291 1.18.619-.414-.802-.816-.683-1.363-1.386-1.226-1.513.113-.16.382-.18.6-.059.22.122.402.09.424-.055.025-.174-.218-.328-.537-.376-.318-.047-.6.059-.626.233m10.575 1.541c-.108.132-.072.285.073.307.174.026.34-.097.361-.242.026-.174-.014-.298-.072-.307-.087-.013-.25.081-.362.242m3.646.364c-.009.058.189.324.448.57.379.44.412.416.104-.103-.307-.52-.518-.698-.552-.467m5.362 2.158c.406.859.828 1.602.944 1.62.144.02-.133-.7-.596-1.568-1.057-2.051-1.284-2.114-.348-.052m63.825 8.328c-.022.145.114.225.272.16.187-.062.324-.19.337-.276.009-.058-.099-.133-.272-.159-.145-.022-.311.102-.337.275m-1.232.32c-.056.377.633 1.515.718 1.143.026-.174-.08-.456-.212-.565-.157-.141-.184-.352-.076-.484.137-.128.068-.256-.077-.278-.174-.026-.336.069-.353.184"/><path fill="#5d89b4" d="M52.551 56.443c.605.712 1.4 1.333 1.773 1.418.55.081.617.032.432-.32-.143-.23-.445-.392-.66-.336-.183.032-.888-.398-1.481-.989l-1.145-1.058zm.749-.657c-.021.144.102.31.276.336.145.022.224-.114.159-.272-.061-.187-.189-.324-.276-.337-.058-.008-.133.099-.159.273m4.924.731c-.349.155-.4.296-.202.562.197.266.35.23.531-.188.139-.334.206-.59.206-.59-.029-.005-.282.105-.535.216m15.74 2.634c.243.362.494.665.58.678.087.013-.048-.273-.29-.635-.242-.361-.493-.665-.58-.678-.087-.012.048.274.29.635m-18.95-2.549c.151.378.46.69.663.72.492.073.276-.462-.417-.98-.483-.337-.512-.341-.246.26m76.004 11.026c-.142.156-.132.483.016.683.37.498.716.165.459-.494-.151-.378-.263-.424-.475-.19M56.806 57.49c.188.53.566.971.827 1.01.352.023.36-.035-.01-.327-.269-.187-.453-.54-.423-.743.034-.232-.13-.522-.348-.644-.384-.205-.373-.084-.046.704m7.934.794c-.408.353-.417.411-.035.231.282-.106.56.024.74.406.188.324.39.56.46.483.067-.05-.055-.423-.293-.813-.373-.677-.46-.69-.872-.307m-6.035-.424c-.272.434-.257.732.138 1.264.3.37.948 1.383 1.444 2.226.497.843.96 1.504 1.06 1.43.262-.168-.59-1.804-1.584-3.076-1.078-1.314-1.145-1.856-.168-1.859l.65.008-.607-.297c-.417-.18-.695-.104-.933.305m71.226 10.109c-.026.173-.165.507-.29.755-.126.248-.127.455.047.48.434.065.716-.633.495-1.14-.106-.281-.222-.298-.252-.096m-62.033-8.831c-.025.173.076.484.191.709.144.228.402.68.615 1.038.185.352.17.054-.075-.692-.402-1.273-.645-1.634-.73-1.055m11.476 2.444c.456.719.862 1.371.911 1.438.02.062.107.075.203.03.07-.078-.306-.726-.907-1.466l-1.048-1.31zm-6.885-1.466c-.022.144.1.31.275.336.144.022.224-.114.159-.272-.062-.187-.19-.324-.276-.337-.058-.008-.133.099-.159.273m2.583.946c.307.519.702 1.05.92 1.172.186.146.04-.26-.313-.875-.833-1.367-1.387-1.626-.607-.297m-11.587-2.107c-.056.377.354 1.207.55 1.088.07-.078.001-.414-.187-.738-.184-.353-.337-.523-.363-.35m63.845 9.782c-.205.383-.18.417.244.154.552-.332.636-.497.259-.553-.144-.021-.377.151-.503.399M70.8 60.93c.047.273-.257.524-.903.694-.552.125-.88.343-.72.455.128.138.617.033 1.07-.225.84-.468 1.33-.187.929.522-.117.19.03.39.291.428.609.09.795-.562.246-.851a.69.69 0 0 1-.29-.635c.03-.203-.135-.493-.325-.61q-.408-.238-.299.222m2.339.2c.172.232.39.353.49.28.1-.075-.018-.27-.295-.4-.38-.234-.413-.21-.195.12m52.778 7.959c-.374.329-.35.362.077.278.274-.049.507-.221.528-.366.056-.376-.126-.344-.605.088m-59.461-8.805c-.237.202.245 1.339.593 1.39.115.017.117-.19-.052-.451-.14-.258-.179-.589-.037-.745.25-.289-.142-.436-.504-.194m56.716 8.752c-.129.07-.25.288-.276.462s.124.166.356-.006c.2-.148.321-.367.276-.462-.074-.1-.252-.097-.356.006m-45.148-6.323c-.022.145.102.31.276.337.144.021.224-.115.158-.272-.06-.187-.188-.324-.275-.337-.058-.009-.133.098-.159.272m-3.943.036c.173.232.392.354.492.28s-.02-.27-.296-.4c-.38-.233-.413-.209-.195.12m11.053 1.908c-.021.145.102.311.276.337.144.021.224-.115.159-.272-.062-.187-.19-.324-.276-.337-.058-.009-.133.098-.159.272m-23.193-2.884c-.315.131-.287.342.094.961.41.623.465.66.33.168-.097-.34-.09-.783-.002-.977.205-.384.151-.421-.422-.152m3.919.524c-.129.07-.25.288-.276.462-.026.173.123.166.356-.007.2-.148.321-.366.276-.462-.074-.1-.252-.096-.356.007m1.232.271c-.017.116.127.345.32.433.244.154.235.212-.054.169-.294-.014-.316.13-.128.661.334.938 1.143 2.064 1.204 1.659.026-.174-.06-.394-.217-.535-.132-.109-.15-.378-.034-.568.117-.19.011-.471-.232-.626-.33-.167-.334-.345-.07-.72.291-.371.25-.496-.209-.593-.285-.072-.558-.024-.58.12m8.244 1.492c-.146.185-.209.412-.135.512.222.3.567-.034.483-.46-.069-.336-.126-.345-.348-.052m44.379 6.918c-.021.145-.233.173-.476.018-.384-.205-.393-.147-.127.455.217.535.328.581.438.242.092-.222.296-.4.441-.378.144.022.282-.106.303-.25.026-.174-.072-.307-.246-.333a.294.294 0 0 0-.333.246M82.044 65.53c-.021.144.072.513.182.766s.247.333.268.188c.026-.174-.071-.514-.182-.767-.11-.253-.242-.361-.268-.188m34.732 5.309c-.021.144.102.31.276.336.144.022.224-.114.158-.272-.061-.187-.188-.324-.275-.337-.058-.008-.133.099-.159.273M69.32 64.112c-.342.305-.318.545.117 1.201.287.457.464.661.374.47-.065-.157-.133-.7-.122-1.172.05-.732-.028-.803-.37-.499m1.548.142c-.075.107-.089.4.05.658.151.377.218.328.296-.193.099-.666-.025-.832-.346-.465m1.405.504c-.108.132.039.538.343.88.526.64.526.64.258-.14-.35-1.028-.35-1.028-.6-.74m1.7.312c-.109.132-.073.285.072.307.174.026.34-.098.362-.242.026-.174-.015-.299-.073-.307-.087-.013-.249.081-.362.242m39.386 6.059c-.234.379-.209.412.119.195.233-.173.354-.391.28-.491s-.269.019-.399.296m1.594.029a.315.315 0 0 0 .247.333.294.294 0 0 0 .333-.247c.025-.173-.073-.306-.247-.332a.294.294 0 0 0-.333.246m-39.005-5.233c-.138.128-.11.34.022.448.128.137.339.109.447-.023.138-.127.11-.339-.022-.447-.128-.137-.339-.11-.447.022m1.519.729c-.047.319.027.418.148.2.117-.19.127-.455.053-.555-.07-.128-.182.032-.2.355m30.294 4.294c-.109.132-.019.323.196.473.219.121.43.093.451-.052.056-.376-.426-.714-.647-.421m-33.224-4.699c-.022.144.212.564.541.938l.556.645-.472-.81c-.258-.453-.492-.872-.512-.934q-.075-.1-.113.16m-3.263.048c.164.291.378.441.445.392.233-.172-.09-.783-.438-.834-.174-.026-.2.147-.007.442m41.146 5.965c-.021.145.102.311.276.337.144.022.224-.114.159-.272-.062-.187-.189-.324-.276-.337-.058-.008-.133.099-.159.272M98.146 70.91c-.047.318.027.418.148.2.117-.19.127-.455.053-.555-.07-.129-.182.032-.2.355m1.457-.05c-.026.174.159.527.418.772.407.446.407.446.084-.165a15 15 0 0 1-.39-.767q-.073-.1-.112.16m2.149.675c-.108.132-.018.322.197.473.218.12.43.093.451-.052.056-.376-.426-.714-.648-.421m-11.619-.691c-.038.26.076.485.221.506.174.026.307-.073.328-.217a.56.56 0 0 0-.22-.507c-.132-.108-.294-.014-.329.218m71.517-31.063c-.436.35-.699.725-.601.858.099.133.281.1.423-.056a.75.75 0 0 1 .68-.195c.455.127.597-.03.7-.724.095-.637-.299-.577-1.202.117m-19.712-1.005c-1.169.891-1.519 1.253-1.258 1.292.058.009.752-.48 1.555-1.1s1.352-1.13 1.236-1.148c-.145-.021-.83.41-1.533.956m11.41 1.104c-.253.11-.399.295-.325.395.102.104.351.022.593-.208.478-.432.4-.503-.268-.188m3.552.794c-2.557 1.07-3.372 3.168-1.979 5.15 1.482 2.173 3.882 2.56 5.953.973 1.568-1.187 1.941-2.7 1.083-4.1-1.239-2.018-3.193-2.811-5.057-2.023m3.219 1.248c1.394.976 1.41 3.257.062 4.358-.275.255-.963.508-1.54.6-.82.144-1.192.06-1.972-.47-1.885-1.257-1.901-3.538.018-4.702 1.105-.665 2.31-.604 3.432.214"/><path fill="#5d89b4" d="M157.25 42.707c-1.426 1.031-.102 3.27 1.583 2.691.813-.293 1.192-.651 1.291-1.317.108-.724-.604-1.51-1.531-1.647-.463-.07-1.073.047-1.343.273m1.87.959c.066.157-.089.4-.318.544-.519.308-.918-.195-.526-.64.283-.313.693-.282.844.096m3.062-2.474c-.109.131-.101.28.073.306.145.022.398-.089.506-.22.113-.161.101-.281-.073-.307a.6.6 0 0 0-.506.22m1.152 1.207c-.341.305-.325.396.081.456.405.06.421.151.08.456-.375.329-.35.362.048.273.274-.048.495-.34.513-.663.001-.799-.214-.95-.722-.522m7.026 1.725c-.325.395.197 1.064.719.935.456-.08.469-.167.12-.604-.42-.565-.589-.62-.839-.331m-5.024-.451c-.742.008-1.873.846-2.267 1.705-.289.548-.21.62.676.633a2.5 2.5 0 0 0 1.73-.69c1.199-1.094 1.14-1.695-.139-1.648m-28.414-1.618c-.242.438.09 1.789.393 1.538.1-.074.052-.347-.087-.605-.214-.357-.192-.502.09-.608a.4.4 0 0 1 .529.227c.106.282.226.27.389-.031.122-.219.165-.508.091-.608-.296-.399-1.162-.35-1.405.087m15.098 2.184c-.159.272-.052.348.366.32.663-.078.852-.553.244-.643-.231-.035-.489.104-.61.323m-16.711-1.684c-.645.555-.645.555.073.307.373-.122.706-.368.727-.513.065-.434-.093-.37-.8.206m3.82 1.781c-.765.567-.586 2.546.178 2.186.22-.085.541-.452.742-.807.673-1.142.045-2.094-.92-1.38m14.405 2.26c-.047.318.843 1.101 1.306 1.17.286.072.2-.148-.208-.593-.666-.691-1.05-.896-1.098-.578m-19.871-2.33c-.128.07-.271.433-.289.755-.082.55-.053.555.302-.044.393-.651.387-1.007-.013-.711m.55.88c-.038.26.076.485.221.506.174.026.307-.073.328-.217a.56.56 0 0 0-.22-.507c-.132-.108-.294-.014-.329.218m15.672 3.097c-.108.133-.014.294.218.329.261.039.485-.076.506-.22.026-.174-.072-.307-.217-.329a.56.56 0 0 0-.507.22m-16.543-2.013c-.121.218-.094.43.051.451.174.026.32-.16.354-.391.035-.232.007-.443-.051-.451-.058-.01-.204.176-.354.39m20.786 3.74c-.129.07-.259.346-.297.606-.056.377.002.385.252.097.175-.181.448-.23.634-.083.234.212.222.299-.098.459-.349.155-.357.213-.068.256.55.081.916-.781.495-1.14-.445-.391-.648-.421-.918-.195m-17.056-2.15c-.287.135-.333.247-.13.277.174.026.456-.08.564-.212.284-.313.168-.33-.434-.065m.787.679c-.026.174.089.398.221.507.161.112.294.014.328-.218.039-.26-.047-.48-.221-.506-.144-.022-.306.073-.328.217m-1.536-.021c-.142.157-.086.58.094.961.364.735.86.986.933.494.026-.174-.131-.316-.363-.35s-.42-.358-.422-.743-.1-.518-.242-.362m-.743 4.594c.256.275.602.534.747.555.174.026.059-.198-.225-.477-.255-.275-.602-.533-.747-.555-.173-.026-.059.198.225.477m10.454 3.358c-.122.219-.114.368.048.273.315-.13 1.944 1.059 1.897 1.377-.022.145.11.253.255.275.174.026.324-.189.363-.45.056-.376.147-.392.369-.093.443.599 1.122.611 1.002.031-.094-.369.006-.443.332-.246.219.12.671.07.97-.152.499-.37.503-.399-.073-.307-1.301.191-3.506-.107-4.228-.628-.586-.442-.735-.435-.935-.08m23.02 3.243c-.286.135-.332.246-.13.277.174.025.456-.08.565-.213.283-.312.167-.33-.435-.064M6.228 17.814c.328.582 1.296 1.436 1.335 1.175.013-.087-.37-.499-.81-.92-.623-.594-.763-.645-.525-.255m2.746 36.475L7.63 55.36l1.418-.972c1.284-.875 1.555-1.1 1.323-1.135-.058-.009-.69.46-1.397 1.035m-3.522 2.584-.816.707.914-.574c.824-.558 1.06-.76.829-.794-.058-.008-.457.287-.927.661m74.019 14.814c-.581.328-.586.357.099.133.373-.122.693-.282.702-.34.034-.231-.12-.195-.8.207"/></svg>